<?xml version="1.0" encoding="iso-8859-1"?>
<!-- Generator: Adobe Illustrator 19.0.0, SVG Export Plug-In . SVG Version: 6.00 Build 0)  -->
<svg version="1.1" id="Layer_1" xmlns="http://www.w3.org/2000/svg" xmlns:xlink="http://www.w3.org/1999/xlink" x="0px" y="0px"
	 viewBox="0 0 512 512" style="enable-background:new 0 0 512 512;" xml:space="preserve">
<g>
	<g>
		<circle cx="357.038" cy="220.596" r="8.17"/>
	</g>
</g>
<g>
	<g>
		<circle cx="324.357" cy="187.915" r="8.17"/>
	</g>
</g>
<g>
	<g>
		<path d="M490.878,371.814c-12.366-17.794-29.189-31.668-48.869-40.358l-15.563-136.011c-4.145-36.227-19.442-69.603-44.237-96.519
			c-23.132-25.11-52.53-42.463-85.36-50.46v-7.616C296.851,18.325,278.526,0,256,0s-40.851,18.325-40.851,40.851v7.622
			c-32.474,7.902-61.598,24.963-84.66,49.699c-25.211,27.041-40.75,60.679-44.936,97.273L69.99,331.457
			c-19.678,8.69-36.502,22.564-48.869,40.358c-13.64,19.624-20.849,42.672-20.849,66.654c0,4.512,3.658,8.17,8.17,8.17h495.115
			c4.512,0,8.17-3.658,8.17-8.17C511.728,414.487,504.518,391.438,490.878,371.814z M231.489,40.851
			c0-13.516,10.995-24.511,24.511-24.511c13.516,0,24.511,10.995,24.511,24.511v5.941l-49.021-0.305V40.851z M16.936,430.297
			c3.042-38.281,27.329-71.314,63.609-85.539c2.815-1.105,4.791-3.673,5.134-6.678l16.107-140.777
			c7.559-66.075,58.038-120.999,123.078-134.259c0.07-0.013,0.138-0.027,0.207-0.042c0.334-0.068,0.668-0.142,1.003-0.207
			l61.753,0.383c65.621,13.664,114.761,67.469,122.387,134.125l15.067,131.678H175.605c-4.512,0-8.17,3.658-8.17,8.17
			c0,4.512,3.658,8.17,8.17,8.17h257.218c35.516,14.514,59.238,47.181,62.241,84.976H16.936z"/>
	</g>
</g>
<g>
	<g>
		<path d="M316.416,464.078c-3.904-2.259-8.903-0.927-11.164,2.978c-10.211,17.643-29.187,28.603-49.525,28.603
			s-39.314-10.96-49.525-28.603c-2.259-3.905-7.258-5.239-11.164-2.978c-3.905,2.26-5.239,7.258-2.978,11.164
			C205.182,497.915,229.579,512,255.728,512s50.545-14.085,63.667-36.758C321.655,471.336,320.321,466.337,316.416,464.078z"/>
	</g>
</g>
<g>
	<g>
		<path d="M142.924,328.982h-32.681c-4.512,0-8.17,3.658-8.17,8.17c0,4.512,3.658,8.17,8.17,8.17h32.681
			c4.512,0,8.17-3.658,8.17-8.17C151.094,332.64,147.436,328.982,142.924,328.982z"/>
	</g>
</g>
<g>
</g>
<g>
</g>
<g>
</g>
<g>
</g>
<g>
</g>
<g>
</g>
<g>
</g>
<g>
</g>
<g>
</g>
<g>
</g>
<g>
</g>
<g>
</g>
<g>
</g>
<g>
</g>
<g>
</g>
</svg>
