<?xml version="1.0" encoding="iso-8859-1"?>
<!-- Generator: Adobe Illustrator 19.0.0, SVG Export Plug-In . SVG Version: 6.00 Build 0)  -->
<svg version="1.1" id="Layer_1" xmlns="http://www.w3.org/2000/svg" xmlns:xlink="http://www.w3.org/1999/xlink" x="0px" y="0px"
	 viewBox="0 0 512 512" style="enable-background:new 0 0 512 512;" xml:space="preserve">
<g>
	<g>
		<path d="M503.83,204.255h-41.768c-5.059-20.232-13.031-39.475-23.769-57.37l29.538-29.538c3.191-3.191,3.191-8.364,0-11.554
			L406.208,44.17c-3.191-3.191-8.364-3.191-11.554,0l-29.538,29.538c-17.895-10.738-37.138-18.711-57.37-23.769V8.17
			c0-4.512-3.658-8.17-8.17-8.17h-87.149c-4.512,0-8.17,3.658-8.17,8.17v41.768c-20.232,5.059-39.475,13.031-57.37,23.769
			l-29.538-29.538c-3.191-3.191-8.364-3.191-11.554,0l-61.625,61.623c-3.191,3.191-3.191,8.364,0,11.554l29.538,29.538
			c-10.738,17.895-18.711,37.139-23.769,57.37H8.17c-4.512,0-8.17,3.658-8.17,8.17v87.149c0,4.512,3.658,8.17,8.17,8.17h41.768
			c5.059,20.232,13.031,39.475,23.769,57.37l-29.538,29.538c-3.191,3.191-3.191,8.364,0,11.554l61.623,61.623
			c3.191,3.191,8.364,3.191,11.554,0l29.538-29.538c17.895,10.738,37.139,18.711,57.37,23.769v41.77c0,4.512,3.658,8.17,8.17,8.17
			h87.149c4.512,0,8.17-3.658,8.17-8.17v-41.768c20.232-5.059,39.475-13.031,57.37-23.769l29.538,29.538
			c3.191,3.191,8.364,3.191,11.554,0l61.623-61.623c3.191-3.191,3.191-8.364,0-11.554l-29.538-29.538
			c10.738-17.895,18.711-37.138,23.769-57.37h41.77c4.512,0,8.17-3.658,8.17-8.17v-87.149
			C512,207.913,508.342,204.255,503.83,204.255z M495.66,291.404h-40.079c-3.843,0-7.168,2.679-7.984,6.435
			c-4.962,22.831-13.889,44.382-26.536,64.052c-2.078,3.233-1.623,7.477,1.095,10.195l28.344,28.344L400.431,450.5l-28.344-28.344
			c-2.719-2.718-6.964-3.175-10.195-1.095c-19.671,12.646-41.22,21.575-64.052,26.536c-3.756,0.817-6.435,4.141-6.435,7.984v40.079
			h-70.808v-40.079c0-3.843-2.679-7.168-6.435-7.984c-22.831-4.962-44.382-13.889-64.052-26.536
			c-3.234-2.08-7.478-1.623-10.195,1.095L111.569,450.5L61.5,400.431l28.344-28.344c2.718-2.718,3.174-6.962,1.095-10.195
			c-12.646-19.671-21.575-41.22-26.536-64.052c-0.817-3.756-4.141-6.435-7.984-6.435H16.34v-70.808h40.079
			c3.843,0,7.168-2.679,7.984-6.435c4.962-22.831,13.889-44.382,26.536-64.052c2.078-3.233,1.623-7.477-1.095-10.195L61.5,111.569
			L111.569,61.5l28.344,28.344c2.717,2.718,6.962,3.174,10.195,1.095c19.671-12.646,41.22-21.575,64.052-26.536
			c3.756-0.817,6.435-4.141,6.435-7.984V16.34h70.808v40.079c0,3.843,2.679,7.168,6.435,7.984
			c22.831,4.962,44.382,13.889,64.052,26.536c3.232,2.078,7.476,1.622,10.195-1.095L400.431,61.5l50.069,50.069l-28.344,28.344
			c-2.718,2.718-3.174,6.962-1.095,10.195c12.646,19.671,21.575,41.22,26.536,64.052c0.817,3.756,4.141,6.435,7.984,6.435h40.079
			V291.404z"/>
	</g>
</g>
<g>
	<g>
		<path d="M256,177.021c-43.549,0-78.979,35.429-78.979,78.979c0,43.549,35.429,78.979,78.979,78.979
			c43.549,0,78.979-35.429,78.979-78.979S299.549,177.021,256,177.021z M256,318.638c-34.539,0-62.638-28.099-62.638-62.638
			s28.099-62.638,62.638-62.638s62.638,28.099,62.638,62.638S290.539,318.638,256,318.638z"/>
	</g>
</g>
<g>
	<g>
		<path d="M346.427,190.496c-2.649-3.653-7.758-4.464-11.411-1.814c-3.653,2.65-4.464,7.758-1.815,11.411
			c11.853,16.335,18.118,35.668,18.118,55.907c0,52.56-42.76,95.319-95.319,95.319S160.681,308.56,160.681,256
			s42.76-95.319,95.319-95.319c20.239,0,39.572,6.265,55.908,18.117c3.652,2.649,8.761,1.838,11.411-1.815
			c2.65-3.653,1.838-8.761-1.815-11.411C302.36,151.683,279.709,144.34,256,144.34c-61.57,0-111.66,50.09-111.66,111.66
			S194.43,367.66,256,367.66S367.66,317.57,367.66,256C367.66,232.291,360.317,209.64,346.427,190.496z"/>
	</g>
</g>
<g>
</g>
<g>
</g>
<g>
</g>
<g>
</g>
<g>
</g>
<g>
</g>
<g>
</g>
<g>
</g>
<g>
</g>
<g>
</g>
<g>
</g>
<g>
</g>
<g>
</g>
<g>
</g>
<g>
</g>
</svg>
