<svg viewBox="0 0 512 512" xmlns="http://www.w3.org/2000/svg"><path d="m512 256c0 141.386719-114.613281 256-256 256s-256-114.613281-256-256 114.613281-256 256-256 256 114.613281 256 256zm0 0" fill="#22b27f"/><path d="m160 420h20v80.527344c-6.796875-2.109375-13.460938-4.507813-20-7.15625zm265-40h-50c-8.269531 0-15-6.730469-15-15v-35c0-5.523438-4.476562-10-10-10s-10 4.476562-10 10v35c0 19.300781 15.699219 35 35 35h50c8.269531 0 15 6.730469 15 15s-6.730469 15-15 15h-110c-19.300781 0-35 15.699219-35 35v45.871094c6.746094-.628906 13.417969-1.511719 20-2.652344v-43.21875c0-8.269531 6.730469-15 15-15h110c19.300781 0 35-15.699219 35-35s-15.699219-35-35-35zm0 0" fill="#028f5d"/><path d="m372.449219 313.109375c1.917969 3.539063 3.003906 7.585937 3.003906 11.890625 0 13.808594-11.191406 25-25 25-13.804687 0-25-11.191406-25-25 0-4.304688 1.089844-8.351562 3.003906-11.890625-66.617187-14.738281-117.546875-93.980469-117.546875-163.5625 0-77.070313 62.476563-139.546875 139.542969-139.546875 77.070313 0 139.546875 62.476562 139.546875 139.546875 0 69.582031-50.933594 148.824219-117.550781 163.5625zm0 0" fill="#fd0464"/><path d="m395.871094 305.066406c-72.855469-7.449218-130.507813-103.53125-130.507813-187.253906 0-36.109375 10.734375-69.378906 28.777344-95.972656 17.222656-7.605469 36.273437-11.839844 56.3125-11.839844 77.070313 0 139.546875 62.476562 139.546875 139.546875 0 61.167969-39.359375 129.800781-94.128906 155.519531zm0 0" fill="#fd3980"/><path d="m399.453125 100c-13.804687 0-25-11.191406-25-25s11.195313-25 25-25c13.808594 0 25 11.191406 25 25s-11.191406 25-25 25zm35 10c-11.042969 0-20 8.953125-20 20s8.957031 20 20 20c11.046875 0 20-8.953125 20-20s-8.953125-20-20-20zm0 0" fill="#fda0c1"/><path d="m192.449219 403.109375c1.917969 3.539063 3.003906 7.585937 3.003906 11.890625 0 13.808594-11.191406 25-25 25-13.804687 0-25-11.191406-25-25 0-4.304688 1.089844-8.351562 3.003906-11.890625-66.613281-14.738281-117.546875-93.980469-117.546875-163.5625 0-77.070313 62.476563-139.546875 139.542969-139.546875 77.070313 0 139.546875 62.476562 139.546875 139.546875 0 69.582031-50.933594 148.824219-117.550781 163.5625zm0 0" fill="#fde803"/><path d="m215.871094 395.066406c-72.855469-7.449218-130.507813-103.53125-130.507813-187.253906 0-36.109375 10.734375-69.378906 28.777344-95.972656 17.222656-7.605469 36.273437-11.839844 56.3125-11.839844 77.070313 0 139.546875 62.476562 139.546875 139.546875 0 61.167969-39.359375 129.800781-94.128906 155.519531zm0 0" fill="#fdf061"/><path d="m219.453125 190c-13.804687 0-25-11.191406-25-25s11.195313-25 25-25c13.808594 0 25 11.191406 25 25s-11.191406 25-25 25zm35 10c-11.042969 0-20 8.953125-20 20s8.957031 20 20 20c11.046875 0 20-8.953125 20-20s-8.953125-20-20-20zm0 0" fill="#fdf7bd"/></svg>