<svg viewBox="0 0 512 512" xmlns="http://www.w3.org/2000/svg"><path d="m512 256c0 141.386719-114.613281 256-256 256s-256-114.613281-256-256 114.613281-256 256-256 256 114.613281 256 256zm0 0" fill="#463b83"/><path d="m474.214844 330 7.179687 47.46875c-5.15625 9.550781-10.902343 18.730469-17.1875 27.5-11.535156-4.910156-22.941406-10.085938-34.207031-15.539062-62.925781-30.449219-121.46875-69.320313-174-115.574219-66.328125 58.40625-142.238281 105.046875-224.460938 137.820312-2.65625 1.054688-5.539062-.898437-5.539062-3.757812l11.867188-78.472657c7.378906-48.785156 7.371093-98.410156-.019532-147.195312l-11.847656-78.167969c0-2.859375 2.882812-4.8125 5.539062-3.753906 82.222657 32.769531 158.132813 79.410156 224.460938 137.816406 66.328125-58.40625 142.238281-105.046875 224.460938-137.816406 2.65625-1.058594 5.539062.894531 5.539062 3.753906l-11.847656 78.167969c-7.390625 48.785156-7.398438 98.410156-.019532 147.195312zm0 0" fill="#01bff9"/><path d="m480.222656 379.597656c-4.851562 8.78125-10.195312 17.246094-16.007812 25.359375-11.535156-4.90625-22.949219-10.066406-34.214844-15.519531-49.847656-24.125-96.941406-53.542969-140.476562-87.722656-1.757813 2.867187-4.914063 4.785156-8.523438 4.785156h-50c-3.609375 0-6.765625-1.921875-8.523438-4.785156-57.96875 45.511718-122.246093 82.582031-190.9375 109.960937-2.65625 1.054688-5.539062-.898437-5.539062-3.757812l4.179688-27.628907c59.515624-25.382812 115.519531-58.125 166.75-97.382812l-68.65625 5.34375c-5.269532.410156-9.84375-3.703125-9.914063-9.070312-.0625-4.902344 3.914063-8.917969 8.800781-9.300782l93.195313-7.25c.21875-.015625.429687-.0625.644531-.101562v-13.066406c-.167969-.027344-.328125-.066407-.503906-.078126l-93.648438-7.285156c-5.066406-.394531-8.855468-4.820312-8.460937-9.886718.394531-5.066407 4.820312-8.855469 9.886719-8.460938l92.726562 7.214844v-15.464844c0-5.523438 4.476562-10 10-10h50c5.523438 0 10 4.476562 10 10v15.464844l92.726562-7.210938c5.066407-.394531 9.492188 3.390625 9.886719 8.457032.394531 5.066406-3.394531 9.492187-8.460937 9.886718l-93.648438 7.285156c-.175781.011719-.335937.050782-.503906.078126v13.070312c.214844.035156.425781.082031.644531.101562l93.195313 7.25c4.882812.378907 8.863281 4.394532 8.800781 9.296876-.070313 5.367187-4.648437 9.480468-9.914063 9.070312l-68.65625-5.339844c36.085938 27.652344 74.546876 52.054688 114.929688 72.945313 16.433594 8.5 33.179688 16.425781 50.222656 23.742187zm0 0" fill="#08a8f0"/><path d="m269.75 280h-27.5c-11.734375 0-21.25-9.515625-21.25-21.25v-43.25c0-5.523438 4.476562-10 10-10h50c5.523438 0 10 4.476562 10 10v43.25c0 11.734375-9.515625 21.25-21.25 21.25zm0 0" fill="#01bff9"/><path d="m280 235c0 8.285156-6.714844 15-15 15s-15-6.714844-15-15 6.714844-15 15-15 15 6.714844 15 15zm-185-25c-8.285156 0-15 6.714844-15 15s6.714844 15 15 15 15-6.714844 15-15-6.714844-15-15-15zm30 100c-8.285156 0-15 6.714844-15 15s6.714844 15 15 15 15-6.714844 15-15-6.714844-15-15-15zm60-40c-8.285156 0-15 6.714844-15 15s6.714844 15 15 15 15-6.714844 15-15-6.714844-15-15-15zm145 10c-8.285156 0-15 6.714844-15 15s6.714844 15 15 15 15-6.714844 15-15-6.714844-15-15-15zm95-15c-8.285156 0-15 6.714844-15 15s6.714844 15 15 15 15-6.714844 15-15-6.714844-15-15-15zm-235-70c-8.285156 0-15 6.714844-15 15s6.714844 15 15 15 15-6.714844 15-15-6.714844-15-15-15zm145 10c-8.285156 0-15 6.714844-15 15s6.714844 15 15 15 15-6.714844 15-15-6.714844-15-15-15zm0 0" fill="#62dafa"/><path d="m110 265c0 8.285156-6.714844 15-15 15s-15-6.714844-15-15 6.714844-15 15-15 15 6.714844 15 15zm5-115c-8.285156 0-15 6.714844-15 15s6.714844 15 15 15 15-6.714844 15-15-6.714844-15-15-15zm290 175c-8.285156 0-15 6.714844-15 15s6.714844 15 15 15 15-6.714844 15-15-6.714844-15-15-15zm20-100c-8.285156 0-15 6.714844-15 15s6.714844 15 15 15 15-6.714844 15-15-6.714844-15-15-15zm0 0" fill="#028fce"/><path d="m260 275c0 8.285156-6.714844 15-15 15s-15-6.714844-15-15 6.714844-15 15-15 15 6.714844 15 15zm-110-45c-8.285156 0-15 6.714844-15 15s6.714844 15 15 15 15-6.714844 15-15-6.714844-15-15-15zm-75 75c-8.285156 0-15 6.714844-15 15s6.714844 15 15 15 15-6.714844 15-15-6.714844-15-15-15zm330-135c-8.285156 0-15 6.714844-15 15s6.714844 15 15 15 15-6.714844 15-15-6.714844-15-15-15zm-35 75c-8.285156 0-15 6.714844-15 15s6.714844 15 15 15 15-6.714844 15-15-6.714844-15-15-15zm0 0" fill="#c7eefd"/></svg>