<?xml version="1.0" encoding="iso-8859-1"?>
<!-- Generator: Adobe Illustrator 19.0.0, SVG Export Plug-In . SVG Version: 6.00 Build 0)  -->
<svg version="1.1" id="Layer_1" xmlns="http://www.w3.org/2000/svg" xmlns:xlink="http://www.w3.org/1999/xlink" x="0px" y="0px"
	 viewBox="0 0 512 512" style="enable-background:new 0 0 512 512;" xml:space="preserve">
<circle id="bg_10_" style="fill:#E27C3E;" cx="256" cy="256" r="256"/>
<path style="fill:#E8CAA8;" d="M255.352,263.413h-80.805c0,0,1.795,50.225,3.531,85.318c0.599,11.433,6.182,43.639,20.137,64.917
	c1.537,2.133,3.105,4.24,4.672,6.299c0.006,0.008,0.012,0.016,0.021,0.026l0,0c7.735,10.156,18.612,19.597,23.248,22.708
	c13.494,9.055,23.403,8.002,29.195,8.002c5.788,0,17.707,0.023,29.2-8.002c4.573-3.197,15.51-12.552,23.246-22.708l0,0
	c0.006-0.011,0.015-0.019,0.021-0.026c1.566-2.059,3.136-4.166,4.669-6.299c13.962-21.278,19.541-53.484,20.14-64.917
	c1.736-35.093,3.528-85.318,3.528-85.318H255.352z"/>
<path style="fill:#442404;" d="M264.513,201.82c-78.654,0-94.444,40.25-92.301,97.113c0.742,19.762,5.958,51.623,5.958,51.623
	c-0.792-15.734-1.599-34.84-2.248-51.151l0.01,0.054c0-6.041,2.819-11.787,9.793-11.545c3.013,0.598,24.416,23.178,41.498,31.061
	c-2.889-6.043-1.105-13.664-1.105-13.664c3.473,7.621,34.225,22.299,34.225,22.299c7.619-2.849,25.005-18.505,32.853-25.191
	c-1.054,3.943-10.254,13.402-10.254,13.402c6.565-2.887,28.075-23.123,36.376-26.416c2.439-0.876,4.309-1.444,5.676-1.49
	c6.938-0.242,9.763,5.442,9.796,11.445c-0.652,16.32-1.462,35.449-2.251,51.197c3.617-19.578,5.753-39.999,6.738-51.983
	C345.041,228.722,312.397,201.82,264.513,201.82z"/>
<polygon style="fill:#FFFFFF;" points="153.57,115.78 172.103,286.689 339.893,286.689 358.422,115.78 "/>
<path style="fill:#FFFFFF;" d="M358.422,115.78c0-14.532-11.151-26.442-25.354-27.681c-6.941-6.719-16.377-10.869-26.795-10.869
	c-2.502,0-4.943,0.258-7.314,0.713c-9.906-10.258-23.778-16.659-39.166-16.659c-15.79,0-29.966,6.755-39.92,17.482
	c-3.398-0.982-6.979-1.536-10.698-1.536c-10.38,0-19.786,4.125-26.715,10.801c-0.366-0.015-0.721-0.055-1.087-0.055
	c-15.355,0-27.804,12.447-27.804,27.804c0,15.354,12.448,27.805,27.804,27.805c0.366,0,0.721-0.04,1.087-0.056
	c6.929,6.676,16.335,10.801,26.715,10.801c3.719,0,7.301-0.555,10.698-1.537c9.954,10.729,24.13,17.482,39.92,17.482
	c15.388,0,29.26-6.402,39.166-16.659c2.37,0.456,4.811,0.714,7.314,0.714c10.418,0,19.853-4.151,26.795-10.869
	C347.271,142.223,358.422,130.31,358.422,115.78z"/>
<path style="fill:#DDDDDD;" d="M165.623,138.693l2.033,0.933c0.686,0.288,1.34,0.676,2.052,0.882l2.091,0.629
	c0.696,0.192,1.349,0.475,2.087,0.53c1.45,0.136,2.828,0.573,4.27,0.521l2.135,0.01c0.724,0.033,1.382,0,2.142-0.121l0.384-0.061
	l0.655,0.467c1.324,0.951,2.495,2.066,3.9,2.874c1.322,0.92,2.742,1.665,4.171,2.379c0.691,0.398,1.459,0.644,2.183,0.97
	c0.742,0.283,1.439,0.672,2.213,0.871l2.266,0.708c0.747,0.255,1.542,0.345,2.308,0.526c1.527,0.401,3.111,0.459,4.663,0.68
	c0.774,0.105,1.566,0.059,2.346,0.097l1.177,0.031l0.292,0.007l0.146,0.005l0.039,0.001c0.044-0.001-0.366,0.014-0.188,0.007h0.009
	l0.02-0.003l0.077-0.008l0.629-0.061l2.513-0.243c0.818-0.099,1.712-0.122,2.472-0.282c1.456-0.375,2.896-0.758,4.355-1.062
	l1.728-0.361l1.232,1.184l3.781,3.623l4.121,3.225l4.41,2.807l4.639,2.406l4.862,1.924l5.035,1.428l5.157,0.966l5.24,0.433
	c0.599,0.1,1.754-0.02,2.605-0.014l2.769-0.036c1.811-0.065,3.439-0.369,5.188-0.532c1.727-0.214,3.445-0.742,5.195-1.047
	c1.736-0.391,3.403-1.029,5.128-1.531c1.688-0.584,3.296-1.381,4.984-2.029c1.635-0.753,3.194-1.668,4.814-2.502
	c1.552-0.932,3.061-1.955,4.615-2.942l4.395-3.361c-1.221,1.382-2.414,2.821-3.695,4.189c-1.384,1.239-2.736,2.556-4.186,3.757
	c-1.534,1.083-3.028,2.256-4.622,3.277c-1.641,0.936-3.263,1.95-4.984,2.76c-1.75,0.731-3.472,1.602-5.278,2.222
	c-1.832,0.565-3.633,1.206-5.539,1.62c-1.902,0.342-3.897,0.823-5.761,1.033c-1.909,0.148-3.514,0.385-5.679,0.406
	c-1.933-0.066-3.871-0.091-5.806-0.207l-5.768-0.804l-5.645-1.473l-5.464-2.061l-5.226-2.608c-1.661-1.012-3.267-2.118-4.898-3.178
	l-4.537-3.668l-4.146-4.097l2.96,0.82c-1.828,0.411-3.674,0.745-5.502,1.084c-0.896,0.132-1.697,0.108-2.549,0.169l-2.52,0.127
	l-0.631,0.031l-0.078,0.004l-0.237,0.008l-0.042-0.002l-0.167-0.012l-0.336-0.023l-1.347-0.095
	c-0.896-0.083-1.795-0.085-2.683-0.241c-1.771-0.307-3.543-0.582-5.249-1.145c-0.854-0.271-1.733-0.451-2.558-0.801l-2.483-0.992
	c-0.84-0.295-1.599-0.781-2.4-1.164c-0.782-0.417-1.593-0.78-2.316-1.305c-1.491-0.957-2.953-1.942-4.287-3.098
	c-1.411-1.051-2.6-2.364-3.851-3.576l1.04,0.406c-0.727,0.02-1.549-0.047-2.305-0.185l-2.308-0.33
	c-1.537-0.161-2.987-0.814-4.449-1.229c-0.738-0.183-1.42-0.605-2.11-0.929l-2.046-1.027c-0.667-0.35-1.224-0.854-1.84-1.273
	L165.623,138.693z"/>
<path style="fill:#FFFFFF;" d="M255.997,394.217H211.68v1.121c10.653,27.75,44.317,25.506,44.317,25.506s33.664,2.244,44.315-25.506
	v-1.121H255.997z"/>
<path style="fill:#442404;" d="M250.566,377.373c0,0-0.718-0.127-2.063-0.367c-1.334-0.211-3.32-0.384-5.81-0.415
	c-2.495-0.039-5.505,0.249-8.902,0.789c-3.4,0.571-7.17,1.578-11.246,2.799c-1.016,0.327-2.052,0.663-3.105,1.003l-1.51,0.52
	l-1.629,0.635c-1.161,0.406-1.995,0.917-3.028,1.357c-0.997,0.51-2.033,1.023-3.037,1.604c-4.046,2.309-7.849,5.443-11.368,9.04
	c-3.52,3.614-6.512,7.939-9.025,12.624c-2.558,4.666-4.514,9.793-5.919,15.094l-0.283,0.988l-0.378,1.237
	c-0.214,0.671-0.414,1.339-0.863,2.341c-0.769,1.893-1.706,3.318-2.855,4.843c-2.308,2.949-5.568,5.146-8.966,6.339
	c-6.91,2.37-13.92,1.038-19.553-1.837c-2.823-1.493-5.398-3.432-7.433-5.851c-2.007-2.438-3.469-5.315-4.15-8.293
	c-0.718-2.914-0.554-6.132-0.015-8.514c0.574-2.67,1.494-5.089,2.771-7.236c2.543-4.342,6.503-7.111,10.175-8.318
	c3.692-1.275,7.119-1.221,9.751-0.663c2.668,0.524,4.523,1.792,5.458,2.85c0.462,0.552,0.724,1.026,0.857,1.358
	c0.119,0.334,0.182,0.508,0.182,0.508s-0.307-0.719-1.375-1.492c-1.072-0.76-2.939-1.371-5.336-1.393
	c-2.385-0.022-5.31,0.582-8.138,2.083c-2.814,1.525-5.381,4.103-6.869,7.52c-0.738,1.711-1.186,3.67-1.349,5.629
	c-0.232,2.229-0.102,3.974,0.529,5.87c1.206,3.676,4.422,6.812,8.507,8.669c4.073,1.859,9.049,2.196,13.003,0.779
	c1.954-0.757,3.627-1.936,4.854-3.566c0.572-0.784,1.209-1.822,1.495-2.631c0.176-0.308,0.398-1.027,0.607-1.744l0.596-1.938
	c1.676-5.869,3.986-11.621,7.018-16.915c3.028-5.294,6.875-10.032,11.145-14.003c4.252-4.01,9.107-7.027,13.92-9.275
	c1.212-0.555,2.43-1.027,3.642-1.504c1.241-0.387,2.578-0.884,3.677-1.113l1.694-0.418c0.605-0.131,1.2-0.261,1.792-0.391
	c1.135-0.222,2.248-0.439,3.341-0.652c4.374-0.824,8.489-1.148,12.122-1.235c3.645-0.074,6.821,0.32,9.37,0.803
	c2.558,0.488,4.479,1.189,5.768,1.673C249.894,377.091,250.566,377.373,250.566,377.373z"/>
<path style="fill:#442404;" d="M261.375,377.373c0,0,0.673-0.282,1.933-0.812c1.289-0.483,3.209-1.184,5.767-1.673
	c2.549-0.483,5.727-0.877,9.371-0.803c3.632,0.087,7.747,0.411,12.121,1.235c1.093,0.213,2.206,0.431,3.341,0.652
	c0.593,0.13,1.188,0.26,1.793,0.391l1.693,0.418c1.1,0.229,2.437,0.727,3.678,1.113c1.212,0.477,2.43,0.949,3.642,1.504
	c4.811,2.248,9.668,5.266,13.92,9.275c4.27,3.971,8.117,8.709,11.145,14.003c3.031,5.294,5.342,11.046,7.018,16.915l0.596,1.938
	c0.208,0.717,0.432,1.436,0.607,1.744c0.285,0.809,0.923,1.847,1.494,2.631c1.227,1.631,2.9,2.81,4.854,3.566
	c3.954,1.417,8.93,1.08,13.003-0.779c4.085-1.857,7.301-4.993,8.507-8.669c0.632-1.896,0.763-3.642,0.53-5.87
	c-0.164-1.959-0.61-3.918-1.349-5.629c-1.489-3.416-4.056-5.994-6.869-7.52c-2.829-1.501-5.753-2.105-8.138-2.083
	c-2.397,0.022-4.264,0.634-5.336,1.393c-1.069,0.773-1.376,1.492-1.376,1.492s0.062-0.174,0.182-0.508
	c0.134-0.332,0.396-0.807,0.857-1.358c0.936-1.058,2.79-2.325,5.458-2.85c2.633-0.558,6.06-0.612,9.752,0.663
	c3.671,1.207,7.631,3.977,10.174,8.318c1.277,2.147,2.197,4.566,2.773,7.236c0.539,2.382,0.702,5.6-0.016,8.514
	c-0.682,2.978-2.144,5.855-4.15,8.293c-2.033,2.419-4.609,4.357-7.432,5.851c-5.634,2.875-12.643,4.207-19.554,1.837
	c-3.397-1.192-6.657-3.39-8.965-6.339c-1.149-1.524-2.088-2.949-2.855-4.843c-0.45-1.002-0.649-1.67-0.864-2.341l-0.378-1.237
	l-0.283-0.988c-1.405-5.301-3.361-10.428-5.919-15.094c-2.513-4.685-5.506-9.01-9.025-12.624c-3.52-3.597-7.322-6.731-11.369-9.04
	c-1.003-0.58-2.039-1.094-3.037-1.604c-1.033-0.44-1.866-0.951-3.027-1.357l-1.629-0.635l-1.51-0.52
	c-1.054-0.34-2.09-0.676-3.105-1.003c-4.076-1.221-7.846-2.228-11.246-2.799c-3.397-0.54-6.408-0.828-8.903-0.789
	c-2.489,0.031-4.475,0.204-5.809,0.415C262.093,377.246,261.375,377.373,261.375,377.373z"/>
<g>
</g>
<g>
</g>
<g>
</g>
<g>
</g>
<g>
</g>
<g>
</g>
<g>
</g>
<g>
</g>
<g>
</g>
<g>
</g>
<g>
</g>
<g>
</g>
<g>
</g>
<g>
</g>
<g>
</g>
</svg>
