<?xml version="1.0" encoding="iso-8859-1"?>
<!-- Generator: Adobe Illustrator 19.0.0, SVG Export Plug-In . SVG Version: 6.00 Build 0)  -->
<svg version="1.1" id="Layer_1" xmlns="http://www.w3.org/2000/svg" xmlns:xlink="http://www.w3.org/1999/xlink" x="0px" y="0px"
	 viewBox="0 0 512 512" style="enable-background:new 0 0 512 512;" xml:space="preserve">
<path id="bg_8_" style="fill:#EFC84A;" d="M512,256.001C512,397.387,397.385,512,256.002,512C114.613,512,0,397.387,0,256.001
	C0,114.616,114.613,0,256.002,0C397.385,0,512,114.616,512,256.001z"/>
<path style="fill:#1F2D39;" d="M343.285,176.463c0,3.367-2.73,6.098-6.1,6.098h-207.05c-3.367,0-6.098-2.73-6.098-6.098v-42.872
	c0-3.368,2.731-6.098,6.098-6.098h207.051c3.369,0,6.1,2.73,6.1,6.098L343.285,176.463L343.285,176.463z"/>
<rect x="127.822" y="328.404" style="fill:#1F2D39;" width="215.207" height="24.899"/>
<rect x="141.162" y="328.404" style="fill:#3E4B55;" width="51.834" height="24.899"/>
<path style="fill:#1F2D39;" d="M413.691,139.884h-90.269c-13.871,0-25.113,11.246-25.113,25.114v105.967
	c0,13.87,11.242,46.457,25.113,46.457h90.269c13.871,0,25.113-11.244,25.113-25.114v-127.31
	C438.805,151.13,427.562,139.884,413.691,139.884z M419.746,280.986c0,10.104-8.189,18.3-18.299,18.3h-65.781
	c-10.109,0-18.301-32.588-18.301-42.692V179.37c0-10.107,8.191-21.35,18.301-21.35h65.781c10.109,0,18.299,8.194,18.299,18.301
	V280.986z"/>
<path style="fill:#EDEDED;" d="M104.744,159.412l0.146,151.953c0,13.87,11.242,25.113,25.111,25.113h208.047
	c13.869,0,25.111-11.243,25.111-25.113V159.412H104.744z"/>
<path style="fill:#FFFFFF;" d="M116.514,159.778l0.131,144.408c0,12.298,9.969,22.269,22.269,22.269h188.748
	c12.301,0,22.272-9.971,22.272-22.269V159.778H116.514z"/>
<rect x="104.744" y="140.599" style="fill:#1F2D39;" width="258.416" height="18.813"/>
<rect x="126.469" y="140.599" style="fill:#3E4B55;" width="48.545" height="18.813"/>
<rect x="144.258" y="127.444" style="fill:#3E4B55;" width="36.502" height="13.068"/>
<path style="fill:#FFFFFF;" d="M126.49,278.617c-2.527,0-4.574-2.047-4.574-4.573v-44.45c0-2.526,2.047-4.574,4.574-4.574
	c2.525,0,4.572,2.047,4.572,4.574v44.45C131.062,276.57,129.016,278.617,126.49,278.617z"/>
<path style="fill:#383333;" d="M116.633,291.816l0.012,12.37c0,8.681,4.976,16.183,12.225,19.856v-32.226L116.633,291.816
	L116.633,291.816z"/>
<rect x="128.869" y="159.523" style="fill:#EDEDED;" width="31.498" height="132.293"/>
<path style="fill:#5C5858;" d="M128.869,291.816v32.226c3.02,1.531,6.426,2.413,10.045,2.413h21.453v-34.639H128.869z"/>
<path style="fill:#383333;" d="M335.406,291.816v33.228c8.477-3.149,14.527-11.287,14.527-20.858v-12.37H335.406z"/>
<rect x="160.367" y="291.816" style="fill:#383333;" width="150.141" height="34.639"/>
<rect x="310.508" y="159.693" style="fill:#EDEDED;" width="24.898" height="132.123"/>
<path style="fill:#5C5858;" d="M310.508,291.816v34.639h17.154c2.729,0,5.33-0.515,7.744-1.411v-33.228H310.508z"/>
<path style="fill:#FF6507;" d="M391.307,378.457c0,3.368-2.73,6.099-6.1,6.099H79.295c-3.369,0-6.1-2.73-6.1-6.099v-19.818
	c0-3.367,2.73-6.098,6.1-6.098h305.912c3.369,0,6.1,2.73,6.1,6.098L391.307,378.457L391.307,378.457z"/>
<rect x="149.168" y="218.641" style="fill:#A1A1A1;" width="34.301" height="4.827"/>
<rect x="149.168" y="237.697" style="fill:#A1A1A1;" width="34.301" height="4.827"/>
<rect x="149.168" y="256.753" style="fill:#A1A1A1;" width="34.301" height="4.826"/>
<rect x="149.168" y="275.809" style="fill:#A1A1A1;" width="34.301" height="4.827"/>
<rect x="100.891" y="352.542" style="fill:#FF7924;" width="35.064" height="31.761"/>
<g>
</g>
<g>
</g>
<g>
</g>
<g>
</g>
<g>
</g>
<g>
</g>
<g>
</g>
<g>
</g>
<g>
</g>
<g>
</g>
<g>
</g>
<g>
</g>
<g>
</g>
<g>
</g>
<g>
</g>
</svg>
