<?xml version="1.0" encoding="iso-8859-1"?>
<!-- Generator: Adobe Illustrator 19.0.0, SVG Export Plug-In . SVG Version: 6.00 Build 0)  -->
<svg version="1.1" id="Layer_1" xmlns="http://www.w3.org/2000/svg" xmlns:xlink="http://www.w3.org/1999/xlink" x="0px" y="0px"
	 viewBox="0 0 512 512" style="enable-background:new 0 0 512 512;" xml:space="preserve">
<path id="bg_14_" style="fill:#E05B49;" d="M512,256.002C512,397.387,397.387,512,255.996,512C114.614,512,0,397.387,0,256.002
	S114.614,0,255.996,0C397.387,0,512,114.617,512,256.002z"/>
<polygon style="fill:#B3493A;" points="252.747,148.074 241.671,148.074 239.417,122.744 82.344,122.744 80.096,148.074 
	69.013,148.074 69.013,157.469 72.193,157.469 90.014,421.836 231.74,421.836 249.564,157.469 252.747,157.469 "/>
<polygon style="fill:#B3493A;" points="429.472,158.695 419.343,158.695 417.279,135.529 273.638,135.529 271.58,158.695 
	261.447,158.695 261.447,167.285 264.353,167.285 280.652,409.049 410.261,409.049 426.564,167.285 429.472,167.285 "/>
<polygon style="fill:#EFEFEF;" points="337.011,438.299 174.989,438.299 154.524,134.723 357.476,134.723 "/>
<polygon style="fill:#CCCCCC;" points="256.002,134.723 154.524,134.723 174.989,438.299 256.002,438.299 "/>
<rect x="150.979" y="125.33" style="fill:#334D5C;" width="210.046" height="10.742"/>
<polygon style="fill:#334D5C;" points="345.786,96.373 166.218,96.373 162.808,134.711 349.195,134.711 "/>
<circle style="fill:#45B39C;" cx="257.087" cy="279.521" r="83.568"/>
<path style="fill:#FFFFFF;" d="M179.143,279.522c0-43.049,34.899-77.943,77.942-77.943c43.044,0,77.943,34.895,77.943,77.943
	c0,43.045-34.899,77.941-77.943,77.941C214.042,357.463,179.143,322.566,179.143,279.522z"/>
<path style="fill:#45B39C;" d="M182.207,279.522c0-41.356,33.532-74.877,74.878-74.877c41.35,0,74.879,33.521,74.879,74.877
	c0,41.353-33.529,74.875-74.879,74.875C215.739,354.397,182.207,320.875,182.207,279.522z"/>
<path style="fill:#FFFFFF;" d="M217.916,279.522c0-21.635,17.538-39.168,39.169-39.168c21.632,0,39.17,17.533,39.17,39.168
	c0,21.627-17.538,39.166-39.17,39.166C235.454,318.688,217.916,301.148,217.916,279.522z"/>
<circle style="fill:#45B39C;" cx="257.087" cy="279.521" r="33.704"/>
<rect x="150.979" y="125.33" style="fill:#20353F;" width="105.026" height="10.742"/>
<polygon style="fill:#20353F;" points="163.377,128.295 255.704,128.295 255.704,96.373 166.218,96.373 "/>
<path style="fill:#FFFFFF;" d="M212.185,326.631l-4.996,3.898c-1.111-0.754-1.981-1.531-2.603-2.33
	c-2.156-2.762-2.867-5.81-2.135-9.148c0.735-3.336,2.793-6.324,6.175-8.963c3.142-2.451,6.408-3.609,9.806-3.471
	c3.394,0.139,6.124,1.531,8.191,4.18c0.805,1.027,1.405,2.08,1.805,3.154l-5.011,3.91c-0.408-1.152-0.93-2.131-1.561-2.939
	c-0.968-1.24-2.338-1.826-4.112-1.76c-1.771,0.064-3.537,0.783-5.291,2.152c-1.891,1.476-3.063,3.055-3.517,4.736
	c-0.452,1.68-0.143,3.209,0.93,4.586C210.392,325.307,211.163,325.973,212.185,326.631z"/>
<path style="fill:#FFFFFF;" d="M222.57,343.156c-2.781-1.633-4.279-3.941-4.487-6.93c-0.212-2.986,0.863-6.494,3.225-10.516
	c2.177-3.713,4.606-6.178,7.286-7.393c2.683-1.215,5.332-1.055,7.956,0.482c2.793,1.637,4.317,3.93,4.573,6.875
	c0.259,2.947-0.744,6.352-3.011,10.213c-2.263,3.863-4.749,6.434-7.452,7.713C227.956,344.881,225.259,344.732,222.57,343.156z
	 M233.519,324.045c-1.885-1.105-4.124,0.555-6.718,4.98c-1.673,2.85-2.549,4.891-2.632,6.125c-0.08,1.234,0.33,2.117,1.238,2.65
	c0.977,0.572,2.007,0.535,3.091-0.113c1.081-0.647,2.438-2.361,4.07-5.143C235.203,328.051,235.52,325.219,233.519,324.045z"/>
<path style="fill:#FFFFFF;" d="M246.503,323.935l12.188,1.248l-0.581,5.686l-6.163-0.631l-0.497,4.852l5.428,0.555l-0.566,5.508
	l-5.429-0.555l-1.074,10.496l-6.023-0.615L246.503,323.935z"/>
<path style="fill:#FFFFFF;" d="M260.513,324.861l12.044-2.242l1.048,5.617l-6.092,1.135l0.894,4.795l5.362-0.998l1.016,5.441
	l-5.366,0.998l1.933,10.377l-5.952,1.107L260.513,324.861z"/>
<path style="fill:#FFFFFF;" d="M273.828,321.945l10.57-6.193l2.87,4.896l-5.345,3.133l2.486,4.242l4.636-2.719l2.802,4.775
	l-4.639,2.719l2.456,4.191l5.378-3.154l2.882,4.914l-10.605,6.215L273.828,321.945z"/>
<path style="fill:#FFFFFF;" d="M286.14,313.973l8.069-9.217l4.269,3.736l-4.079,4.662l3.698,3.238l3.543-4.045l4.166,3.646
	l-3.54,4.045l3.653,3.199l4.105-4.693l4.288,3.752l-8.096,9.248L286.14,313.973z"/>
<path style="fill:#FFFFFF;" d="M193.366,253.793l4.931-10.346l4.365,2.082l-1.426,2.99l14.738,7.025l-2.093,4.395l-14.739-7.027
	l-1.411,2.963L193.366,253.793z"/>
<path style="fill:#FFFFFF;" d="M227.367,240.189l-3.207,3.828l-3.228-1.652l-3.258,3.889l2.171,2.914l-3.148,3.754l-12.616-17.891
	l3.46-4.133L227.367,240.189z M217.425,240.627c-2.873-1.471-5.518-2.982-7.926-4.533l-0.042,0.049c2.001,2.172,3.954,4.506,5.859,7
	L217.425,240.627z"/>
<path style="fill:#FFFFFF;" d="M217.773,221.578l4.195-2.336l4.841,8.701l0.068-0.039L226,217l4.407-2.451l0.961,11.836l9.147,6.758
	l-4.615,2.566l-7.849-5.699l-0.071,0.037l4.278,7.689l-4.198,2.336L217.773,221.578z"/>
<path style="fill:#FFFFFF;" d="M237.731,212.615l9.549-1.791l0.831,4.424l-4.83,0.904l0.721,3.834l4.189-0.785l0.81,4.314
	l-4.192,0.787l0.712,3.785l4.862-0.912l0.831,4.441l-9.582,1.797L237.731,212.615z"/>
<path style="fill:#FFFFFF;" d="M268.344,232.551l-4.979-0.387l-0.533-3.586l-5.059-0.391l-1.111,3.459l-4.883-0.377l7.227-20.666
	l5.374,0.414L268.344,232.551z M262.207,224.715c-0.474-3.195-0.78-6.225-0.92-9.086l-0.062-0.006
	c-0.605,2.891-1.367,5.836-2.29,8.838L262.207,224.715z"/>
<path style="fill:#FFFFFF;" d="M276.171,212.324l4.106,2.1l-3.383,12.603l0.057,0.027l8.013-10.234l3.725,1.904l-3.513,12.375
	l0.056,0.029l8.058-10.051l4.222,2.156l-14.151,16.533l-3.868-1.977l2.516-9.342c0.275-1.025,0.566-1.998,0.87-2.922l-0.054-0.027
	c-0.982,1.338-1.649,2.225-2.004,2.662l-5.955,7.262l-3.812-1.949L276.171,212.324z"/>
<path style="fill:#FFFFFF;" d="M296.374,254.314l-3.186-3.846l2.21-2.877l-3.237-3.906l-3.257,1.607l-3.127-3.773l19.882-9.174
	l3.436,4.15L296.374,254.314z M297.74,244.457c1.966-2.562,3.931-4.887,5.89-6.977l-0.038-0.051c-2.499,1.574-5.146,3.074-7.944,4.5
	L297.74,244.457z"/>
<path style="fill:#FFFFFF;" d="M313.979,243.09l2.317,4.867c-2.236,2.385-3.984,4.176-5.241,5.371l0.027,0.057
	c1.757-0.238,4.246-0.475,7.458-0.703l2.37,4.982l-12.904-0.15l-8.646,4.111l-2.087-4.397l8.646-4.109L313.979,243.09z"/>
<g>
</g>
<g>
</g>
<g>
</g>
<g>
</g>
<g>
</g>
<g>
</g>
<g>
</g>
<g>
</g>
<g>
</g>
<g>
</g>
<g>
</g>
<g>
</g>
<g>
</g>
<g>
</g>
<g>
</g>
</svg>
