<?xml version="1.0" encoding="iso-8859-1"?>
<!-- Generator: Adobe Illustrator 19.0.0, SVG Export Plug-In . SVG Version: 6.00 Build 0)  -->
<svg version="1.1" id="Layer_1" xmlns="http://www.w3.org/2000/svg" xmlns:xlink="http://www.w3.org/1999/xlink" x="0px" y="0px"
	 viewBox="0 0 512 512" style="enable-background:new 0 0 512 512;" xml:space="preserve">
<circle id="bg_coke" style="fill:#45B39C;" cx="256" cy="256" r="256"/>
<path style="fill:#BFBFBF;" d="M338.567,369.107c-14.123-9.48-45.77-16.09-82.562-16.09c-36.801,0-68.441,6.609-82.562,16.09h-7.877
	v11.091c0,15.009,40.488,27.179,90.439,27.179c49.945,0,90.438-12.17,90.438-27.179v-11.091H338.567z"/>
<rect x="161.417" y="169.328" style="fill:#E25337;" width="189.17" height="196.258"/>
<path style="fill:#E83C25;" d="M350.587,147.29c0-9.153-7.42-16.57-16.568-16.57h-156.03c-9.15,0-16.572,7.417-16.572,16.57v212.932
	c0,1.082,0.113,2.137,0.314,3.163c-0.188,0.727-0.314,1.459-0.314,2.2c0,15.699,42.352,28.425,94.588,28.425
	s94.582-12.726,94.582-28.425c0-0.741-0.125-1.473-0.307-2.2c0.195-1.026,0.307-2.081,0.307-3.163V147.29z"/>
<path style="fill:#C62E1E;" d="M318.982,386.789c19.387-5.207,31.605-12.773,31.605-21.203c0-0.741-0.125-1.473-0.307-2.2
	c0.195-1.026,0.307-2.081,0.307-3.163V147.29c0-9.153-7.42-16.57-16.568-16.57H306.36l9.781,32.467c0,0,12.227-0.33,12.227,42.463
	c0,42.791,0,131.217,0,148.264C328.368,370.96,327.741,384.701,318.982,386.789z"/>
<path style="fill:#EF897B;" d="M194.679,387.216c-0.344-0.982-0.531-1.979-0.531-2.988c0-0.742,0.125-1.473,0.307-2.201
	c-0.195-1.025-0.307-2.08-0.307-3.164V165.932c0-9.152,7.42-16.571,16.568-16.571h-12.01c-9.154,0-16.572,7.419-16.572,16.571
	v212.931c0,1.084,0.109,2.139,0.311,3.164c-0.113,0.439-0.188,0.883-0.24,1.326C185.946,384.757,190.124,386.05,194.679,387.216z"/>
<path style="fill:#EFBDB9;" d="M248.505,393.914c2.477,0.059,4.971,0.097,7.5,0.097c29.594,0,56.008-4.087,73.35-10.483
	c5.822-41.574,10.381-109.926-25.797-150.617c-32.93-37.042,0.5-85.554,17.756-96.646c-45.648-8.006-65.309,0-65.309,0
	s2.123,58.627,34.244,96.788C320.237,268.678,301.007,356.558,248.505,393.914z"/>
<path style="fill:#EFBDB9;" d="M288.472,345.269c32.623-65.453,5.816-95.958-9.73-119.203c-32.213-48.158-22.736-68.87-22.736-68.87
	s-7.82,0.828-19.006-0.829c-2.072,39.354,17.4,60.48,47.227,94.451C314.05,284.787,296.517,327.869,288.472,345.269z"/>
<path style="fill:#BFBFBF;" d="M338.567,131.802c-14.123-9.48-45.77-16.089-82.562-16.089c-36.801,0-68.441,6.608-82.562,16.089
	h-7.877v11.089c0,15.012,40.488,27.181,90.439,27.181c49.945,0,90.438-12.169,90.438-27.181v-11.089H338.567z"/>
<path style="fill:#FFFFFF;" d="M346.442,131.802c0,15.009-40.492,27.179-90.438,27.179c-49.951,0-90.439-12.17-90.439-27.179
	c0-15.011,40.488-27.18,90.439-27.18C305.95,104.622,346.442,116.791,346.442,131.802z"/>
<path style="fill:#BFBFBF;" d="M222.841,135.034c0-3.172-3.01-5.76-6.895-6.151v-0.006l-25.623-3.639v0.006
	c-0.902-0.161-1.842-0.254-2.811-0.254c-7.021,0-12.715,4.498-12.715,10.044c0,5.547,5.693,10.043,12.715,10.043
	c1.223,0,2.393-0.143,3.51-0.396l24.924-3.443v-0.053C219.831,140.794,222.841,138.205,222.841,135.034z M189.358,140.146
	c0,1.195-0.967,2.166-2.166,2.166c-1.195,0-2.164-0.971-2.164-2.166V129.41c0-1.196,0.969-2.167,2.164-2.167
	c1.199,0,2.166,0.971,2.166,2.167V140.146z"/>
<path style="fill:#EFEFEF;" d="M244.384,104.853l34.227,53.272c15.754-1.22,29.842-3.682,41.045-7.02l-28.494-44.353
	c-10.807-1.371-22.691-2.13-35.156-2.13C252.062,104.622,248.19,104.705,244.384,104.853z"/>
<path style="fill:#BFBFBF;" d="M256.005,111.086c46.305,0,84.461,10.462,89.777,23.948c0.42-1.06,0.66-2.138,0.66-3.232
	c0-15.011-40.492-27.18-90.438-27.18c-49.951,0-90.439,12.169-90.439,27.18c0,1.094,0.234,2.172,0.654,3.232
	C171.544,121.548,209.696,111.086,256.005,111.086z"/>
<g>
</g>
<g>
</g>
<g>
</g>
<g>
</g>
<g>
</g>
<g>
</g>
<g>
</g>
<g>
</g>
<g>
</g>
<g>
</g>
<g>
</g>
<g>
</g>
<g>
</g>
<g>
</g>
<g>
</g>
</svg>
