<svg viewBox="0 0 512 512" xmlns="http://www.w3.org/2000/svg"><path d="m512 256c0 141.386719-114.613281 256-256 256s-256-114.613281-256-256 114.613281-256 256-256 256 114.613281 256 256zm0 0" fill="#813873"/><path d="m452 431c0 8.285156-6.714844 15-15 15h-326c-8.285156 0-15-6.714844-15-15 0-4.917969 2.378906-9.269531 6.03125-12.003906l-66.03125-282.996094 142.003906 109.730469 77.996094-179.730469 77.996094 179.730469 142.003906-109.730469-59.265625 254h.265625c8.285156 0 15 6.714844 15 15 0 4.351562-1.863281 8.261719-4.824219 11h9.824219c8.285156 0 15 6.714844 15 15zm0 0" fill="#ffdf8e"/><path d="m389.976562 379.335938c.378907 5.820312-4.234374 10.664062-9.976562 10.664062h-257c-8.285156 0-15 6.714844-15 15 0 4.351562 1.863281 8.261719 4.824219 11h-1.824219c-8.285156 0-15 6.714844-15 15s6.714844 15 15 15h-26.558594c-7.882812-7.117188-15.320312-14.71875-22.261718-22.757812 2.628906-4.335938 7.378906-7.242188 12.820312-7.242188h9.824219c-2.960938-2.738281-4.824219-6.648438-4.824219-11 0-8.285156 6.714844-15 15-15h.265625l-12.304687-52.746094c-4.480469-1.011718-8.738282-3.25-12.226563-6.738281-9.8125-9.8125-9.8125-25.71875 0-35.53125.625-.628906 1.277344-1.210937 1.953125-1.757813l-32.070312-137.445312c-1.492188.308594-3.035157.46875-4.617188.46875-12.5625 0-22.75-10.1875-22.75-22.75s10.1875-22.75 22.75-22.75 22.75 10.1875 22.75 22.75c0 5.949219-2.289062 11.367188-6.027344 15.421875l12.554688 9.703125 14.359375 61.523438c3.167969 13.578124 15.269531 23.183593 29.214843 23.183593h70.191407l70.332031-162.066406c-9.332031-2.835937-16.125-11.503906-16.125-21.765625 0-12.5625 10.1875-22.75 22.75-22.75s22.75 10.1875 22.75 22.75c0 10.261719-6.792969 18.929688-16.125 21.765625l8.375 19.296875-49.824219 114.808594c-5.730469 13.207031 3.949219 27.960937 18.347657 27.960937h160.132812c5.328125 0 9.976562 4.019531 10.320312 9.335938.378907 5.824219-4.234374 10.664062-9.976562 10.664062h-286.09375c-12.367188 0-21.507812 11.519531-18.695312 23.5625.136718.59375.300781 1.175781.449218 1.765625 3.882813 1.152344 7.539063 3.257813 10.605469 6.324219 7.667969 7.667969 9.34375 19.058594 5.027344 28.351563 19.609375 28.53125 52.386719 46.664062 88.644531 46.664062h179.71875c5.328125 0 9.976562 4.019531 10.320312 9.335938zm86.023438-268.585938c-12.5625 0-22.75 10.1875-22.75 22.75s10.1875 22.75 22.75 22.75 22.75-10.1875 22.75-22.75-10.1875-22.75-22.75-22.75zm-243.15625 178.84375c-12.792969 12.789062-12.792969 33.523438 0 46.3125 12.789062 12.789062 33.523438 12.789062 46.3125 0s12.789062-33.523438 0-46.3125c-12.789062-12.792969-33.523438-12.792969-46.3125 0zm-84.859375 5.390625c-9.8125 9.8125-9.8125 25.71875 0 35.53125s25.71875 9.8125 35.53125 0 9.8125-25.71875 0-35.53125-25.71875-9.8125-35.53125 0zm180.5 0c-9.8125 9.8125-9.8125 25.71875 0 35.53125s25.71875 9.8125 35.53125 0 9.8125-25.71875 0-35.53125-25.71875-9.8125-35.53125 0zm77.25 0c-9.8125 9.8125-9.8125 25.71875 0 35.53125s25.71875 9.8125 35.53125 0 9.8125-25.71875 0-35.53125-25.71875-9.8125-35.53125 0zm0 0" fill="#f8bb5e"/><path d="m278.75 59.5c0 2.964844-.574219 5.796875-1.605469 8.394531-2.597656 1.03125-5.429687 1.605469-8.394531 1.605469-12.5625 0-22.75-10.1875-22.75-22.75 0-2.964844.574219-5.796875 1.605469-8.394531 2.597656-1.03125 5.429687-1.605469 8.394531-1.605469 12.5625 0 22.75 10.1875 22.75 22.75zm197.25 51.25c-2.964844 0-5.796875.574219-8.394531 1.605469-1.03125 2.597656-1.605469 5.429687-1.605469 8.394531 0 12.5625 10.1875 22.75 22.75 22.75 2.964844 0 5.796875-.574219 8.394531-1.605469 1.03125-2.597656 1.605469-5.429687 1.605469-8.394531 0-12.5625-10.1875-22.75-22.75-22.75zm-440 0c-2.964844 0-5.796875.574219-8.394531 1.605469-1.03125 2.597656-1.605469 5.429687-1.605469 8.394531 0 12.5625 10.1875 22.75 22.75 22.75 2.964844 0 5.796875-.574219 8.394531-1.605469 1.03125-2.597656 1.605469-5.429687 1.605469-8.394531 0-12.5625-10.1875-22.75-22.75-22.75zm0 0" fill="#ffe899"/><path d="m272.085938 296.664062c8.886718 8.882813 8.886718 23.289063 0 32.171876-8.882813 8.886718-23.289063 8.886718-32.171876 0-8.882812-8.886719-8.882812-23.289063 0-32.171876 8.882813-8.886718 23.289063-8.886718 32.171876 0zm-194.761719 4.910157c-6.171875 6.171875-6.171875 16.179687 0 22.351562s16.179687 6.171875 22.351562 0 6.171875-16.179687 0-22.351562-16.179687-6.171875-22.351562 0zm77.25 0c-6.171875 6.171875-6.171875 16.179687 0 22.351562s16.179687 6.171875 22.351562 0 6.171875-16.179687 0-22.351562-16.179687-6.171875-22.351562 0zm280.101562 0c-6.171875-6.171875-16.179687-6.171875-22.351562 0s-6.171875 16.179687 0 22.351562 16.179687 6.171875 22.351562 0 6.171875-16.179687 0-22.351562zm-99.601562 0c-6.171875 6.171875-6.171875 16.179687 0 22.351562s16.179687 6.171875 22.351562 0 6.171875-16.179687 0-22.351562-16.179687-6.171875-22.351562 0zm0 0" fill="#fd0464"/><path d="m272.085938 296.664062c6.792968 6.789063 8.386718 16.808594 4.792968 25.121094-8.3125 3.59375-18.328125 2-25.121094-4.792968-6.792968-6.792969-8.386718-16.808594-4.792968-25.121094 8.3125-3.59375 18.328125-2 25.121094 4.792968zm-112.613282 1.582032c-2.496094 5.773437-1.386718 12.734375 3.332032 17.453125 4.714843 4.714843 11.675781 5.824219 17.449218 3.328125 2.496094-5.773438 1.390625-12.730469-3.328125-17.453125-4.71875-4.71875-11.679687-5.824219-17.453125-3.328125zm180.5 0c-2.496094 5.773437-1.386718 12.734375 3.332032 17.453125 4.71875 4.714843 11.675781 5.824219 17.449218 3.328125 2.496094-5.773438 1.390625-12.730469-3.328125-17.453125-4.71875-4.71875-11.679687-5.824219-17.453125-3.328125zm94.703125 3.328125c-4.71875-4.71875-11.679687-5.824219-17.453125-3.328125-2.496094 5.773437-1.386718 12.730468 3.332032 17.449218s11.675781 5.828126 17.449218 3.332032c2.496094-5.773438 1.390625-12.734375-3.328125-17.453125zm-352.453125-3.328125c-2.496094 5.773437-1.386718 12.734375 3.332032 17.453125 4.714843 4.714843 11.675781 5.824219 17.449218 3.328125 2.496094-5.773438 1.390625-12.730469-3.328125-17.453125-4.71875-4.71875-11.679687-5.824219-17.453125-3.328125zm0 0" fill="#fc5e93"/></svg>