<svg viewBox="0 0 512 512" xmlns="http://www.w3.org/2000/svg"><path d="m512 256c0 141.386719-114.613281 256-256 256s-256-114.613281-256-256 114.613281-256 256-256 256 114.613281 256 256zm0 0" fill="#463b83"/><path d="m5.699219 309.882812c24.738281-115.519531 127.394531-202.140624 250.300781-202.140624s225.5625 86.621093 250.300781 202.140624c-24.746093 115.507813-127.402343 202.117188-250.300781 202.117188s-225.554688-86.609375-250.300781-202.117188zm0 0" fill="#54469b"/><path d="m343.625 45.40625c0 8.105469-6.570312 14.675781-14.675781 14.675781s-14.679688-6.570312-14.679688-14.675781 6.574219-14.675781 14.679688-14.675781 14.675781 6.570312 14.675781 14.675781zm-195.429688 3.523438c-8.425781 0-15.261718 6.832031-15.261718 15.261718 0 8.429688 6.835937 15.261719 15.261718 15.261719 8.429688 0 15.261719-6.832031 15.261719-15.261719 0-8.429687-6.832031-15.261718-15.261719-15.261718zm0 0" fill="#6354b0"/><path d="m275.5 230h-39v-229.265625c6.4375-.484375 12.9375-.734375 19.5-.734375s13.0625.25 19.5.734375zm0 0" fill="#6e61b5"/><path d="m256.5.00390625c6.390625.01171875 12.726562.25781275 19 .73046875v99.765625c0 5.246094-4.253906 9.5-9.5 9.5s-9.5-4.253906-9.5-9.5zm0 0" fill="#8279c0"/><path d="m462 344c0 31.140625-6.925781 60.660156-19.292969 87.125-46.703125 49.773438-113.070312 80.875-186.707031 80.875s-140.003906-31.101562-186.707031-80.875c-12.367188-26.464844-19.292969-55.984375-19.292969-87.125 0-113.769531 92.230469-206 206-206s206 92.230469 206 206zm0 0" fill="#01cffa"/><path d="m90 344c0 53.269531 18.394531 102.03125 48.882812 139.691406-26.148437-13.476562-49.671874-31.332031-69.613281-52.589844-12.363281-26.457031-19.269531-55.972656-19.269531-87.101562 0-104.511719 77.835938-190.839844 178.695312-204.195312-80.714843 29.246093-138.695312 109.617187-138.695312 204.195312zm0 0" fill="#08a8f0"/><path d="m256 465.28125c56.855469 0 112.105469-4.695312 164.941406-13.535156-11.328125 9.558594-23.5 18.148437-36.386718 25.648437-42.097657 5.238281-85.027344 7.886719-128.554688 7.886719s-86.457031-2.652344-128.554688-7.886719c-12.882812-7.5-25.054687-16.089843-36.386718-25.648437 52.835937 8.839844 108.085937 13.535156 164.941406 13.535156zm0-88.515625c-72.765625 0-142.269531-9.519531-205.910156-26.78125.207031 7.273437.800781 14.449219 1.746094 21.519531 65.097656 16.765625 133.675781 25.261719 204.164062 25.261719s139.066406-8.496094 204.164062-25.261719c.945313-7.066406 1.539063-14.246094 1.746094-21.519531-63.640625 17.261719-133.144531 26.78125-205.910156 26.78125zm146.667969-177.402344c-5.496094-5.570312-11.304688-10.828125-17.398438-15.746093-39.03125 12.816406-82.910156 20.023437-129.269531 20.023437s-90.238281-7.207031-129.269531-20.023437c-6.09375 4.917968-11.90625 10.175781-17.398438 15.746093 44.75 15.859375 94.769531 24.277344 146.667969 24.277344s101.917969-8.417969 146.667969-24.277344zm49.085937 80.347657c-2.152344-6.554688-4.621094-12.96875-7.394531-19.21875-56.738281 19.007812-120.714844 29.710937-188.359375 29.710937s-131.621094-10.703125-188.359375-29.710937c-2.773437 6.25-5.242187 12.664062-7.394531 19.21875 60.199218 19.949218 126.792968 30.492187 195.753906 30.492187s135.554688-10.542969 195.753906-30.492187zm0 0" fill="#01bff9"/><path d="m287.667969 341.5c0 6.71875-5.449219 12.167969-12.167969 12.167969s-12.167969-5.449219-12.167969-12.167969 5.449219-12.167969 12.167969-12.167969 12.167969 5.449219 12.167969 12.167969zm7.753906-91.621094c-5.867187.769532-9.992187 6.152344-9.21875 12.015625s6.152344 9.988281 12.015625 9.214844c5.867188-.769531 9.992188-6.152344 9.21875-12.015625s-6.152344-9.988281-12.015625-9.214844zm-8.953125-61.980468c5.867188-.773438 9.992188-6.15625 9.21875-12.019532-.773438-5.863281-6.152344-9.988281-12.015625-9.214844-5.867187.773438-9.992187 6.152344-9.21875 12.015626.773437 5.863281 6.152344 9.992187 12.015625 9.21875zm31.472656 231.566406c-5.914062.164062-10.570312 5.089844-10.40625 11.003906.164063 5.910156 5.089844 10.570312 11 10.40625 5.914063-.164062 10.574219-5.089844 10.410156-11.003906-.167968-5.910156-5.089843-10.570313-11.003906-10.40625zm0 0" fill="#01bff9"/><path d="m54 119.949219c0 8.285156-6.714844 15-15 15s-15-6.714844-15-15c0-8.28125 6.714844-15 15-15s15 6.71875 15 15zm391 40.050781c-8.285156 0-15 6.714844-15 15s6.714844 15 15 15 15-6.714844 15-15-6.714844-15-15-15zm-330-30c-8.285156 0-15 6.714844-15 15s6.714844 15 15 15 15-6.714844 15-15-6.714844-15-15-15zm370.492188 119.011719c-8.554688 0-15.492188 6.9375-15.492188 15.496093 0 8.554688 6.9375 15.492188 15.492188 15.492188 8.558593 0 15.492187-6.9375 15.492187-15.492188 0-8.558593-6.933594-15.496093-15.492187-15.496093zm0 0" fill="#8279c0"/><path d="m382.667969 349.332031c-11.046875 0-20-8.953125-20-20s8.953125-20 20-20 20 8.953125 20 20-8.953125 20-20 20zm8.570312-92.269531c9.640625-1.273438 16.425781-10.117188 15.152344-19.753906-1.269531-9.640625-10.113281-16.425782-19.753906-15.152344-9.636719 1.269531-16.421875 10.113281-15.152344 19.753906 1.273437 9.636719 10.117187 16.421875 19.753906 15.152344zm20.292969 144.230469c-9.71875.269531-17.378906 8.367187-17.105469 18.085937.269531 9.71875 8.367188 17.378906 18.085938 17.109375 9.71875-.273437 17.378906-8.371093 17.105469-18.089843-.269532-9.714844-8.367188-17.375-18.085938-17.105469zm-67.90625-293.292969c-8.285156 0-15 6.714844-15 15s6.714844 15 15 15 15-6.714844 15-15-6.714844-15-15-15zm-304.625 81.671875c-8.558594 0-15.492188 6.9375-15.492188 15.492187 0 8.558594 6.933594 15.492188 15.492188 15.492188s15.492188-6.933594 15.492188-15.492188c0-8.554687-6.933594-15.492187-15.492188-15.492187zm116.28125 7.683594c-8.425781 0-15.257812 6.832031-15.257812 15.261719 0 8.429687 6.832031 15.261718 15.257812 15.261718 8.429688 0 15.261719-6.832031 15.261719-15.261718 0-8.429688-6.832031-15.261719-15.261719-15.261719zm0 0" fill="#c7eefd"/><path d="m441 320c0 6.074219-4.925781 11-11 11s-11-4.925781-11-11 4.925781-11 11-11 11 4.925781 11 11zm-116 2.5c-8.285156 0-15 6.714844-15 15s6.714844 15 15 15 15-6.714844 15-15-6.714844-15-15-15zm27.644531-70.855469c-.953125-7.230469-7.585937-12.320312-14.816406-11.367187-7.226563.953125-12.316406 7.585937-11.363281 14.816406s7.585937 12.316406 14.816406 11.363281 12.316406-7.585937 11.363281-14.8125zm-27.449219-65.375c6.628907-.875 11.296876-6.957031 10.421876-13.585937-.875-6.632813-6.957032-11.296875-13.585938-10.421875-6.628906.871093-11.296875 6.957031-10.421875 13.585937s6.957031 11.296875 13.585937 10.421875zm35.917969 228.019531c-7.289062.203126-13.03125 6.277344-12.828125 13.566407.203125 7.289062 6.273438 13.03125 13.5625 12.828125 7.289063-.203125 13.035156-6.273438 12.832032-13.5625-.203126-7.289063-6.277344-13.035156-13.566407-12.832032zm-261.179687-40.914062c-8.554688 0-15.492188 6.9375-15.492188 15.492188 0 8.558593 6.9375 15.492187 15.492188 15.492187 8.558594 0 15.496094-6.933594 15.496094-15.492187 0-8.554688-6.9375-15.492188-15.496094-15.492188zm0 0" fill="#62dafa"/><path d="m450 84.507812c0 8.554688-6.9375 15.492188-15.492188 15.492188-8.558593 0-15.492187-6.9375-15.492187-15.492188 0-8.558593 6.933594-15.492187 15.492187-15.492187 8.554688 0 15.492188 6.933594 15.492188 15.492187zm0 0" fill="#c1bbdf"/></svg>