<?xml version="1.0" encoding="iso-8859-1"?>
<!-- Generator: Adobe Illustrator 19.0.0, SVG Export Plug-In . SVG Version: 6.00 Build 0)  -->
<svg version="1.1" id="Layer_1" xmlns="http://www.w3.org/2000/svg" xmlns:xlink="http://www.w3.org/1999/xlink" x="0px" y="0px"
	 viewBox="0 0 512.001 512.001" style="enable-background:new 0 0 512.001 512.001;" xml:space="preserve">
<path id="bg_6_" style="fill:#45B39C;" d="M512.001,256.003c0,141.383-114.613,255.998-256,255.998S0,397.385,0,256.003
	C0,114.615,114.614,0,256.001,0S512.001,114.615,512.001,256.003z"/>
<path style="fill:#BC813B;" d="M256.001,103.26c-84.358,0-152.74,68.383-152.74,152.74c0,84.354,68.382,152.736,152.74,152.736
	c84.354,0,152.736-68.383,152.736-152.736C408.737,171.643,340.355,103.26,256.001,103.26z M256.001,315.723
	c-32.988,0-59.728-26.738-59.728-59.723c0-32.988,26.739-59.727,59.728-59.727c32.983,0,59.722,26.738,59.722,59.727
	C315.723,288.984,288.984,315.723,256.001,315.723z"/>
<path style="fill:#BC813B;" d="M256.001,103.26c-84.358,0-152.74,68.383-152.74,152.74c0,84.354,68.382,152.736,152.74,152.736
	c84.354,0,152.736-68.383,152.736-152.736C408.737,171.643,340.355,103.26,256.001,103.26z M256.001,315.723
	c-32.988,0-59.728-26.738-59.728-59.723c0-32.988,26.739-59.727,59.728-59.727c32.983,0,59.722,26.738,59.722,59.727
	C315.723,288.984,288.984,315.723,256.001,315.723z"/>
<path style="fill:#FFDBB3;" d="M152.441,357.139c-1.372,0-2.743-0.549-3.751-1.636c-25.174-27.132-39.036-62.468-39.036-99.503
	c0-2.826,2.292-5.117,5.117-5.117c2.827,0,5.117,2.291,5.117,5.117c0,34.444,12.893,67.311,36.303,92.545
	c1.923,2.068,1.8,5.307-0.272,7.228C154.936,356.688,153.686,357.139,152.441,357.139z"/>
<path style="fill:#5B2B0B;" d="M319.909,117.277c-19.449-8.975-41.084-14.018-63.908-14.018c-1.816,0-3.614,0.074-5.413,0.135
	c-68.891,4.875-123.275,62.266-123.275,132.393c0,73.32,59.441,132.764,132.767,132.764c73.324,0,132.764-59.443,132.764-132.764
	C392.843,183.995,363.166,139.161,319.909,117.277z M256.001,315.723c-32.988,0-59.728-26.738-59.728-59.723
	c0-32.988,26.739-59.727,59.728-59.727c32.983,0,59.722,26.738,59.722,59.727C315.723,288.984,288.984,315.723,256.001,315.723z"/>
<path style="fill:#F4A4A4;" d="M197.399,174.455c0,2.33-1.891,4.219-4.223,4.219l0,0c-2.33,0-4.219-1.889-4.219-4.219v-17.861
	c0-2.33,1.889-4.223,4.219-4.223l0,0c2.332,0,4.223,1.893,4.223,4.223V174.455z"/>
<path style="fill:#F4E1AB;" d="M251.142,136.205c0,2.33-1.889,4.221-4.222,4.221l0,0c-2.33,0-4.221-1.891-4.221-4.221v-17.861
	c0-2.33,1.891-4.223,4.221-4.223l0,0c2.333,0,4.222,1.893,4.222,4.223V136.205z"/>
<path style="fill:#9DDBF4;" d="M309.726,168.643c0,2.332-1.891,4.221-4.222,4.221l0,0c-2.328,0-4.22-1.889-4.22-4.221v-17.859
	c0-2.33,1.892-4.223,4.22-4.223l0,0c2.331,0,4.222,1.893,4.222,4.223V168.643z"/>
<path style="fill:#9DDBF4;" d="M370.247,241.753c0,2.329-1.891,4.221-4.223,4.221l0,0c-2.331,0-4.222-1.892-4.222-4.221v-17.86
	c0-2.33,1.891-4.223,4.222-4.223l0,0c2.332,0,4.223,1.893,4.223,4.223L370.247,241.753L370.247,241.753z"/>
<path style="fill:#F4A4A4;" d="M346.522,317.766c0,2.33-1.891,4.219-4.222,4.219l0,0c-2.328,0-4.219-1.889-4.219-4.219v-17.861
	c0-2.33,1.891-4.223,4.219-4.223l0,0c2.331,0,4.222,1.893,4.222,4.223L346.522,317.766L346.522,317.766z"/>
<path style="fill:#F4E1AB;" d="M275.351,357.951c0,2.329-1.891,4.221-4.223,4.221l0,0c-2.329,0-4.221-1.892-4.221-4.221V340.09
	c0-2.33,1.892-4.223,4.221-4.223l0,0c2.332,0,4.223,1.893,4.223,4.223V357.951z"/>
<path style="fill:#F4A4A4;" d="M211.439,331.32c0,2.33-1.891,4.221-4.222,4.221l0,0c-2.33,0-4.221-1.891-4.221-4.221v-17.859
	c0-2.332,1.891-4.223,4.221-4.223l0,0c2.331,0,4.222,1.891,4.222,4.223V331.32z"/>
<path style="fill:#F4E1AB;" d="M153.341,265.961c0,2.329-1.891,4.219-4.222,4.219l0,0c-2.332,0-4.221-1.89-4.221-4.219v-17.863
	c0-2.33,1.889-4.222,4.221-4.222l0,0c2.331,0,4.222,1.892,4.222,4.222V265.961z"/>
<path style="fill:#9DDBF4;" d="M191.589,231.584c0,2.33-1.891,4.221-4.223,4.221l0,0c-2.33,0-4.221-1.891-4.221-4.221v-17.859
	c0-2.33,1.891-4.223,4.221-4.223l0,0c2.332,0,4.223,1.893,4.223,4.223V231.584z"/>
<path style="fill:#F4E1AB;" d="M358.14,187.041c0,2.33-1.891,4.221-4.222,4.221l0,0c-2.331,0-4.222-1.891-4.222-4.221V169.18
	c0-2.329,1.891-4.221,4.222-4.221l0,0c2.331,0,4.222,1.892,4.222,4.221V187.041z"/>
<path style="fill:#F2C3A2;" d="M325.564,258.096c-1.158,0-2.097-0.938-2.097-2.096c0-18.846-7.574-36.326-21.328-49.223
	c-0.842-0.793-0.884-2.118-0.092-2.965c0.792-0.845,2.117-0.887,2.963-0.093c14.396,13.497,22.649,32.552,22.649,52.28
	C327.659,257.158,326.722,258.096,325.564,258.096z"/>
<g>
</g>
<g>
</g>
<g>
</g>
<g>
</g>
<g>
</g>
<g>
</g>
<g>
</g>
<g>
</g>
<g>
</g>
<g>
</g>
<g>
</g>
<g>
</g>
<g>
</g>
<g>
</g>
<g>
</g>
</svg>
