<svg viewBox="0 0 512 512" xmlns="http://www.w3.org/2000/svg"><path d="m512 256c0 141.386719-114.613281 256-256 256s-256-114.613281-256-256 114.613281-256 256-256 256 114.613281 256 256zm0 0" fill="#463b83"/><path d="m493.238281 181.074219c-16.390625 28.6875-41.019531 55.769531-73.300781 80.53125-67.96875 52.140625-162.570312 88.519531-266.375 102.4375-43.417969 5.820312-86.304688 7.410156-127.328125 4.941406-2.878906-5.847656-5.546875-11.8125-7.980469-17.902344 42.589844 3.226563 87.46875 1.886719 133.003906-4.21875 100.851563-13.519531 192.523438-48.683593 258.132813-99.011719 27.757813-21.292968 49.335937-44.164062 64.308594-67.757812-55.988281-3.820312-115.027344-16.546875-173.277344-37.746094-69.464844-25.285156-132.039063-60.527344-182.277344-102.097656 5.171875-3.308594 10.464844-6.4375 15.878907-9.378906 47.851562 38.582031 106.902343 71.375 172.328124 95.1875 59.65625 21.714844 120.050782 34.292968 176.828126 37.253906 2.195312-4.429688 4.164062-8.875 5.890624-13.335938 2.066407 4.53125 3.984376 9.140626 5.785157 13.8125h.015625c.210937.546876.410156 1.097657.617187 1.644532.238281.625.476563 1.25.707031 1.875.578126 1.5625 1.757813 4.902344 1.792969 5 1.023438 2.960937 1.996094 5.945312 2.914063 8.953125-2.542969-.039063-5.101563-.109375-7.664063-.1875zm0 0" fill="#8279c0"/><path d="m90 255c0 8.285156-6.714844 15-15 15s-15-6.714844-15-15 6.714844-15 15-15 15 6.714844 15 15zm-20-90c0-8.285156-6.714844-15-15-15s-15 6.714844-15 15 6.714844 15 15 15 15-6.714844 15-15zm105 105c-8.285156 0-15 6.714844-15 15s6.714844 15 15 15 15-6.714844 15-15-6.714844-15-15-15zm200-200c-8.285156 0-15 6.714844-15 15s6.714844 15 15 15 15-6.714844 15-15-6.714844-15-15-15zm0 0" fill="#968dca"/><path d="m460 345c0 8.285156-6.714844 15-15 15s-15-6.714844-15-15 6.714844-15 15-15 15 6.714844 15 15zm0 0" fill="#aba4d5"/><path d="m320 35c0 8.285156-6.714844 15-15 15s-15-6.714844-15-15 6.714844-15 15-15 15 6.714844 15 15zm85 355c-8.285156 0-15 6.714844-15 15s6.714844 15 15 15 15-6.714844 15-15-6.714844-15-15-15zm0 0" fill="#54469b"/><path d="m216.605469 468.964844-40.996094 41.289062c-1.269531 1.277344-3.242187 1.542969-4.800781.644532l-50.425782-29.035157c-2.136718-1.230469-3.582031-3.382812-3.910156-5.828125l-16.371094-122.117187c-.585937-4.347657 2.46875-8.347657 6.816407-8.929688l86.621093-11.613281c4.347657-.582031 8.347657 2.46875 8.929688 6.820312l16.375 122.113282c.324219 2.445312-.5 4.902344-2.238281 6.65625zm0 0" fill="#fdb44c"/><path d="m189.886719 373.945312-52.816407 7.082032c-5.472656.734375-9.316406 5.765625-8.582031 11.238281l13.695313 102.148437-21.800782-12.550781c-2.136718-1.230469-3.582031-3.382812-3.910156-5.828125l-16.371094-122.117187c-.585937-4.347657 2.46875-8.347657 6.816407-8.929688l14.964843-2.007812 1.835938 13.714843c.734375 5.472657 5.765625 9.316407 11.242188 8.582032l53.082031-7.117188c4.523437-.605468 8.667969 2.71875 8.984375 7.34375.289062 4.222656-2.949219 7.878906-7.140625 8.441406zm0 0" fill="#fd9d01"/><path d="m359.617188 426.796875-33.203126 47.78125c-1.027343 1.480469-2.921874 2.082031-4.617187 1.46875l-54.699219-19.835937c-2.320312-.84375-4.117187-2.710938-4.863281-5.0625l-37.332031-117.417969c-1.328125-4.183594.984375-8.648438 5.164062-9.980469l83.289063-26.476562c4.183593-1.332032 8.648437.980468 9.980469 5.164062l37.328124 117.414062c.746094 2.351563.359376 4.917969-1.046874 6.945313zm0 0" fill="#62dafa"/><path d="m316.804688 337.859375-50.785157 16.148437c-5.261719 1.671876-8.171875 7.296876-6.5 12.558594l31.226563 98.21875-23.648438-8.574218c-2.320312-.84375-4.117187-2.710938-4.863281-5.0625l-37.332031-117.417969c-1.328125-4.183594.984375-8.648438 5.164062-9.980469l14.386719-4.574219 4.191406 13.1875c1.675781 5.261719 7.296875 8.171875 12.5625 6.5l51.042969-16.230469c4.347656-1.382812 9.003906 1.175782 10.121094 5.675782 1.019531 4.105468-1.535156 8.269531-5.566406 9.550781zm0 0" fill="#01bff9"/><path d="m354.816406 143.90625-42.140625 115.777344c-.84375 2.316406-2.714843 4.113281-5.070312 4.855468l-55.46875 17.5625c-1.71875.546876-3.585938-.132812-4.554688-1.65625l-31.203125-49.109374c-1.324218-2.082032-1.605468-4.660157-.761718-6.980469l42.140624-115.777344c1.5-4.121094 6.058594-6.25 10.183594-4.75l82.125 29.894531c4.121094 1.5 6.25 6.058594 4.75 10.183594zm0 0" fill="#fded32"/><path d="m338.613281 162.808594c-1.300781 4.453125-6.058593 6.8125-10.347656 5.253906l-50.328125-18.320312c-5.191406-1.890626-10.929688.785156-12.816406 5.976562l-35.25 96.847656-13.492188-21.230468c-1.324218-2.082032-1.605468-4.660157-.761718-6.980469l42.140624-115.777344c1.503907-4.121094 6.0625-6.25 10.183594-4.75l14.1875 5.164063-4.734375 13c-1.886719 5.191406.789063 10.929687 5.976563 12.820312l50.074218 18.222656c3.976563 1.449219 6.355469 5.714844 5.167969 9.773438zm0 0" fill="#e8ce00"/><path d="m76.753906 353.59375-3.375 81.785156c-25.515625-25.972656-45.535156-57.355468-58.167968-92.277344l53.933593 2.226563c4.382813.179687 7.789063 3.882813 7.609375 8.265625zm396.207032-196.277344-86.070313-15.175781c-4.320313-.761719-8.441406 2.125-9.203125 6.445313l-21.394531 121.335937c-.429688 2.429687.296875 4.921875 1.960937 6.742187l39.257813 42.945313c1.214843 1.328125 3.175781 1.675781 4.769531.839844l51.582031-26.929688c2.1875-1.140625 3.71875-3.234375 4.148438-5.660156l21.394531-121.339844c.761719-4.320312-2.125-8.441406-6.445312-9.203125zm0 0" fill="#57bd91"/><path d="m67.039062 377.046875c-.179687 4.386719-3.882812 7.792969-8.265624 7.613281l-24.730469-1.023437c-3.058594-5.300781-5.925781-10.726563-8.605469-16.257813l33.992188 1.402344c4.382812.183594 7.789062 3.882812 7.609374 8.265625zm392.90625-197.820313-52.476562-9.253906c-5.441406-.960937-9.074219-6.148437-8.113281-11.585937l2.402343-13.625-14.867187-2.621094c-4.320313-.761719-8.441406 2.125-9.203125 6.445313l-21.394531 121.335937c-.429688 2.429687.296875 4.921875 1.960937 6.742187l16.972656 18.566407 17.894532-101.496094c.960937-5.441406 6.148437-9.074219 11.585937-8.113281l52.746094 9.300781c4.496094.792969 8.773437-2.359375 9.28125-6.96875.464844-4.207031-2.621094-7.992187-6.789063-8.726563zm0 0" fill="#22b27f"/><path d="m237.226562 97.460938-61.605468 106.703124c-1.230469 2.136719-3.386719 3.578126-5.832032 3.902344l-57.679687 7.664063c-1.785156.238281-3.507813-.757813-4.195313-2.421875l-22.199218-53.785156c-.941406-2.277344-.773438-4.867188.460937-7.003907l61.605469-106.699219c2.191406-3.800781 7.050781-5.101562 10.851562-2.910156l75.6875 43.699219c3.796876 2.195313 5.101563 7.050781 2.90625 10.851563zm0 0" fill="#fd3980"/><path d="m217.992188 113.265625c-2.054688 4.160156-7.152344 5.65625-11.105469 3.375l-46.382813-26.777344c-4.785156-2.761719-10.898437-1.125-13.660156 3.660157l-51.53125 89.253906-9.601562-23.253906c-.941407-2.277344-.769532-4.867188.464843-7.003907l61.601563-106.699219c2.195312-3.800781 7.054687-5.101562 10.855468-2.910156l13.070313 7.550782-6.914063 11.980468c-2.761718 4.78125-1.125 10.898438 3.660157 13.660156l46.148437 26.644532c3.664063 2.113281 5.265625 6.726562 3.394532 10.519531zm0 0" fill="#fd0464"/></svg>