<svg viewBox="0 0 512 512" xmlns="http://www.w3.org/2000/svg"><path d="m0 256c0-141.386719 114.613281-256 256-256s256 114.613281 256 256c0 115.238281-76.148438 212.6875-180.871094 244.789062-19.207031-2.472656-38.953125-3.773437-59.109375-3.773437-27.511719 0-54.261719 2.414063-79.910156 6.945313-110.46875-28.378907-192.109375-128.636719-192.109375-247.960938zm0 0" fill="#813873"/><path d="m370 243v20.21875c0 12-7.152344 22.847656-18.183594 27.574219l-2.277344.976562c-10.640624 4.558594-17.539062 15.023438-17.539062 26.597657v182.160156c-24.011719 7.457031-49.535156 11.472656-76 11.472656-22.097656 0-43.542969-2.800781-64-8.066406v-187.6875c0-9.171875-4.347656-17.796875-11.714844-23.257813-15.273437-11.316406-24.285156-29.199219-24.285156-48.210937v-179.777344c0-13.644531 10.933594-24.738281 24.515625-24.996094 14.015625-.265625 25.484375 11.542969 25.484375 25.558594v74.105469h.574219c2.445312-11.246094 12.449219-19.667969 24.425781-19.667969s21.980469 8.421875 24.425781 19.667969h1.148438c2.445312-11.246094 12.449219-19.667969 24.425781-19.667969s21.980469 8.421875 24.425781 19.667969h.574219v-114.667969c0-13.808594 11.191406-25 25-25s25 11.191406 25 25v218zm0 0" fill="#ffbfab"/><path d="m329 200.332031c0 5.421875 1.730469 10.429688 4.65625 14.527344-.871094.089844-1.757812.140625-2.65625.140625-13.808594 0-25-11.191406-25-25v-165c0-13.808594 11.191406-25 25-25 .898438 0 1.785156.0507812 2.65625.140625-2.925781 4.097656-4.65625 9.105469-4.65625 14.527344zm-48 19.667969c.765625 0 1.523438-.039062 2.269531-.105469-5.992187-4.570312-9.863281-11.777343-9.863281-19.894531v-60c0-8.117188 3.871094-15.324219 9.863281-19.894531-.746093-.066407-1.503906-.105469-2.269531-.105469-13.808594 0-25 11.191406-25 25v50c0 13.808594 11.191406 25 25 25zm-50 0c.765625 0 1.523438-.039062 2.269531-.105469-5.992187-4.570312-9.863281-11.777343-9.863281-19.894531v-60c0-8.117188 3.871094-15.324219 9.863281-19.894531-.746093-.066407-1.503906-.105469-2.269531-.105469-13.808594 0-25 11.191406-25 25v50c0 13.808594 11.191406 25 25 25zm48.65625 68h-59.1875c-5.464844 0-10.789062-1.757812-15.183594-5.011719-15.273437-11.316406-24.285156-29.199219-24.285156-48.210937v-179.777344c0-5.425781 1.730469-10.441406 4.667969-14.539062-1.664063-.332032-3.386719-.488282-5.152344-.457032-13.582031.257813-24.515625 11.351563-24.515625 24.996094v179.777344c0 19.007812 9.011719 36.894531 24.285156 48.210937 7.371094 5.457031 11.714844 14.085938 11.714844 23.257813v187.6875c8.183594 2.105468 16.523438 3.816406 25 5.113281v-175.535156c0-14.089844 11.421875-25.511719 25.511719-25.511719h37.488281c5.742188 0 10.355469-4.839844 9.980469-10.664062-.34375-5.316407-4.996094-9.335938-10.324219-9.335938zm0 0" fill="#ffa78f"/><path d="m248.398438 192.152344c-.9375 10.035156-8.371094 17.847656-17.398438 17.847656s-16.460938-7.8125-17.398438-17.847656c-.109374-1.160156.832032-2.152344 1.996094-2.152344h30.804688c1.164062 0 2.105468.992188 1.996094 2.152344zm48.003906-2.152344h-30.804688c-1.164062 0-2.105468.992188-1.996094 2.152344.9375 10.035156 8.371094 17.847656 17.398438 17.847656s16.460938-7.8125 17.398438-17.847656c.109374-1.160156-.832032-2.152344-1.996094-2.152344zm0 0" fill="#ffeee6"/><path d="m369.480469 210.003906c.664062 3.292969.503906 13.277344.503906 14.996094v40c0 13.808594-11.195313 25-25 25-13.808594 0-25-11.191406-25-25v-39.644531l-28.035156-28.035157c-9.761719-9.761718-9.761719-25.589843 0-35.351562 9.765625-9.765625 25.59375-9.765625 35.355469 0l35.355468 35.351562c3.605469 3.605469 5.875 8.039063 6.820313 12.683594zm0 0" fill="#ffa78f"/><path d="m336.347656 253.867188v-34.714844l-30.664062-30.664063c-8.746094-8.746093-10.300782-21.9375-4.714844-32.292969 8.867188-3.269531 19.214844-1.351562 26.335938 5.773438l35.355468 35.351562c3.605469 3.605469 5.875 8.035157 6.820313 12.683594.664062 3.292969.503906 13.277344.503906 14.996094v40c0 13.808594-11.195313 25-25 25-3.039063 0-5.945313-.542969-8.636719-1.53125zm0 0" fill="#ffcebf"/><path d="m323.28125 166.964844c.898438.746094.933594 2.113281.109375 2.9375l-21.78125 21.78125c-.820313.820312-2.191406.785156-2.933594-.113282-6.429687-7.757812-6.699219-18.539062-.316406-24.921874 6.382813-6.382813 17.164063-6.113282 24.921875.316406zm0 0" fill="#ffeee6"/><path d="m336 370h-149c-5.523438 0-10-4.476562-10-10s4.476562-10 10-10h149c5.523438 0 10 4.476562 10 10s-4.476562 10-10 10zm0 0" fill="#08a8f0"/><path d="m336 370h-120c-5.523438 0-10-4.476562-10-10s4.476562-10 10-10h120c5.523438 0 10 4.476562 10 10s-4.476562 10-10 10zm0 0" fill="#01cffa"/></svg>