<?xml version="1.0" encoding="iso-8859-1"?>
<!-- Generator: Adobe Illustrator 19.0.0, SVG Export Plug-In . SVG Version: 6.00 Build 0)  -->
<svg version="1.1" id="Layer_1" xmlns="http://www.w3.org/2000/svg" xmlns:xlink="http://www.w3.org/1999/xlink" x="0px" y="0px"
	 viewBox="0 0 512 512" style="enable-background:new 0 0 512 512;" xml:space="preserve">
<path id="bg_4_" style="fill:#334D5C;" d="M512,256.001C512,397.387,397.385,512,256.004,512C114.613,512,0,397.387,0,256.001
	C0,114.616,114.613,0,256.004,0C397.385,0,512,114.616,512,256.001z"/>
<path style="fill:#FFFFFF;" d="M166.289,368.737c0,40.17,32.564,72.733,72.738,72.733h33.951c40.164,0,72.732-32.564,72.732-72.733
	V143.263c0-40.171-32.568-72.735-72.732-72.735h-33.951c-40.174,0-72.738,32.563-72.738,72.735V368.737z"/>
<path style="fill:#DBDBDB;" d="M172.832,113.236l84.131,58.626l-72.998-76.04C179.467,101.038,175.717,106.89,172.832,113.236z"/>
<path style="fill:#BABABA;" d="M256.963,171.862l-84.131-58.626v0.002c-3.092,6.798-5.189,14.133-6.057,21.853L256.963,171.862z"/>
<path style="fill:#E57128;" d="M232.287,75.958c-0.189-0.002-0.375-0.028-0.566-0.028c-24.785,0-44.875,20.092-44.875,44.875
	v265.841c0,24.784,20.09,44.876,44.875,44.876c0.191,0,0.377-0.027,0.566-0.028V75.958z"/>
<path style="fill:#E57128;" d="M279.316,75.958c0.188-0.002,0.375-0.028,0.564-0.028c24.787,0,44.877,20.092,44.877,44.875v265.841
	c0,24.784-20.09,44.876-44.877,44.876c-0.189,0-0.377-0.027-0.564-0.028V75.958z"/>
<path style="fill:#D86B35;" d="M279.881,75.93c-0.189,0-0.377,0.027-0.564,0.028v2.515c17.51,6.117,30.092,22.736,30.092,42.332
	v265.841c0,19.597-12.582,36.216-30.092,42.333v2.515c0.188,0.001,0.375,0.028,0.564,0.028c24.787,0,44.877-20.092,44.877-44.876
	V120.805C324.758,96.022,304.668,75.93,279.881,75.93z"/>
<path style="fill:#8C2E14;" d="M279.582,408.233c0,13.049-10.578,23.627-23.627,23.627l0,0c-13.049,0-23.627-10.578-23.627-23.627
	V100.028c0-13.051,10.578-23.627,23.627-23.627l0,0c13.049,0,23.627,10.576,23.627,23.627V408.233z"/>
<polygon style="fill:#88B72E;" points="269.76,417.672 271.283,417.664 270.465,417.626 269.76,417.672 269.76,417.132 
	272.809,417.169 272.809,417.672 "/>
<path style="fill:#DDBA10;" d="M256.92,257.44c9.535,0,17.418-8.274,17.742-18.611h0.033v-0.43h-0.02
	c-0.217-10.332-8.154-18.723-17.756-18.723c-5.928,0-10.836-5.437-10.937-12.012c0.102-6.678,5.01-12.112,10.937-12.112
	c9.635,0,17.6-8.447,17.762-18.937c-0.162-10.381-8.127-18.827-17.762-18.827c-5.928,0-10.836-5.437-10.937-12.015
	c0.102-6.678,5.01-12.112,10.937-12.112c9.635,0,17.6-8.447,17.762-18.937c-0.162-10.381-8.127-18.827-17.762-18.827
	c-1.885,0-3.41,1.527-3.41,3.412c0,1.883,1.525,3.411,3.41,3.411c5.93,0,10.838,5.433,10.94,12.004
	c-0.102,6.682-5.01,12.116-10.94,12.116c-9.629,0-17.598,8.445-17.762,18.934c0.164,10.386,8.129,18.836,17.762,18.836
	c5.93,0,10.838,5.434,10.94,12.005c-0.102,6.682-5.01,12.116-10.94,12.116c-9.533,0-17.422,8.276-17.74,18.614h-0.033v0.539h0.025
	c0.275,10.283,8.186,18.614,17.748,18.614c5.93,0,10.838,5.434,10.94,12.008c-0.102,6.679-5.01,12.113-10.94,12.113
	c-9.533,0-17.416,8.273-17.74,18.609h-0.033v0.546h0.025c0.275,10.283,8.186,18.614,17.748,18.614c5.93,0,10.838,5.433,10.94,12.005
	c-0.102,6.68-5.01,12.114-10.94,12.114c-9.533,0-17.416,8.275-17.74,18.611h-0.033v0.543h0.025
	c0.275,10.28,8.186,18.609,17.748,18.609c5.93,0,10.838,5.437,10.94,12.013c-0.102,6.68-5.01,12.114-10.94,12.114
	c-9.533,0-17.416,8.275-17.74,18.611h-0.033v0.539h0.025c0.27,10.283,8.182,18.614,17.748,18.614c1.887,0,3.412-1.528,3.412-3.411
	s-1.525-3.411-3.412-3.411c-5.928,0-10.836-5.435-10.937-12.008c0.102-6.679,5.01-12.111,10.937-12.111
	c9.535,0,17.422-8.279,17.742-18.618h0.033v-0.428h-0.02c-0.217-10.335-8.154-18.726-17.756-18.726
	c-5.928,0-10.836-5.434-10.937-12.008c0.102-6.679,5.01-12.111,10.937-12.111c9.535,0,17.418-8.274,17.742-18.611h0.033v-0.433
	h-0.02c-0.217-10.331-8.154-18.72-17.756-18.72c-5.928,0-10.836-5.437-10.937-12.013C246.084,262.875,250.992,257.44,256.92,257.44z
	"/>
<g>
</g>
<g>
</g>
<g>
</g>
<g>
</g>
<g>
</g>
<g>
</g>
<g>
</g>
<g>
</g>
<g>
</g>
<g>
</g>
<g>
</g>
<g>
</g>
<g>
</g>
<g>
</g>
<g>
</g>
</svg>
