<?xml version="1.0" encoding="iso-8859-1"?>
<!-- Generator: Adobe Illustrator 19.0.0, SVG Export Plug-In . SVG Version: 6.00 Build 0)  -->
<svg version="1.1" id="Layer_1" xmlns="http://www.w3.org/2000/svg" xmlns:xlink="http://www.w3.org/1999/xlink" x="0px" y="0px"
	 viewBox="0 0 512 512" style="enable-background:new 0 0 512 512;" xml:space="preserve">
<path id="bg_7_" style="fill:#ECF0F0;" d="M512,256.002C512,397.385,397.386,512,256.001,512C114.614,512,0,397.385,0,256.002
	C0,114.615,114.614,0,256.001,0C397.386,0,512,114.615,512,256.002z"/>
<path style="fill:#AF8F2C;" d="M384.766,418.717c4.633,7.121,2.614,16.655-4.51,21.288l0,0c-7.124,4.635-16.655,2.611-21.288-4.509
	l-97.315-149.627c-4.635-7.123-2.615-16.654,4.508-21.289l0,0c7.124-4.633,16.655-2.614,21.288,4.512L384.766,418.717z"/>
<path style="fill:#EFC84A;" d="M388.222,279.249L249.833,83.965c-9.571-14.717-29.254-18.887-43.971-9.317l-57.384,37.321
	c17.984,9.418,30.493,30,30.493,53.943c0,28.629-17.854,52.521-41.618,58.164l93.677,157.41
	c9.569,14.713,29.256,18.882,43.972,9.309l103.902-67.576C393.62,313.648,397.79,293.963,388.222,279.249z"/>
<path style="fill:#B73B32;" d="M249.835,83.963c-9.571-14.715-29.254-18.885-43.969-9.315L142.6,115.794
	c1.341,3.249,2.086,6.812,2.086,10.551c0,12.154-7.825,22.441-18.649,26.042c3.563,4.639,5.706,10.453,5.706,16.787
	c0,9.953-5.261,18.642-13.106,23.444l23.336,39.216l145.559-94.672L249.835,83.963z"/>
<path style="fill:#DF5A49;" d="M287.655,211.533c2.455,3.777,1.386,8.828-2.392,11.283l0,0c-3.775,2.456-8.828,1.386-11.284-2.39
	l-38.493-59.186c-2.455-3.775-1.385-8.828,2.391-11.284l0,0c3.775-2.455,8.827-1.385,11.283,2.392L287.655,211.533z"/>
<path style="fill:#DF5A49;" d="M283.783,181.084c2.454,3.775,1.386,8.828-2.39,11.284l0,0c-3.775,2.456-8.827,1.384-11.285-2.392
	l-38.494-59.186c-2.457-3.775-1.385-8.826,2.391-11.283l0,0c3.776-2.456,8.828-1.386,11.284,2.391L283.783,181.084z"/>
<path style="fill:#F4E4B8;" d="M236.753,363.613c-2.327,0-4.595-1.19-5.87-3.334L160.258,241.61
	c-1.928-3.238-0.865-7.425,2.373-9.353c3.242-1.926,7.426-0.861,9.353,2.373l70.625,118.67c1.927,3.237,0.865,7.425-2.373,9.352
	C239.141,363.305,237.938,363.613,236.753,363.613z"/>
<path style="fill:#DF5A49;" d="M249.835,83.963c-9.571-14.715-29.254-18.885-43.969-9.315l-50.517,32.854
	c5.484,6.768,8.782,15.379,8.782,24.77c0,13.385-6.694,25.194-16.899,32.311c0.502,2.514,0.774,5.109,0.774,7.77
	c0,15.019-8.412,28.068-20.777,34.711l14.743,24.771l145.559-94.672L249.835,83.963z"/>
<g>
</g>
<g>
</g>
<g>
</g>
<g>
</g>
<g>
</g>
<g>
</g>
<g>
</g>
<g>
</g>
<g>
</g>
<g>
</g>
<g>
</g>
<g>
</g>
<g>
</g>
<g>
</g>
<g>
</g>
</svg>
