<?xml version="1.0" encoding="iso-8859-1"?>
<!-- Generator: Adobe Illustrator 19.0.0, SVG Export Plug-In . SVG Version: 6.00 Build 0)  -->
<svg version="1.1" id="Layer_1" xmlns="http://www.w3.org/2000/svg" xmlns:xlink="http://www.w3.org/1999/xlink" x="0px" y="0px"
	 viewBox="0 0 512 512" style="enable-background:new 0 0 512 512;" xml:space="preserve">
<path id="bg1" style="fill:#ECF0F0;" d="M512,256.001C512,397.386,397.386,512,256.001,512C114.613,512,0,397.386,0,256.001
	C0,114.614,114.613,0,256.001,0C397.386,0,512,114.614,512,256.001z"/>
<circle id="bg2" style="fill:#E2E2E2;" cx="256" cy="256.001" r="191.79"/>
<path id="bg3" style="fill:#ECF0F0;" d="M414.176,256.001c0,87.361-70.813,158.179-158.175,158.179
	c-87.363,0-158.181-70.817-158.181-158.179c0-87.359,70.817-158.18,158.181-158.18C343.362,97.821,414.176,168.642,414.176,256.001z
	"/>
<circle cx="273.462" cy="127.89" r="5.007"/>
<path style="fill:#E45136;" d="M218.155,312.9c0,61.141,17.298,110.702,38.637,110.702c21.344,0,38.643-49.562,38.643-110.702
	c0-61.142-17.299-110.702-38.643-110.702C235.453,202.198,218.155,251.759,218.155,312.9z"/>
<path style="fill:#E45136;" d="M330.572,147.112c-16.77,31.042-17.147,63.344-0.845,72.15c16.298,8.804,43.111-9.219,59.874-40.262
	c16.765-31.043,17.146-63.345,0.843-72.15C374.145,98.044,347.337,116.071,330.572,147.112z"/>
<path style="fill:#E45136;" d="M295.782,213.755c0-9.226,7.479-16.708,16.712-16.708c9.228,0,16.708,7.482,16.708,16.708
	c0,9.23-7.48,16.711-16.708,16.711C303.262,230.466,295.782,222.985,295.782,213.755z"/>
<path style="fill:#E45136;" d="M353.353,108.18c-2.078-1.739-4.364-3.052-6.76-3.985l0.016-0.039
	c-2.891-1.221-5.647-2.863-8.175-4.974c-2.885-2.409-5.206-5.223-7.032-8.267c-4.73,1.945-9.076,5.018-12.582,9.213
	c-9.838,11.768-9.916,28.407-1.181,40.218c1.249,1.858,2.764,3.585,4.572,5.09c10.287,8.603,25.603,7.232,34.2-3.054
	C365.012,132.093,363.642,116.78,353.353,108.18z"/>
<path style="fill:#EFB7B1;" d="M325.608,141.931c-0.475,0-0.951-0.158-1.346-0.483c-1.41-1.179-2.673-2.583-3.746-4.169
	c-7.099-9.601-6.714-22.793,0.988-32.012c0.743-0.889,2.062-1.001,2.943-0.268c0.888,0.738,1.002,2.055,0.267,2.941
	c-6.466,7.738-6.788,18.812-0.787,26.927c0.902,1.333,1.899,2.444,3.017,3.374c0.88,0.736,1.002,2.054,0.259,2.939
	C326.793,141.677,326.202,141.931,325.608,141.931z"/>
<path d="M235.325,127.89c0-2.764,2.237-5.004,5.012-5.004c2.763,0,4.999,2.24,4.999,5.004c0,2.763-2.236,5.006-4.999,5.006
	C237.562,132.896,235.325,130.652,235.325,127.89z"/>
<path style="fill:#E45136;" d="M358.266,113.67c0,0,28.725-19.491,17.586-36.9c12.184,2.263,34.46,35.336,24.536,74.848
	C376.546,136.472,358.266,113.67,358.266,113.67z"/>
<path style="fill:#EFB7B1;" d="M358.734,207.679c-0.685,0-1.355-0.339-1.753-0.959c-0.629-0.971-0.346-2.264,0.62-2.887
	c9.204-5.917,18.294-16.361,24.931-28.653c6.147-11.386,9.789-23.439,10.243-33.932c0.051-1.147,0.945-2.071,2.181-1.995
	c1.154,0.051,2.047,1.025,1.997,2.178c-0.479,11.109-4.299,23.801-10.743,35.736c-7.068,13.082-16.426,23.801-26.345,30.178
	C359.508,207.569,359.123,207.679,358.734,207.679z"/>
<path style="fill:#E45136;" d="M181.249,147.112c16.772,31.042,17.147,63.344,0.848,72.15c-16.304,8.804-43.11-9.219-59.88-40.262
	c-16.765-31.043-17.146-63.345-0.84-72.15C137.681,98.044,164.487,116.071,181.249,147.112z"/>
<path style="fill:#E45136;" d="M216.035,213.755c0-9.226-7.48-16.708-16.708-16.708c-9.225,0-16.711,7.482-16.711,16.708
	c0,9.23,7.486,16.711,16.711,16.711C208.556,230.466,216.035,222.985,216.035,213.755z"/>
<path style="fill:#E45136;" d="M158.465,108.18c2.085-1.739,4.376-3.052,6.771-3.985l-0.027-0.039
	c2.892-1.221,5.654-2.863,8.18-4.974c2.884-2.409,5.201-5.223,7.031-8.267c4.727,1.945,9.075,5.018,12.589,9.213
	c9.832,11.768,9.906,28.407,1.176,40.218c-1.255,1.858-2.763,3.585-4.567,5.09c-10.298,8.603-25.606,7.232-34.199-3.054
	C146.807,132.093,148.184,116.78,158.465,108.18z"/>
<path style="fill:#EFB7B1;" d="M186.216,141.931c-0.595,0-1.191-0.254-1.603-0.75c-0.742-0.886-0.62-2.203,0.267-2.939
	c1.111-0.93,2.113-2.041,2.966-3.305c6.051-8.185,5.731-19.258-0.738-26.996c-0.735-0.887-0.618-2.203,0.262-2.941
	c0.885-0.736,2.208-0.625,2.943,0.268c7.703,9.219,8.09,22.411,0.944,32.084c-1.026,1.514-2.287,2.918-3.701,4.097
	C187.161,141.773,186.695,141.931,186.216,141.931z"/>
<path style="fill:#E45136;" d="M153.552,113.67c0,0-28.717-19.491-17.576-36.9c-12.189,2.263-34.465,35.336-24.545,74.848
	C135.277,136.472,153.552,113.67,153.552,113.67z"/>
<path style="fill:#EFB7B1;" d="M153.089,207.679c-0.392,0-0.778-0.109-1.133-0.334c-9.92-6.377-19.279-17.096-26.338-30.178
	c-6.447-11.936-10.265-24.627-10.753-35.736c-0.051-1.152,0.843-2.127,2.004-2.178c1.062-0.077,2.121,0.848,2.172,1.995
	c0.456,10.493,4.098,22.546,10.244,33.932c6.645,12.292,15.73,22.736,24.931,28.653c0.973,0.623,1.255,1.916,0.629,2.887
	C154.445,207.34,153.774,207.679,153.089,207.679z"/>
<path style="fill:#E45136;" d="M255.924,423.62v-0.031c-0.162,0-0.33,0.012-0.496,0.014c-0.159-0.002-0.33-0.014-0.482-0.014v0.031
	c-16.779,0.341-43.149,9.691-43.149,40.177c0,30.817,42.934,2.745,43.632,2.284c0.706,0.461,43.638,28.533,43.638-2.284
	C299.065,433.312,272.696,423.961,255.924,423.62z"/>
<path style="fill:#E45136;" d="M198.655,242.304c0,61.139,26.028,110.703,58.137,110.703c32.114,0,58.141-49.564,58.141-110.703
	c0-61.143-26.026-110.703-58.141-110.703C224.684,131.601,198.655,181.161,198.655,242.304z"/>
<path style="fill:#EFB7B1;" d="M232.069,314.206c-0.618,0-1.231-0.277-1.644-0.809c-12.486-16.053-19.938-42.632-19.938-71.094
	c0-26.471,6.324-51.072,17.34-67.496c0.645-0.967,1.95-1.206,2.895-0.573c0.957,0.643,1.21,1.94,0.567,2.897
	c-10.564,15.756-16.625,39.508-16.625,65.172c0,27.562,7.127,53.185,19.05,68.532c0.716,0.911,0.547,2.222-0.36,2.929
	C232.973,314.064,232.518,314.206,232.069,314.206z"/>
<path style="fill:#A2331F;" d="M220.412,351.004c0,0,4.343-1.593,11.117-2.972c3.375-0.772,7.372-1.246,11.658-1.834
	c4.298-0.31,8.899-0.762,13.509-0.735c2.305,0.051,4.612,0.1,6.883,0.149c2.277-0.03,4.494,0.252,6.651,0.508
	c2.143,0.275,4.221,0.538,6.188,0.787c1.964,0.233,3.812,0.525,5.486,1.002c3.373,0.809,6.138,1.662,8.078,2.172
	c1.927,0.551,3.009,0.923,3.009,0.923s-1.164-0.011-3.168-0.125c-2.004-0.155-4.862-0.255-8.239-0.593
	c-3.375-0.384-7.38-0.208-11.598-0.494c-4.221-0.318-8.752-0.065-13.259-0.153c-4.516-0.116-9.033,0.265-13.281,0.224
	c-4.247,0.193-8.215,0.381-11.613,0.539c-3.411,0.201-6.275,0.24-8.26,0.432C221.564,350.941,220.412,351.004,220.412,351.004z"/>
<path style="fill:#A2331F;" d="M218.675,325.155c0,0,0.958-0.812,2.833-1.971c1.89-1.082,4.609-2.748,8.132-4.122
	c1.731-0.783,3.695-1.374,5.771-2.075c2.105-0.511,4.292-1.283,6.65-1.615c2.331-0.455,4.761-0.877,7.264-1.031
	c2.483-0.306,5.038-0.237,7.582-0.301c2.54-0.006,5.065,0.35,7.554,0.51c2.486,0.281,4.89,0.852,7.234,1.246
	c2.321,0.512,4.501,1.245,6.586,1.836c2.105,0.523,3.948,1.49,5.713,2.16c1.74,0.73,3.35,1.336,4.67,2.146
	c1.339,0.743,2.503,1.388,3.462,1.916c1.913,1.075,2.965,1.735,2.965,1.735s-1.221-0.33-3.296-0.992
	c-1.025-0.338-2.28-0.744-3.708-1.215c-1.407-0.524-3.104-0.811-4.868-1.318c-1.799-0.406-3.669-1.091-5.75-1.422
	c-2.052-0.391-4.221-0.807-6.466-1.23c-2.257-0.275-4.588-0.56-6.96-0.849c-2.374-0.102-4.785-0.394-7.207-0.351
	c-2.416,0.02-4.842-0.102-7.213,0.149c-2.382,0.124-4.718,0.301-6.975,0.632c-2.268,0.217-4.41,0.714-6.488,1.01
	c-2.024,0.504-4.01,0.808-5.763,1.324c-3.564,0.891-6.506,1.832-8.534,2.584C219.829,324.659,218.675,325.155,218.675,325.155z"/>
<path style="fill:#A2331F;" d="M224.374,372.846c0,0,1.024,0.176,2.827,0.483c1.774,0.342,4.349,0.663,7.402,1.075
	c3.057,0.429,6.623,0.771,10.429,1.142c3.809,0.236,7.865,0.578,11.925,0.535c2.034,0.072,4.061,0.068,6.054-0.037
	c1.996-0.045,3.96-0.124,5.856-0.287c3.796-0.258,7.346-0.645,10.372-1.131c1.532-0.223,2.935-0.432,4.17-0.611
	c1.228-0.255,2.308-0.48,3.189-0.663c1.78-0.355,2.833-0.506,2.833-0.506s-0.914,0.497-2.574,1.277
	c-1.652,0.784-4.039,1.928-7.068,2.836c-1.495,0.55-3.145,1.001-4.913,1.371c-1.768,0.427-3.637,0.872-5.604,1.083
	c-3.911,0.635-8.152,0.891-12.366,0.844c-2.12,0-4.218-0.182-6.29-0.322c-2.07-0.119-4.082-0.512-6.043-0.744
	c-3.883-0.684-7.477-1.485-10.477-2.453c-3.023-0.887-5.438-1.944-7.132-2.634C225.28,373.376,224.374,372.846,224.374,372.846z"/>
<path style="fill:#A2331F;" d="M230.825,394.491c0,0,3.114,1.982,7.962,4.128c1.225,0.526,2.538,1.075,3.958,1.569
	c1.387,0.58,2.939,0.895,4.467,1.412c1.579,0.342,3.196,0.744,4.862,0.949c1.66,0.23,3.347,0.441,5.044,0.354
	c1.701,0.145,3.381-0.1,5.041-0.273c1.667-0.104,3.247-0.65,4.825-0.931c1.565-0.358,2.986-1.022,4.414-1.458
	c1.457-0.404,2.641-1.209,3.858-1.719c1.172-0.605,2.353-1.02,3.233-1.65c0.944-0.563,1.762-1.055,2.433-1.46
	c1.399-0.781,2.199-1.231,2.199-1.231s-0.607,0.681-1.674,1.875c-0.557,0.584-1.233,1.293-2.014,2.105
	c-0.749,0.867-1.809,1.566-2.923,2.406c-1.153,0.781-2.286,1.867-3.778,2.497c-1.463,0.681-2.935,1.632-4.639,2.143
	c-1.725,0.436-3.438,1.272-5.328,1.41c-1.869,0.252-3.768,0.57-5.692,0.46c-1.92,0.032-3.809-0.245-5.664-0.557
	c-1.867-0.25-3.597-0.928-5.288-1.419c-3.315-1.252-6.238-2.781-8.5-4.404C233.008,397.538,230.825,394.491,230.825,394.491z"/>
<path style="fill:#E45136;" d="M237.188,104.458c0,0-0.333-0.373-0.958-1.07c-0.558-0.645-1.574-1.643-2.812-2.904
	c-1.323-1.209-2.859-2.748-4.797-4.354c-1.875-1.674-4.136-3.41-6.586-5.321c-2.515-1.829-5.233-3.851-8.255-5.772
	c-1.51-0.958-3.065-1.945-4.657-2.953c-1.601-0.992-3.311-1.883-5.013-2.857c-3.369-2.011-7.062-3.695-10.761-5.531
	c-3.718-1.801-7.655-3.279-11.516-4.955c-3.969-1.388-7.928-2.832-11.87-4.121c-4-1.121-7.943-2.223-11.75-3.289
	c-3.879-0.832-7.621-1.637-11.178-2.399c-3.562-0.738-6.99-1.095-10.13-1.604c-3.145-0.461-6.031-0.953-8.611-1.087
	c-2.581-0.213-4.826-0.397-6.682-0.551c-3.706-0.306-5.826-0.481-5.826-0.481s2.124,0.047,5.842,0.129
	c1.863,0.043,4.127,0.09,6.72,0.146c2.603-0.021,5.51,0.297,8.699,0.568c3.182,0.324,6.659,0.473,10.286,1.001
	c3.631,0.554,7.461,1.136,11.422,1.741c3.93,0.847,7.985,1.722,12.104,2.612c4.081,1.065,8.197,2.291,12.335,3.466
	c4.034,1.467,8.158,2.74,12.084,4.355c3.906,1.65,7.812,3.161,11.417,5.02c1.813,0.9,3.634,1.718,5.354,2.644
	c1.714,0.945,3.387,1.868,5.018,2.771c3.257,1.809,6.222,3.741,8.968,5.498c2.695,1.85,5.18,3.534,7.276,5.191
	c2.152,1.574,3.91,3.129,5.411,4.348c1.451,1.304,2.585,2.291,3.386,3.102c0.752,0.746,1.149,1.143,1.149,1.143
	c1.61,1.6,1.613,4.198,0.018,5.807c-1.605,1.609-4.201,1.616-5.808,0.016c-0.057-0.055-0.11-0.109-0.161-0.166L237.188,104.458z"/>
<path style="fill:#E45136;" d="M268.734,98.94c0,0,0.402-0.397,1.148-1.143c0.802-0.811,1.939-1.798,3.39-3.102
	c1.498-1.219,3.261-2.773,5.408-4.348c2.101-1.657,4.584-3.342,7.282-5.191c2.745-1.757,5.705-3.689,8.967-5.498
	c1.625-0.902,3.299-1.825,5.013-2.771c1.718-0.926,3.545-1.743,5.354-2.644c3.605-1.858,7.515-3.369,11.422-5.02
	c3.923-1.615,8.047-2.889,12.079-4.355c4.138-1.175,8.256-2.4,12.335-3.466c4.122-0.891,8.179-1.766,12.102-2.612
	c3.964-0.605,7.794-1.187,11.425-1.741c3.632-0.528,7.109-0.677,10.288-1.001c3.186-0.271,6.099-0.589,8.698-0.568
	c2.597-0.057,4.854-0.104,6.719-0.146c3.722-0.082,5.847-0.129,5.847-0.129s-2.12,0.176-5.832,0.481
	c-1.85,0.153-4.095,0.338-6.677,0.551c-2.584,0.134-5.47,0.626-8.614,1.087c-3.137,0.51-6.565,0.866-10.131,1.604
	c-3.552,0.763-7.301,1.567-11.175,2.399c-3.811,1.066-7.749,2.168-11.753,3.289c-3.942,1.289-7.901,2.733-11.867,4.121
	c-3.862,1.676-7.797,3.154-11.515,4.955c-3.697,1.836-7.395,3.521-10.767,5.531c-1.7,0.975-3.409,1.865-5.011,2.857
	c-1.587,1.008-3.142,1.995-4.657,2.953c-3.02,1.922-5.74,3.943-8.25,5.772c-2.455,1.911-4.714,3.647-6.587,5.321
	c-1.941,1.605-3.477,3.145-4.797,4.354c-1.24,1.262-2.258,2.26-2.812,2.904c-0.628,0.697-0.957,1.07-0.957,1.07l-0.114,0.129
	c-1.512,1.691-4.103,1.838-5.799,0.328c-1.691-1.512-1.837-4.106-0.326-5.799C268.621,99.06,268.684,98.997,268.734,98.94z"/>
<g>
</g>
<g>
</g>
<g>
</g>
<g>
</g>
<g>
</g>
<g>
</g>
<g>
</g>
<g>
</g>
<g>
</g>
<g>
</g>
<g>
</g>
<g>
</g>
<g>
</g>
<g>
</g>
<g>
</g>
</svg>
