<svg viewBox="0 0 512 512" xmlns="http://www.w3.org/2000/svg"><path d="m512 256c0 141.386719-114.613281 256-256 256s-256-114.613281-256-256 114.613281-256 256-256 256 114.613281 256 256zm0 0" fill="#813873"/><path d="m315.757812 150.527344c-13.445312 23.28125-34.527343 39.378906-58.25 47.015625-.070312.296875-.136718.59375-.207031.886719-.4375-.125-.867187-.277344-1.300781-.410157-.433594.132813-.863281.285157-1.300781.410157-.070313-.292969-.136719-.589844-.207031-.886719-23.722657-7.636719-44.804688-23.734375-58.25-47.015625-13.96875-24.199219-17.121094-51.675782-10.957032-76.828125 24.863282 7.238281 47.082032 23.703125 61.054688 47.902343 4.175781 7.234376 7.378906 14.757813 9.660156 22.425782 2.285156-7.667969 5.484375-15.191406 9.660156-22.425782 13.972656-24.199218 36.191406-40.664062 61.058594-47.902343 6.160156 25.152343 3.007812 52.625-10.960938 76.828125zm0 0" fill="#b1529e"/><path d="m288.78125 111.660156c0 38.15625-12.476562 72.800782-32.78125 98.339844-20.304688-25.539062-32.78125-60.183594-32.78125-98.339844s12.476562-72.800781 32.78125-98.339844c20.304688 25.539063 32.78125 60.183594 32.78125 98.339844zm0 0" fill="#c265ae"/><path d="m30 210h30v210.664062c-11.472656-13.640624-21.542969-28.492187-30-44.339843zm0 0" fill="#8279c0"/><path d="m50 210h20v221.882812c-7.136719-7.542968-13.816406-15.523437-20-23.890624zm0 0" fill="#968dca"/><path d="m476.21875 41.78125c-35.707031 76.523438-194.480469 70.074219-220.21875 155.414062-25.738281-85.339843-184.511719-78.890624-220.21875-155.414062-.5-1.078125-1.5625-1.78125-2.753906-1.78125-1.671875 0-3.027344 1.355469-3.027344 3.027344v174.375c0 54.394531 44.097656 98.488281 98.488281 98.488281h44.097657c24.261718 0 47.53125-9.636719 64.6875-26.792969 10.339843-10.339844 27.109374-10.339844 37.453124 0 17.15625 17.15625 40.425782 26.792969 64.683594 26.792969h44.097656c54.394532 0 98.492188-44.09375 98.492188-98.488281v-174.375c0-1.671875-1.355469-3.027344-3.027344-3.027344-1.191406 0-2.253906.703125-2.753906 1.78125zm-269.65625 215.847656h-58.160156c-45.890625 0-83.089844-34.257812-83.089844-76.511718v-38.253907s18.074219 13.386719 58.164062 22.953125c44.421876 10.59375 83.085938 34.253906 83.085938 76.507813zm240.125-91.816406v15.304688c0 42.253906-37.199219 76.507812-83.085938 76.507812h-58.164062v-15.300781c0-42.257813 38.667969-65.914063 83.089844-76.511719 40.089844-9.5625 58.160156-22.953125 58.160156-22.953125zm0 0" fill="#01bff9"/><path d="m162.488281 315.890625h-34c-54.394531 0-98.488281-44.09375-98.488281-98.488281v-174.375c0-1.671875 1.355469-3.027344 3.027344-3.027344h.167968c1.171876 0 2.222657.683594 2.734376 1.734375 6.644531 13.695313 17.546874 25.292969 29.820312 34.515625v142.476562c0 54.394532 42.347656 97.164063 96.738281 97.164063zm0 0" fill="#08a8f0"/><path d="m271 190.8125c0 8.285156-6.714844 15-15 15s-15-6.714844-15-15 6.714844-15 15-15 15 6.714844 15 15zm-106.25-77.953125c-8.285156 0-15 6.71875-15 15 0 8.285156 6.714844 15 15 15s15-6.714844 15-15c0-8.28125-6.714844-15-15-15zm182.5 0c-8.285156 0-15 6.71875-15 15 0 8.285156 6.714844 15 15 15s15-6.714844 15-15c0-8.28125-6.714844-15-15-15zm-182.5 182.140625c-8.285156 0-15 6.714844-15 15s6.714844 15 15 15 15-6.714844 15-15-6.714844-15-15-15zm-99.4375-20c-8.285156 0-15 6.714844-15 15s6.714844 15 15 15 15-6.714844 15-15-6.714844-15-15-15zm381.375 0c-8.285156 0-15 6.714844-15 15s6.714844 15 15 15 15-6.714844 15-15-6.714844-15-15-15zm-99.4375 20c-8.285156 0-15 6.714844-15 15s6.714844 15 15 15 15-6.714844 15-15-6.714844-15-15-15zm0 0" fill="#c7eefd"/><path d="m271 237.5c0 8.285156-6.714844 15-15 15s-15-6.714844-15-15 6.714844-15 15-15 15 6.714844 15 15zm-56.777344-95.550781c-8.285156 0-15 6.714843-15 15 0 8.28125 6.714844 15 15 15 8.28125 0 15-6.71875 15-15 0-8.285157-6.714844-15-15-15zm83.554688 0c-8.28125 0-15 6.714843-15 15 0 8.28125 6.71875 15 15 15 8.285156 0 15-6.71875 15-15 0-8.285157-6.714844-15-15-15zm-83.554688 139.515625c-8.285156 0-15 6.714844-15 15 0 8.28125 6.714844 15 15 15 8.28125 0 15-6.71875 15-15 0-8.285156-6.714844-15-15-15zm83.554688 0c-8.28125 0-15 6.714844-15 15 0 8.28125 6.71875 15 15 15 8.285156 0 15-6.71875 15-15 0-8.285156-6.714844-15-15-15zm-184.277344-195.515625c-8.285156 0-15 6.714843-15 15 0 8.28125 6.714844 15 15 15s15-6.71875 15-15c0-8.285157-6.714844-15-15-15zm285 30c8.285156 0 15-6.71875 15-15 0-8.285157-6.714844-15-15-15s-15 6.714843-15 15c0 8.285156 6.714844 15 15 15zm-285 179.050781c-8.285156 0-15 6.714844-15 15s6.714844 15 15 15 15-6.714844 15-15-6.714844-15-15-15zm285 0c-8.285156 0-15 6.714844-15 15s6.714844 15 15 15 15-6.714844 15-15-6.714844-15-15-15zm0 0" fill="#62dafa"/></svg>