<?xml version="1.0" encoding="iso-8859-1"?>
<!-- Generator: Adobe Illustrator 19.0.0, SVG Export Plug-In . SVG Version: 6.00 Build 0)  -->
<svg version="1.1" id="Layer_1" xmlns="http://www.w3.org/2000/svg" xmlns:xlink="http://www.w3.org/1999/xlink" x="0px" y="0px"
	 viewBox="0 0 512 512" style="enable-background:new 0 0 512 512;" xml:space="preserve">
<path id="bg_9_" style="fill:#334D5C;" d="M512,256c0,141.387-114.613,256-255.998,256C114.613,512,0,397.387,0,256
	C0,114.615,114.613,0,256.002,0C397.387,0,512,114.615,512,256z"/>
<path style="fill:#FFFFFF;" d="M342.874,100.76c0-4.598-3.727-8.328-8.325-8.328H178.201c-4.6,0-8.328,3.73-8.328,8.328v29.411
	c0,4.599,3.729,8.328,8.328,8.328h156.348c4.598,0,8.325-3.729,8.325-8.328L342.874,100.76L342.874,100.76z"/>
<rect x="190.922" y="179.477" style="fill:#FFFFFF;" width="172.779" height="240.093"/>
<rect x="190.922" y="186.419" style="fill:#E45136;" width="172.779" height="18.041"/>
<polygon style="fill:#E45136;" points="342.653,126.03 169.873,126.03 190.922,179.477 363.701,179.477 "/>
<polygon style="fill:#CECECE;" points="169.873,126.03 148.248,138.886 148.248,378.976 190.922,419.569 190.922,179.477 "/>
<circle style="fill:#FFFFFF;" cx="203.79" cy="150.097" r="7.705"/>
<path style="fill:#E45136;" d="M275.15,300.165c-5.467,5.879-10.442,8.819-14.93,8.819c-2.733,0-4.814-1.317-6.24-3.953
	c-1.427-2.635-2.142-6.158-2.142-10.574c0-3.415,0.702-8.11,2.105-14.088c1.402-5.978,3.212-11.002,5.434-15.077l2.123-3.805
	c-2.903,3.024-5.282,6.336-7.138,9.935c-1.852,3.598-4.066,8.63-6.639,15.094c-2.576,6.465-4.52,10.868-5.84,13.21
	c-1.316,2.342-2.578,4.251-3.784,5.728c-1.209,1.476-2.284,2.433-3.222,2.872s-2.578,0.659-4.922,0.659
	c-0.902,0-1.355-0.244-1.355-0.732c0-0.049,0.163-0.817,0.485-2.305c0.324-1.488,0.652-3.873,0.988-7.154
	c0.336-3.28,0.578-8.855,0.724-16.723c0.145-7.867,1.292-14.605,3.438-20.217c-2.295,2.609-4.642,8.684-7.032,18.223l-0.917,3.586
	c-2.516,9.929-5.395,16.631-8.645,20.107c-3.248,3.477-6.438,5.215-9.561,5.215c-1.93,0-3.629-0.61-5.094-1.83
	c-1.465-1.221-2.197-2.623-2.197-4.208c0-1.22,0.881-2.586,2.638-4.099c1.759-1.513,2.87-2.27,3.331-2.27
	c0.533,0,0.885,0.184,1.058,0.55s0.39,1.372,0.661,3.02c0.268,1.646,0.679,2.72,1.23,3.22c0.548,0.5,1.241,0.75,2.072,0.75
	c1.885,0,3.964-1.885,6.238-5.654c2.274-3.77,4.353-9.593,6.237-17.472l1.066-4.429c0.854-3.609,1.697-6.488,2.531-8.635
	c0.83-2.147,1.932-4.294,3.302-6.44c1.98-3.074,3.198-4.715,3.648-4.922c0.453-0.207,1.301-0.378,2.546-0.513
	c1.241-0.134,2.485-0.201,3.73-0.201c0.488,0,0.732,0.28,0.732,0.842c0,0.268-0.077,0.817-0.23,1.646
	c-0.482,3.415-0.711,6.842-0.685,10.283l0.071,9.807c0.051,8.537-0.634,15.429-2.049,20.674c1.293-1.56,3.172-5.586,5.637-12.075
	c3.562-9.196,6.805-16.101,9.734-20.712c1.391-2.22,3.066-4.347,5.028-6.385c1.966-2.037,3.326-3.128,4.083-3.275
	c2.584-0.487,4.767-0.732,6.55-0.732c0.658,0,0.985,0.184,0.985,0.548c0,0.514-0.399,1.66-1.203,3.442
	c-1.896,4.295-3.664,10.101-5.309,17.421c-1.643,7.319-2.471,13.15-2.488,17.487c0,4.902,1.5,7.354,4.502,7.354
	c2.438,0,5.341-2.074,8.709-6.222v4.21H275.15z"/>
<path style="fill:#E45136;" d="M293.125,300.165c-5.707,6.001-9.978,9.001-12.809,9.001c-1.561,0-2.877-0.798-3.951-2.395
	c-1.072-1.597-1.611-3.605-1.611-6.021c0-5.195,1.757-12.393,5.271-21.588l9.296-1.94h0.438l-3.66,11.453
	c-1.512,4.732-2.268,8.112-2.268,10.137c0,0.804,0.178,1.458,0.529,1.958c0.354,0.5,0.801,0.749,1.337,0.749
	c0.953,0,1.909-0.347,2.874-1.042c0.961-0.695,2.479-2.202,4.555-4.521L293.125,300.165L293.125,300.165z M292.393,262.913
	c0,5.855-2.158,8.782-6.476,8.782c-2.1,0-3.892-0.633-5.381-1.902c1.415-2.146,2.513-4.562,3.294-7.244
	c1.926,1.195,3.477,1.792,4.647,1.792C289.793,264.341,291.101,263.864,292.393,262.913z"/>
<path style="fill:#E45136;" d="M317.338,300.165c-3.316,3.051-6.225,5.3-8.727,6.751c-2.501,1.452-4.887,2.178-7.154,2.178
	c-2.609,0-4.714-1.012-6.312-3.037c-1.596-2.025-2.397-4.745-2.397-8.16c0-5.123,1.11-11.271,3.332-18.443
	c2.218-7.171,4.916-13.783,8.087-19.833l9.293-3.438c0.295-0.098,0.512-0.146,0.66-0.146c0.707,0,1.287,0.518,1.736,1.555
	c0.453,1.037,0.68,2.434,0.68,4.189c0,4.977-1.146,9.796-3.442,14.454c-2.293,4.659-5.878,9.637-10.758,14.931
	c-0.194,2.537-0.292,4.28-0.292,5.231c0,2.123,0.391,3.807,1.17,5.05c0.78,1.244,1.819,1.867,3.111,1.867
	c1.316,0,2.719-0.477,4.207-1.428c1.489-0.951,3.758-2.927,6.807-5.929v4.208H317.338z M303.323,285.858
	c3.1-3.445,5.612-7.306,7.539-11.581c1.927-4.274,2.892-7.952,2.892-11.029c0-0.903-0.135-1.632-0.402-2.181
	c-0.271-0.55-0.61-0.825-1.027-0.825c-0.902,0-2.212,2.248-3.934,6.743C306.673,271.48,304.982,277.772,303.323,285.858z"/>
<path style="fill:#E45136;" d="M353.242,300.092c-5.539,6.051-10.137,9.074-13.795,9.074c-1.758,0-3.234-0.616-4.428-1.848
	c-1.197-1.23-1.796-2.75-1.796-4.556c0-0.853,0.146-2.135,0.44-3.843c0.292-1.705,0.438-2.67,0.438-2.889
	c0-1.123-0.634-1.702-1.902-1.739c-1.268-0.037-1.902-0.53-1.902-1.482c0-0.829,0.179-1.41,0.529-1.738
	c0.355-0.33,1.02-0.495,1.996-0.495c2.682-0.073,4.684-0.626,6.002-1.664c1.316-1.036,1.975-2.263,1.975-3.677
	c0-1.001-0.361-1.824-1.078-2.471c-0.721-0.646-1.641-0.971-2.764-0.971c-0.609,0-1.196,0.073-1.756,0.221
	c-0.587,0.146-1.147,0.366-1.683,0.658c-0.563,0.316-1.149,0.721-1.757,1.207c-0.586,0.512-1.209,1.135-1.867,1.867
	c-0.634,0.707-1.33,1.55-2.087,2.525c-0.39,0.513-0.876,2.915-1.462,7.209c-0.292,2.22-0.488,4.27-0.587,6.147
	c-0.099,1.756-0.11,3.745-0.036,5.965l-8.307,1.391c-0.315-1.855-0.476-4.122-0.476-6.807c0-7.318,0.988-14.309,2.966-20.968
	s5.208-13.503,9.698-20.528c3.486-1.414,6.5-2.52,9.036-3.311c2.537-0.794,3.951-1.189,4.246-1.189c0.583,0,1.158,0.584,1.718,1.756
	c0.562,1.17,0.843,2.403,0.843,3.695c0,2.172-0.721,4.544-2.159,7.118c-1.44,2.573-3.671,5.678-6.695,9.311
	c2.072-0.608,3.793-0.914,5.16-0.914c2.267,0,4.12,0.58,5.561,1.738c1.439,1.159,2.159,2.629,2.159,4.409
	c0,4.05-3.648,7.025-10.943,8.928c2.855,0.66,4.281,2.33,4.281,5.015l-0.22,3.293c0,1.487,0.696,2.231,2.087,2.231
	c0.977,0,2.084-0.475,3.329-1.426c1.245-0.953,2.989-2.77,5.235-5.454v4.212H353.242z M329.236,282.455l2.415-2.673
	c7.146-8.05,10.722-13.722,10.722-17.015c0-1.513-0.658-2.27-1.976-2.27c-1.513,0-3.252,1.782-5.214,5.344
	C333.218,269.402,331.234,274.941,329.236,282.455z"/>
<polygon style="fill:#E45136;" points="155.016,346.708 180.519,371.689 180.519,207.752 155.016,182.771 "/>
<g>
</g>
<g>
</g>
<g>
</g>
<g>
</g>
<g>
</g>
<g>
</g>
<g>
</g>
<g>
</g>
<g>
</g>
<g>
</g>
<g>
</g>
<g>
</g>
<g>
</g>
<g>
</g>
<g>
</g>
</svg>
