<svg viewBox="0 0 512 512" xmlns="http://www.w3.org/2000/svg"><path d="m415.078125 456.570312c-43.683594 34.695313-98.957031 55.429688-159.078125 55.429688-141.386719 0-256-114.613281-256-256s114.613281-256 256-256 256 114.613281 256 256c0 63.664062-23.246094 121.890625-61.703125 166.679688-12.789063 10.15625-24.585937 21.507812-35.21875 33.890624zm0 0" fill="#813873"/><path d="m415.070312 456.578125c-43.683593 34.691406-98.953124 55.421875-159.070312 55.421875-119.285156 0-219.515625-81.585938-247.933594-192h495.867188c-9.902344 38.472656-28.53125 73.441406-53.640625 102.679688-12.789063 10.160156-24.585938 21.515624-35.222657 33.898437zm-26.722656-330.410156c.472656.457031.6875 1.121093.578125 1.769531l-1.800781 10.488281c-.28125 1.636719 1.433594 2.882813 2.902344 2.109375l9.421875-4.953125c.582031-.304687 1.277343-.304687 1.859375 0l9.421875 4.953125c1.464843.769532 3.179687-.476562 2.902343-2.109375l-1.800781-10.488281c-.109375-.648438.105469-1.3125.574219-1.769531l7.625-7.429688c1.1875-1.15625.53125-3.171875-1.109375-3.410156l-10.53125-1.53125c-.652344-.09375-1.214844-.503906-1.507813-1.09375l-4.710937-9.546875c-.734375-1.484375-2.851563-1.484375-3.585937 0l-4.710938 9.546875c-.289062.589844-.851562 1-1.503906 1.09375l-10.535156 1.53125c-1.640626.238281-2.296876 2.253906-1.105469 3.410156zm50.726563 110.152343c-3.304688 3.308594-3.304688 8.664063 0 11.96875 3.308593 3.308594 8.664062 3.308594 11.972656 0 12.097656-12.097656 12.097656-31.789062 0-43.890624-5.5-5.5-5.5-14.449219 0-19.949219 3.304687-3.304688 3.304687-8.664063 0-11.96875-3.308594-3.304688-8.664063-3.304688-11.972656 0-12.097657 12.097656-12.097657 31.789062 0 43.890625 5.5 5.5 5.5 14.449218 0 19.949218zm-120-118.03125c3.308593 3.308594 8.664062 3.308594 11.972656 0 3.304687-3.304687 3.304687-8.664062 0-11.96875-5.5-5.5-5.5-14.449218 0-19.949218 12.097656-12.101563 12.097656-31.789063 0-43.890625-3.308594-3.304688-8.664063-3.304688-11.972656 0-3.304688 3.304687-3.304688 8.664062 0 11.96875 5.5 5.5 5.5 14.449219 0 19.949219-12.097657 12.101562-12.097657 31.792968 0 43.890624zm0 0" fill="#994587"/><path d="m273.472656 380h-210c-5.523437 0-10-4.476562-10-10v-360c0-5.523438 4.476563-10 10-10h210c5.523438 0 10 4.476562 10 10v360c0 5.523438-4.476562 10-10 10zm0 0" fill="#968dca"/><path d="m273.472656 0h-180c-5.523437 0-10 4.476562-10 10v360c0 5.523438 4.476563 10 10 10h180c5.523438 0 10-4.476562 10-10v-360c0-5.523438-4.476562-10-10-10zm-120 10c5.523438 0 10 4.476562 10 10s-4.476562 10-10 10c-5.523437 0-10-4.476562-10-10s4.480469-10 10-10zm30 354h-30c-5.523437 0-10-4.476562-10-10s4.476563-10 10-10h30c5.523438 0 10 4.476562 10 10s-4.476562 10-10 10zm0-334c-5.523437 0-10-4.476562-10-10s4.476563-10 10-10c5.523438 0 10 4.476562 10 10s-4.476562 10-10 10zm0 0" fill="#c1bbdf"/><path d="m253.472656 25v300c0 2.761719-2.238281 5-5 5h-160c-2.757812 0-5-2.238281-5-5v-300c0-2.761719 2.242188-5 5-5h13.097656c1.039063 0 1.894532.796875 1.984376 1.828125.925781 10.1875 9.492187 18.171875 19.917968 18.171875h90c10.429688 0 18.996094-7.984375 19.917969-18.171875.09375-1.03125.949219-1.828125 1.984375-1.828125h13.097656c2.761719 0 5 2.238281 5 5zm0 0" fill="#fff5f5"/><path d="m450.203125 422.789062c-10.574219 12.300782-22.300781 23.585938-35.011719 33.691407h-190.191406c-8.285156 0-15-6.71875-15-15 0-8.285157 6.714844-15 15-15h3.425781l104.492188-281.316407c-7.546875-2.863281-12.917969-10.136718-12.917969-18.683593 0-11.046875 8.953125-20 20-20s20 8.953125 20 20c0 8.546875-5.371094 15.820312-12.917969 18.683593zm0 0" fill="#fded32"/><path d="m352.351562 159.351562 97.851563 263.4375c-10.574219 12.300782-22.300781 23.585938-35.011719 33.691407h-167.136718c-8.285157 0-15-6.71875-15-15 0-8.285157 6.714843-15 15-15h165c5.742187-.003907 10.355468-4.84375 9.976562-10.667969-.34375-5.316406-4.996094-9.332031-10.320312-9.332031h-123.386719c-13.9375 0-23.601563-13.898438-18.75-26.964844zm0 0" fill="#fdf061"/><path d="m281.003906 284.929688 11.789063-31.746094 89.488281-13.257813 10.5625 28.4375zm23.582032-63.492188 67.132812-9.945312-10.5625-28.4375-44.777344 6.636718zm109.382812 103.796875-10.5625-28.4375-134.195312 19.882813-11.792969 31.746093zm21.125 56.867187-10.5625-28.433593-178.90625 26.503906-11.792969 31.746094zm0 0" fill="#22b27f"/><path d="m404.644531 300.132812 9.324219 25.101563zm-43.488281-117.078124 10.5625 28.4375zm-103.738281 165.371093 26.144531-3.875 11.792969-31.746093-26.144531 3.875zm13.15625 31.089844 1.195312-3.214844-26.144531 3.871094-11.792969 31.746094 47.601563-7.050781c-9.375-4.019532-14.722656-14.945313-10.859375-25.351563zm10.429687-94.585937 26.144532-3.871094 11.789062-31.746094-26.144531 3.871094zm23.582032-63.492188 26.144531-3.875 11.792969-31.746094-26.144532 3.875zm0 0" fill="#028f5d"/><path d="m97.535156 90.296875c-.78125-.78125-.78125-2.046875 0-2.828125l7.777344-7.777344c.78125-.78125 2.046875-.78125 2.828125 0l12.28125 12.28125 23.539063-23.535156c.777343-.78125 2.046874-.78125 2.824218 0l7.78125 7.777344c.78125.78125.78125 2.046875 0 2.828125l-32.527344 32.527343c-.441406.441407-1.039062.625-1.617187.566407-.578125.058593-1.175781-.125-1.617187-.566407zm49.253906 40.992187c-.78125-.78125-2.046874-.78125-2.828124 0l-23.535157 23.535157-12.28125-12.28125c-.78125-.78125-2.046875-.78125-2.828125 0l-7.78125 7.777343c-.777344.78125-.777344 2.046876 0 2.828126l21.273438 21.273437c.445312.441406 1.039062.625 1.617187.566406.578125.058594 1.175781-.125 1.617188-.566406l32.527343-32.527344c.78125-.78125.78125-2.046875 0-2.828125zm0 60.15625c-.78125-.78125-2.046874-.78125-2.828124 0l-23.535157 23.535157-12.28125-12.28125c-.78125-.78125-2.046875-.78125-2.828125 0l-7.78125 7.777343c-.777344.78125-.777344 2.046876 0 2.828126l21.273438 21.273437c.445312.441406 1.039062.625 1.617187.566406.578125.058594 1.175781-.125 1.617188-.566406l32.527343-32.527344c.78125-.78125.78125-2.046875 0-2.828125zm0 0" fill="#22b27f"/><path d="m240 72v11c0 1.105469-.894531 2-2 2h-66c-1.105469 0-2-.894531-2-2v-11c0-1.105469.894531-2 2-2h66c1.105469 0 2 .894531 2 2zm-68 38h36c1.105469 0 2-.894531 2-2v-11c0-1.105469-.894531-2-2-2h-36c-1.105469 0-2 .894531-2 2v11c0 1.105469.894531 2 2 2zm66 22.851562h-66c-1.105469 0-2 .894532-2 2v11c0 1.105469.894531 2 2 2h66c1.105469 0 2-.894531 2-2v-11c0-1.105468-.894531-2-2-2zm-66 40h36c1.105469 0 2-.894531 2-2v-11c0-1.105468-.894531-2-2-2h-36c-1.105469 0-2 .894532-2 2v11c0 1.105469.894531 2 2 2zm66 20.15625h-66c-1.105469 0-2 .894532-2 2v11c0 1.105469.894531 2 2 2h66c1.105469 0 2-.894531 2-2v-11c0-1.105468-.894531-2-2-2zm-66 40h36c1.105469 0 2-.894531 2-2v-11c0-1.105468-.894531-2-2-2h-36c-1.105469 0-2 .894532-2 2v11c0 1.105469.894531 2 2 2zm66 19.140626h-66c-1.105469 0-2 .894531-2 2v11c0 1.105468.894531 2 2 2h66c1.105469 0 2-.894532 2-2v-11c0-1.105469-.894531-2-2-2zm-30 25h-36c-1.105469 0-2 .894531-2 2v11c0 1.105468.894531 2 2 2h36c1.105469 0 2-.894532 2-2v-11c0-1.105469-.894531-2-2-2zm-101.949219-12.148438c-4.140625 0-7.5 3.359375-7.5 7.5s3.359375 7.5 7.5 7.5 7.5-3.359375 7.5-7.5-3.359375-7.5-7.5-7.5zm20 0c-4.140625 0-7.5 3.359375-7.5 7.5s3.359375 7.5 7.5 7.5 7.5-3.359375 7.5-7.5-3.359375-7.5-7.5-7.5zm20 0c-4.140625 0-7.5 3.359375-7.5 7.5s3.359375 7.5 7.5 7.5 7.5-3.359375 7.5-7.5-3.359375-7.5-7.5-7.5zm0 0" fill="#c1bbdf"/></svg>