<?xml version="1.0" encoding="iso-8859-1"?>
<!-- Generator: Adobe Illustrator 19.0.0, SVG Export Plug-In . SVG Version: 6.00 Build 0)  -->
<svg version="1.1" id="Layer_1" xmlns="http://www.w3.org/2000/svg" xmlns:xlink="http://www.w3.org/1999/xlink" x="0px" y="0px"
	 viewBox="0 0 512 512" style="enable-background:new 0 0 512 512;" xml:space="preserve">
<path id="bg_12_" style="fill:#45B39C;" d="M512,256c0,141.387-114.614,256-256.002,256C114.613,512,0,397.387,0,256
	C0,114.616,114.613,0,255.998,0C397.386,0,512,114.616,512,256z"/>
<path style="fill:#EEC74D;" d="M173.259,171.579c0-8.713,7.06-15.777,15.775-15.777c8.712,0,15.774,7.064,15.774,15.777
	c0,8.711-7.062,15.773-15.774,15.773C180.318,187.352,173.259,180.29,173.259,171.579z"/>
<path style="fill:#EEC74D;" d="M199.268,170.299c0-8.713,7.06-15.777,15.775-15.777c8.712,0,15.774,7.064,15.774,15.777
	s-7.062,15.775-15.774,15.775C206.327,186.075,199.268,179.012,199.268,170.299z"/>
<circle style="fill:#EEC74D;" cx="244.462" cy="172.43" r="15.776"/>
<circle style="fill:#F7E4AB;" cx="238.066" cy="156.229" r="15.776"/>
<circle style="fill:#F7E4AB;" cx="212.911" cy="148.128" r="15.775"/>
<circle style="fill:#F7E4AB;" cx="197.134" cy="148.981" r="15.776"/>
<circle style="fill:#EEC74D;" cx="172.832" cy="165.182" r="15.776"/>
<path style="fill:#F7E4AB;" d="M165.157,137.895c0-8.713,7.06-15.777,15.774-15.777c8.716,0,15.775,7.064,15.775,15.777
	s-7.059,15.775-15.775,15.775C172.217,153.67,165.157,146.608,165.157,137.895z"/>
<path style="fill:#EEC74D;" d="M188.608,128.94c0-8.713,7.06-15.775,15.774-15.775c8.716,0,15.775,7.062,15.775,15.775
	s-7.06,15.777-15.775,15.777C195.668,144.717,188.608,137.653,188.608,128.94z"/>
<circle style="fill:#EEC74D;" cx="229.113" cy="132.778" r="15.777"/>
<circle style="fill:#F7E4AB;" cx="251.709" cy="143.864" r="15.776"/>
<path style="fill:#EEC74D;" d="M256.826,163.903c0-8.711,7.062-15.775,15.774-15.775c8.716,0,15.778,7.064,15.778,15.775
	c0,8.713-7.062,15.775-15.778,15.775C263.889,179.678,256.826,172.616,256.826,163.903z"/>
<circle style="fill:#F7E4AB;" cx="263.222" cy="157.934" r="15.775"/>
<circle style="fill:#F7E4AB;" cx="276.439" cy="145.143" r="15.775"/>
<circle style="fill:#F3D885;" cx="290.937" cy="163.477" r="15.775"/>
<circle style="fill:#F7E4AB;" cx="322.914" cy="163.051" r="15.776"/>
<path style="fill:#F7E4AB;" d="M324.618,168.167c0-8.711,7.062-15.775,15.778-15.775c8.712,0,15.774,7.064,15.774,15.775
	c0,8.713-7.062,15.775-15.774,15.775C331.681,183.942,324.618,176.879,324.618,168.167z"/>
<path style="fill:#F7E4AB;" d="M331.442,154.948c0-8.711,7.06-15.773,15.775-15.773c8.712,0,15.774,7.062,15.774,15.773
	c0,8.715-7.062,15.777-15.774,15.777C338.503,170.725,331.442,163.663,331.442,154.948z"/>
<circle style="fill:#F7E4AB;" cx="348.922" cy="143.438" r="15.777"/>
<circle style="fill:#EFE9B6;" cx="332.294" cy="127.235" r="15.775"/>
<circle style="fill:#F7E4AB;" cx="322.914" cy="148.981" r="15.776"/>
<circle style="fill:#F7E4AB;" cx="299.464" cy="143.864" r="15.775"/>
<circle style="fill:#F7E4AB;" cx="291.789" cy="122.118" r="15.775"/>
<path style="fill:#F3D885;" d="M254.269,125.53c0-8.713,7.062-15.775,15.774-15.775c8.716,0,15.778,7.062,15.778,15.775
	c0,8.711-7.062,15.775-15.778,15.775C261.331,141.305,254.269,134.241,254.269,125.53z"/>
<path style="fill:#F7E4AB;" d="M238.868,103.27c6.17-6.15,16.159-6.135,22.308,0.037c6.152,6.172,6.137,16.16-0.035,22.311
	c-6.173,6.15-16.159,6.135-22.308-0.037C232.679,119.407,232.696,109.42,238.868,103.27z"/>
<circle style="fill:#F7E4AB;" cx="227.407" cy="110.606" r="15.774"/>
<path style="fill:#F3D885;" d="M236.736,87.92c6.17-6.15,16.159-6.135,22.308,0.039c6.152,6.17,6.137,16.158-0.035,22.309
	c-6.173,6.152-16.159,6.135-22.308-0.037C230.547,104.059,230.564,94.073,236.736,87.92z"/>
<path style="fill:#F7E4AB;" d="M278.949,89.2c6.166-6.15,16.156-6.135,22.308,0.039c6.151,6.17,6.134,16.158-0.039,22.311
	c-6.172,6.148-16.159,6.133-22.308-0.039C272.759,105.336,272.776,95.35,278.949,89.2z"/>
<path style="fill:#F7E4AB;" d="M262.319,79.821c6.17-6.152,16.159-6.135,22.308,0.037c6.151,6.172,6.137,16.16-0.035,22.311
	c-6.173,6.148-16.159,6.133-22.308-0.039C256.129,95.957,256.147,85.969,262.319,79.821z"/>
<path style="fill:#F7E4AB;" d="M211.154,83.659c6.169-6.152,16.158-6.137,22.308,0.037c6.154,6.17,6.136,16.158-0.036,22.311
	c-6.173,6.15-16.159,6.133-22.308-0.039C204.967,99.795,204.981,89.807,211.154,83.659z"/>
<path style="fill:#F7E4AB;" d="M240.575,74.278c6.169-6.152,16.158-6.135,22.308,0.039c6.151,6.168,6.136,16.156-0.036,22.309
	c-6.173,6.15-16.159,6.133-22.308-0.039C234.385,90.415,234.402,80.428,240.575,74.278z"/>
<path style="fill:#F7E4AB;" d="M299.84,90.905c6.169-6.15,16.158-6.133,22.308,0.039c6.154,6.172,6.136,16.158-0.036,22.309
	c-6.173,6.152-16.159,6.135-22.308-0.037C293.652,107.044,293.667,97.057,299.84,90.905z"/>
<path style="fill:#F7E4AB;" d="M191.115,97.301c6.169-6.15,16.159-6.135,22.308,0.039c6.151,6.17,6.137,16.158-0.036,22.309
	c-6.172,6.15-16.159,6.133-22.308-0.039C184.925,113.438,184.942,103.452,191.115,97.301z"/>
<path style="fill:#F7E4AB;" d="M173.634,107.961c6.17-6.152,16.159-6.135,22.308,0.037c6.151,6.17,6.137,16.16-0.035,22.311
	c-6.173,6.148-16.159,6.133-22.308-0.039C167.443,124.096,167.462,114.11,173.634,107.961z"/>
<path style="fill:#F7E4AB;" d="M261.039,94.317c6.17-6.15,16.159-6.135,22.308,0.037c6.154,6.172,6.137,16.16-0.035,22.311
	c-6.173,6.15-16.159,6.135-22.308-0.037C254.852,110.454,254.867,100.467,261.039,94.317z"/>
<path style="fill:#F7E4AB;" d="M296.43,103.27c6.167-6.15,16.159-6.135,22.308,0.037c6.152,6.172,6.134,16.16-0.038,22.311
	c-6.173,6.15-16.156,6.135-22.308-0.037C290.24,119.407,290.258,109.42,296.43,103.27z"/>
<circle style="fill:#F3D885;" cx="339.969" cy="151.965" r="15.774"/>
<path style="fill:#F3D885;" d="M305.81,124.163c6.169-6.152,16.159-6.133,22.308,0.039c6.151,6.17,6.137,16.156-0.036,22.309
	c-6.172,6.15-16.159,6.133-22.308-0.039C299.619,140.299,299.637,130.313,305.81,124.163z"/>
<path style="fill:#F7E4AB;" d="M322.439,130.131c6.17-6.15,16.159-6.135,22.308,0.039c6.152,6.17,6.134,16.158-0.038,22.309
	c-6.173,6.15-16.159,6.135-22.308-0.037C316.248,146.27,316.267,136.282,322.439,130.131z"/>
<path style="fill:#F7E4AB;" d="M334.289,113.979c6.17-6.15,16.159-6.133,22.308,0.039c6.151,6.172,6.137,16.158-0.035,22.309
	c-6.173,6.152-16.159,6.135-22.308-0.039C328.102,130.116,328.117,120.129,334.289,113.979z"/>
<circle style="fill:#F7E4AB;" cx="330.928" cy="108.952" r="15.775"/>
<path style="fill:#F7E4AB;" d="M344.609,166.374c6.17-6.152,16.159-6.135,22.308,0.039c6.151,6.168,6.137,16.156-0.036,22.309
	c-6.172,6.15-16.158,6.133-22.308-0.039C338.419,182.51,338.438,172.524,344.609,166.374z"/>
<path style="fill:#EEC74D;" d="M145.067,159.126c6.17-6.15,16.159-6.135,22.308,0.037c6.152,6.172,6.137,16.16-0.035,22.311
	c-6.173,6.15-16.159,6.133-22.311-0.039C138.878,175.26,138.895,165.276,145.067,159.126z"/>
<circle style="fill:#F7E4AB;" cx="175.816" cy="143.864" r="15.775"/>
<path style="fill:#F7E4AB;" d="M156.579,142.069c6.169-6.15,16.159-6.133,22.308,0.039c6.151,6.172,6.137,16.158-0.036,22.309
	c-6.172,6.152-16.159,6.137-22.308-0.037C150.392,158.208,150.406,148.221,156.579,142.069z"/>
<path style="fill:#F3D885;" d="M290.082,168.592c0-8.711,7.062-15.773,15.778-15.773c8.712,0,15.774,7.062,15.774,15.773
	c0,8.713-7.062,15.777-15.774,15.777C297.145,184.37,290.082,177.305,290.082,168.592z"/>
<polygon style="fill:#EF3820;" points="354.492,442.323 157.508,442.323 137.043,173.71 374.959,173.71 "/>
<polygon style="fill:#FFFFFF;" points="291.422,442.323 220.578,442.323 213.221,173.71 298.779,173.71 "/>
<path style="fill:#EF3820;" d="M156.62,338.985c-6.515-28.785,32.894-62.23,88.016-74.703
	c55.117-12.473,105.083,0.752,111.595,29.539c6.515,28.785-32.89,62.228-88.013,74.701
	C213.102,380.995,163.136,367.77,156.62,338.985z"/>
<ellipse transform="matrix(0.2207 0.9753 -0.9753 0.2207 508.4521 -3.53)" style="fill:#FFFFFF;" cx="256.435" cy="316.417" rx="49.457" ry="94.707"/>
<path style="fill:#EF3820;" d="M194.068,320.461c1.1-1.596,2.136-2.824,3.115-3.693c0.977-0.869,2.061-1.447,3.251-1.732
	c1.54-0.371,2.796-0.082,3.764,0.869c0.971,0.953,1.456,2.387,1.456,4.315c0,3.375-1.164,6.752-3.492,10.129
	c-2.332,3.379-4.865,5.395-7.599,6.053c-0.763,0.184-1.37,0.246-1.814,0.184c-0.44-0.061-1.021-0.311-1.739-0.75
	c-1.099,5.105-1.808,9.156-2.132,12.15l-5.815,2.428c1.084-7.406,2.466-14.978,4.148-22.717c-2.02,3.129-3.377,5.084-4.082,5.863
	l-0.524,0.127v-2.062c2.9-3.828,5.291-8.207,7.17-13.135l5.181-2.184L194.068,320.461z M191.419,333.352
	c0.795,1.123,1.676,1.57,2.638,1.338c1.543-0.369,2.909-1.871,4.095-4.502c1.182-2.629,1.774-5.057,1.774-7.287
	c0-1.176-0.238-2.07-0.721-2.68c-0.482-0.609-1.104-0.822-1.867-0.641c-0.596,0.145-1.224,0.562-1.879,1.254
	c-0.657,0.693-1.152,1.435-1.488,2.228c-0.334,0.789-0.718,2.123-1.144,3.994L191.419,333.352z"/>
<path style="fill:#EF3820;" d="M230.102,322.274c-0.78,0.871-1.536,1.541-2.268,1.998c-0.732,0.459-1.314,0.738-1.742,0.844
	c-1.102,0.264-2.191,0.1-3.275-0.498c-2.197,3.859-4.719,6.129-7.562,6.812c-1.771,0.426-3.207,0.105-4.306-0.957
	c-1.099-1.065-1.649-2.699-1.649-4.898c0-3.482,1.235-6.77,3.71-9.859c2.477-3.096,5.431-5.051,8.867-5.877
	c1.301-0.315,2.251-0.402,2.852-0.264c0.604,0.139,0.977,0.381,1.113,0.73c0.137,0.35,0.206,0.814,0.206,1.393
	c0,2.857-0.78,6.549-2.338,11.08c0.78,0.531,1.596,0.691,2.45,0.488c1.024-0.248,2.338-1.457,3.942-3.629L230.102,322.274
	L230.102,322.274z M222.54,311.284c-0.226-0.039-0.557-0.006-0.982,0.098c-1.989,0.477-3.541,1.887-4.663,4.236
	c-1.122,2.346-1.686,4.91-1.686,7.691c0,1.543,0.241,2.682,0.732,3.422c0.488,0.734,1.171,1,2.04,0.791
	c1.084-0.26,2.26-1.545,3.528-3.85c-1.436-1.455-2.153-3.225-2.153-5.303C219.356,315.926,220.417,313.563,222.54,311.284z"/>
<path style="fill:#EF3820;" d="M241.039,309.174c1.102-1.594,2.138-2.824,3.114-3.693c0.977-0.869,2.061-1.445,3.252-1.73
	c1.539-0.371,2.796-0.08,3.764,0.869c0.971,0.953,1.456,2.387,1.456,4.312c0,3.379-1.164,6.754-3.493,10.129
	c-2.331,3.381-4.865,5.398-7.599,6.055c-0.762,0.184-1.369,0.244-1.814,0.184c-0.44-0.06-1.02-0.31-1.735-0.752
	c-1.102,5.107-1.811,9.158-2.132,12.152l-5.818,2.43c1.084-7.408,2.466-14.98,4.147-22.719c-2.018,3.127-3.376,5.082-4.079,5.863
	l-0.526,0.125v-2.06c2.899-3.828,5.294-8.209,7.17-13.135l5.181-2.186L241.039,309.174z M238.39,322.067
	c0.795,1.121,1.676,1.568,2.638,1.34c1.542-0.371,2.909-1.873,4.094-4.502c1.183-2.631,1.775-5.06,1.775-7.289
	c0-1.176-0.238-2.07-0.718-2.68c-0.485-0.609-1.107-0.822-1.87-0.639c-0.596,0.143-1.224,0.561-1.879,1.252
	c-0.655,0.695-1.152,1.434-1.488,2.229c-0.334,0.789-0.718,2.121-1.144,3.996L238.39,322.067z"/>
<path style="fill:#EF3820;" d="M273.634,311.813c-1.956,2.395-3.742,4.238-5.371,5.531c-1.626,1.291-3.326,2.148-5.098,2.574
	c-1.985,0.477-3.623,0.227-4.913-0.754c-1.292-0.983-1.939-2.465-1.939-4.449c0-3.256,1.189-6.545,3.564-9.873
	c2.373-3.328,4.942-5.324,7.712-5.988c1.357-0.326,2.466-0.215,3.32,0.336c0.857,0.549,1.283,1.43,1.283,2.637
	c0,0.428-0.081,0.766-0.241,1.02c-0.158,0.254-0.462,0.541-0.905,0.859l-2.659,1.898c-0.318,0.23-0.557,0.363-0.709,0.398
	c-0.214,0.053-0.318-0.074-0.318-0.381c0-0.121,0.045-0.533,0.134-1.236c0.096-0.701,0.138-1.127,0.138-1.279
	c0-0.672-0.141-1.182-0.423-1.525c-0.283-0.346-0.658-0.461-1.132-0.348c-1.116,0.268-2.135,1.338-3.06,3.211
	c-0.923,1.869-1.388,3.859-1.388,5.967c0,1.818,0.438,3.166,1.307,4.041c0.873,0.877,2.031,1.141,3.484,0.789
	c1.235-0.295,2.402-0.932,3.495-1.904c1.09-0.971,2.332-2.359,3.719-4.156L273.634,311.813L273.634,311.813z"/>
<path style="fill:#EF3820;" d="M294.212,306.87c-0.78,0.873-1.536,1.541-2.269,2c-0.732,0.459-1.313,0.738-1.742,0.842
	c-1.102,0.264-2.194,0.102-3.275-0.496c-2.197,3.858-4.72,6.129-7.562,6.812c-1.772,0.424-3.207,0.104-4.306-0.961
	c-1.099-1.062-1.649-2.697-1.649-4.895c0-3.482,1.235-6.77,3.71-9.861c2.477-3.094,5.431-5.051,8.867-5.877
	c1.301-0.312,2.251-0.4,2.852-0.262c0.604,0.137,0.977,0.381,1.113,0.729c0.137,0.352,0.205,0.814,0.205,1.393
	c0,2.859-0.78,6.551-2.337,11.08c0.777,0.533,1.596,0.691,2.45,0.488c1.024-0.246,2.338-1.455,3.942-3.627v2.635H294.212z
	 M286.649,295.879c-0.227-0.039-0.558-0.006-0.983,0.098c-1.988,0.478-3.54,1.889-4.662,4.236c-1.123,2.348-1.686,4.912-1.686,7.691
	c0,1.543,0.241,2.684,0.732,3.424c0.488,0.734,1.17,0.998,2.036,0.791c1.087-0.262,2.264-1.545,3.532-3.85
	c-1.436-1.457-2.153-3.225-2.153-5.303C283.466,300.524,284.526,298.159,286.649,295.879z"/>
<path style="fill:#EF3820;" d="M311.327,302.756c-3.836,4.68-6.789,7.27-8.867,7.77c-0.933,0.221-1.719,0.02-2.361-0.615
	c-0.641-0.631-0.962-1.527-0.962-2.691c0-2.152,1.152-5.315,3.46-9.492c-1.132,0.853-2.367,1.555-3.713,2.109
	c-0.992,2.07-2.549,4.414-4.672,7.033l-0.527,0.127v-2.062c1.191-1.523,2.27-3.111,3.23-4.762c-1.315-0.266-1.971-0.973-1.971-2.117
	c0-1.176,0.402-2.531,1.203-4.061c0.801-1.527,1.902-2.461,3.311-2.797c1.191-0.287,1.787,0.18,1.787,1.402
	c0,0.963-0.343,2.418-1.03,4.369c2.536-0.881,4.749-3.354,6.643-7.414l2.087-0.592l-2.132,6.379
	c-0.887,2.688-1.459,4.508-1.715,5.463c-0.265,0.957-0.39,1.777-0.39,2.465c0,0.643,0.145,1.119,0.446,1.428
	c0.295,0.31,0.693,0.406,1.2,0.285c0.551-0.131,1.077-0.443,1.581-0.941c0.506-0.496,1.635-1.801,3.392-3.92V302.756z"/>
<path style="fill:#EF3820;" d="M333.828,297.352c-3.528,4.576-6.554,7.164-9.076,7.77c-1.021,0.246-1.849,0.088-2.474-0.482
	c-0.626-0.566-0.941-1.455-0.941-2.662c0-1.633,0.673-4.293,2.019-7.975c0.718-1.975,1.078-3.207,1.078-3.697
	s-0.193-0.688-0.574-0.596c-0.212,0.053-0.494,0.227-0.849,0.525c-0.319,0.291-0.694,0.68-1.123,1.162
	c-0.378,0.445-0.81,0.973-1.283,1.594c-0.411,0.525-0.854,1.123-1.328,1.785l-1.283,1.795c-0.565,0.826-0.914,1.635-1.051,2.432
	c-0.23,1.353-0.384,2.582-0.462,3.684c-0.044,0.824-0.068,1.92-0.068,3.295l-5.064,2.408c-0.167-2.021-0.247-3.537-0.247-4.547
	c0-2.457,0.285-4.855,0.855-7.193c0.571-2.338,1.494-5.033,2.76-8.086l5.595-2.422c-1.176,3.445-1.95,6.119-2.316,8.023
	c2.501-3.397,4.49-5.809,5.964-7.24c1.471-1.43,2.778-2.281,3.925-2.555c0.774-0.185,1.423-0.049,1.941,0.414s0.78,1.135,0.78,2.02
	c0,1.465-0.658,4.035-1.975,7.711c-0.899,2.523-1.349,4.129-1.349,4.818c0,0.918,0.375,1.289,1.125,1.109
	c1.117-0.27,2.928-2.178,5.423-5.727v2.637H333.828z"/>
<g>
</g>
<g>
</g>
<g>
</g>
<g>
</g>
<g>
</g>
<g>
</g>
<g>
</g>
<g>
</g>
<g>
</g>
<g>
</g>
<g>
</g>
<g>
</g>
<g>
</g>
<g>
</g>
<g>
</g>
</svg>
