<svg viewBox="0 0 512.00038 512" xmlns="http://www.w3.org/2000/svg"><path d="m512 256c0 141.386719-114.613281 256-256 256-141.382812 0-256-114.613281-256-256s114.617188-256 256-256c141.386719 0 256 114.613281 256 256zm0 0" fill="#fded32"/><path d="m507.488281 424.785156-65.125 10.070313c-1.632812.25-3.054687 1.246093-3.851562 2.695312l-31.734375 57.753907c-1.898438 3.453124-6.757813 3.714843-9.019532.488281l-141.757812-202.449219-141.757812 202.449219c-2.261719 3.226562-7.121094 2.964843-9.019532-.488281l-31.734375-57.753907c-.796875-1.449219-2.21875-2.445312-3.851562-2.695312l-65.125-10.070313c-3.894531-.601562-5.804688-5.078125-3.542969-8.308594l175.082031-250.042968c1.6875-2.40625 5-2.992188 7.40625-1.304688l72.542969 50.792969 72.542969-50.792969c2.40625-1.6875 5.722656-1.101562 7.40625 1.304688l175.085937 250.042968c2.257813 3.230469.347656 7.707032-3.546875 8.308594zm0 0" fill="#6354b0"/><path d="m183.457031 165.128906 16.558594 11.589844c-2.40625-1.683594-5.722656-1.097656-7.410156 1.304688l-174.277344 248.898437-13.816406-2.136719c-3.890625-.601562-5.804688-5.078125-3.542969-8.308594l175.082031-250.042968c1.6875-2.40625 5-2.992188 7.40625-1.304688zm55.773438 69.027344c-1.683594-2.40625-1.101563-5.722656 1.304687-7.40625l-16.554687 11.59375c-2.40625 1.683594-2.992188 5-1.304688 7.40625l175.082031 250.042969c2.261719 3.226562 7.121094 2.964843 9.019532-.488281l6.730468-12.25zm0 0" fill="#463b83"/><path d="m265.089844 237.707031 158.699218 226.640625-10.851562 19.746094-160.183594-228.769531-156.546875 223.570312-10.847656-19.742187 155.058594-221.445313-5.109375-7.296875 16.554687-11.59375.890625 1.273438 3.027344-4.324219 16.554688 11.59375zm-70.304688-64.648437-177.628906 253.679687 22.261719 3.445313 171.925781-245.53125zm118.070313 3.050781-16.554688 11.59375 170.421875 243.386719 22.261719-3.445313zm0 0" fill="#aba4d5"/><path d="m434.464844 221.910156c4.03125 6.230469 5.773437 13.699219 4.34375 20.976563-.019532.09375-.039063.1875-.054688.28125-1.449218 7.304687-5.945312 13.550781-12.070312 17.785156-4.289063 2.960937-7.800782 7.152344-9.941406 12.324219-2.144532 5.171875-2.625 10.617187-1.6875 15.742187 1.335937 7.316407.09375 14.902344-4.035157 21.085938-.058593.085937-.113281.171875-.171875.253906-4.132812 6.171875-10.65625 10.21875-17.914062 11.777344-5.097656 1.097656-9.945313 3.625-13.90625 7.585937-3.960938 3.960938-6.488282 8.808594-7.585938 13.90625-1.558594 7.261719-5.605468 13.785156-11.777344 17.914063-.082031.058593-.167968.113281-.253906.171875-6.183594 4.128906-13.769531 5.371094-21.085937 4.035156-5.125-.933594-10.570313-.457031-15.742188 1.6875-5.175781 2.140625-9.363281 5.652344-12.328125 9.941406-4.230468 6.125-10.480468 10.621094-17.785156 12.070313-.089844.019531-.183594.035156-.277344.054687-7.28125 1.429688-14.75-.3125-20.980468-4.34375-4.378907-2.832031-9.601563-4.480468-15.210938-4.480468-5.605469 0-10.828125 1.648437-15.210938 4.480468-6.230468 4.03125-13.699218 5.773438-20.976562 4.34375-.09375-.019531-.1875-.035156-.28125-.054687-7.304688-1.449219-13.550781-5.945313-17.785156-12.070313-2.960938-4.285156-7.152344-7.800781-12.324219-9.941406s-10.617187-2.621094-15.742187-1.6875c-7.316407 1.335938-14.902344.09375-21.089844-4.035156-.082032-.058594-.167969-.113282-.253906-.167969-6.167969-4.132813-10.214844-10.65625-11.777344-17.917969-1.09375-5.097656-3.621094-9.945312-7.582032-13.90625-3.960937-3.960937-8.8125-6.488281-13.90625-7.582031-7.261718-1.5625-13.785156-5.609375-17.914062-11.777344-.058594-.085937-.113281-.171875-.171875-.253906-4.128906-6.1875-5.371094-13.773437-4.035156-21.089844.933593-5.125.457031-10.570312-1.6875-15.742187-2.140625-5.171875-5.65625-9.363282-9.941407-12.324219-6.125-4.234375-10.621093-10.480469-12.070312-17.785156-.019531-.09375-.035156-.1875-.054688-.28125-1.429687-7.28125.3125-14.75 4.34375-20.980469 2.835938-4.378906 4.480469-9.601562 4.480469-15.207031 0-5.609375-1.644531-10.828125-4.480469-15.210938-4.03125-6.230469-5.773437-13.699219-4.34375-20.980469.019532-.09375.035157-.1875.054688-.277343 1.449219-7.304688 5.945312-13.550781 12.070312-17.785157 4.285157-2.964843 7.800782-7.152343 9.941407-12.328124 2.144531-5.171876 2.621093-10.613282 1.6875-15.742188-1.335938-7.316406-.09375-14.902344 4.035156-21.085938.058594-.085937.113281-.167968.171875-.253906 4.132812-6.171875 10.652344-10.21875 17.914062-11.777344 5.097657-1.097656 9.945313-3.625 13.90625-7.585937 3.960938-3.960937 6.488282-8.808594 7.582032-13.90625 1.5625-7.257813 5.609375-13.78125 11.777344-17.914063.085937-.058593.171874-.113281.253906-.171874 6.1875-4.128907 13.773437-5.371094 21.089844-4.035157 5.125.9375 10.570312.457031 15.742187-1.683593 5.171875-2.144532 9.363281-5.65625 12.324219-9.945313 4.234375-6.125 10.480468-10.621094 17.785156-12.070313.09375-.015624.1875-.035156.28125-.054687 7.277344-1.429687 14.746094.316406 20.976562 4.34375 4.382813 2.835937 9.605469 4.480469 15.210938 4.480469 5.609375 0 10.832031-1.644532 15.210938-4.480469 6.230468-4.027344 13.699218-5.773437 20.980468-4.34375.09375.019531.1875.039063.277344.054687 7.304688 1.449219 13.550781 5.945313 17.785156 12.070313 2.964844 4.289063 7.15625 7.800781 12.328125 9.945313 5.171875 2.140624 10.617188 2.621093 15.742188 1.683593 7.316406-1.335937 14.902343-.09375 21.085937 4.035157.085938.058593.171875.113281.253906.171874 6.171876 4.132813 10.21875 10.65625 11.777344 17.914063 1.097656 5.097656 3.625 9.949219 7.585938 13.90625 3.960937 3.960937 8.808594 6.488281 13.90625 7.585937 7.261718 1.558594 13.78125 5.605469 17.914062 11.777344.058594.085938.113282.167969.171875.253906 4.128907 6.183594 5.371094 13.769532 4.035157 21.085938-.933594 5.125-.457032 10.570312 1.6875 15.742188 2.140624 5.175781 5.652343 9.363281 9.941406 12.328124 6.125 4.230469 10.621094 10.480469 12.070312 17.785157.015625.089843.035156.183593.054688.277343 1.429687 7.28125-.316406 14.75-4.34375 20.980469-2.835938 4.382813-4.480469 9.601563-4.480469 15.210938 0 5.605469 1.644531 10.828125 4.480469 15.210937zm0 0" fill="#fd0464"/><path d="m434.464844 191.488281c-2.835938 4.382813-4.480469 9.601563-4.480469 15.210938s1.644531 10.828125 4.480469 15.210937c4.03125 6.230469 5.773437 13.699219 4.34375 20.976563-.019532.09375-.039063.1875-.054688.28125-1.449218 7.304687-5.945312 13.550781-12.070312 17.785156-4.289063 2.960937-7.800782 7.152344-9.941406 12.324219-2.144532 5.175781-2.625 10.617187-1.6875 15.742187 1.332031 7.316407.089843 14.902344-4.039063 21.089844-.054687.082031-.109375.167969-.167969.253906-4.132812 6.167969-10.65625 10.214844-17.914062 11.777344-5.097656 1.09375-9.949219 3.621094-13.910156 7.582031-3.960938 3.960938-6.484376 8.8125-7.582032 13.90625-1.5625 7.261719-5.605468 13.785156-11.777344 17.917969-.082031.054687-.167968.109375-.253906.167969-6.1875 4.128906-13.769531 5.371094-21.085937 4.035156-5.125-.933594-10.570313-.453125-15.742188 1.6875-5.175781 2.144531-9.367187 5.65625-12.328125 9.941406-4.234375 6.125-10.480468 10.625-17.785156 12.070313-.09375.019531-.183594.039062-.277344.054687-7.28125 1.433594-14.75-.3125-20.980468-4.34375-4.382813-2.832031-9.601563-4.480468-15.210938-4.480468s-10.828125 1.648437-15.210938 4.480468c-6.230468 4.03125-13.699218 5.777344-20.980468 4.34375-.089844-.015625-.183594-.035156-.277344-.054687-7.304688-1.445313-13.554688-5.941407-17.785156-12.070313-2.964844-4.285156-7.152344-7.796875-12.328125-9.941406-2.902344-1.203125-5.894531-1.863281-8.867188-2.0625-34.609375-41.007812-55.929687-96.972656-55.929687-158.675781 0-61.707031 21.320312-117.671875 55.929687-158.679688 2.972657-.195312 5.964844-.855469 8.867188-2.058593 5.175781-2.144532 9.367187-5.65625 12.328125-9.945313 4.234375-6.125 10.480468-10.621094 17.785156-12.070313.09375-.019531.1875-.035156.277344-.054687 7.28125-1.429687 14.75.316406 20.980468 4.34375 4.382813 2.835937 9.601563 4.480469 15.210938 4.480469s10.828125-1.644532 15.210938-4.480469c6.230468-4.027344 13.699218-5.773437 20.980468-4.34375.09375.019531.183594.039063.277344.054687 7.304688 1.449219 13.550781 5.945313 17.785156 12.070313 2.964844 4.289063 7.152344 7.800781 12.328125 9.945313 5.171875 2.140624 10.617188 2.621093 15.742188 1.683593 7.3125-1.332031 14.898437-.089843 21.085937 4.039063.085938.054687.167969.113281.253906.167968 6.167969 4.132813 10.214844 10.65625 11.777344 17.917969 1.097656 5.09375 3.621094 9.945313 7.582032 13.90625 3.964843 3.960938 8.8125 6.488281 13.910156 7.582031 7.257812 1.5625 13.78125 5.609376 17.914062 11.777344.058594.085938.113282.171875.167969.253906 4.128906 6.1875 5.371094 13.773438 4.039063 21.089844-.9375 5.125-.457032 10.570313 1.6875 15.742188 2.140624 5.171875 5.652343 9.363281 9.941406 12.324218 6.125 4.234376 10.621094 10.480469 12.070312 17.785157.015625.09375.035156.1875.054688.28125 1.429687 7.277343-.3125 14.746093-4.34375 20.976562zm0 0" fill="#fd3980"/><path d="m362.492188 206.699219c0 58.8125-47.679688 106.492187-106.492188 106.492187s-106.492188-47.679687-106.492188-106.492187c0-58.816407 47.679688-106.492188 106.492188-106.492188s106.492188 47.675781 106.492188 106.492188zm49.53125 0c0 86.167969-69.851563 156.023437-156.023438 156.023437-86.167969 0-156.023438-69.855468-156.023438-156.023437 0-86.171875 69.855469-156.023438 156.023438-156.023438s156.023438 69.851563 156.023438 156.023438zm-24.765626 0c0-72.492188-58.765624-131.257813-131.257812-131.257813s-131.257812 58.765625-131.257812 131.257813c0 72.492187 58.765624 131.257812 131.257812 131.257812s131.257812-58.765625 131.257812-131.257812zm0 0" fill="#e30048"/><path d="m229.824219 177.507812-16.964844 59.371094c-.222656.769532-.929687 1.304688-1.730469 1.304688h-24.273437c-.804688 0-1.511719-.535156-1.730469-1.304688l-16.964844-59.371094c-.328125-1.152343.535156-2.292968 1.730469-2.292968h14.25c.800781 0 1.507813.53125 1.730469 1.304687l11.390625 39.867188c.496093 1.738281 2.960937 1.738281 3.457031 0l11.394531-39.867188c.21875-.773437.925781-1.304687 1.726563-1.304687h14.25c1.199218 0 2.058594 1.140625 1.734375 2.292968zm42.710937-2.292968h-31.9375c-.992187 0-1.796875.804687-1.796875 1.796875v14.394531c0 .992188.804688 1.796875 1.796875 1.796875h6.972656v26.988281h-6.972656c-.992187 0-1.796875.804688-1.796875 1.796875v14.394531c0 .996094.804688 1.800782 1.796875 1.800782h31.9375c.992188 0 1.796875-.808594 1.796875-1.800782v-14.394531c0-.992187-.804687-1.796875-1.796875-1.796875h-6.972656v-26.988281h6.972656c.992188 0 1.796875-.804687 1.796875-1.796875v-14.394531c0-.992188-.804687-1.796875-1.796875-1.796875zm71.375 26.386718c0 14.574219-11.816406 26.386719-26.390625 26.386719h-12.378906v8.398438c0 .992187-.804687 1.796875-1.796875 1.796875h-14.394531c-.992188 0-1.796875-.804688-1.796875-1.796875v-59.375c0-.992188.804687-1.796875 1.796875-1.796875h28.574219c14.570312 0 26.386718 11.8125 26.386718 26.386718zm-17.445312 0c0-5.316406-4.308594-9.625-9.625-9.625h-11.070313v19.25h11.070313c5.316406 0 9.625-4.308593 9.625-9.625zm0 0" fill="#fdf7bd"/></svg>