<?xml version="1.0" encoding="iso-8859-1"?>
<!-- Generator: Adobe Illustrator 19.0.0, SVG Export Plug-In . SVG Version: 6.00 Build 0)  -->
<svg version="1.1" id="Capa_1" xmlns="http://www.w3.org/2000/svg" xmlns:xlink="http://www.w3.org/1999/xlink" x="0px" y="0px"
	 viewBox="0 0 512 512" style="enable-background:new 0 0 512 512;" xml:space="preserve">
<circle style="fill:#590F38;" cx="256" cy="256" r="256"/>
<path style="fill:#42092B;" d="M263.589,511.879c129.05-3.758,234.15-103.013,247.073-229.562l-82.974-82.974l-27.849,16.236
	l-68.058-68.058L64.339,312.63L263.589,511.879z"/>
<path style="fill:#FBB03B;" d="M256,272.457c64.361,0,121.567,17.54,157.837,44.727c17.19,12.885,40.487-0.781,40.661-23.953
	c0.001-0.166,0.002-0.333,0.002-0.499c0-62.774-88.871-134.551-198.5-134.551S57.5,229.958,57.5,292.732
	c0,0.166,0.001,0.333,0.002,0.499c0.174,23.172,23.471,36.839,40.661,23.953C134.433,289.997,191.639,272.457,256,272.457z"/>
<path style="fill:#C68024;" d="M256,158.181c-0.111,0-0.222,0.003-0.333,0.003V272.46c0.111,0,0.222-0.003,0.333-0.003
	c64.361,0,121.568,17.54,157.837,44.727c17.19,12.886,40.487-0.781,40.661-23.953c0.001-0.166,0.002-0.333,0.002-0.499
	C454.5,229.958,365.629,158.181,256,158.181z"/>
<path style="fill:#FB983B;" d="M299.522,309.271c-28.699-5.954-58.345-5.954-87.044,0c-18.204,3.667-36.754,1.045-46.49-9.172
	c-23.702-25.93-51.82-49.052-83.825-68.251c-18.386-9.674,0.405-44.498,44.302-61.015c83.496-31.081,175.573-31.081,259.069,0
	c43.897,16.517,62.688,51.342,44.302,61.015c-32.005,19.198-60.122,42.321-83.825,68.251
	C336.276,310.315,317.726,312.937,299.522,309.271z"/>
<path style="fill:#BF6821;" d="M385.534,170.833c-41.854-15.58-85.863-23.347-129.868-23.307V304.81
	c14.697-0.023,29.397,1.462,43.855,4.461c18.204,3.666,36.754,1.044,46.49-9.172c23.702-25.93,51.819-49.052,83.825-68.251
	C448.222,222.175,429.432,187.35,385.534,170.833z"/>
<path style="fill:#FBB03B;" d="M288.595,321.628h-65.191c-13.968,0-26.099-10.774-29.286-26.012l-23.95-114.494
	c-4.424-21.148,9.9-41.393,29.286-41.393h113.09c19.386,0,33.71,20.245,29.286,41.393l-23.95,114.494
	C314.694,310.854,302.564,321.628,288.595,321.628z"/>
<path style="fill:#C68024;" d="M312.545,139.729h-56.878v181.899h32.929c13.968,0,26.099-10.774,29.286-26.012l23.95-114.493
	C346.255,159.974,331.931,139.729,312.545,139.729z"/>
<g>
</g>
<g>
</g>
<g>
</g>
<g>
</g>
<g>
</g>
<g>
</g>
<g>
</g>
<g>
</g>
<g>
</g>
<g>
</g>
<g>
</g>
<g>
</g>
<g>
</g>
<g>
</g>
<g>
</g>
</svg>
