<?xml version="1.0" encoding="iso-8859-1"?>
<!-- Generator: Adobe Illustrator 19.0.0, SVG Export Plug-In . SVG Version: 6.00 Build 0)  -->
<svg version="1.1" id="Layer_1" xmlns="http://www.w3.org/2000/svg" xmlns:xlink="http://www.w3.org/1999/xlink" x="0px" y="0px"
	 viewBox="0 0 512 512" style="enable-background:new 0 0 512 512;" xml:space="preserve">
<circle id="bg" style="fill:#334D5C;" cx="256" cy="256" r="256"/>
<path style="fill:#88B72E;" d="M131.951,335.102c0.092,0,0.182-0.012,0.27-0.012c0.092,0,0.178,0.012,0.271,0.012H131.951z"/>
<path style="fill:#88B72E;" d="M163.438,306.373c-0.09,0-0.184,0.012-0.273,0.014c-0.09-0.002-0.176-0.014-0.266-0.014H163.438z"/>
<path style="fill:#88B72E;" d="M193.84,335.102c0.09,0,0.18-0.012,0.273-0.012c0.09,0,0.176,0.012,0.266,0.012H193.84z"/>
<path style="fill:#88B72E;" d="M225.328,306.373c-0.098,0-0.184,0.012-0.273,0.014c-0.094-0.002-0.178-0.014-0.273-0.014H225.328z"
	/>
<path style="fill:#88B72E;" d="M255.727,335.102c0.094,0,0.18-0.012,0.271-0.012c0.096,0,0.182,0.012,0.271,0.012H255.727z"/>
<path style="fill:#88B72E;" d="M287.215,306.373c-0.094,0-0.18,0.012-0.272,0.014c-0.092-0.002-0.18-0.014-0.271-0.014H287.215z"/>
<path style="fill:#5E2506;" d="M417.072,294.296c0,3.068-2.486,5.555-5.553,5.555H100.481c-3.068,0-5.555-2.486-5.555-5.555l0,0
	c0-3.069,2.486-5.556,5.555-5.556H411.52C414.586,288.74,417.072,291.227,417.072,294.296L417.072,294.296z"/>
<path style="fill:#D86B35;" d="M256,108.793L256,108.793h-0.002c-97.701,0-176.906,35.814-176.906,106.315h353.816
	C432.908,144.607,353.703,108.793,256,108.793z"/>
<path style="fill:#D86B35;" d="M256,403.211L256,403.211h-0.002c-97.701,0-176.906-11.939-176.906-82.441h353.816
	C432.908,391.272,353.703,403.211,256,403.211z"/>
<path style="fill:#8C2E14;" d="M432.908,267.05c0,11.979-9.713,21.69-21.691,21.69H100.779c-11.979,0-21.688-9.712-21.688-21.69l0,0
	c0-11.979,9.709-21.688,21.688-21.688h310.438C423.195,245.361,432.908,255.071,432.908,267.05L432.908,267.05z"/>
<path style="fill:#4B680C;" d="M106.529,235.974h298.939c11.533,0,20.885-9.351,20.885-20.886H85.645
	C85.645,226.623,94.994,235.974,106.529,235.974z"/>
<path style="fill:#4B680C;" d="M106.529,299.851h298.939c11.533,0,20.885,9.349,20.885,20.886H85.645
	C85.645,309.199,94.994,299.851,106.529,299.851z"/>
<rect x="113.564" y="235.99" style="fill:#DB4619;" width="142.266" height="9.371"/>
<rect x="278.238" y="235.99" style="fill:#DB4619;" width="120.193" height="9.371"/>
<path style="fill:#DBB538;" d="M224.164,245.361h-27.131h-14.189H168.66h-27.135h-40.049l75.045,58.91l0.002-0.014
	c1.771,1.311,3.949,2.1,6.32,2.1c2.375,0,4.555-0.789,6.322-2.1l0.004,0.014l75.045-58.91H224.164z"/>
<path style="fill:#DBB538;" d="M370.473,245.361H343.34h-14.188h-14.186h-27.135h-40.049l75.049,58.91v-0.014
	c1.771,1.311,3.951,2.1,6.32,2.1c2.377,0,4.551-0.789,6.318-2.1l0.006,0.014l75.043-58.91H370.473z"/>
<path style="fill:#88B72E;" d="M101.275,229.466c8.568-0.134,15.473-6.503,15.473-14.352H85.805
	C85.805,222.963,92.709,229.332,101.275,229.466z"/>
<path style="fill:#88B72E;" d="M132.221,200.763c-8.566,0.134-15.473,6.503-15.473,14.352h30.943
	C147.691,207.266,140.789,200.896,132.221,200.763z"/>
<path style="fill:#88B72E;" d="M163.164,229.466c8.57-0.134,15.473-6.503,15.473-14.352h-30.945
	C147.691,222.963,154.596,229.332,163.164,229.466z"/>
<path style="fill:#88B72E;" d="M194.113,200.763c-8.572,0.134-15.477,6.503-15.477,14.352h30.945
	C209.582,207.266,202.678,200.896,194.113,200.763z"/>
<path style="fill:#88B72E;" d="M225.055,229.466c8.568-0.134,15.471-6.503,15.471-14.352h-30.943
	C209.582,222.963,216.484,229.332,225.055,229.466z"/>
<path style="fill:#88B72E;" d="M255.998,200.763c-8.564,0.134-15.473,6.503-15.473,14.352h30.947
	C271.473,207.266,264.566,200.896,255.998,200.763z"/>
<path style="fill:#88B72E;" d="M286.943,229.466c8.568-0.134,15.471-6.503,15.471-14.352h-30.941
	C271.473,222.963,278.375,229.332,286.943,229.466z"/>
<path style="fill:#88B72E;" d="M317.885,200.763c-8.562,0.134-15.471,6.503-15.471,14.352h30.945
	C333.359,207.266,326.455,200.896,317.885,200.763z"/>
<path style="fill:#88B72E;" d="M348.834,229.466c8.568-0.134,15.469-6.503,15.469-14.352H333.36
	C333.359,222.963,340.264,229.332,348.834,229.466z"/>
<path style="fill:#88B72E;" d="M379.779,200.763c-8.572,0.134-15.477,6.503-15.477,14.352h30.947
	C395.25,207.266,388.344,200.896,379.779,200.763z"/>
<path style="fill:#88B72E;" d="M395.25,215.114c0,7.849,6.902,14.218,15.475,14.352c8.565-0.134,15.469-6.503,15.469-14.352H395.25z
	"/>
<path style="fill:#88B72E;" d="M101.275,306.387c8.568,0.132,15.473,6.501,15.473,14.352H85.805
	C85.805,312.888,92.709,306.519,101.275,306.387z"/>
<path style="fill:#88B72E;" d="M132.221,335.09c-8.566-0.136-15.473-6.505-15.473-14.352h30.943
	C147.691,328.585,140.789,334.954,132.221,335.09z"/>
<path style="fill:#88B72E;" d="M163.164,306.387c8.57,0.132,15.473,6.501,15.473,14.352h-30.945
	C147.691,312.888,154.596,306.519,163.164,306.387z"/>
<path style="fill:#88B72E;" d="M194.113,335.09c-8.572-0.136-15.477-6.505-15.477-14.352h30.945
	C209.582,328.585,202.678,334.954,194.113,335.09z"/>
<path style="fill:#88B72E;" d="M225.055,306.387c8.568,0.132,15.471,6.501,15.471,14.352h-30.943
	C209.582,312.888,216.484,306.519,225.055,306.387z"/>
<path style="fill:#88B72E;" d="M255.998,335.09c-8.564-0.136-15.473-6.505-15.473-14.352h30.947
	C271.473,328.585,264.566,334.954,255.998,335.09z"/>
<path style="fill:#88B72E;" d="M286.943,306.387c8.568,0.132,15.471,6.501,15.471,14.352h-30.941
	C271.473,312.888,278.375,306.519,286.943,306.387z"/>
<path style="fill:#88B72E;" d="M317.885,335.09c-8.562-0.136-15.471-6.505-15.471-14.352h30.945
	C333.359,328.585,326.455,334.954,317.885,335.09z"/>
<path style="fill:#88B72E;" d="M348.834,306.387c8.568,0.132,15.469,6.501,15.469,14.352H333.36
	C333.359,312.888,340.264,306.519,348.834,306.387z"/>
<path style="fill:#88B72E;" d="M379.779,335.09c-8.572-0.136-15.477-6.505-15.477-14.352h30.947
	C395.25,328.585,388.344,334.954,379.779,335.09z"/>
<path style="fill:#88B72E;" d="M395.25,320.738c0-7.851,6.902-14.22,15.475-14.352c8.565,0.132,15.469,6.501,15.469,14.352H395.25z"
	/>
<path style="fill:#A2331F;" d="M179.674,245.361h-13.398h-7.01h-7.004h-13.4h-19.779l37.065,29.094v-0.008
	c0.871,0.648,1.951,1.038,3.119,1.038c1.174,0,2.248-0.39,3.125-1.038v0.008l37.064-29.094H179.674z"/>
<path style="fill:#A2331F;" d="M232.43,245.361h-9.605h-5.023h-5.027h-9.605h-14.182l26.572,20.861v-0.006
	c0.629,0.463,1.398,0.742,2.242,0.742c0.834,0,1.611-0.279,2.234-0.742v0.006l26.578-20.861H232.43z"/>
<path style="fill:#DD7162;" d="M211.633,259.607c0.375,0.303,0.434,0.849,0.135,1.221l0,0c-0.301,0.374-0.848,0.434-1.223,0.135
	l-11.852-9.529c-0.373-0.3-0.434-0.846-0.129-1.219l0,0c0.295-0.375,0.842-0.434,1.217-0.134L211.633,259.607z"/>
<path style="fill:#DD7162;" d="M150.674,265.23c0.514,0.42,0.602,1.181,0.182,1.701l0,0c-0.416,0.523-1.178,0.606-1.703,0.188
	l-16.531-13.288c-0.52-0.419-0.602-1.184-0.182-1.703l0,0c0.416-0.52,1.178-0.604,1.697-0.186L150.674,265.23z"/>
<ellipse style="fill:#EFC84A;" cx="177.131" cy="127.553" rx="6.822" ry="2.132"/>
<ellipse style="fill:#EFC84A;" cx="215.789" cy="117.888" rx="6.822" ry="2.132"/>
<ellipse style="fill:#EFC84A;" cx="241.375" cy="130.822" rx="6.822" ry="2.131"/>
<ellipse style="fill:#EFC84A;" cx="270.934" cy="117.462" rx="6.822" ry="2.13"/>
<path style="fill:#EFC84A;" d="M306.463,131.105c0,1.177-3.055,2.131-6.818,2.131c-3.77,0-6.822-0.954-6.822-2.131
	c0-1.178,3.053-2.133,6.822-2.133C303.408,128.973,306.463,129.928,306.463,131.105z"/>
<path style="fill:#EFC84A;" d="M331.768,122.863c0,1.176-3.057,2.132-6.826,2.132c-3.766,0-6.82-0.956-6.82-2.132
	c0-1.178,3.055-2.133,6.82-2.133C328.711,120.73,331.768,121.686,331.768,122.863z"/>
<g>
</g>
<g>
</g>
<g>
</g>
<g>
</g>
<g>
</g>
<g>
</g>
<g>
</g>
<g>
</g>
<g>
</g>
<g>
</g>
<g>
</g>
<g>
</g>
<g>
</g>
<g>
</g>
<g>
</g>
</svg>
