<?xml version="1.0" encoding="iso-8859-1"?>
<!-- Generator: Adobe Illustrator 19.0.0, SVG Export Plug-In . SVG Version: 6.00 Build 0)  -->
<svg version="1.1" id="Capa_1" xmlns="http://www.w3.org/2000/svg" xmlns:xlink="http://www.w3.org/1999/xlink" x="0px" y="0px"
	 viewBox="0 0 491.52 491.52" style="enable-background:new 0 0 491.52 491.52;" xml:space="preserve">
<g>
	<circle style="fill:#45B39C;" cx="245.76" cy="245.76" r="245.76"/>
	<path style="fill:#45B39C;" d="M350.72,205.824c-22.016-21.504-66.048-43.52-111.104-42.496l-9.728-4.096l-4.608,5.12
		c-0.512,0-1.536,0.512-2.048,0.512l-39.936-39.936c-3.072-2.56-8.704-2.56-11.264,1.536c-2.048,3.072-3.072,8.704-10.24,11.264
		c-4.096,1.536-4.608,8.192,0,11.264l27.648,27.648c-1.536,1.024-3.584,1.536-5.12,2.56l-7.68-3.072l-5.632,5.632l-40.96-40.96
		c-3.072-2.56-8.704-2.56-11.264,1.024c-2.048,3.072-3.584,8.704-10.24,11.264c-4.096,1.536-4.608,8.192-0.512,11.264l40.96,40.96
		l-2.56,2.56l2.048,4.608c-2.56,3.584-4.608,6.656-6.656,10.752c-11.776,19.456-34.816,72.704-2.048,97.28l11.264,11.264h-35.328
		c0,10.752,4.608,20.48,12.288,27.648l112.64,112.64l19.968,19.456c99.328-6.656,182.784-71.168,215.552-160.256L350.72,205.824
		L350.72,205.824z"/>
</g>
<path style="opacity:0.1;enable-background:new    ;" d="M350.72,205.824c-22.016-21.504-66.048-43.52-111.104-42.496l-9.728-4.096
	l-4.608,5.12c-0.512,0-1.536,0.512-2.048,0.512l-39.936-39.936c-3.072-2.56-8.704-2.56-11.264,1.536
	c-2.048,3.072-3.072,8.704-10.24,11.264c-4.096,1.536-4.608,8.192,0,11.264l27.648,27.648c-1.536,1.024-3.584,1.536-5.12,2.56
	l-7.68-3.072l-5.632,5.632l-40.96-40.96c-3.072-2.56-8.704-2.56-11.264,1.024c-2.048,3.072-3.584,8.704-10.24,11.264
	c-4.096,1.536-4.608,8.192-0.512,11.264l40.96,40.96l-2.56,2.56l2.048,4.608c-2.56,3.584-4.608,6.656-6.656,10.752
	c-11.776,19.456-34.816,72.704-2.048,97.28l11.264,11.264h-35.328c0,10.752,4.608,20.48,12.288,27.648l112.64,112.64l19.968,19.456
	c99.328-6.656,182.784-71.168,215.552-160.256L350.72,205.824L350.72,205.824z"/>
<path style="fill:#EBF0F3;" d="M349.696,368.64H153.088c-20.48,0-36.864-16.384-36.864-36.864l0,0H386.56l0,0
	C386.56,352.256,370.176,368.64,349.696,368.64z"/>
<path style="fill:#FFFFFF;" d="M116.224,331.776L116.224,331.776c0,20.48,16.384,36.864,36.864,36.864h97.792v-36.864H116.224z"/>
<path style="fill:#EBF0F3;" d="M172.544,147.456c-3.072,3.584-7.68,3.584-11.264,1.536c-4.096-3.072-4.096-9.728,0-11.264
	c6.656-2.56,8.192-8.192,10.24-11.264c2.56-4.096,8.192-4.096,11.264-1.536s3.072,7.68,0,11.264l41.984,37.888l-10.24,11.264
	L172.544,147.456z"/>
<path style="fill:#FFFFFF;" d="M219.136,179.2l5.12-5.632l-41.984-37.888c3.072-3.584,3.072-8.704,0-11.264
	s-8.704-2.56-11.264,1.536c-1.024,2.048-1.536,4.096-4.096,6.656L219.136,179.2z"/>
<path style="fill:#FCD462;" d="M229.376,159.232l54.784,22.016c27.648,16.896,39.936,52.224,19.968,74.752l0,0
	c-19.968,22.528-56.832,13.824-76.288-11.776L200.192,192"/>
<path style="fill:#F6C358;" d="M304.64,256l1.536-2.048c19.968-22.528,5.632-56.32-22.016-72.704l-54.784-22.016l-12.8,14.336
	L304.64,256"/>
<path style="fill:#DC8744;" d="M141.824,223.232c-15.36,25.6-51.2,111.104,49.664,109.056c46.08-0.512,178.176,0,178.176,0
	s46.08-52.736-14.848-122.88C319.488,169.984,201.216,122.88,141.824,223.232z"/>
<path style="fill:#EBF0F3;" d="M119.296,163.328c-3.072,3.584-8.192,3.584-11.264,1.024c-4.096-3.072-4.096-9.728,0.512-11.264
	c6.656-2.56,8.192-7.68,10.24-11.264c2.56-4.096,8.192-4.096,11.264-1.024c3.072,2.56,3.072,7.68-0.512,11.264l41.472,38.4
	l-10.24,11.264L119.296,163.328z"/>
<path style="fill:#FFFFFF;" d="M165.888,196.096l5.12-5.632l-41.472-38.4c3.072-3.584,3.584-8.704,0.512-11.264
	c-3.072-2.56-8.704-2.56-11.264,1.024c-1.024,2.048-1.536,4.096-4.096,6.656L165.888,196.096z"/>
<path style="fill:#FCD462;" d="M176.128,176.128l54.784,23.04c27.136,17.408,39.424,53.248,18.944,75.264l0,0
	c-20.48,22.016-56.832,12.8-76.288-13.312l-27.136-52.736"/>
<path style="fill:#F6C358;" d="M249.856,273.92l1.536-2.048c20.48-22.016,6.656-55.808-20.48-73.216l-54.784-23.04l-13.312,14.336
	L249.856,273.92"/>
<g>
	<path style="fill:#FFFFFF;" d="M359.936,318.464h-0.512c-2.56-0.512-4.608-3.072-4.096-5.632
		c11.264-75.776-30.208-92.672-30.72-92.672c-2.56-1.024-4.096-4.096-3.072-6.656c1.024-2.56,4.096-4.096,6.656-3.072
		c2.048,1.024,50.176,19.968,37.376,103.424C364.544,316.928,362.496,318.464,359.936,318.464z"/>
	<path style="fill:#FFFFFF;" d="M311.808,214.016L311.808,214.016c-3.584,0-6.656-3.072-6.656-6.144l0,0
		c0-3.584,3.072-6.144,6.144-6.144h0.512c3.584,0,6.144,3.072,6.144,6.144l0,0C317.952,210.944,315.392,214.016,311.808,214.016z"/>
</g>
<g>
</g>
<g>
</g>
<g>
</g>
<g>
</g>
<g>
</g>
<g>
</g>
<g>
</g>
<g>
</g>
<g>
</g>
<g>
</g>
<g>
</g>
<g>
</g>
<g>
</g>
<g>
</g>
<g>
</g>
</svg>
