<svg" viewBox="0 0 464 464"  xmlns="http://www.w3.org/2000/svg"><path d="m464 232c0 128.128906-103.871094 232-232 232s-232-103.871094-232-232 103.871094-232 232-232 232 103.871094 232 232zm0 0" fill="#3d4d63"/><path d="m406.6875 79.425781c-52.855469 195.191407-227.808594 281.671875-337.808594 317.503907 88.738282 87.789062 231.035156 89.613281 321.992188 4.125 90.957031-85.492188 97.945312-227.628907 15.816406-321.628907zm0 0" fill="#2e3e51"/><path d="m224 56c97.203125 0 176 78.796875 176 176s-78.796875 176-176 176c-17.671875 0-32-14.328125-32-32v-288c0-17.671875 14.328125-32 32-32zm0 0" fill="#ffb531"/><path d="m337.097656 97.183594c-7.410156 152.054687-87.699218 240.113281-144.601562 283.738281 2.390625 15.554687 15.761718 27.050781 31.503906 27.078125 97.203125 0 176-78.796875 176-176 .050781-52.039062-22.992188-101.421875-62.902344-134.816406zm0 0" fill="#ffa912"/><path d="m328 168h16c4.417969 0 8 3.582031 8 8v32c0 4.417969-3.582031 8-8 8h-16c-4.417969 0-8-3.582031-8-8v-32c0-4.417969 3.582031-8 8-8zm0 0" fill="#b0564c"/><path d="m313.921875 248h4.148437c14.320313-.003906 25.929688 11.601562 25.929688 25.921875v6.078125h-56v-6.078125c0-14.316406 11.605469-25.921875 25.921875-25.921875zm0 0" fill="#ff9419"/><path d="m312 328v16c0 4.417969-3.582031 8-8 8h-32c-4.417969 0-8-3.582031-8-8v-16c0-4.417969 3.582031-8 8-8h32c4.417969 0 8 3.582031 8 8zm0 0" fill="#b0564c"/><path d="m249.671875 251.296875-2.625 3.488281 1.769531 3.824219c6.050782 12.976563 2.820313 28.386719-7.929687 37.847656l-3.085938 2.582031.726563 3.578126c3.191406 14.113281-3.773438 28.566406-16.800782 34.871093l-3.046874 1.335938-.175782 2.183593c-.640625 14.839844-12.375 26.800782-27.199218 27.71875h-1.898438v.074219c-3.207031 6.652344-9.027344 11.671875-16.078125 13.871094-7.046875 2.195313-14.695313 1.371094-21.113281-2.28125-6.425782 3.660156-14.078125 4.492187-21.140625 2.296875-7.058594-2.199219-12.894531-7.226562-16.105469-13.886719v-.066406h-1.890625c-14.824219-.929687-26.558594-12.898437-27.199219-27.742187l-.175781-2.167969-3.03125-1.328125c-13.035156-6.304688-20-20.765625-16.800781-34.886719l.730468-3.546875-3.089843-2.582031c-10.75-9.457031-13.980469-24.863281-7.9375-37.839844l1.769531-3.824219-2.625-3.496094c-8.429688-11.484374-8.429688-27.113281 0-38.601562l2.625-3.488281-1.769531-3.824219c-6.046875-12.972656-2.820313-28.382812 7.929687-37.839844l3.097656-2.589844-.738281-3.570312c-3.195312-14.117188 3.769531-28.570312 16.800781-34.871094l3.046876-1.34375.175781-2.175781c.640625-14.839844 12.378906-26.800781 27.203125-27.71875l1.886718-.039063.039063-.074218c3.207031-6.652344 9.03125-11.679688 16.082031-13.875 7.050782-2.199219 14.699219-1.375 21.117188 2.277344 6.421875-3.648438 14.066406-4.46875 21.113281-2.269532 7.050781 2.195313 12.871094 7.21875 16.078125 13.867188l.050781.089844h1.894531c14.824219.917968 26.5625 12.878906 27.199219 27.71875l.175781 2.183593 3.035157 1.335938c13.035156 6.304687 20 20.765625 16.796875 34.886719l-.726563 3.539062 3.089844 2.582031c10.75 9.457031 13.984375 24.871094 7.933594 37.847657l-1.765625 3.824218 2.628906 3.496094c8.425781 11.496094 8.40625 27.132812-.046875 38.609375zm0 0" fill="#e0e0de"/><g fill="#d6d6d4"><path d="m247.046875 254.785156 2.625-3.488281c8.433594-11.484375 8.433594-27.109375 0-38.59375l-2.632813-3.496094 1.769532-3.824219c6.046875-12.976562 2.816406-28.390624-7.9375-37.847656l-3.085938-2.582031.726563-3.539063c3.203125-14.121093-3.761719-28.582031-16.800781-34.886718l-3.03125-1.335938-.175782-2.183594c-.640625-14.839843-12.375-26.800781-27.199218-27.71875h-1.898438l-.046875-.089843c-.167969-.3125-.390625-.558594-.566406-.863281.019531 2.480468-.207031 4.957031-.679688 7.390624l-.800781 3.945313 3.441406 2.886719c11.988282 10.550781 15.59375 27.738281 8.855469 42.21875l-1.976563 4.261718 2.933594 3.90625c9.410156 12.808594 9.410156 30.246094 0 43.054688l-2.917968 3.886719 1.96875 4.273437c6.738281 14.476563 3.136718 31.664063-8.847657 42.214844l-3.449219 2.890625.800782 4c3.566406 15.742187-4.191406 31.867187-18.722656 38.902344l-3.398438 1.496093-.199219 2.398438c-.714843 16.558594-13.8125 29.902344-30.351562 30.921875l-2.113281.046875-.046876.082031c-3.582031 7.417969-10.078124 13.019531-17.941406 15.472657-7.863281 2.453124-16.394531 1.53125-23.554687-2.539063-1.449219.804687-2.960938 1.484375-4.519531 2.03125 3.234374 11.71875 13.613281 20.042969 25.75 20.664063h1.886718v.066406c3.210938 6.652344 9.039063 11.679687 16.089844 13.878906 7.054688 2.199219 14.703125 1.378906 21.128906-2.273438 6.417969 3.652344 14.0625 4.480469 21.113282 2.28125 7.046874-2.195312 12.871093-7.21875 16.078124-13.871093v-.070313h1.894532c14.824218-.921875 26.5625-12.882812 27.199218-27.722656l.179688-2.183594 3.046875-1.335937c13.027344-6.304688 19.988281-20.753907 16.800781-34.871094l-.738281-3.578125 3.097656-2.582031c10.75-9.457031 13.976563-24.871094 7.925781-37.847657zm0 0"/><path d="m213.65625 218.34375-11.3125 11.3125c5.703125 5.71875 5.703125 14.96875 0 20.6875l11.3125 11.3125c11.945312-11.96875 11.945312-31.34375 0-43.3125zm0 0"/><path d="m191.273438 287.863281-7.296876 3.28125c3.3125 7.367188.019532 16.027344-7.351562 19.335938l6.550781 14.589843c15.433594-6.921874 22.328125-25.050781 15.390625-40.476562zm0 0"/></g><path d="m312 137.921875v4.148437c0 14.316407-11.605469 25.921876-25.921875 25.921876h-6.078125v-56h6.078125c14.316406 0 25.921875 11.605468 25.921875 25.917968zm0 0" fill="#ff9419"/><path d="m232.359375 58.398438c6.933594 1.167968 12.632813 6.109374 14.761719 12.808593 2.132812 6.699219.335937 14.027344-4.648438 18.984375 1.285156 6.890625-1.472656 13.914063-7.101562 18.085938-5.632813 4.175781-13.152344 4.773437-19.371094 1.539062-6.222656 3.238282-13.746094 2.636719-19.378906-1.539062-5.632813-4.179688-8.386719-11.207032-7.09375-18.101563-4.976563-4.957031-6.765625-12.277343-4.632813-18.972656 2.128907-6.691406 7.820313-11.632813 14.746094-12.804687 2.980469-6.335938 9.355469-10.382813 16.359375-10.382813s13.378906 4.046875 16.359375 10.382813zm0 0" fill="#e94f4f"/></svg>
