<svg viewBox="0 0 512 512" xmlns="http://www.w3.org/2000/svg"><path d="m512 256c0 141.386719-114.613281 256-256 256s-256-114.613281-256-256 114.613281-256 256-256 256 114.613281 256 256zm0 0" fill="#00dfc1"/><path d="m512 256c0-15.757812-1.433594-31.175781-4.15625-46.144531l-112.109375-111.933594c-2.328125-3.222656-6.117187-5.324219-10.394531-5.324219h-107.777344v6.609375h-47.464844l-6.660156-6.605469c-4.316406-4.925781-10.640625-8.050781-17.664062-8.050781h-50.863282v167.75c-29.421875 18.488281-51.199218 48.078125-59.394531 82.859375h-43.921875v36.855469l128.554688 128.554687c23.96875 7.425782 49.441406 11.429688 75.851562 11.429688 141.386719 0 256-114.613281 256-256zm0 0" fill="#00ad95"/><path d="m163.660156 94.265625h33.851563c2.433593 0 4.421875 1.988281 4.421875 4.417969 0 2.433594-1.988282 4.421875-4.421875 4.421875h-33.851563v9.890625h33.851563c2.433593 0 4.421875 1.988281 4.421875 4.417968 0 2.433594-1.988282 4.421876-4.421875 4.421876h-33.851563v9.714843h42.113282c9.800781 0 18.246093-6.082031 21.757812-14.65625h77.59375v-17.6875h-77.59375c-3.511719-8.574219-11.957031-14.65625-21.757812-14.65625h-42.113282zm0 0" fill="#fff"/><path d="m256 99.210938h49.121094v17.679687h-49.121094zm0 0" fill="#fff5cb"/><path d="m398.171875 105.433594v7.328125c0 7.085937-5.746094 12.832031-12.832031 12.832031h-107.777344v-32.992188h107.777344c7.085937 0 12.832031 5.742188 12.832031 12.832032zm0 0" fill="#715539"/><path d="m154.910156 84.550781h21.164063v170.476563h-21.164063zm0 0" fill="#ffe047"/><path d="m175.855469 84.550781h21.164062v170.476563h-21.164062zm0 0" fill="#ffed97"/><path d="m308.585938 248.949219c-56.179688 0-102.773438 41.859375-110.214844 96.039062h20.574218c7.25-42.917969 44.691407-75.710937 89.640626-75.710937 44.945312 0 82.394531 32.792968 89.644531 75.710937h20.574219c-7.441407-54.179687-54.035157-96.039062-110.21875-96.039062zm0 0" fill="#ffd400"/><path d="m308.585938 267.726562c-45.816407 0-83.941407 33.484376-91.207032 77.261719h20.679688c7.003906-32.5 35.964844-56.933593 70.527344-56.933593 34.566406 0 63.527343 24.433593 70.53125 56.933593h20.683593c-7.269531-43.777343-45.402343-77.261719-91.214843-77.261719zm0 0" fill="#fdc000"/><path d="m308.585938 287.636719c-34.796876 0-63.953126 24.617187-70.964844 57.351562h20.984375c6.527343-21.402343 26.46875-37.023437 49.980469-37.023437 23.515624 0 43.449218 15.621094 49.976562 37.023437h20.984375c-7.011719-32.734375-36.160156-57.351562-70.960937-57.351562zm0 0" fill="#ffd400"/><path d="m286.289062 347.597656h-129.644531c0-27.960937 22.667969-50.628906 50.628907-50.628906h28.386718c27.960938 0 50.628906 22.667969 50.628906 50.628906zm0 0" fill="#ffe047"/><path d="m286.289062 347.601562h-30.289062v-46.382812c17.828125 7.832031 30.289062 25.652344 30.289062 46.382812zm0 0" fill="#ffcf00"/><path d="m226.046875 231.828125c-67.71875 0-123.882813 50.460937-132.851563 115.769531h24.796876c8.742187-51.738281 53.871093-91.261718 108.054687-91.261718 54.179687 0 99.316406 39.523437 108.058594 91.261718h24.796875c-8.964844-65.308594-65.128906-115.769531-132.855469-115.769531zm0 0" fill="#ffed97"/><path d="m256 235.210938v25.289062c40.191406 11.429688 71.039062 45.269531 78.109375 87.101562h24.789063c-7.597657-55.382812-49.136719-100.089843-102.898438-112.390624zm0 0" fill="#ffe047"/><path d="m226.046875 254.464844c-55.226563 0-101.183594 40.363281-109.941406 93.132812h24.929687c8.441406-39.179687 43.351563-68.628906 85.011719-68.628906 41.671875 0 76.582031 29.449219 85.023437 68.628906h24.925782c-8.761719-52.769531-54.726563-93.132812-109.949219-93.132812zm0 0" fill="#ffe047"/><path d="m256 258.539062v25.75c27.660156 10.171876 48.761719 34.019532 55.070312 63.3125h24.929688c-7.109375-42.863281-38.769531-77.542968-80-89.0625zm0 0" fill="#ffcf00"/><path d="m226.046875 278.460938c-41.941406 0-77.089844 29.675781-85.539063 69.136718h25.292969c7.871094-25.800781 31.902344-44.628906 60.246094-44.628906 28.347656 0 52.375 18.828125 60.242187 44.628906h25.296876c-8.453126-39.460937-43.589844-69.136718-85.539063-69.136718zm0 0" fill="#ffed97"/><path d="m256 283.738281v26.820313c14.398438 7.820312 25.429688 21.101562 30.289062 37.042968h25.289063c-6.328125-29.570312-27.636719-53.640624-55.578125-63.863281zm0 0" fill="#ffe047"/><path d="m101.300781 369.199219 14.328125 27.214843h280.742188l14.328125-27.214843zm0 0" fill="#fff5cb"/><path d="m410.703125 369.199219-1.480469 2.820312-12.847656 24.402344h-140.375v-27.222656zm0 0" fill="#ffe670"/><path d="m51.59375 335.160156h408.8125v36.855469h-408.8125zm0 0" fill="#fff"/><path d="m256 335.160156h204.402344v36.859375h-204.402344zm0 0" fill="#fff5cb"/></svg>
