<svg  viewBox="0 0 512 512" xmlns="http://www.w3.org/2000/svg"><path d="m512 256c0 141.386719-114.613281 256-256 256s-256-114.613281-256-256 114.613281-256 256-256 256 114.613281 256 256zm0 0" fill="#fe6a16"/><path d="m259.097656 511.960938c133.574219-1.585938 242.542969-105.453126 252.199219-236.941407l-184.410156-184.410156-3.128907 21.027344-59.425781-59.425781-1.953125 99-60.601562-60.601563-16.679688 88.285156 23.066406 23.070313-55.003906 176.261718 48.632813 48.632813-20.867188 6.933594zm0 0" fill="#f24500"/><path d="m180.925781 382.703125h150.132813v51.085937h-150.132813zm0 0" fill="#00617f"/><path d="m255.644531 382.703125h75.410157v51.085937h-75.410157zm0 0" fill="#054b56"/><path d="m256.210938 414.523438c-90.835938 0-164.472657-73.640626-164.472657-164.476563v-53.460937h328.949219v53.460937c0 90.835937-73.640625 164.476563-164.476562 164.476563zm0 0" fill="#fff"/><path d="m255.644531 196.585938v217.929687c.1875 0 .375.007813.566407.007813 90.835937 0 164.472656-73.640626 164.472656-164.476563v-53.460937zm0 0" fill="#e9edf5"/><path d="m91.738281 209.636719v40.410156c0 13.1875 1.5625 26.007813 4.492188 38.296875h319.960937c2.933594-12.289062 4.496094-25.109375 4.496094-38.296875v-40.410156zm41.230469 62.289062c-12.667969 0-22.9375-10.269531-22.9375-22.9375s10.269531-22.933593 22.9375-22.933593 22.933594 10.265624 22.933594 22.933593-10.265625 22.9375-22.933594 22.9375zm81.320312 0c-12.667968 0-22.9375-10.269531-22.9375-22.9375s10.269532-22.933593 22.9375-22.933593c12.667969 0 22.9375 10.265624 22.9375 22.933593s-10.269531 22.9375-22.9375 22.9375zm81.320313 0c-12.667969 0-22.9375-10.269531-22.9375-22.9375s10.269531-22.933593 22.9375-22.933593 22.9375 10.265624 22.9375 22.933593-10.269531 22.9375-22.9375 22.9375zm81.320313 0c-12.667969 0-22.9375-10.269531-22.9375-22.9375s10.269531-22.933593 22.9375-22.933593c12.667968 0 22.9375 10.265624 22.9375 22.933593s-10.269532 22.9375-22.9375 22.9375zm0 0" fill="#00617f"/><path d="m255.644531 209.636719v78.707031h160.546875c2.933594-12.289062 4.496094-25.109375 4.496094-38.296875v-40.410156zm39.964844 62.289062c-12.667969 0-22.9375-10.269531-22.9375-22.9375s10.269531-22.933593 22.9375-22.933593 22.9375 10.265624 22.9375 22.933593-10.269531 22.9375-22.9375 22.9375zm81.320313 0c-12.667969 0-22.9375-10.269531-22.9375-22.9375s10.269531-22.933593 22.9375-22.933593c12.667968 0 22.9375 10.265624 22.9375 22.933593s-10.269532 22.9375-22.9375 22.9375zm0 0" fill="#054b56"/><path d="m247.648438 52.210938h16.683593v118.851562h-16.683593zm0 0" fill="#ffc247"/><path d="m255.644531 52.210938h8.6875v118.851562h-8.6875zm0 0" fill="#ffb13b"/><path d="m185.097656 90.609375h16.679688v88.285156h-16.679688zm0 0" fill="#ffc247"/><path d="m310.203125 90.609375h16.683594v88.285156h-16.683594zm0 0" fill="#ffb13b"/></svg>
