<?xml version="1.0" encoding="iso-8859-1"?>
<!-- Generator: Adobe Illustrator 19.0.0, SVG Export Plug-In . SVG Version: 6.00 Build 0)  -->
<svg version="1.1" id="Layer_1" xmlns="http://www.w3.org/2000/svg" xmlns:xlink="http://www.w3.org/1999/xlink" x="0px" y="0px"
	 viewBox="0 0 512 512" style="enable-background:new 0 0 512 512;" xml:space="preserve">
<circle style="fill:#005C83;" cx="256" cy="256" r="256"/>
<path style="fill:#00263F;" d="M278.073,511.042C409.121,499.848,512,389.947,512,256c0-35.93-7.415-70.125-20.778-101.156
	l-36.316-36.316L70.58,167.978l197.36,197.361l-11.941,123.63L278.073,511.042z"/>
<path style="fill:#FFB344;" d="M64.5,126.629c105.763-105.763,277.238-105.765,383-0.003L256,488.968L64.5,126.629z"/>
<path style="fill:#FF9451;" d="M447.5,126.626c-53.008-53.008-122.524-79.442-192-79.314l0.499,441.657l0,0L447.5,126.626z"/>
<path style="fill:#FFECB3;" d="M447.044,161.685l11.606-21.96c3.747-7.089,2.18-15.792-3.743-21.196
	C342.369,15.842,169.631,15.843,57.093,118.532c-5.923,5.405-7.49,14.107-3.743,21.196l11.605,21.958
	c5.136,9.718,17.796,12.3,26.433,5.502c96.342-75.834,232.881-75.834,329.223-0.001
	C429.248,173.985,441.908,171.403,447.044,161.685z"/>
<path style="fill:#FFD863;" d="M454.907,118.529C398.506,67.065,326.986,41.399,255.5,41.52v68.798
	c58.387-0.109,116.802,18.844,165.111,56.869c8.637,6.798,21.297,4.216,26.433-5.502l11.606-21.96
	C462.397,132.636,460.83,123.934,454.907,118.529z"/>
<path style="fill:#AE4E32;" d="M359,194c-35.346,0-64,28.654-64,64c0,30.556,21.419,56.093,50.058,62.459l57.688-109.152
	C391.301,200.58,375.923,194,359,194z"/>
<g>
	<path style="fill:#FF6838;" d="M150,204.137c-14.207,0-27.328,4.636-37.947,12.469l59.15,111.919
		C196.125,319.774,214,296.05,214,268.137C214,232.791,185.346,204.137,150,204.137z"/>
	<path style="fill:#FF6838;" d="M265,320.459c-35.346,0-64,28.654-64,64c0,0.157,0.011,0.311,0.012,0.467l27.558,52.142
		c10.341,7.175,22.891,11.391,36.431,11.391c4.499,0,8.887-0.469,13.124-1.352l46.03-87.094
		C314.549,336.797,291.686,320.459,265,320.459z"/>
</g>
<path style="fill:#AE4E32;" d="M265,320.459c-3.229,0-6.4,0.245-9.5,0.706l0.426,126.647c3.1,0.463,5.845,0.647,9.074,0.647
	c4.499,0,8.887-0.469,13.124-1.352l46.03-87.094C314.549,336.797,291.686,320.459,265,320.459z"/>
<g>
	<path style="fill:#60C344;" d="M211.137,204.137h-12.569c-16.883,0-30.569-13.686-30.569-30.569V161h12.569
		c16.883,0,30.569,13.686,30.569,30.569V204.137z"/>
	<path style="fill:#60C344;" d="M234.431,299.137v-8.616c0-11.574,9.382-20.956,20.956-20.956h8.616v8.616
		c0,11.574-9.382,20.956-20.956,20.956H234.431z"/>
</g>
<g>
	<path style="fill:#47AB4B;" d="M255.5,269.565v25.444c5.151-3.818,8.504-9.924,8.504-16.827v-8.616H255.5V269.565z"/>
	<path style="fill:#47AB4B;" d="M299.431,190.573v-8.616c0-11.574,9.382-20.956,20.956-20.956h8.616v8.616
		c0,11.574-9.382,20.956-20.956,20.956H299.431z"/>
</g>
<g>
</g>
<g>
</g>
<g>
</g>
<g>
</g>
<g>
</g>
<g>
</g>
<g>
</g>
<g>
</g>
<g>
</g>
<g>
</g>
<g>
</g>
<g>
</g>
<g>
</g>
<g>
</g>
<g>
</g>
</svg>
