<?xml version="1.0" encoding="iso-8859-1"?>
<!-- Generator: Adobe Illustrator 19.0.0, SVG Export Plug-In . SVG Version: 6.00 Build 0)  -->
<svg version="1.1" id="Layer_1" xmlns="http://www.w3.org/2000/svg" xmlns:xlink="http://www.w3.org/1999/xlink" x="0px" y="0px"
	 viewBox="0 0 512 512" style="enable-background:new 0 0 512 512;" xml:space="preserve">
<circle id="bg_2_" style="fill:#45B39C;" cx="256" cy="256" r="256"/>
<path style="fill:#E0E0E0;" d="M287.918,213.09c-1.705,0.568-59.123,7.39-63.104,5.97c-3.98-1.422-85.273-10.234-86.127-10.234
	c-0.853,0-39.795,4.264-39.795,4.264s-0.051-0.319-0.135-0.849c-0.032,0.762-0.086,1.521-0.086,2.29
	c0,41.468,50.238,75.085,112.209,75.085c61.967,0,112.207-33.618,112.207-75.085c0-5.539-0.924-10.929-2.623-16.126
	C306.768,204.651,288.961,212.743,287.918,213.09z"/>
<rect x="183.99" y="272.604" style="fill:#E0E0E0;" width="26.891" height="17.012"/>
<ellipse style="fill:#FFFFFF;" cx="185.376" cy="242.225" rx="81.687" ry="47.471"/>
<path style="fill:#F28C40;" d="M334.867,180.105h-11.854v6.363c-33.254,0-161.941,0.004-175.976,0.004
	c-5.229,0-11.527,1.787-15.512,4.521c-7.73,5.306-20.628,14.149-29.655,20.338H91.105l0.014,27.627
	c0.159,1.636,2.757,2.583,7.558,2.583c24.26,0,165.516,0,180.256,0c5.232,0,11.527-1.789,15.512-4.524
	c10.023-6.875,28.732-19.706,36.436-24.982c2.672-1.836,3.951-3.406,3.969-4.626L334.867,180.105z"/>
<path style="fill:#F2730A;" d="M327.295,177.352c-24.256,0-165.514,0-180.258,0c-5.229,0-11.527,1.791-15.512,4.524
	c-10.02,6.875-28.732,19.709-36.431,24.986c-6.516,4.466-4.867,7.39,3.581,7.39c24.26,0,165.516-0.001,180.256-0.001
	c5.232,0,11.527-1.79,15.512-4.521c10.023-6.876,28.732-19.714,36.436-24.987C337.391,180.277,335.742,177.352,327.295,177.352z"/>
<path style="fill:#F2D7B3;" d="M119.312,214.252l53.939-36.9c-5.699,0-10.732,0-14.879,0l-53.942,36.9
	C108.369,214.252,113.429,214.252,119.312,214.252z"/>
<path style="fill:#F2D7B3;" d="M170.389,214.252l53.939-36.9c-5.037,0-10.016,0-14.879,0l-53.939,36.9
	C160.354,214.252,165.34,214.252,170.389,214.252z"/>
<path style="fill:#F2D7B3;" d="M221.467,214.251l53.935-36.899c-4.816,0-9.799,0-14.875,0l-53.943,36.899
	C211.645,214.251,216.623,214.251,221.467,214.251z"/>
<path style="fill:#F2D7B3;" d="M272.541,214.251l53.941-36.899c-3.332,0-8.447,0-14.877,0l-53.943,36.899
	C263.686,214.251,268.748,214.251,272.541,214.251z"/>
<rect x="104.438" y="214.312" style="fill:#EFAF84;" width="15.128" height="27.408"/>
<rect x="155.613" y="214.312" style="fill:#EFAF84;" width="15.123" height="27.408"/>
<rect x="206.785" y="214.312" style="fill:#EFAF84;" width="15.123" height="27.408"/>
<rect x="257.955" y="214.312" style="fill:#EFAF84;" width="15.127" height="27.408"/>
<path style="fill:#E0E0E0;" d="M394.158,285.572c-1.705,0.569-59.123,7.391-63.104,5.97c-3.98-1.42-85.273-10.232-86.127-10.232
	s-39.795,4.262-39.795,4.262s-0.051-0.317-0.135-0.849c-0.033,0.763-0.086,1.521-0.086,2.29c0,41.468,50.238,75.085,112.209,75.085
	c61.967,0,112.207-33.617,112.207-75.085c0-5.538-0.924-10.929-2.621-16.125C413.008,277.134,395.201,285.227,394.158,285.572z"/>
<rect x="290.229" y="345.087" style="fill:#E0E0E0;" width="26.893" height="17.012"/>
<path style="fill:#FFFFFF;" d="M209.93,314.709c0-26.217,36.57-47.472,81.686-47.472c45.117,0,81.688,21.255,81.688,47.472
	c0,26.217-36.57,47.47-81.688,47.47C246.5,362.179,209.93,340.926,209.93,314.709z"/>
<path style="fill:#F28C40;" d="M441.105,252.588h-11.852v6.364c-33.254,0-161.941,0.003-175.977,0.003
	c-5.229,0-11.527,1.787-15.512,4.521c-7.73,5.308-20.629,14.149-29.656,20.338h-10.766l0.014,27.628
	c0.16,1.635,2.758,2.583,7.557,2.583c24.262,0,165.518,0,180.258,0c5.232,0,11.529-1.791,15.512-4.525
	c10.023-6.875,28.734-19.707,36.435-24.983c2.672-1.835,3.951-3.407,3.971-4.625L441.105,252.588z"/>
<path style="fill:#F2730A;" d="M433.535,249.836c-24.258,0-165.514,0-180.258,0c-5.229,0-11.527,1.79-15.512,4.523
	c-10.02,6.875-28.732,19.709-36.432,24.987c-6.514,4.465-4.867,7.389,3.58,7.389c24.262,0,165.518-0.002,180.258-0.002
	c5.232,0,11.529-1.788,15.512-4.521c10.023-6.875,28.734-19.712,36.435-24.986C443.631,252.761,441.982,249.836,433.535,249.836z"/>
<path style="fill:#F2D7B3;" d="M225.551,286.735l53.939-36.899c-5.699,0-10.732,0-14.879,0l-53.943,36.899
	C214.607,286.735,219.668,286.735,225.551,286.735z"/>
<path style="fill:#F2D7B3;" d="M276.629,286.735l53.939-36.899c-5.037,0-10.016,0-14.881,0l-53.938,36.899
	C266.592,286.735,271.58,286.735,276.629,286.735z"/>
<path style="fill:#F2D7B3;" d="M327.707,286.733l53.936-36.897c-4.816,0-9.799,0-14.875,0l-53.943,36.897
	C317.885,286.733,322.863,286.733,327.707,286.733z"/>
<path style="fill:#F2D7B3;" d="M378.781,286.733l53.941-36.897c-3.332,0-8.449,0-14.877,0l-53.943,36.897
	C369.926,286.733,374.988,286.733,378.781,286.733z"/>
<rect x="210.678" y="286.796" style="fill:#EFAF84;" width="15.127" height="27.408"/>
<rect x="261.852" y="286.796" style="fill:#EFAF84;" width="15.125" height="27.408"/>
<rect x="313.023" y="286.796" style="fill:#EFAF84;" width="15.125" height="27.408"/>
<rect x="364.195" y="286.796" style="fill:#EFAF84;" width="15.127" height="27.408"/>
<path d="M185.666,330.085c0,11.399-25.846,20.643-57.734,20.643c-31.877,0-57.727-9.243-57.727-20.643
	c0-11.401,25.85-47.062,57.727-47.062C159.82,283.023,185.666,318.684,185.666,330.085z"/>
<rect x="70.205" y="254.94" width="115.461" height="75.143"/>
<path d="M185.666,254.94c0,11.398-25.846,20.64-57.734,20.64c-31.877,0-57.727-9.242-57.727-20.64
	c0-11.402,25.85-20.646,57.727-20.646C159.82,234.294,185.666,243.538,185.666,254.94z"/>
<path style="fill:#FFFFFF;" d="M183.42,254.94c0,10.953-24.836,19.837-55.488,19.837c-30.642,0-55.484-8.885-55.484-19.837
	c0-10.96,24.843-19.843,55.484-19.843C158.584,235.097,183.42,243.98,183.42,254.94z"/>
<polygon style="fill:#BD3E25;" points="125.247,258.738 99.112,258.738 106.015,246.267 132.147,246.267 "/>
<polygon style="fill:#4B680C;" points="147.861,264.565 124.096,264.565 130.373,253.222 154.141,253.222 "/>
<polygon style="fill:#DBB538;" points="121.15,267.022 105.294,267.022 109.481,259.457 125.337,259.457 "/>
<g>
</g>
<g>
</g>
<g>
</g>
<g>
</g>
<g>
</g>
<g>
</g>
<g>
</g>
<g>
</g>
<g>
</g>
<g>
</g>
<g>
</g>
<g>
</g>
<g>
</g>
<g>
</g>
<g>
</g>
</svg>
