<?xml version="1.0" encoding="iso-8859-1"?>
<!-- Generator: Adobe Illustrator 19.0.0, SVG Export Plug-In . SVG Version: 6.00 Build 0)  -->
<svg version="1.1" id="Layer_1" xmlns="http://www.w3.org/2000/svg" xmlns:xlink="http://www.w3.org/1999/xlink" x="0px" y="0px"
	 viewBox="0 0 512 512" style="enable-background:new 0 0 512 512;" xml:space="preserve">
<path style="fill:#FCB9B0;" d="M509.121,217.514C490.556,94.388,384.304,0,256,0C114.615,0,0,114.615,0,256
	c0,110.537,70.058,204.71,168.194,240.542L509.121,217.514z"/>
<path style="fill:#FB9789;" d="M512,256c0-13.082-0.986-25.932-2.879-38.486L374.005,82.399l-232.982,268.21l25.539,25.539
	l-55.257,18.983l22.261,22.261l-22.261,22.261l56.89,56.89C195.581,506.542,225.153,512,256,512C397.384,512,512,397.384,512,256z"
	/>
<path style="fill:#FFF3AD;" d="M409.756,180.257c6.545-5.376,9.728-14.258,7.402-22.973c-2.337-8.693-9.517-14.781-17.853-16.184
	c4.931-6.879,5.721-16.284,1.202-24.097c-4.497-7.802-13.011-11.821-21.426-11.008c2.983-7.925,1.313-17.208-5.075-23.597
	c-6.367-6.367-15.627-8.047-23.541-5.087c0.835-8.426-3.194-16.963-11.008-21.471c-7.802-4.508-17.174-3.74-24.064,1.169
	c-1.38-8.359-7.469-15.549-16.184-17.887c-8.704-2.337-17.564,0.835-22.94,7.357c-3.495-7.713-11.242-13.089-20.269-13.089
	l-66.938,211.322l233.739-44.21C422.801,191.499,417.447,183.763,409.756,180.257z"/>
<path style="fill:#FFFFFF;" d="M235.754,46.447c-5.376-6.556-14.258-9.739-22.973-7.413c-8.693,2.337-14.781,9.517-16.184,17.853
	c-6.879-4.931-16.284-5.721-24.097-1.202c-7.802,4.497-11.821,13.011-11.008,21.426c-7.925-2.994-17.219-1.313-23.597,5.064
	c-6.367,6.378-8.047,15.638-5.087,23.552c-8.426-0.835-16.963,3.194-21.471,11.008c-4.508,7.802-3.74,17.174,1.169,24.064
	c-8.359,1.38-15.549,7.469-17.887,16.184c-2.337,8.704,0.835,17.564,7.357,22.94c-7.713,3.495-13.089,11.242-13.089,20.269
	L256,244.714v-66.627l-11.13-11.13l11.13-11.13V33.391C246.995,33.391,239.26,38.745,235.754,46.447z"/>
<path style="fill:#44702A;" d="M345.043,116.87l-8.348,16.696l8.348,16.696c9.22,0,16.696-7.475,16.696-16.696
	S354.264,116.87,345.043,116.87z"/>
<g>
	<path style="fill:#81982D;" d="M328.348,133.565c0,9.22,7.475,16.696,16.696,16.696V116.87
		C335.823,116.87,328.348,124.345,328.348,133.565z"/>
	<path style="fill:#81982D;" d="M300.522,144.696l-8.348,16.696l8.348,16.696c9.22,0,16.696-7.475,16.696-16.696
		S309.742,144.696,300.522,144.696z"/>
</g>
<path style="fill:#A0AD2F;" d="M283.826,161.391c0,9.22,7.475,16.696,16.696,16.696v-33.391
	C291.301,144.696,283.826,152.171,283.826,161.391z"/>
<path style="fill:#81982D;" d="M300.522,89.043l-8.348,16.696l8.348,16.696c9.22,0,16.696-7.475,16.696-16.696
	S309.742,89.043,300.522,89.043z"/>
<path style="fill:#A0AD2F;" d="M283.826,105.739c0,9.22,7.475,16.696,16.696,16.696V89.043
	C291.301,89.043,283.826,96.519,283.826,105.739z"/>
<polygon style="fill:#813115;" points="400.696,372.87 400.696,395.13 255.994,395.13 245.003,384 255.994,372.87 "/>
<rect x="111.304" y="372.87" style="fill:#F72E12;" width="144.696" height="22.261"/>
<polygon style="fill:#813115;" points="400.696,417.391 400.696,439.652 255.994,439.652 245.003,428.522 255.994,417.391 "/>
<rect x="111.304" y="417.391" style="fill:#F72E12;" width="144.696" height="22.261"/>
<path style="fill:#692811;" d="M256,200.348h189.217c0,61.251-29.106,115.679-74.24,150.261H256l-33.391-75.13L256,200.348z"/>
<path style="fill:#813115;" d="M256,200.348v150.261H141.023c-45.134-34.582-74.24-89.01-74.24-150.261H256z"/>
<g>
	<rect x="366.414" y="244.87" style="fill:#3A160A;" width="23.151" height="23.151"/>
	<rect x="321.892" y="289.391" style="fill:#3A160A;" width="23.151" height="23.151"/>
</g>
<rect x="141.023" y="267.13" style="fill:#692811;" width="23.151" height="23.151"/>
<path style="fill:#FB9789;" d="M211.478,89.043v33.391h-16.696h-25.422V97.013c7.213-5.02,15.972-7.969,25.422-7.969H211.478z"/>
<path style="fill:#FCB9B0;" d="M194.783,122.435v11.13l-22.261,11.13l-22.261-11.13c0-15.137,7.558-28.505,19.1-36.552
	L194.783,122.435z"/>
<circle style="fill:#FEDCD7;" cx="211.478" cy="105.739" r="16.696"/>
<path style="fill:#FB9789;" d="M194.783,133.565v11.13v25.422h-25.422c-11.542-8.047-19.1-21.415-19.1-36.552H194.783z"/>
<polygon style="fill:#FA7461;" points="244.87,166.957 200.348,166.957 211.478,144.696 244.87,144.696 "/>
<polygon style="fill:#F8513A;" points="256,178.087 211.478,178.087 200.348,155.826 256,155.826 "/>
<path style="fill:#FCB9B0;" d="M211.478,144.696v33.391h-16.696c-9.45,0-18.209-2.95-25.422-7.969l25.422-25.422H211.478z"/>
<g>
</g>
<g>
</g>
<g>
</g>
<g>
</g>
<g>
</g>
<g>
</g>
<g>
</g>
<g>
</g>
<g>
</g>
<g>
</g>
<g>
</g>
<g>
</g>
<g>
</g>
<g>
</g>
<g>
</g>
</svg>
