<?xml version="1.0" encoding="iso-8859-1"?>
<!-- Generator: Adobe Illustrator 19.0.0, SVG Export Plug-In . SVG Version: 6.00 Build 0)  -->
<svg version="1.1" id="Capa_1" xmlns="http://www.w3.org/2000/svg" xmlns:xlink="http://www.w3.org/1999/xlink" x="0px" y="0px"
	 viewBox="0 0 512 512" style="enable-background:new 0 0 512 512;" xml:space="preserve">
<circle style="fill:#52AADE;" cx="255.998" cy="255.998" r="255.998"/>
<path style="fill:#006EB3;" d="M507.506,208.092L361.931,62.519l0,0c-12.011,0.615-36.257,2.729-58.4,6.3l-48.193-48.194
	c0,0-19.308,24.093-35.458,50.448c-34.249-6.666-71.136-8.554-71.136-8.554s7.864,46.226,21.078,82.047
	c-26.988-3.288-48.16-4.375-48.16-4.375s7.6,44.69,20.67,85.998c-33.252-3.945-58.902-5.259-58.902-5.259
	s26.379,155.124,66.996,191.234l67.852,67.852v5.862l25.839,25.839c3.939,0.18,7.899,0.284,11.883,0.284
	c141.385,0,256-114.615,256-256C512,239.624,510.444,223.613,507.506,208.092z"/>
<path style="fill:#C1E5AF;" d="M290.797,71.073c-16.15-26.355-35.458-50.448-35.458-50.448s-19.308,24.093-35.458,50.448
	c-34.249-6.666-71.136-8.554-71.136-8.554s16.357,96.186,41.542,118.577c18.387,16.347,43.901,19.536,65.051,10.275
	c21.151,9.261,46.664,6.071,65.051-10.275c25.185-22.391,41.542-118.577,41.542-118.577S325.045,64.407,290.797,71.073z"/>
<path style="fill:#80CD5E;" d="M320.39,181.096c25.185-22.391,41.542-118.577,41.542-118.577s-36.886,1.889-71.135,8.555
	c-16.151-26.355-35.459-50.448-35.459-50.448V191.37C276.489,200.631,302.003,197.442,320.39,181.096z"/>
<path style="fill:#9AD577;" d="M299.806,150.919c-20.253-33.051-44.467-63.266-44.467-63.266s-24.214,30.215-44.467,63.266
	c-42.95-8.361-89.209-10.728-89.209-10.728s20.512,120.625,52.097,148.704c23.058,20.5,55.055,24.499,81.579,12.885
	c26.524,11.614,58.52,7.615,81.579-12.885c31.584-28.08,52.097-148.704,52.097-148.704S342.756,142.558,299.806,150.919z"/>
<path style="fill:#3EC280;" d="M336.918,288.895c31.584-28.08,52.097-148.704,52.097-148.704s-46.258,2.369-89.209,10.728
	c-20.253-33.051-44.467-63.266-44.467-63.266V301.78C281.863,313.394,313.859,309.395,336.918,288.895z"/>
<path style="fill:#6DC746;" d="M312.523,234.727c-26.046-42.504-57.185-81.36-57.185-81.36s-31.138,38.855-57.185,81.36
	C142.919,223.976,83.432,220.93,83.432,220.93s26.379,155.124,66.996,191.234c19.42,17.265,43.774,25.417,67.852,24.808v48.906
	h74.118v-48.906c24.078,0.609,48.431-7.542,67.852-24.808c40.617-36.11,66.996-191.234,66.996-191.234
	S367.758,223.976,312.523,234.727z"/>
<path style="fill:#008E4E;" d="M312.523,234.727c-26.046-42.504-57.185-81.36-57.185-81.36v332.511h37.059v-48.907
	c24.078,0.609,48.431-7.542,67.852-24.808c40.617-36.11,66.996-191.234,66.996-191.234S367.758,223.976,312.523,234.727z"/>
<g>
</g>
<g>
</g>
<g>
</g>
<g>
</g>
<g>
</g>
<g>
</g>
<g>
</g>
<g>
</g>
<g>
</g>
<g>
</g>
<g>
</g>
<g>
</g>
<g>
</g>
<g>
</g>
<g>
</g>
</svg>
