<svg viewBox="0 0 512 512" xmlns="http://www.w3.org/2000/svg"><path d="m504.5 256c0 137.242188-111.257812 248.5-248.5 248.5s-248.5-111.257812-248.5-248.5 111.257812-248.5 248.5-248.5 248.5 111.257812 248.5 248.5zm0 0" fill="#76e7e7"/><path d="m267.136719 468.785156c53.097656-40.300781 25.570312-95.886718 25.570312-95.886718s-91.402343-153.605469-103.777343-153.605469c-76.300782-50.617188-32.230469-190.441407-31.96875-191.273438-87.949219 38.265625-149.460938 125.945313-149.460938 227.980469 0 130.867188 101.160156 238.105469 229.550781 247.789062 5.675781-11.472656 15.027344-23.574218 30.085938-35.003906zm0 0" fill="#2eddda"/><path d="m384.472656 219.292969h-73.773437c-9.9375 0-17.992188-8.054688-17.992188-17.988281v-73.777344c0-20.269532-16.433593-36.707032-36.707031-36.707032s-36.707031 16.4375-36.707031 36.707032v73.777344c0 9.933593-8.054688 17.988281-17.988281 17.988281h-73.777344c-20.269532 0-36.707032 16.433593-36.707032 36.707031s16.4375 36.707031 36.707032 36.707031h73.777344c9.933593 0 17.988281 8.054688 17.988281 17.988281v73.777344c0 20.273438 16.433593 36.707032 36.707031 36.707032s36.707031-16.4375 36.707031-36.707032v-73.777344c0-9.933593 8.054688-17.988281 17.992188-17.988281h73.773437c20.273438 0 36.707032-16.433593 36.707032-36.707031s-16.433594-36.707031-36.707032-36.707031zm0 0" fill="#fffcdc"/><path d="m256 512c-68.378906 0-132.667969-26.628906-181.019531-74.980469-48.351563-48.351562-74.980469-112.640625-74.980469-181.019531s26.628906-132.667969 74.980469-181.019531c48.351562-48.351563 112.640625-74.980469 181.019531-74.980469 62.113281 0 122.019531 22.523438 168.675781 63.421875 3.113281 2.730469 3.425781 7.46875.695313 10.582031-2.730469 3.117188-7.46875 3.425782-10.582032.695313-43.921874-38.496094-100.3125-59.699219-158.789062-59.699219-64.375 0-124.894531 25.066406-170.414062 70.585938-45.519532 45.519531-70.585938 106.039062-70.585938 170.414062s25.066406 124.894531 70.585938 170.414062c45.519531 45.519532 106.039062 70.585938 170.414062 70.585938s124.894531-25.066406 170.414062-70.585938c45.519532-45.519531 70.585938-106.039062 70.585938-170.414062 0-58.980469-21.527344-115.742188-60.613281-159.824219-2.75-3.097656-2.464844-7.839843.636719-10.585937 3.097656-2.75 7.839843-2.464844 10.585937.636718 41.523437 46.828126 64.390625 107.121094 64.390625 169.773438 0 68.378906-26.628906 132.667969-74.980469 181.019531-48.351562 48.351563-112.640625 74.980469-181.019531 74.980469zm0 0"/><path d="m256 428.679688c-24.375 0-44.207031-19.832032-44.207031-44.207032 0 0-1.6875-15.457031 7.5-15.457031s7.5 15.457031 7.5 15.457031c0 16.101563 13.101562 29.207032 29.207031 29.207032s29.207031-13.101563 29.207031-29.207032v-73.777344c0-14.054687 11.433594-25.488281 25.488281-25.488281h73.777344c16.101563 0 29.207032-13.101562 29.207032-29.207031s-13.105469-29.207031-29.207032-29.207031h-73.777344c-14.054687 0-25.488281-11.433594-25.488281-25.492188v-73.773437c0-16.105469-13.101562-29.207032-29.207031-29.207032s-29.207031 13.101563-29.207031 29.207032v73.773437c0 14.058594-11.433594 25.492188-25.488281 25.492188h-73.777344c-16.101563 0-29.207032 13.101562-29.207032 29.207031 0 16.101562 13.105469 29.207031 29.207032 29.207031h73.777344c14.054687 0 25.488281 11.433594 25.488281 25.488281v35.535157c0 4.140625-3.355469 7.5-7.5 7.5s-7.5-3.359375-7.5-7.5v-35.535157c0-5.785156-4.707031-10.488281-10.488281-10.488281h-73.777344c-24.375 0-44.207032-19.832031-44.207032-44.207031 0-24.378906 19.832032-44.207031 44.207032-44.207031h73.777344c5.78125 0 10.488281-4.707031 10.488281-10.492188v-73.773437c0-24.375 19.832031-44.207032 44.207031-44.207032s44.207031 19.832032 44.207031 44.207032v73.773437c0 5.785157 4.703125 10.492188 10.488281 10.492188h73.777344c24.375 0 44.207032 19.832031 44.207032 44.207031s-19.832032 44.207031-44.207032 44.207031h-73.777344c-5.785156 0-10.488281 4.707031-10.488281 10.488281v73.777344c0 24.375-19.832031 44.207032-44.207031 44.207032zm0 0"/></svg>
