<?xml version="1.0" encoding="iso-8859-1"?>
<!-- Generator: Adobe Illustrator 19.0.0, SVG Export Plug-In . SVG Version: 6.00 Build 0)  -->
<svg version="1.1" id="Layer_1" xmlns="http://www.w3.org/2000/svg" xmlns:xlink="http://www.w3.org/1999/xlink" x="0px" y="0px"
	 viewBox="0 0 512 512" style="enable-background:new 0 0 512 512;" xml:space="preserve">
<circle style="fill:#4AB8A1;" cx="256" cy="256" r="256"/>
<path style="fill:#F2D6CE;" d="M255.996,436H256H255.996z"/>
<g>
	<polygon style="fill:#E6CBC3;" points="256.016,435.984 256,436 256.004,436 	"/>
	<path style="fill:#E6CBC3;" d="M257.944,432.38c-1.092,0.452-2.16,0.872-3.216,1.256L256,436L257.944,432.38z"/>
	<path style="fill:#E6CBC3;" d="M297.488,405.912c5.048-1.556,9.228-2.74,10.932-2.98c-2.816-7.66-6.92-17.14-11.008-25.596
		c-3.46,1.144-6.984,2.148-10.568,3.004C290.996,389.148,295.008,398.68,297.488,405.912z"/>
	<polygon style="fill:#E6CBC3;" points="255.996,436 256,436 255.988,435.988 	"/>
</g>
<path style="fill:#91D2F2;" d="M321.248,417.944c-7.796,8.032-25.608,19.364-35.996,20.056c-5-9.252-17.752-13.752-17.752-13.752
	l-11.484,11.736c-0.004,0.004-0.008,0.008-0.012,0.016L256,436.004L255.996,436l0,0c-0.004-0.004-0.008-0.008-0.012-0.012
	l-1.74-1.78c0.636,0.764,1.188,1.428,1.504,1.8c-2.24,2.62-6.696,8.288-8.5,10.624c-1.824-2.464-7.26-9.528-13.508-16.42
	c-2.688,2.056-5.292,4.644-6.992,7.792c-11.252-0.752-31.252-14-37.752-22c0.108-0.14,0.212-0.26,0.32-0.4
	c-39.068,7.728-65.308,22.028-65.308,38.404v21.368C162.552,498.612,207.708,512,256,512c43.372,0,84.204-10.824,120-29.86V454
	C376,439.152,354.388,426.028,321.248,417.944z"/>
<g>
	<path style="fill:#8AC7E6;" d="M244.5,424.248c0,0-5.548,1.972-10.76,5.96c6.248,6.892,11.684,13.956,13.508,16.42
		c1.804-2.336,6.26-8.004,8.5-10.624c-0.316-0.368-0.868-1.032-1.504-1.8L244.5,424.248z"/>
	<path style="fill:#8AC7E6;" d="M323.004,416c-0.5,0.616-1.108,1.272-1.76,1.944C354.388,426.028,376,439.152,376,454v28.14
		c4.064-2.16,8.072-4.404,12-6.772V454c0-16.38-26.244-30.684-65.324-38.408C322.784,415.732,322.896,415.856,323.004,416z"/>
</g>
<g>
	<path style="fill:#FFE1D9;" d="M133.56,205.572c0.512-1.124,1.036-2.236,1.588-3.328C134.6,203.34,134.072,204.448,133.56,205.572z
		"/>
	<path style="fill:#FFE1D9;" d="M131.544,210.304c0.428-1.084,0.88-2.148,1.34-3.208
		C132.424,208.152,131.972,209.22,131.544,210.304z"/>
	<path style="fill:#FFE1D9;" d="M126.34,228.064c0.168-0.824,0.324-1.656,0.508-2.472
		C126.664,226.408,126.504,227.24,126.34,228.064z"/>
	<path style="fill:#FFE1D9;" d="M125.336,233.8c0.124-0.828,0.248-1.652,0.388-2.472C125.584,232.148,125.456,232.972,125.336,233.8
		z"/>
	<path style="fill:#FFE1D9;" d="M129.72,215.28c0.356-1.064,0.748-2.1,1.136-3.14C130.468,213.18,130.076,214.22,129.72,215.28z"/>
	<path style="fill:#FFE1D9;" d="M124.16,245.768c0.032-0.688,0.088-1.364,0.132-2.044
		C124.248,244.404,124.192,245.08,124.16,245.768z"/>
	<path style="fill:#FFE1D9;" d="M124.604,239.696c0.076-0.796,0.168-1.584,0.26-2.372
		C124.776,238.112,124.684,238.9,124.604,239.696z"/>
	<path style="fill:#FFE1D9;" d="M151.72,178.688c-6.344,6.68-11.74,14.2-16.044,22.54c4.308-8.336,9.704-15.86,16.048-22.536
		C151.72,178.692,151.72,178.688,151.72,178.688z"/>
	<path style="fill:#FFE1D9;" d="M127.636,222.404c0.416-1.612,0.868-3.2,1.352-4.768
		C128.504,219.208,128.052,220.792,127.636,222.404z"/>
	<path style="fill:#FFE1D9;" d="M250,383.848c70.116-3.14,126-60.956,126-131.848c0-1.34-0.06-2.644-0.1-3.96
		c-6.372-10.548-15.872-20.748-29.932-30.004c-2.584,0.948-5.304,1.84-8.08,2.708c0,0,0,0,0.004,0
		c-0.016,0.004-0.032,0.008-0.048,0.012c-2.056,0.644-4.212,1.236-6.364,1.828c-0.976,0.268-1.924,0.552-2.916,0.808
		c-1.972,0.512-4.008,0.988-6.052,1.46c-1.284,0.296-2.56,0.596-3.872,0.876c-1.932,0.412-3.9,0.796-5.888,1.168
		c-1.54,0.292-3.084,0.572-4.656,0.84c-1.888,0.32-3.788,0.624-5.72,0.912c-1.796,0.268-3.612,0.512-5.444,0.748
		c-1.816,0.232-3.632,0.464-5.48,0.668c-2.08,0.228-4.192,0.42-6.312,0.612c-1.696,0.152-3.376,0.312-5.096,0.44
		c-2.5,0.184-5.04,0.312-7.588,0.436c-1.42,0.068-2.82,0.168-4.252,0.22C264.18,231.916,260.116,232,256,232
		c-2.024,0-3.996-0.076-6-0.112c0.012,0,0.024,0,0.036,0c-32.4-0.572-61.792-5.696-84.004-13.852c-1.364,0.896-2.66,1.808-3.94,2.72
		c-1.284,0.92-2.516,1.848-3.716,2.78c-0.156,0.12-0.32,0.24-0.476,0.364c-1.128,0.888-2.208,1.784-3.264,2.684
		c-0.208,0.176-0.424,0.352-0.628,0.528c-1,0.864-1.96,1.74-2.896,2.616c-0.232,0.216-0.472,0.436-0.7,0.652
		c-0.888,0.848-1.74,1.704-2.572,2.56c-0.248,0.256-0.504,0.512-0.748,0.772c-0.792,0.832-1.548,1.672-2.288,2.512
		c-0.252,0.288-0.508,0.576-0.756,0.864c-0.704,0.82-1.38,1.644-2.036,2.472c-0.252,0.316-0.5,0.632-0.744,0.948
		c-0.624,0.808-1.224,1.62-1.808,2.436c-0.244,0.344-0.484,0.688-0.724,1.032c-0.548,0.796-1.08,1.592-1.592,2.388
		c-0.236,0.372-0.464,0.744-0.696,1.116c-0.48,0.78-0.948,1.56-1.396,2.344c-0.224,0.396-0.44,0.792-0.656,1.188
		c-0.42,0.764-0.828,1.532-1.216,2.3c-0.212,0.42-0.408,0.836-0.608,1.256c-0.364,0.752-0.724,1.508-1.056,2.26
		c-0.192,0.436-0.372,0.872-0.556,1.308c-0.312,0.744-0.628,1.488-0.916,2.232c-0.172,0.448-0.328,0.896-0.492,1.34
		c-0.268,0.736-0.544,1.476-0.788,2.212c-0.152,0.448-0.28,0.9-0.424,1.352c-0.232,0.74-0.468,1.48-0.68,2.216
		c-0.112,0.396-0.208,0.796-0.316,1.192c-0.528,1.96-0.992,3.92-1.376,5.876c0-0.004,0-0.008,0-0.012c0,0.004,0,0.008-0.004,0.012
		C124.696,267.228,124,259.696,124,252c0-1.336,0.044-2.644,0.084-3.956c-6.336,0.244-11.432,8.616-11.432,18.956
		c0,10.492,10.004,22.736,16.468,22.736c0.132,0,0.244-0.036,0.368-0.044c12.296,41.336,44.28,74.164,85.092,87.644
		c13.032,4.3,26.948,6.664,41.42,6.664C253.988,384,251.992,383.936,250,383.848z M204.22,330.6
		c2.272-3.464,24.276,7.984,51.78,7.984s49.52-11.444,51.792-7.984c2.268,3.46-19.544,22.984-51.792,22.984
		S201.936,334.06,204.22,330.6z"/>
	<path style="fill:#FFE1D9;" d="M387.9,248.044c0.04,1.316,0.1,2.616,0.1,3.956c0,2.06-0.056,4.108-0.156,6.144
		c-0.052,1.164-0.148,2.316-0.232,3.472c-0.056,0.772-0.104,1.544-0.176,2.312c-0.136,1.536-0.312,3.06-0.5,4.58
		c-0.036,0.296-0.072,0.592-0.112,0.888c-0.228,1.732-0.488,3.456-0.784,5.168l0,0l0,0c-0.888,5.152-2.064,10.2-3.528,15.128
		c0.124,0.008,0.24,0.044,0.368,0.044c6.464,0,16.468-12.244,16.468-22.736C399.348,256.652,394.244,248.272,387.9,248.044z"/>
</g>
<g>
	<path style="fill:#F2D6CE;" d="M360.78,179.204c5.656,6.036,10.548,12.748,14.568,20.124
		C371.332,191.952,366.432,185.244,360.78,179.204z"/>
	<path style="fill:#F2D6CE;" d="M387.22,237.992c0.172,1.544,0.292,3.12,0.408,4.7C387.512,241.112,387.392,239.536,387.22,237.992z
		"/>
	<path style="fill:#F2D6CE;" d="M356.436,174.844c1.452,1.376,2.864,2.788,4.228,4.24C359.3,177.632,357.888,176.22,356.436,174.844
		z"/>
	<path style="fill:#F2D6CE;" d="M375.644,199.904c0.852,1.588,1.664,3.2,2.432,4.848
		C377.308,203.104,376.492,201.488,375.644,199.904z"/>
	<path style="fill:#F2D6CE;" d="M384.952,224.776c0.308,1.324,0.584,2.668,0.848,4.02C385.536,227.444,385.26,226.1,384.952,224.776
		z"/>
	<path style="fill:#F2D6CE;" d="M378.7,206.156c0.624,1.396,1.228,2.808,1.792,4.244C379.928,208.96,379.324,207.552,378.7,206.156z
		"/>
	<path style="fill:#F2D6CE;" d="M346.612,166.616c-1.676-1.24-3.388-2.444-5.144-3.6c0,0.004,0.004,0.004,0.004,0.008
		C343.228,164.18,344.94,165.376,346.612,166.616z"/>
	<path style="fill:#F2D6CE;" d="M383.26,218.444c0.392,1.308,0.756,2.632,1.104,3.972
		C384.02,221.072,383.652,219.748,383.26,218.444z"/>
	<path style="fill:#F2D6CE;" d="M351.784,170.7c1.5,1.26,2.96,2.556,4.38,3.892C354.744,173.256,353.28,171.96,351.784,170.7z"/>
	<path style="fill:#F2D6CE;" d="M386.272,231.288c0.236,1.38,0.432,2.788,0.62,4.2C386.7,234.076,386.508,232.672,386.272,231.288z"
		/>
	<path style="fill:#F2D6CE;" d="M381.192,212.26c0.492,1.324,0.96,2.668,1.4,4.028C382.152,214.924,381.68,213.588,381.192,212.26z"
		/>
	<path style="fill:#F2D6CE;" d="M346.78,166.744c1.608,1.196,3.172,2.432,4.704,3.708
		C349.956,169.176,348.388,167.94,346.78,166.744z"/>
	<path style="fill:#F2D6CE;" d="M388,252c0-1.34-0.06-2.64-0.1-3.956c-0.032-1.052-0.044-2.116-0.1-3.152
		C387.928,247.224,388,249.592,388,252z"/>
	<path style="fill:#F2D6CE;" d="M386.824,269.396c-0.232,1.732-0.488,3.456-0.784,5.168
		C386.336,272.852,386.596,271.128,386.824,269.396z"/>
	<path style="fill:#F2D6CE;" d="M384.572,268.364c-0.06-0.22-0.112-0.444-0.176-0.664c-0.572-2.032-1.236-4.064-1.984-6.092
		c-0.076-0.208-0.152-0.416-0.228-0.624c-0.784-2.072-1.66-4.136-2.644-6.192c-0.064-0.132-0.128-0.264-0.192-0.4
		c-1.028-2.12-2.16-4.228-3.424-6.324c-0.008-0.008-0.012-0.02-0.02-0.028c0.036,1.316,0.096,2.62,0.096,3.96
		c0,70.892-55.884,128.708-126,131.848c1.992,0.088,3.988,0.152,6,0.152c-14.472,0-28.388-2.364-41.416-6.664
		c-4.088,8.456-8.192,17.936-11.008,25.596c5.96,0.836,41.676,13.068,41.676,13.068l9.476,17.636
		c1.052-0.384,2.124-0.804,3.216-1.256l8.808-16.38c0,0,18.156-6.216,30.736-10.088c-2.48-7.228-6.496-16.76-10.64-25.572
		c3.584-0.856,7.104-1.86,10.568-3.004c40.812-13.48,72.796-46.308,85.092-87.644c1.464-4.928,2.644-9.976,3.528-15.128
		C385.636,272.5,385.136,270.432,384.572,268.364z"/>
	<path style="fill:#F2D6CE;" d="M387.844,258.144c-0.056,1.164-0.144,2.316-0.232,3.472
		C387.696,260.46,387.792,259.308,387.844,258.144z"/>
	<path style="fill:#F2D6CE;" d="M387.436,263.928c-0.14,1.536-0.308,3.06-0.5,4.58C387.124,266.988,387.3,265.464,387.436,263.928z"
		/>
</g>
<g>
	<path style="fill:#E78244;" d="M136.884,101.864c0.084-0.528,0.164-1.068,0.268-1.572
		C137.048,100.796,136.972,101.34,136.884,101.864z"/>
	<path style="fill:#E78244;" d="M136.384,106.116c0.06-0.792,0.132-1.568,0.224-2.324
		C136.512,104.544,136.444,105.324,136.384,106.116z"/>
	<path style="fill:#E78244;" d="M136.196,110.376c0.012-1.04,0.056-2.04,0.108-3.028
		C136.252,108.336,136.208,109.336,136.196,110.376z"/>
	<path style="fill:#E78244;" d="M158.376,223.54c-0.156,0.12-0.32,0.24-0.476,0.364C158.056,223.78,158.22,223.66,158.376,223.54z"
		/>
	<path style="fill:#E78244;" d="M142.004,239.564c-0.252,0.316-0.5,0.632-0.744,0.948
		C141.504,240.196,141.752,239.88,142.004,239.564z"/>
	<path style="fill:#E78244;" d="M272.452,231.552c-1.42,0.072-2.82,0.168-4.252,0.22
		C269.632,231.716,271.032,231.62,272.452,231.552z"/>
	<path style="fill:#E78244;" d="M151.108,229.732c-0.232,0.216-0.472,0.436-0.7,0.652
		C150.636,230.164,150.876,229.948,151.108,229.732z"/>
	<path style="fill:#E78244;" d="M285.132,230.676c-1.692,0.152-3.376,0.312-5.096,0.44
		C281.756,230.988,283.436,230.828,285.132,230.676z"/>
	<path style="fill:#E78244;" d="M144.796,236.224c-0.252,0.288-0.508,0.576-0.756,0.864
		C144.288,236.8,144.54,236.512,144.796,236.224z"/>
	<path style="fill:#E78244;" d="M154.636,226.584c-0.208,0.176-0.424,0.352-0.628,0.528
		C154.208,226.936,154.428,226.76,154.636,226.584z"/>
	<path style="fill:#E78244;" d="M328.564,223.396c-1.972,0.512-4.012,0.988-6.052,1.46
		C324.556,224.38,326.592,223.908,328.564,223.396z"/>
	<path style="fill:#E78244;" d="M337.844,220.756c-2.056,0.64-4.212,1.236-6.364,1.828
		C333.636,221.992,335.788,221.4,337.844,220.756z"/>
	<path style="fill:#E78244;" d="M296.928,229.396c-1.816,0.236-3.632,0.464-5.48,0.668
		C293.296,229.864,295.112,229.632,296.928,229.396z"/>
	<path style="fill:#E78244;" d="M308.092,227.74c-1.884,0.32-3.792,0.624-5.72,0.912C304.304,228.364,306.204,228.06,308.092,227.74
		z"/>
	<path style="fill:#E78244;" d="M318.64,225.732c-1.928,0.412-3.904,0.796-5.888,1.168
		C314.736,226.524,316.708,226.144,318.64,225.732z"/>
	<path style="fill:#E78244;" d="M139.456,242.948c-0.244,0.344-0.484,0.688-0.724,1.032
		C138.968,243.636,139.208,243.292,139.456,242.948z"/>
	<path style="fill:#E78244;" d="M135.052,249.828c-0.224,0.396-0.44,0.792-0.656,1.188
		C134.612,250.62,134.824,250.224,135.052,249.828z"/>
	<path style="fill:#E78244;" d="M147.084,233.716c0.244-0.256,0.5-0.516,0.748-0.772C147.58,233.2,147.328,233.456,147.084,233.716z
		"/>
	<path style="fill:#E78244;" d="M137.14,246.368c-0.236,0.372-0.464,0.744-0.696,1.116
		C136.676,247.112,136.904,246.74,137.14,246.368z"/>
	<path style="fill:#E78244;" d="M125.96,274.564c0-0.004,0-0.008,0.004-0.012c-1.264-7.332-1.96-14.86-1.96-22.552
		c0-1.328,0.044-2.632,0.084-3.94c6.364-10.556,15.872-20.764,29.944-30.024c2.584,0.948,5.308,1.84,8.084,2.704
		c-0.008,0.004-0.016,0.012-0.024,0.016c1.28-0.916,2.576-1.824,3.94-2.72c22.212,8.156,51.604,13.28,84.004,13.852
		c32.372-0.58,61.728-5.696,83.932-13.852c1.356,0.892,2.648,1.796,3.92,2.708c2.772-0.864,5.492-1.756,8.08-2.708
		c14.06,9.256,23.564,19.456,29.932,30.004c0.008,0.012,0.012,0.02,0.02,0.028c-0.012-0.016-0.016-0.036-0.028-0.052
		c-1.164-38.268-18.916-66.876-46.416-84.992C315.196,145.68,285.084,132.5,247,132.5c-43.04,0-89.42-4.712-110.804-22.112
		c-0.216,20.008,7.408,48.588,15.52,68.3v0.004c-6.344,6.676-11.74,14.2-16.048,22.536c-0.176,0.34-0.352,0.676-0.524,1.016
		c-0.548,1.096-1.076,2.208-1.588,3.328c-0.228,0.504-0.452,1.012-0.676,1.524c-0.46,1.06-0.912,2.124-1.34,3.208
		c-0.24,0.604-0.46,1.224-0.688,1.836c-0.388,1.04-0.78,2.08-1.136,3.14c-0.26,0.776-0.488,1.572-0.732,2.356
		c-0.484,1.568-0.936,3.156-1.352,4.768c-0.272,1.056-0.548,2.112-0.792,3.188c-0.184,0.812-0.34,1.644-0.508,2.472
		c-0.22,1.08-0.428,2.164-0.616,3.264c-0.14,0.816-0.264,1.644-0.388,2.472c-0.172,1.164-0.328,2.34-0.468,3.524
		c-0.092,0.788-0.184,1.576-0.26,2.372c-0.128,1.328-0.228,2.672-0.316,4.028c-0.044,0.68-0.1,1.356-0.132,2.044
		c-0.036,0.752-0.052,1.516-0.076,2.28C124.044,249.356,124,250.664,124,252C124,259.696,124.696,267.228,125.96,274.564z"/>
	<path style="fill:#E78244;" d="M132.568,254.576c0.2-0.42,0.4-0.84,0.608-1.256C132.964,253.736,132.768,254.156,132.568,254.576z"
		/>
	<path style="fill:#E78244;" d="M127.656,267.5c-0.112,0.396-0.208,0.796-0.316,1.192
		C127.448,268.292,127.544,267.896,127.656,267.5z"/>
	<path style="fill:#E78244;" d="M131.508,256.836c-0.192,0.436-0.372,0.872-0.556,1.308
		C131.14,257.708,131.316,257.272,131.508,256.836z"/>
	<path style="fill:#E78244;" d="M128.76,263.932c-0.152,0.452-0.28,0.9-0.424,1.352C128.476,264.832,128.608,264.38,128.76,263.932z
		"/>
	<path style="fill:#E78244;" d="M130.04,260.376c-0.172,0.448-0.328,0.896-0.492,1.34
		C129.712,261.272,129.868,260.824,130.04,260.376z"/>
	<path style="fill:#E78244;" d="M384.572,268.364c-0.06-0.22-0.112-0.444-0.176-0.664
		C384.46,267.92,384.512,268.144,384.572,268.364z"/>
	<path style="fill:#E78244;" d="M379.54,254.792c-0.064-0.132-0.128-0.264-0.192-0.4C379.412,254.524,379.476,254.66,379.54,254.792
		z"/>
	<path style="fill:#E78244;" d="M382.412,261.608c-0.076-0.208-0.148-0.416-0.228-0.624
		C382.26,261.192,382.336,261.4,382.412,261.608z"/>
</g>
<g>
	<path style="fill:#D97A40;" d="M154.032,218.036c-14.072,9.26-23.58,19.468-29.944,30.024c-0.04,1.308-0.084,2.612-0.084,3.94
		c0,7.692,0.696,15.22,1.96,22.552c0,0.004,0,0.008,0,0.012c0.384-1.956,0.852-3.916,1.376-5.876c0.108-0.396,0.2-0.796,0.316-1.192
		c0.208-0.74,0.448-1.48,0.68-2.216c0.14-0.452,0.272-0.9,0.424-1.352c0.248-0.736,0.52-1.476,0.788-2.212
		c0.164-0.448,0.32-0.896,0.492-1.34c0.288-0.744,0.6-1.488,0.916-2.232c0.184-0.436,0.36-0.872,0.556-1.308
		c0.336-0.756,0.696-1.508,1.056-2.26c0.2-0.42,0.4-0.84,0.608-1.256c0.388-0.768,0.8-1.536,1.216-2.3
		c0.216-0.396,0.432-0.792,0.656-1.188c0.448-0.784,0.916-1.564,1.396-2.344c0.228-0.372,0.456-0.744,0.696-1.116
		c0.512-0.8,1.044-1.596,1.592-2.388c0.236-0.344,0.476-0.688,0.724-1.032c0.58-0.816,1.184-1.628,1.808-2.436
		c0.244-0.316,0.492-0.632,0.744-0.948c0.656-0.828,1.332-1.652,2.036-2.472c0.248-0.288,0.5-0.576,0.756-0.864
		c0.74-0.84,1.496-1.68,2.288-2.512c0.244-0.256,0.5-0.516,0.748-0.772c0.832-0.856,1.684-1.712,2.572-2.56
		c0.228-0.22,0.468-0.436,0.7-0.652c0.94-0.876,1.896-1.752,2.896-2.616c0.204-0.176,0.42-0.352,0.628-0.528
		c1.056-0.9,2.136-1.796,3.264-2.684c0.156-0.12,0.32-0.24,0.476-0.364c1.204-0.936,2.432-1.864,3.716-2.78
		c0.008-0.004,0.016-0.012,0.024-0.016C159.34,219.876,156.616,218.984,154.032,218.036z"/>
	<path style="fill:#D97A40;" d="M250.036,231.888c-0.012,0-0.024,0-0.036,0c2.004,0.036,3.976,0.112,6,0.112
		c4.116,0,8.18-0.084,12.196-0.232c1.436-0.052,2.832-0.148,4.252-0.22c2.548-0.124,5.088-0.252,7.588-0.436
		c1.716-0.124,3.4-0.288,5.096-0.44c2.12-0.188,4.236-0.38,6.312-0.612c1.848-0.204,3.668-0.432,5.48-0.668
		c1.832-0.236,3.648-0.48,5.444-0.748c1.928-0.288,3.836-0.588,5.72-0.912c1.572-0.268,3.12-0.548,4.656-0.84
		c1.984-0.376,3.96-0.756,5.888-1.168c1.312-0.28,2.588-0.58,3.872-0.876c2.044-0.472,4.084-0.944,6.052-1.46
		c0.992-0.26,1.94-0.54,2.916-0.808c2.152-0.592,4.308-1.188,6.364-1.828c0.016-0.004,0.032-0.008,0.048-0.012c0,0,0,0-0.004,0
		c-1.276-0.912-2.568-1.816-3.92-2.708C311.764,226.188,282.408,231.308,250.036,231.888z"/>
	<path style="fill:#D97A40;" d="M329.476,163.024c27.5,18.116,45.252,46.724,46.416,84.992c0.012,0.016,0.016,0.036,0.028,0.052
		c1.264,2.096,2.396,4.204,3.424,6.324c0.064,0.132,0.128,0.264,0.192,0.4c0.984,2.056,1.86,4.124,2.644,6.192
		c0.08,0.208,0.152,0.416,0.228,0.624c0.748,2.028,1.412,4.06,1.984,6.092c0.064,0.22,0.116,0.444,0.176,0.664
		c0.564,2.068,1.064,4.136,1.468,6.2l0,0l0,0c0.296-1.712,0.552-3.436,0.784-5.168c0.04-0.296,0.076-0.592,0.112-0.888
		c0.192-1.52,0.36-3.044,0.5-4.58c0.072-0.768,0.12-1.54,0.176-2.312c0.088-1.156,0.176-2.308,0.232-3.472
		c0.104-2.036,0.16-4.084,0.16-6.144c0-2.408-0.072-4.776-0.2-7.112c-0.04-0.744-0.12-1.464-0.172-2.2
		c-0.116-1.58-0.236-3.156-0.408-4.7c-0.096-0.844-0.22-1.668-0.332-2.504c-0.188-1.412-0.384-2.816-0.62-4.2
		c-0.144-0.84-0.312-1.664-0.472-2.492c-0.264-1.352-0.54-2.696-0.848-4.02c-0.184-0.796-0.384-1.58-0.588-2.364
		c-0.344-1.34-0.712-2.664-1.104-3.972c-0.216-0.724-0.436-1.444-0.668-2.156c-0.44-1.36-0.908-2.7-1.4-4.028
		c-0.232-0.62-0.456-1.248-0.7-1.86c-0.564-1.436-1.168-2.848-1.792-4.244c-0.208-0.468-0.408-0.944-0.624-1.404
		c-0.768-1.648-1.58-3.26-2.432-4.848c-0.1-0.188-0.192-0.384-0.296-0.572c-4.02-7.376-8.912-14.092-14.568-20.124
		c-0.036-0.04-0.076-0.08-0.116-0.12c-1.368-1.452-2.776-2.868-4.228-4.24c-0.092-0.084-0.18-0.168-0.272-0.252
		c-1.42-1.336-2.88-2.632-4.38-3.892c-0.1-0.084-0.2-0.168-0.296-0.248c-1.528-1.276-3.096-2.512-4.704-3.708
		c-0.056-0.04-0.112-0.084-0.168-0.128c-1.672-1.24-3.384-2.44-5.136-3.592c0-0.004-0.004-0.004-0.004-0.008
		c-14.284-17.34-44.392-30.516-82.472-30.516c-52.5,0-110-7-121-35.5c-0.336,1.028-0.608,2.136-0.844,3.292
		c-0.104,0.508-0.184,1.044-0.268,1.572c-0.104,0.632-0.204,1.26-0.28,1.924c-0.088,0.756-0.164,1.532-0.224,2.324
		c-0.028,0.404-0.056,0.816-0.076,1.232c-0.052,0.992-0.1,1.992-0.108,3.028c0,0.004,0,0.008,0,0.012l0,0
		c21.384,17.4,67.764,22.112,110.804,22.112C285.084,132.5,315.196,145.68,329.476,163.024z"/>
</g>
<path style="fill:#E6BAAD;" d="M307.792,330.6c-2.272-3.46-24.288,7.984-51.792,7.984s-49.508-11.448-51.78-7.984
	c-2.284,3.46,19.532,22.984,51.78,22.984S310.06,334.06,307.792,330.6z"/>
<g>
	<path style="fill:#F5F5F5;" d="M226.748,438c1.7-3.148,4.304-5.732,6.992-7.792c5.212-3.988,10.76-5.96,10.76-5.96l9.744,9.956
		l1.74,1.78L256,436l-1.272-2.364L245.252,416c0,0-35.712-12.232-41.676-13.068c-0.004,0-0.008,0-0.012-0.004
		c-3.608,1.904-8.86,5.692-14.248,12.672c-0.108,0.14-0.212,0.26-0.32,0.4C195.496,424,215.496,437.248,226.748,438z"/>
	<path style="fill:#F5F5F5;" d="M266.752,416l-8.808,16.38L256,436l0.016-0.016l11.484-11.736c0,0,12.752,4.5,17.752,13.752
		c10.384-0.696,28.196-12.024,35.996-20.056c0.652-0.672,1.256-1.328,1.76-1.944c-0.108-0.144-0.22-0.268-0.328-0.408
		c-5.384-6.976-10.632-10.76-14.24-12.664c-0.004,0-0.008,0-0.012,0.004c-1.708,0.24-5.884,1.428-10.932,2.98
		C284.908,409.784,266.752,416,266.752,416z"/>
	<circle style="fill:#F5F5F5;" cx="210" cy="272" r="16"/>
</g>
<circle style="fill:#734822;" cx="210" cy="272" r="8"/>
<circle style="fill:#F5F5F5;" cx="302" cy="272" r="16"/>
<circle style="fill:#734822;" cx="302" cy="272" r="8"/>
<g>
</g>
<g>
</g>
<g>
</g>
<g>
</g>
<g>
</g>
<g>
</g>
<g>
</g>
<g>
</g>
<g>
</g>
<g>
</g>
<g>
</g>
<g>
</g>
<g>
</g>
<g>
</g>
<g>
</g>
</svg>
