<?xml version="1.0" encoding="iso-8859-1"?>
<!-- Generator: Adobe Illustrator 19.0.0, SVG Export Plug-In . SVG Version: 6.00 Build 0)  -->
<svg version="1.1" id="Layer_1" xmlns="http://www.w3.org/2000/svg" xmlns:xlink="http://www.w3.org/1999/xlink" x="0px" y="0px"
	 viewBox="0 0 512 512" style="enable-background:new 0 0 512 512;" xml:space="preserve">
<circle style="fill:#88C5CC;" cx="256" cy="256" r="256"/>
<g>
	<path style="fill:#406A80;" d="M376.036,392.336L376.036,392.336c30.288,2.068,55.644,13.844,71.232,33.748l0.004-0.004
		C431.68,406.18,406.324,394.404,376.036,392.336z"/>
	<path style="fill:#406A80;" d="M375.332,394.272l-21.252,58.78l-7.496-1.392l-0.504,1.392l-26.048-4.844l16.156,50.904
		c6.724-2.216,13.344-4.648,19.808-7.392V488h8.236c27.58-12.888,52.488-30.52,73.652-51.892
		C425.696,414.036,403.32,399.576,375.332,394.272z"/>
	<path style="fill:#406A80;" d="M159.952,453.056L137.884,392h-1.932c-32.628,0-58.42,10.82-74.3,30.528
		c30.448,35.5,70.42,62.572,115.992,77.212l16.856-53.104L159.952,453.056z"/>
	<polygon style="fill:#406A80;" points="209.992,425.828 212,434.512 212,426.92 	"/>
</g>
<g>
	<path style="fill:#395F73;" d="M311.532,446.632l17.384,54.772c2.444-0.724,4.864-1.492,7.276-2.288l-16.156-50.904
		L311.532,446.632z"/>
	<path style="fill:#395F73;" d="M376.032,392.336L376.032,392.336l0.124-0.336h-8l-21.572,59.664l7.496,1.392l21.252-58.78
		c27.984,5.304,50.364,19.76,62.552,41.836c3.22-3.252,6.336-6.604,9.38-10.024C431.676,406.184,406.324,394.404,376.032,392.336z"
		/>
</g>
<path style="fill:#242424;" d="M256.52,460l18.8,32.744l2.316,12.72l0.012-0.052L269.36,460L288,430.132v-6.956l-0.548-0.996h0.004
	L254,361.244l-34,61.928v6.96L238.64,460l-9.16,50.152l0.116,0.496c4.408,0.452,8.852,0.796,13.324,1.02l-10.328-17.888l3.2-17.492
	l20.612,35.7c5.492-0.008,10.924-0.244,16.328-0.592L243.22,460H256.52z"/>
<g>
	<path style="fill:#C23527;" d="M232.592,493.78l10.328,17.888c4.332,0.22,8.692,0.332,13.08,0.332c0.136,0,0.268-0.012,0.404-0.012
		l-20.612-35.7L232.592,493.78z"/>
	<path style="fill:#C23527;" d="M275.32,492.744L256.52,460h-13.3l29.512,51.396c1.204-0.076,2.4-0.18,3.596-0.272l1.308-5.656
		L275.32,492.744z"/>
</g>
<path style="fill:#335466;" d="M200.84,420.832l-47.604-25.968l2.348-2.864h-17.7l22.068,61.056l34.548-6.424l-16.856,53.104
	c14.076,4.524,28.688,7.832,43.708,9.864L200.84,420.832z"/>
<path style="fill:#2D4A59;" d="M212,434.512l-2.008-8.684l-9.156-4.992l20.512,88.768c2.74,0.372,5.476,0.764,8.24,1.048
	l-0.116-0.496L212,434.512z"/>
<path style="fill:#335466;" d="M320.032,448.212l26.048,4.844l0.504-1.392L368.156,392h-1.864h-0.012h-13.864l2.348,2.864
	l-59.008,32.192l-18.108,78.356l-0.012,0.052l-1.308,5.656c18.128-1.424,35.72-4.716,52.588-9.72l-17.384-54.772L320.032,448.212z"
	/>
<g>
	<path style="fill:#F5F5F5;" d="M337.536,394.864l-39.984-48.732c-13.512,8.436-28.56,13.552-44.26,13.824l0.708,1.288
		l33.456,60.936L337.536,394.864z"/>
	<path style="fill:#F5F5F5;" d="M200.84,420.832l9.156,4.992L212,426.92l4.572,2.496l-13.26-7.236l34.848-63.476
		c-14.424-2.62-28.06-9.18-40.152-18.404L155.584,392l-2.348,2.864L200.84,420.832z"/>
</g>
<g>
	<path style="fill:#CCCCCC;" d="M253.292,359.956C252.86,359.964,252.432,360,252,360c-1.636,0-3.26-0.06-4.88-0.168
		c-1.492-0.096-2.972-0.252-4.448-0.432c-0.108-0.012-0.216-0.016-0.324-0.032c0.004,0,0.004,0,0.008,0
		c-1.404-0.18-2.8-0.408-4.192-0.664l-34.848,63.476l13.26,7.236L212,426.92v7.588l17.48,75.644L238.64,460L220,430.132v-6.96
		l34-61.928L253.292,359.956z"/>
	<path style="fill:#CCCCCC;" d="M297.552,346.132l39.984,48.732l-50.08,27.316h-0.004l0.548,0.996v6.956L269.36,460l8.288,45.412
		l18.108-78.356l59.008-32.192L352.416,392l-43.712-53.272l-1.156,0.348C304.324,341.624,300.992,343.988,297.552,346.132z"/>
</g>
<g>
	<path style="fill:#FFE1D9;" d="M293.148,44.888c0.516-0.056,1.016-0.076,1.528-0.124c-5.224,0.484-10.604,1.404-16.108,2.824
		c5.26-1.296,10.412-2.132,15.428-2.58C293.712,44.972,293.436,44.92,293.148,44.888z"/>
	<path style="fill:#FFE1D9;" d="M363.8,79.6c0.06,0.156,0.1,0.316,0.156,0.472C363.9,79.916,363.856,79.756,363.8,79.6z"/>
	<path style="fill:#FFE1D9;" d="M361.404,74.384c0.232,0.436,0.468,0.868,0.684,1.308C361.872,75.252,361.636,74.82,361.404,74.384z
		"/>
	<path style="fill:#FFE1D9;" d="M352.38,62.42c0.392,0.384,0.792,0.764,1.172,1.16C353.172,63.184,352.772,62.804,352.38,62.42z"/>
	<path style="fill:#FFE1D9;" d="M365.128,83.844c0.12,0.46,0.224,0.928,0.328,1.396C365.352,84.772,365.252,84.308,365.128,83.844z"
		/>
	<path style="fill:#FFE1D9;" d="M366.408,98.844c-0.04,0.476-0.1,0.96-0.156,1.44C366.308,99.8,366.368,99.32,366.408,98.844z"/>
	<path style="fill:#FFE1D9;" d="M356.344,66.72c0.184,0.224,0.352,0.46,0.532,0.688C356.696,67.18,356.528,66.944,356.344,66.72z"/>
	<path style="fill:#FFE1D9;" d="M366.052,88.356c0.072,0.46,0.148,0.92,0.204,1.384C366.2,89.28,366.12,88.82,366.052,88.356z"/>
	<path style="fill:#FFE1D9;" d="M365.728,103.744c-0.092,0.48-0.172,0.956-0.276,1.436
		C365.556,104.7,365.636,104.22,365.728,103.744z"/>
	<path style="fill:#FFE1D9;" d="M366.588,94.216c0,0.08-0.008,0.16-0.004,0.24C366.58,94.376,366.588,94.296,366.588,94.216z"/>
	<path style="fill:#FFE1D9;" d="M364.176,109.988c-0.012,0.036-0.028,0.072-0.04,0.108
		C364.148,110.06,364.168,110.024,364.176,109.988z"/>
	<path style="fill:#FFE1D9;" d="M362.328,114.864c-0.208,0.484-0.436,0.972-0.66,1.46
		C361.892,115.836,362.124,115.348,362.328,114.864z"/>
	<path style="fill:#FFE1D9;" d="M359.86,119.964c-0.26,0.488-0.516,0.976-0.792,1.464C359.344,120.94,359.6,120.452,359.86,119.964z
		"/>
	<path style="fill:#FFE1D9;" d="M356,244c8,0,16-8.908,16-19.724V180c0-10.82-16-12-16-12v35.396V244z"/>
	<path style="fill:#FFE1D9;" d="M359.072,70.448c0.284,0.428,0.552,0.864,0.82,1.3C359.624,71.312,359.36,70.876,359.072,70.448z"/>
	<path style="fill:#FFE1D9;" d="M323.68,46.86c0.664,0.168,1.332,0.332,1.98,0.52C325.012,47.196,324.344,47.032,323.68,46.86z"/>
	<path style="fill:#FFE1D9;" d="M299.188,44.444c0.784-0.036,1.56-0.048,2.336-0.064C300.748,44.392,299.976,44.408,299.188,44.444z
		"/>
	<path style="fill:#FFE1D9;" d="M329.996,48.764c0.516,0.184,1.016,0.384,1.524,0.576C331.016,49.148,330.512,48.948,329.996,48.764
		z"/>
	<path style="fill:#FFE1D9;" d="M305.256,44.388c0.74,0.016,1.48,0.024,2.212,0.06C306.736,44.412,305.996,44.404,305.256,44.388z"
		/>
	<path style="fill:#FFE1D9;" d="M318.296,45.672c0.708,0.128,1.408,0.276,2.108,0.424C319.7,45.948,319.004,45.804,318.296,45.672z"
		/>
	<path style="fill:#FFE1D9;" d="M312.548,44.832c0.572,0.06,1.128,0.148,1.692,0.22C313.676,44.98,313.116,44.896,312.548,44.832z"
		/>
	<path style="fill:#FFE1D9;" d="M348.84,59.236c0.448,0.368,0.88,0.748,1.312,1.124C349.72,59.984,349.292,59.604,348.84,59.236z"/>
	<path style="fill:#FFE1D9;" d="M339.6,53.056c0.54,0.296,1.088,0.584,1.616,0.896C340.688,53.64,340.14,53.352,339.6,53.056z"/>
	<path style="fill:#FFE1D9;" d="M344.84,56.232c0.36,0.248,0.704,0.504,1.06,0.756C345.544,56.736,345.2,56.476,344.84,56.232z"/>
	<path style="fill:#FFE1D9;" d="M335.044,50.788c0.596,0.268,1.176,0.548,1.76,0.832C336.22,51.34,335.64,51.056,335.044,50.788z"/>
	<path style="fill:#FFE1D9;" d="M238.16,358.704c1.392,0.252,2.788,0.484,4.192,0.664C293.956,352.808,336,294.94,336,244v-76
		v-9.264c-4.656-6.968-9.268-13.504-12.768-19.028c-1.28,0.048-2.572,0.068-3.884,0.052c-0.496-0.004-0.988-0.012-1.488-0.028
		c-1.96-0.056-3.94-0.156-5.944-0.34c-0.02,0-0.044,0-0.064-0.004c0.004,0,0.008,0,0.016,0
		c-30.144-2.816-64.488-20.072-71.884-41.508c0.008,0.044,0.016,0.076,0.028,0.124C224.752,163.748,148,154.748,148,212.76v-39.168
		V168c0,0-16,1.18-16,12v44.276c0,10.816,4,19.724,16,19.724c0,35.196,20.376,73.692,50.008,96.3
		C210.1,349.524,223.736,356.084,238.16,358.704z"/>
	<path style="fill:#FFE1D9;" d="M242.672,359.4c1.476,0.18,2.956,0.336,4.448,0.432C245.632,359.732,244.148,359.58,242.672,359.4z"
		/>
</g>
<g>
	<path style="fill:#F2D6CE;" d="M293.996,45.008c3.088-0.276,6.104-0.368,9.072-0.344c0.536,0.004,1.076,0,1.612,0.016
		c1.276,0.032,2.536,0.092,3.788,0.18c0.544,0.036,1.084,0.088,1.628,0.136c4.036,0.352,7.924,0.976,11.656,1.856
		c0.52,0.124,1.044,0.24,1.56,0.372c1.096,0.28,2.172,0.584,3.236,0.908c0.544,0.164,1.076,0.344,1.612,0.52
		c3.38,1.116,6.588,2.444,9.612,3.968c0.58,0.292,1.156,0.584,1.72,0.888c0.82,0.444,1.624,0.9,2.412,1.376
		c0.604,0.36,1.184,0.74,1.768,1.116c0.868,0.564,1.728,1.132,2.556,1.728c0.968,0.7,1.92,1.416,2.828,2.164
		c0.584,0.48,1.132,0.98,1.688,1.48c0.6,0.532,1.188,1.072,1.756,1.624c0.52,0.504,1.028,1.016,1.52,1.536
		c0.616,0.648,1.196,1.316,1.768,1.992c0.384,0.448,0.784,0.888,1.148,1.348c0.856,1.08,1.648,2.192,2.396,3.328
		c0.308,0.468,0.584,0.948,0.876,1.424c0.488,0.8,0.952,1.608,1.384,2.428c0.264,0.5,0.524,1,0.768,1.508
		c0.468,0.976,0.892,1.968,1.284,2.972c0.132,0.34,0.288,0.672,0.412,1.016c0.48,1.324,0.876,2.676,1.22,4.048
		c0.108,0.436,0.192,0.88,0.288,1.32c0.224,1.024,0.408,2.06,0.552,3.108c0.064,0.472,0.132,0.948,0.18,1.424
		c0.132,1.276,0.212,2.568,0.228,3.872c0.004,0.2,0.024,0.392,0.024,0.592c-0.004,1.5-0.104,3.02-0.272,4.548
		c-0.044,0.428-0.116,0.856-0.176,1.288c-0.16,1.168-0.368,2.34-0.624,3.52c-0.1,0.456-0.196,0.912-0.308,1.372
		c-0.372,1.496-0.804,3-1.336,4.512c-0.028,0.08-0.044,0.16-0.076,0.236c-0.568,1.596-1.252,3.196-2.004,4.804
		c-0.204,0.436-0.432,0.872-0.648,1.304c-0.612,1.228-1.28,2.456-2.004,3.688c-0.264,0.448-0.52,0.896-0.796,1.344
		c-0.716,1.152-1.492,2.308-2.308,3.46c0,0.448,0,0.924,0,1.396c1.128-1.656,2.128-3.308,3.068-4.96
		c0.28-0.488,0.532-0.976,0.792-1.464c0.652-1.216,1.256-2.432,1.808-3.64c0.224-0.488,0.452-0.976,0.66-1.46
		c0.68-1.596,1.296-3.188,1.808-4.768c0.012-0.036,0.028-0.072,0.04-0.108c0.52-1.616,0.924-3.216,1.272-4.808
		c0.104-0.48,0.188-0.96,0.276-1.436c0.22-1.16,0.396-2.316,0.524-3.46c0.056-0.48,0.116-0.96,0.156-1.44
		c0.124-1.476,0.192-2.94,0.172-4.388c0-0.08,0.008-0.16,0.004-0.24c-0.028-1.512-0.156-3-0.332-4.472
		c-0.056-0.464-0.132-0.924-0.204-1.384c-0.16-1.052-0.356-2.088-0.592-3.12c-0.108-0.464-0.208-0.932-0.328-1.396
		c-0.336-1.276-0.724-2.54-1.172-3.776c-0.056-0.156-0.1-0.316-0.156-0.472c-0.5-1.332-1.084-2.628-1.708-3.908
		c-0.216-0.44-0.452-0.872-0.684-1.308c-0.476-0.892-0.976-1.772-1.512-2.636c-0.268-0.436-0.536-0.872-0.82-1.3
		c-0.692-1.036-1.424-2.052-2.2-3.044c-0.18-0.228-0.348-0.464-0.532-0.688c-0.876-1.08-1.816-2.124-2.796-3.14
		c-0.38-0.396-0.776-0.776-1.172-1.16c-0.72-0.704-1.46-1.388-2.224-2.056c-0.432-0.38-0.864-0.76-1.312-1.124
		c-0.948-0.776-1.932-1.524-2.944-2.248c-0.352-0.252-0.7-0.512-1.06-0.756c-1.168-0.796-2.38-1.556-3.624-2.28
		c-0.528-0.308-1.076-0.6-1.616-0.896c-0.916-0.5-1.844-0.976-2.796-1.436c-0.584-0.28-1.164-0.564-1.76-0.832
		c-1.148-0.512-2.324-0.992-3.52-1.448c-0.508-0.192-1.008-0.396-1.524-0.576c-1.412-0.504-2.86-0.96-4.332-1.38
		c-0.652-0.188-1.32-0.352-1.98-0.52c-1.08-0.276-2.172-0.532-3.28-0.764c-0.7-0.148-1.396-0.292-2.108-0.424
		c-1.332-0.24-2.684-0.444-4.056-0.62c-0.564-0.072-1.12-0.16-1.692-0.22c-1.668-0.18-3.364-0.304-5.08-0.388
		c-0.728-0.036-1.472-0.044-2.212-0.06c-1.232-0.028-2.476-0.032-3.732-0.008c-0.776,0.016-1.552,0.028-2.336,0.064
		c-1.488,0.068-2.996,0.18-4.516,0.32c-0.512,0.048-1.012,0.068-1.528,0.124C293.436,44.92,293.712,44.972,293.996,45.008z"/>
	<path style="fill:#F2D6CE;" d="M355.784,200.144c-0.032-0.28-0.068-0.564-0.108-0.844c-0.148-1.048-0.332-2.108-0.58-3.188
		c-0.016-0.064-0.024-0.128-0.04-0.192c-0.272-1.156-0.612-2.336-0.988-3.528c-0.088-0.276-0.18-0.556-0.272-0.836
		c-0.368-1.112-0.768-2.232-1.216-3.364c-0.036-0.088-0.064-0.172-0.096-0.256c-0.496-1.248-1.044-2.504-1.624-3.772
		c-0.108-0.236-0.22-0.468-0.328-0.704c-0.56-1.196-1.14-2.396-1.76-3.6c-0.036-0.068-0.068-0.136-0.104-0.208
		c-0.68-1.316-1.392-2.636-2.132-3.96c-0.092-0.168-0.188-0.336-0.284-0.504c-0.72-1.28-1.46-2.564-2.224-3.84
		c-2.548-4.272-5.292-8.508-8.028-12.6V168v76c0,50.94-42.044,108.808-93.644,115.368c-0.004,0-0.004,0-0.008,0
		c0.108,0.012,0.216,0.02,0.324,0.032c1.476,0.18,2.96,0.332,4.448,0.432c1.62,0.108,3.244,0.168,4.88,0.168
		c0.432,0,0.86-0.036,1.292-0.044c15.696-0.268,30.748-5.388,44.26-13.824c3.44-2.148,6.772-4.512,9.996-7.06
		C336.332,316.32,356,278.572,356,244v-40.604C356,202.336,355.912,201.248,355.784,200.144z"/>
</g>
<g>
	<path style="fill:#E78244;" d="M348.668,179.644c0.036,0.068,0.068,0.136,0.104,0.208
		C348.736,179.78,348.704,179.712,348.668,179.644z"/>
	<path style="fill:#E78244;" d="M346.252,175.18c0.096,0.168,0.192,0.336,0.284,0.504
		C346.444,175.516,346.348,175.348,346.252,175.18z"/>
	<path style="fill:#E78244;" d="M352.484,187.928c0.036,0.088,0.064,0.172,0.096,0.256
		C352.548,188.1,352.516,188.016,352.484,187.928z"/>
	<path style="fill:#E78244;" d="M344,171.288c0-12.436,0-25.712,0-36.112c1.132-0.54,2.22-1.124,3.256-1.764
		c-7.344,4.532-17.168,6.464-27.908,6.348c1.312,0.016,2.604-0.004,3.884-0.052c3.5,5.52,8.112,12.06,12.768,19.028
		c2.736,4.092,5.48,8.332,8.028,12.6C344.02,171.32,344.012,171.304,344,171.288z"/>
	<path style="fill:#E78244;" d="M355.676,199.296c0.04,0.284,0.076,0.564,0.108,0.844
		C355.752,199.864,355.716,199.58,355.676,199.296z"/>
	<path style="fill:#E78244;" d="M350.532,183.452c0.108,0.236,0.22,0.468,0.328,0.704
		C350.752,183.92,350.64,183.688,350.532,183.452z"/>
	<path style="fill:#E78244;" d="M353.796,191.552c0.092,0.28,0.184,0.56,0.272,0.836
		C353.98,192.108,353.888,191.832,353.796,191.552z"/>
	<path style="fill:#E78244;" d="M355.056,195.916c0.016,0.064,0.024,0.128,0.04,0.192
		C355.08,196.044,355.072,195.98,355.056,195.916z"/>
	<path style="fill:#E78244;" d="M239,81.944c-0.872,6.64-0.664,8.372,0.98,15.936c7.4,21.436,41.74,38.692,71.884,41.508
		c11.588-1.196,21.424-5.256,27.164-13c28.404-38.308,0.764-77.364-44.88-81.392c3.032-0.264,6-0.36,8.916-0.336
		c-2.968-0.024-5.988,0.068-9.072,0.344c-5.016,0.448-10.164,1.284-15.428,2.58c-14.356,3.544-29.472,10.38-44.536,21.312
		C153.116,68.9,148,93.936,148,126.388V168v5.592C170.916,152.136,226.804,130.74,239,81.944z"/>
	<path style="fill:#E78244;" d="M317.86,139.736c-1.96-0.056-3.94-0.156-5.944-0.34C313.924,139.584,315.9,139.68,317.86,139.736z"
		/>
	<path style="fill:#E78244;" d="M361.752,115.192c-0.204,0.436-0.432,0.872-0.648,1.304
		C361.32,116.06,361.548,115.624,361.752,115.192z"/>
	<path style="fill:#E78244;" d="M366.276,99.456c-0.044,0.428-0.116,0.856-0.176,1.288
		C366.16,100.316,366.228,99.884,366.276,99.456z"/>
	<path style="fill:#E78244;" d="M359.104,120.184c-0.264,0.448-0.52,0.896-0.796,1.344
		C358.584,121.08,358.84,120.632,359.104,120.184z"/>
	<path style="fill:#E78244;" d="M365.476,104.264c-0.1,0.456-0.196,0.912-0.308,1.372
		C365.28,105.176,365.376,104.72,365.476,104.264z"/>
	<path style="fill:#E78244;" d="M363.832,110.148c-0.028,0.08-0.048,0.156-0.076,0.236
		C363.788,110.308,363.804,110.228,363.832,110.148z"/>
	<path style="fill:#E78244;" d="M328.156,48.648c3.38,1.116,6.588,2.444,9.612,3.968C334.748,51.092,331.54,49.764,328.156,48.648z"
		/>
	<path style="fill:#E78244;" d="M355.784,66.524c0.384,0.448,0.784,0.888,1.148,1.348C356.568,67.408,356.164,66.972,355.784,66.524
		z"/>
	<path style="fill:#E78244;" d="M352.496,62.996c0.52,0.504,1.028,1.016,1.52,1.536C353.52,64.008,353.012,63.5,352.496,62.996z"/>
	<path style="fill:#E78244;" d="M304.68,44.676c1.276,0.032,2.54,0.096,3.788,0.18C307.216,44.772,305.956,44.712,304.68,44.676z"/>
	<path style="fill:#E78244;" d="M339.488,53.508c0.82,0.444,1.624,0.9,2.412,1.376C341.112,54.408,340.308,53.952,339.488,53.508z"
		/>
	<path style="fill:#E78244;" d="M366.524,94.316c0.004,0.2,0.024,0.392,0.024,0.592C366.544,94.708,366.524,94.516,366.524,94.316z"
		/>
	<path style="fill:#E78244;" d="M323.308,47.22c1.096,0.28,2.172,0.584,3.236,0.908C325.484,47.804,324.404,47.5,323.308,47.22z"/>
	<path style="fill:#E78244;" d="M343.664,55.996c0.868,0.564,1.728,1.132,2.556,1.728C345.396,57.128,344.536,56.56,343.664,55.996z
		"/>
	<path style="fill:#E78244;" d="M365.272,84.596c0.108,0.436,0.192,0.88,0.288,1.32C365.464,85.476,365.384,85.032,365.272,84.596z"
		/>
	<path style="fill:#E78244;" d="M359.328,71.196c0.308,0.468,0.584,0.948,0.876,1.424C359.916,72.144,359.636,71.664,359.328,71.196
		z"/>
	<path style="fill:#E78244;" d="M366.116,89.024c0.064,0.472,0.132,0.948,0.18,1.424C366.248,89.968,366.18,89.496,366.116,89.024z"
		/>
	<path style="fill:#E78244;" d="M349.052,59.892c0.584,0.48,1.132,0.984,1.688,1.48C350.18,60.872,349.636,60.372,349.052,59.892z"
		/>
	<path style="fill:#E78244;" d="M363.64,79.536c0.132,0.34,0.288,0.672,0.412,1.016C363.928,80.208,363.772,79.876,363.64,79.536z"
		/>
	<path style="fill:#E78244;" d="M361.588,75.052c0.264,0.5,0.524,1,0.768,1.508C362.112,76.052,361.852,75.552,361.588,75.052z"/>
	<path style="fill:#E78244;" d="M310.096,44.992c4.036,0.352,7.928,0.98,11.656,1.856C318.02,45.968,314.132,45.348,310.096,44.992z
		"/>
	<path style="fill:#E78244;" d="M354.976,126.452c-0.904,1.208-1.94,2.3-3.032,3.336
		C353.04,128.752,354.072,127.664,354.976,126.452z"/>
	<path style="fill:#E78244;" d="M347.384,133.344c1.324-0.824,2.532-1.768,3.684-2.764
		C349.916,131.58,348.708,132.52,347.384,133.344z"/>
</g>
<g>
	<path style="fill:#D97A40;" d="M239,81.944c-12.196,48.796-68.084,70.192-91,91.648v39.168c0-58.012,76.752-49.012,92.008-114.756
		c-0.008-0.044-0.016-0.08-0.028-0.124C238.336,90.316,238.128,88.584,239,81.944z"/>
	<path style="fill:#D97A40;" d="M358.308,121.528c0.276-0.448,0.532-0.896,0.796-1.344c0.724-1.232,1.392-2.46,2.004-3.688
		c0.216-0.436,0.444-0.872,0.648-1.304c0.752-1.608,1.436-3.212,2.004-4.804c0.028-0.08,0.048-0.16,0.076-0.236
		c0.532-1.512,0.964-3.016,1.336-4.512c0.116-0.46,0.208-0.916,0.308-1.372c0.256-1.18,0.464-2.352,0.624-3.52
		c0.06-0.428,0.128-0.86,0.176-1.288c0.164-1.528,0.268-3.048,0.272-4.548c0-0.2-0.02-0.392-0.024-0.592
		c-0.016-1.304-0.092-2.592-0.228-3.872c-0.048-0.476-0.116-0.952-0.18-1.424c-0.144-1.048-0.332-2.08-0.552-3.108
		c-0.096-0.44-0.176-0.884-0.288-1.32c-0.344-1.368-0.744-2.72-1.22-4.048c-0.124-0.344-0.28-0.676-0.412-1.016
		c-0.392-1.004-0.816-1.996-1.284-2.972c-0.244-0.508-0.504-1.008-0.768-1.508c-0.432-0.824-0.896-1.632-1.384-2.428
		c-0.292-0.476-0.568-0.96-0.876-1.424c-0.748-1.136-1.544-2.248-2.396-3.328c-0.364-0.46-0.768-0.896-1.148-1.348
		c-0.572-0.676-1.156-1.34-1.768-1.992c-0.492-0.52-1-1.032-1.52-1.536c-0.568-0.552-1.156-1.092-1.756-1.624
		c-0.556-0.496-1.104-1-1.688-1.48c-0.908-0.748-1.86-1.464-2.828-2.164c-0.828-0.596-1.688-1.168-2.556-1.728
		c-0.584-0.376-1.164-0.756-1.768-1.116c-0.788-0.472-1.592-0.932-2.412-1.376c-0.564-0.304-1.14-0.596-1.72-0.888
		c-3.02-1.524-6.232-2.856-9.612-3.968c-0.536-0.176-1.068-0.356-1.612-0.52c-1.064-0.324-2.144-0.628-3.236-0.908
		c-0.516-0.132-1.04-0.252-1.56-0.372c-3.728-0.876-7.62-1.5-11.656-1.856c-0.54-0.048-1.08-0.096-1.628-0.136
		c-1.252-0.084-2.512-0.148-3.788-0.18c-0.532-0.012-1.072-0.012-1.612-0.016c-2.916-0.024-5.884,0.072-8.916,0.336
		c45.644,4.028,73.284,43.084,44.88,81.392c-5.74,7.74-15.576,11.8-27.164,13c-0.004,0-0.008,0-0.016,0c0.02,0,0.044,0,0.064,0.004
		c2.008,0.188,3.984,0.284,5.944,0.34c0.5,0.012,0.992,0.024,1.488,0.028c10.744,0.116,20.564-1.816,27.908-6.348
		c-1.036,0.64-2.128,1.224-3.256,1.764c0,10.4,0,23.676,0,36.112c0.012,0.016,0.02,0.032,0.028,0.052
		c0.764,1.28,1.504,2.56,2.224,3.84c0.096,0.168,0.192,0.336,0.284,0.504c0.736,1.324,1.452,2.644,2.132,3.96
		c0.036,0.068,0.068,0.136,0.104,0.208c0.62,1.204,1.2,2.408,1.76,3.6c0.108,0.236,0.22,0.468,0.328,0.704
		c0.58,1.264,1.128,2.524,1.624,3.772c0.036,0.088,0.064,0.172,0.096,0.256c0.448,1.132,0.848,2.252,1.216,3.364
		c0.092,0.28,0.184,0.56,0.272,0.836c0.376,1.188,0.716,2.368,0.988,3.528c0.016,0.064,0.024,0.128,0.04,0.192
		c0.248,1.08,0.432,2.14,0.58,3.188c0.04,0.284,0.076,0.564,0.108,0.844c0.124,1.108,0.212,2.196,0.212,3.256V168v-41.612
		c0-0.476,0-0.952,0-1.396C356.816,123.836,357.592,122.684,358.308,121.528z M351.068,130.58c-1.152,0.996-2.36,1.94-3.684,2.764
		C348.708,132.52,349.916,131.58,351.068,130.58z M354.976,126.452c-0.904,1.212-1.94,2.3-3.032,3.336
		C353.04,128.752,354.072,127.66,354.976,126.452z"/>
</g>
<path style="fill:#335466;" d="M356,491.724c2.776-1.18,5.508-2.448,8.236-3.724H356V491.724z"/>
<ellipse style="fill:#F5F5F5;" cx="212" cy="196" rx="16" ry="12"/>
<circle style="fill:#2179A6;" cx="212" cy="196" r="8"/>
<ellipse style="fill:#F5F5F5;" cx="292" cy="196" rx="16" ry="12"/>
<circle style="fill:#2179A6;" cx="292" cy="196" r="8"/>
<g>
</g>
<g>
</g>
<g>
</g>
<g>
</g>
<g>
</g>
<g>
</g>
<g>
</g>
<g>
</g>
<g>
</g>
<g>
</g>
<g>
</g>
<g>
</g>
<g>
</g>
<g>
</g>
<g>
</g>
</svg>
