<?xml version="1.0" encoding="iso-8859-1"?>
<!-- Generator: Adobe Illustrator 19.0.0, SVG Export Plug-In . SVG Version: 6.00 Build 0)  -->
<svg version="1.1" id="Layer_1" xmlns="http://www.w3.org/2000/svg" xmlns:xlink="http://www.w3.org/1999/xlink" x="0px" y="0px"
	 viewBox="0 0 512 512" style="enable-background:new 0 0 512 512;" xml:space="preserve">
<ellipse style="fill:#C2D5D8;" cx="256" cy="272" rx="256" ry="240"/>
<path style="fill:#F5F5F5;" d="M255.812,412c-30.928,0-56-9.848-56-22c0-0.632,0.108-1.252,0.24-1.872
	c-44.368,2.432-99.96,13.352-123.076,55.36C121.808,484.628,182.684,510.4,250,511.856V412h4v99.952
	c0.668,0.004,1.328,0.048,2,0.048c1.344,0,2.668-0.076,4.008-0.096C260.06,507.532,263.616,504,268,504
	c4.148,0,7.516,3.168,7.92,7.208c61.648-4.452,117.164-29.34,158.856-67.5c-23.04-42.196-78.76-53.144-123.208-55.58
	c0.132,0.62,0.24,1.24,0.24,1.872C311.812,402.152,286.74,412,255.812,412z M268,480c-4.42,0-8-3.58-8-8s3.58-8,8-8s8,3.58,8,8
	S272.42,480,268,480z M268,440c-4.42,0-8-3.58-8-8s3.58-8,8-8s8,3.58,8,8S272.42,440,268,440z"/>
<path style="fill:#E6E6E6;" d="M255.812,395.996c-2.348,0-4.64-0.068-6.9-0.168c-0.032,0-0.068,0-0.1-0.004c0.008,0,0.016,0,0.024,0
	c-24.204-1.084-42.856-7.68-43.008-15.704c-3.14,2.444-5.16,5.144-5.776,8.008c-0.132,0.62-0.24,1.24-0.24,1.872
	c0,12.152,25.072,22,56,22s56-9.848,56-22c0-0.632-0.108-1.252-0.24-1.872c-0.616-2.864-2.636-5.564-5.776-8.008
	C305.632,388.9,283.32,395.996,255.812,395.996z"/>
<g>
	<path style="fill:#E6CBC3;" d="M248.836,395.824c24.276-1.096,42.976-7.736,42.976-15.8c0-0.592-0.124-1.188-0.328-1.772h0.02
		l-8.684-27.016C274.208,354.288,265.216,356,256,356c-1.992,0-3.972-0.1-5.944-0.252c-0.02,0-0.036,0-0.056-0.004
		c0.004,0,0.012,0,0.016,0c-11.684-0.92-22.952-4.48-33.428-10.048l-10.472,32.556h0.024c-0.204,0.584-0.328,1.18-0.328,1.772
		c0,0.032,0.016,0.064,0.016,0.096C205.976,388.14,224.632,394.74,248.836,395.824z"/>
	<path style="fill:#E6CBC3;" d="M248.912,395.828c2.26,0.1,4.552,0.168,6.9,0.168C253.464,395.996,251.168,395.924,248.912,395.828z
		"/>
</g>
<path style="fill:#D9BFB8;" d="M291.504,378.252h-0.02c0.204,0.584,0.328,1.18,0.328,1.772c0,8.06-18.7,14.704-42.976,15.8
	c-0.008,0-0.016,0-0.024,0c0.032,0,0.068,0,0.1,0.004c2.256,0.096,4.548,0.168,6.9,0.168c27.508,0,49.82-7.096,49.984-15.876
	c0-0.032,0.016-0.064,0.016-0.096c0-0.596-0.124-1.188-0.328-1.772h0.02l-10.416-32.396c-3.984,2.096-8.08,3.896-12.272,5.38
	L291.504,378.252z"/>
<g>
	<path style="fill:#FFE1D9;" d="M376,220.272V176c0-10.82-16-12-16-12v76C372,240,376,231.092,376,220.272z"/>
	<path style="fill:#FFE1D9;" d="M348,240v-76v-13.676c-66.792-8.864-128.568-8.312-196,1.676v12c0,0-16,1.18-16,12v44.272
		c0,10.82,4,19.728,16,19.728c0,40.72,27.26,85.86,64.588,105.696c10.476,5.568,21.744,9.128,33.428,10.048
		C303.308,351.52,348,292.14,348,240z M196,256c24,16,32-24,60-16c28-8,36,32,60,16c-12,24-52,16-60,8C248,272,208,280,196,256z"/>
	<path style="fill:#FFE1D9;" d="M250.056,355.748C252.028,355.9,254.008,356,256,356C254.008,356,252.024,355.9,250.056,355.748z"/>
</g>
<path style="fill:#F2D6CE;" d="M348,164v76c0,52.14-44.692,111.52-97.984,115.744c-0.004,0-0.012,0-0.016,0
	c0.02,0,0.036,0,0.056,0.004C252.024,355.9,254.008,356,256,356c9.216,0,18.208-1.712,26.82-4.764
	c4.188-1.484,8.288-3.284,12.272-5.38C332.58,326.112,360,280.836,360,240v-76v-12c-4.02-0.596-8.016-1.148-12-1.676V164z"/>
<g>
	<path style="fill:#F5F5F5;" d="M326,124c-11.58,0-22.196-4.1-30.484-10.92C284.952,122.34,271.152,128,256,128
		s-28.952-5.66-39.516-14.92C208.196,119.9,197.58,124,186,124c-13.28,0-25.308-5.4-34-14.124c0,15.54,0,30.708,0,38.124v4
		c67.432-9.988,129.208-10.54,196-1.676c3.984,0.528,7.98,1.08,12,1.676v-4c0-7.948,0-22.856,0-38.124
		C351.308,118.592,339.28,124,326,124z"/>
	<path style="fill:#F5F5F5;" d="M216.356,15.044c-1.54,1.36-3.004,2.796-4.396,4.304C213.352,17.84,214.82,16.404,216.356,15.044z"
		/>
	<path style="fill:#F5F5F5;" d="M292,36c0,19.884-16.116,36-36,36c-20,0-44-12-44-32c0,12-16,20-24,20v-0.204
		c-0.668,0.072-1.316,0.204-2,0.204c-11.048,0-20-8.952-20-20s8.952-20,20-20c-26.508,0-48,21.492-48,48
		c0,13.224,5.352,25.196,14,33.876C160.692,110.6,172.712,116,186,116c11.576,0,22.196-4.1,30.488-10.928
		C227.048,114.34,240.848,120,256,120c15.152,0,28.952-5.66,39.512-14.928c7.084,5.832,15.872,9.676,25.504,10.668
		C345.168,113.224,364,92.812,364,68c0-18.68-10.676-34.86-26.256-42.792C340.364,28.056,342,31.824,342,36c0,8.836-7.164,16-16,16
		s-16-7.164-16-16c0-7.572,5.276-13.88,12.34-15.54c-0.444-0.06-0.876-0.152-1.324-0.2c-5.824,0.6-11.312,2.284-16.328,4.776
		C293.8,9.896,276.076,0,256,0c1.244,0,2.452,0.108,3.684,0.188C277.836,2.032,292,17.36,292,36z"/>
	<path style="fill:#F5F5F5;" d="M211.444,19.916c-1.468,1.632-2.852,3.332-4.136,5.116l0,0
		C208.592,23.252,209.976,21.548,211.444,19.916z"/>
	<path style="fill:#F5F5F5;" d="M216.744,14.692c0.768-0.668,1.56-1.312,2.364-1.944C218.304,13.38,217.516,14.024,216.744,14.692z"
		/>
	<path style="fill:#F5F5F5;" d="M220.504,11.704c1.14-0.844,2.312-1.644,3.512-2.404C222.812,10.06,221.644,10.864,220.504,11.704z"
		/>
	<path style="fill:#F5F5F5;" d="M243.168,1.408c0.396-0.088,0.788-0.18,1.184-0.26C243.952,1.228,243.56,1.324,243.168,1.408z"/>
	<path style="fill:#F5F5F5;" d="M249.416,0.38c0.364-0.04,0.728-0.068,1.092-0.1C250.144,0.312,249.78,0.34,249.416,0.38z"/>
	<path style="fill:#F5F5F5;" d="M226.104,8.028c0.656-0.38,1.308-0.76,1.976-1.116C227.412,7.268,226.76,7.652,226.104,8.028z"/>
	<path style="fill:#F5F5F5;" d="M237.784,2.832c0.34-0.108,0.688-0.204,1.028-0.304C238.472,2.632,238.128,2.724,237.784,2.832z"/>
	<path style="fill:#F5F5F5;" d="M231.888,5.08c0.56-0.248,1.132-0.48,1.7-0.712C233.02,4.6,232.452,4.832,231.888,5.08z"/>
	<path style="fill:#F5F5F5;" d="M188,20.116c6.912,0.3,13.44,2.008,19.304,4.916C200.876,21.84,193.66,20,186,20
		c0.684,0,1.332,0.132,2,0.2V20.116z"/>
	<path style="fill:#F5F5F5;" d="M321.056,20.252C322.684,20.092,324.332,20,326,20C324.332,20,322.684,20.088,321.056,20.252z"/>
	<path style="fill:#F5F5F5;" d="M374,68c0-26.508-21.492-48-48-48C352.508,20,374,41.492,374,68z"/>
	<path style="fill:#F5F5F5;" d="M326,116c13.288,0,25.308-5.4,34-14.124c8.648-8.68,14-20.652,14-33.876
		C374,94.508,352.508,116,326,116z"/>
	<path style="fill:#F5F5F5;" d="M326,116c-1.668,0-3.316-0.092-4.944-0.252C322.684,115.912,324.332,116,326,116z"/>
</g>
<g>
	<path style="fill:#E6E6E6;" d="M326,20c-1.668,0-3.316,0.092-4.944,0.252c-0.02,0-0.04,0-0.056,0.004
		c0.008,0,0.012,0.004,0.02,0.004c0.448,0.048,0.88,0.14,1.324,0.2C323.52,20.184,324.736,20,326,20z"/>
	<path style="fill:#E6E6E6;" d="M337.744,25.208C353.324,33.14,364,49.32,364,68c0,24.812-18.832,45.224-42.98,47.74
		c-9.632-0.992-18.42-4.832-25.504-10.668C284.952,114.34,271.152,120,256,120s-28.952-5.66-39.512-14.928
		C208.196,111.9,197.576,116,186,116c-13.288,0-25.308-5.4-34-14.124c0,2.656,0,5.328,0,8C160.692,118.6,172.72,124,186,124
		c11.58,0,22.196-4.1,30.484-10.92C227.048,122.34,240.848,128,256,128c15.152,0,28.952-5.66,39.516-14.92
		C303.804,119.9,314.42,124,326,124c13.28,0,25.308-5.408,34-14.124c0-2.668,0-5.344,0-8C351.308,110.6,339.288,116,326,116
		c-1.668,0-3.316-0.088-4.944-0.252c1.628,0.16,3.276,0.252,4.944,0.252c26.508,0,48-21.492,48-48s-21.492-48-48-48
		C330.66,20,334.82,22.028,337.744,25.208z"/>
</g>
<g>
	<path style="fill:#FFFFFF;" d="M310,36c0,8.836,7.164,16,16,16s16-7.164,16-16c0-4.176-1.636-7.944-4.256-10.792
		C334.82,22.028,330.66,20,326,20c-1.264,0-2.48,0.184-3.66,0.46C315.276,22.12,310,28.428,310,36z"/>
	<path style="fill:#FFFFFF;" d="M249.416,0.38c-1.712,0.188-3.4,0.444-5.068,0.772c-0.396,0.08-0.788,0.172-1.184,0.26
		c-1.472,0.324-2.924,0.692-4.352,1.12c-0.344,0.104-0.688,0.196-1.028,0.304c-1.424,0.456-2.82,0.976-4.196,1.536
		c-0.572,0.232-1.14,0.464-1.7,0.712c-1.292,0.572-2.564,1.176-3.808,1.832c-0.668,0.356-1.324,0.736-1.976,1.116
		c-0.708,0.408-1.404,0.836-2.092,1.272c-1.2,0.76-2.368,1.564-3.512,2.404c-0.468,0.344-0.94,0.684-1.396,1.044
		c-0.804,0.628-1.592,1.276-2.364,1.944c-0.132,0.116-0.256,0.236-0.388,0.352c-1.536,1.36-3.004,2.796-4.396,4.304
		c-0.172,0.188-0.344,0.38-0.516,0.568c-1.464,1.632-2.852,3.336-4.136,5.12l0,0c0,0-0.004,0-0.004-0.004
		c-5.86-2.912-12.388-4.62-19.3-4.92V20.2c-0.668-0.068-1.316-0.2-2-0.2c-11.048,0-20,8.952-20,20s8.952,20,20,20
		c0.684,0,1.332-0.132,2-0.204V60c8,0,24-8,24-20c0,20,24,32,44,32c19.884,0,36-16.116,36-36c0-18.64-14.164-33.968-32.316-35.812
		C258.452,0.108,257.244,0,256,0c-1.856,0-3.68,0.112-5.492,0.276C250.144,0.312,249.78,0.34,249.416,0.38z"/>
</g>
<path style="fill:#CC803D;" d="M256,264c8,8,48,16,60-8c-24,16-32-24-60-16c-28-8-36,32-60,16C208,280,248,272,256,264z"/>
<path style="fill:#E6E6E6;" d="M250,412v99.856c1.336,0.028,2.66,0.084,4,0.096V412H250z"/>
<g>
	<circle style="fill:#242424;" cx="268" cy="432" r="8"/>
	<circle style="fill:#242424;" cx="268" cy="472" r="8"/>
	<path style="fill:#242424;" d="M268,504c-4.384,0-7.94,3.532-7.992,7.904c5.348-0.076,10.648-0.32,15.912-0.7
		C275.516,507.168,272.148,504,268,504z"/>
</g>
<ellipse style="fill:#F5F5F5;" cx="216" cy="180" rx="16" ry="12"/>
<circle style="fill:#242424;" cx="216" cy="180" r="8"/>
<ellipse style="fill:#F5F5F5;" cx="296" cy="180" rx="16" ry="12"/>
<circle style="fill:#242424;" cx="296" cy="180" r="8"/>
<g>
</g>
<g>
</g>
<g>
</g>
<g>
</g>
<g>
</g>
<g>
</g>
<g>
</g>
<g>
</g>
<g>
</g>
<g>
</g>
<g>
</g>
<g>
</g>
<g>
</g>
<g>
</g>
<g>
</g>
</svg>
