<?xml version="1.0" encoding="iso-8859-1"?>
<!-- Generator: Adobe Illustrator 19.0.0, SVG Export Plug-In . SVG Version: 6.00 Build 0)  -->
<svg version="1.1" id="Layer_1" xmlns="http://www.w3.org/2000/svg" xmlns:xlink="http://www.w3.org/1999/xlink" x="0px" y="0px"
	 viewBox="0 0 512 512" style="enable-background:new 0 0 512 512;" xml:space="preserve">
<circle style="fill:#E16B5A;" cx="256" cy="256" r="256"/>
<path style="fill:#45998B;" d="M255.812,408c-16.216,0-30.776-2.724-41-7.052c8.552,33.972,23.68,84.736,36.732,110.936
	c1.488,0.028,2.96,0.116,4.456,0.116s2.968-0.088,4.456-0.112c13.076-26.252,28.236-77.148,36.78-111.12
	C286.992,405.2,272.252,408,255.812,408z"/>
<g>
	<path style="fill:#F5F5F5;" d="M204,420c0,0-32,12-40,16c0-23.092,11.48-40.976,24.504-53.416L108,396l-36.924,36.924
		c45.064,47.092,107.904,76.972,177.764,78.896L200,456L204,420z"/>
	<path style="fill:#F5F5F5;" d="M323.496,382.584C336.52,395.024,348,412.908,348,436c-8-4-40-16-40-16l4,36l-48.84,55.82
		c69.864-1.924,132.7-31.804,177.764-78.896L404,396L323.496,382.584z"/>
	<path style="fill:#F5F5F5;" d="M255.812,391.996c-2.348,0-4.64-0.068-6.9-0.168c-0.032,0-0.068,0-0.1-0.004
		c0.008,0,0.016,0,0.024,0c-17.052-0.764-31.32-4.264-38.332-9.076c1.12,5.152,2.576,11.324,4.308,18.204
		c10.228,4.328,24.788,7.052,41,7.052c16.44,0,31.18-2.8,41.424-7.232c1.744-6.936,3.208-13.148,4.324-18.312
		C293.812,388.072,276.256,391.996,255.812,391.996z"/>
</g>
<g>
	<path style="fill:#E6CBC3;" d="M210.504,382.748c7.012,4.812,21.28,8.312,38.332,9.076c24.276-1.096,42.976-7.736,42.976-15.8
		c0-0.592-0.124-1.188-0.328-1.772h0.02l-7.176-22.316C273.62,354.928,263.66,356,256,356c-10.684,0-25.824-2.068-41.256-8.572
		l-6.724,20.916C208.092,370.652,208.98,375.736,210.504,382.748z"/>
	<path style="fill:#E6CBC3;" d="M248.912,391.828c2.26,0.1,4.552,0.168,6.9,0.168C253.464,391.996,251.172,391.924,248.912,391.828z
		"/>
</g>
<path style="fill:#D9BFB8;" d="M291.504,374.252h-0.02c0.204,0.584,0.328,1.18,0.328,1.772c0,8.06-18.7,14.704-42.976,15.8
	c-0.008,0-0.016,0-0.024,0c0.032,0,0.068,0,0.1,0.004c2.26,0.096,4.548,0.168,6.9,0.168c20.444,0,38-3.924,45.748-9.54
	c1.288-5.964,2.124-10.54,2.364-13.12l-7-21.772c-4.256,1.776-8.476,3.22-12.596,4.372L291.504,374.252z"/>
<g>
	<path style="fill:#FFE1D9;" d="M360,144c0-3.188-0.232-6.56-0.708-10.048C359.992,143.54,360,152.72,360,160V144z"/>
	<path style="fill:#FFE1D9;" d="M360,236c12,0,16-8.908,16-19.728V172c0-10.82-16-12-16-12C352,176,352,228,360,236z"/>
	<path style="fill:#FFE1D9;" d="M152,160c0,0-16,1.18-16,12v44.272c0,10.82,4,19.728,16,19.728C160,228,160,176,152,160z"/>
	<path style="fill:#FFE1D9;" d="M168,156c0,15.164-1.064,19.668-3.812,24s-4,10.336-4,20c0,24,19.48,67,51.812,80
		c0-11.332,15.48-28,44-28s44,16.668,44,28c32.332-13,51.812-56,51.812-80c0-9.664-1.252-15.668-4-20S344,171.164,344,156
		c0-34-14.392-68.192-24-80c0.476,0,0.92,0.044,1.388,0.06C305.728,66.388,284.452,60,256,60s-49.728,6.388-65.388,16.06
		C191.08,76.044,191.524,76,192,76C182.392,87.808,168,122,168,156z"/>
	<path style="fill:#FFE1D9;" d="M152,144v16c0-7.28,0.008-16.46,0.708-26.048C152.232,137.44,152,140.812,152,144z"/>
	<ellipse style="fill:#FFE1D9;" cx="256" cy="295.2" rx="28" ry="11.2"/>
</g>
<path style="fill:#F5F5F5;" d="M284.328,351.936c4.116-1.152,8.34-2.596,12.596-4.372C327.82,334.668,360,303.972,360,236
	c-8-8-8-60,0-76c0-7.28-0.008-16.46-0.708-26.048c-1.968-26.852-9.472-56.924-37.904-57.888C320.92,76.044,320.476,76,320,76
	c9.608,11.808,24,46,24,80c0,15.164,1.064,19.668,3.812,24s4,10.336,4,20c0,24-19.48,67-51.812,80c0-11.332-15.48-28-44-28
	s-44,16.668-44,28c-32.332-13-51.812-56-51.812-80c0-9.664,1.252-15.668,4-20S168,171.164,168,156c0-34,14.392-68.192,24-80
	c-0.476,0-0.92,0.044-1.388,0.06c-28.432,0.964-35.932,31.04-37.904,57.888C152.008,143.54,152,152.72,152,160c8,16,8,68,0,76
	c0,67.728,31.952,98.448,62.744,111.428C230.176,353.932,245.316,356,256,356C263.66,356,273.62,354.928,284.328,351.936z M256,284
	c15.464,0,28,5.016,28,11.2s-12.536,11.2-28,11.2s-28-5.016-28-11.2S240.536,284,256,284z"/>
<g>
	<path style="fill:#E6E6E6;" d="M210.504,382.748c-1.524-7.012-2.408-12.096-2.484-14.404c-0.004-0.104-0.02-0.252-0.02-0.344
		c-6.06,3.448-12.968,8.344-19.496,14.584C175.48,395.024,164,412.908,164,436c8-4,40-16,40-16l-4,36l48.84,55.82
		c0.9,0.024,1.8,0.052,2.704,0.068c-13.052-26.204-28.184-76.964-36.732-110.936C213.08,394.072,211.62,387.9,210.504,382.748z"/>
	<path style="fill:#E6E6E6;" d="M308,420c0,0,32,12,40,16c0-23.092-11.48-40.976-24.504-53.416
		C316.968,376.344,310.06,371.448,304,368c0,0.356-0.028,0.812-0.076,1.336c-0.24,2.58-1.072,7.16-2.364,13.12
		c-1.116,5.164-2.58,11.376-4.324,18.312c-8.544,33.972-23.704,84.872-36.78,111.12c0.904-0.016,1.804-0.044,2.704-0.068L312,456
		L308,420z"/>
</g>
<ellipse style="fill:#F5F5F5;" cx="216" cy="180" rx="16" ry="12"/>
<circle style="fill:#2179A6;" cx="216" cy="180" r="8"/>
<ellipse style="fill:#F5F5F5;" cx="296" cy="180" rx="16" ry="12"/>
<circle style="fill:#2179A6;" cx="296" cy="180" r="8"/>
<g>
</g>
<g>
</g>
<g>
</g>
<g>
</g>
<g>
</g>
<g>
</g>
<g>
</g>
<g>
</g>
<g>
</g>
<g>
</g>
<g>
</g>
<g>
</g>
<g>
</g>
<g>
</g>
<g>
</g>
</svg>
