<?xml version="1.0" encoding="iso-8859-1"?>
<!-- Generator: Adobe Illustrator 19.0.0, SVG Export Plug-In . SVG Version: 6.00 Build 0)  -->
<svg version="1.1" id="Layer_1" xmlns="http://www.w3.org/2000/svg" xmlns:xlink="http://www.w3.org/1999/xlink" x="0px" y="0px"
	 viewBox="0 0 512 512" style="enable-background:new 0 0 512 512;" xml:space="preserve">
<circle style="fill:#F2CF61;" cx="256" cy="256" r="256"/>
<g>
	<path style="fill:#E78244;" d="M393.664,240c0,0.656-0.036,1.436-0.068,2.2c-0.136,7.972-0.992,15.772-2.548,23.34
		c-7.32,52.404-26.436,154.812-8.536,175.728c0.024,0.028,0.056,0.056,0.08,0.084C364.572,420.6,383.728,318,391.056,265.54
		c1.556-7.568,2.412-15.368,2.548-23.34c0.032-0.764,0.068-1.544,0.068-2.2L393.664,240
		C393.664,240.004,393.664,240.004,393.664,240z"/>
	<path style="fill:#E78244;" d="M189.316,415.6c5.388-6.984,10.636-10.772,14.248-12.672c0.004,0,0.008,0,0.012,0.004
		c2.964-8.068,7.36-18.156,11.656-26.936c-36.04-14.636-63.916-48.092-73.972-89.68C141.264,239.5,264,256.668,269,186
		c1.884,2.304,5.088,6.504,9.58,11.736c1.284,1.496,2.672,3.076,4.164,4.72c0.748,0.824,1.52,1.66,2.32,2.512
		c17.572,18.74,47.764,44.056,89.708,49.22c-0.82,56.036-33.056,103.58-77.996,121.824c4.292,8.776,8.688,18.856,11.648,26.916
		c0.004,0,0.008,0,0.012-0.004c3.612,1.9,8.856,5.688,14.24,12.664c14.792,2.924,27.736,6.792,38.12,11.356
		c-6.752-36.004,8.024-116.82,14.252-161.408c1.556-7.568,2.412-15.368,2.548-23.34c0.032-0.764,0.068-1.544,0.068-2.2h-0.008
		c0-70.316-57.336-109.168-129.62-111.84c-72.316,2.656-129.684,41.512-129.684,111.848c0,8.8,0.916,17.392,2.628,25.708
		c7.324,52.372,26.34,154.356,8.596,175.468C139.248,430.328,160.888,421.224,189.316,415.6z"/>
	<polygon style="fill:#E78244;" points="256.004,436.004 256.008,436 256,436 	"/>
	<path style="fill:#E78244;" d="M383.196,442.088c-0.052-0.052-0.096-0.124-0.148-0.18
		C383.1,441.968,383.144,442.028,383.196,442.088L383.196,442.088z"/>
	<path style="fill:#E78244;" d="M248.12,128.156c2.26-0.08,4.544-0.124,6.832-0.136C252.664,128.032,250.384,128.076,248.12,128.156
		z"/>
	<path style="fill:#E78244;" d="M393.656,240h0.008c0-45.564-24.076-77.924-60.696-95.784
		C369.584,162.08,393.656,194.436,393.656,240z"/>
</g>
<path style="fill:#D97A40;" d="M377.656,240h0.008c0,0.656-0.036,1.436-0.068,2.2c-0.136,7.972-0.992,15.772-2.548,23.34
	c-6.228,44.588-21.004,125.404-14.252,161.408c9.64,4.24,17.076,9.076,21.716,14.32c-17.9-20.92,1.216-123.328,8.536-175.728
	c1.556-7.568,2.412-15.368,2.548-23.34c0.032-0.764,0.068-1.544,0.068-2.2l0,0l0,0h-0.008c0-45.564-24.072-77.92-60.688-95.784
	C311,133.5,284.512,128,256,128c-0.352,0-0.696,0.02-1.044,0.02c-2.292,0.012-4.572,0.056-6.832,0.136c-0.04,0-0.08,0-0.12,0.004
	c0.012,0,0.024,0,0.036,0C320.32,130.832,377.656,169.684,377.656,240z"/>
<path style="fill:#F2D6CE;" d="M254.728,433.636c1.052-0.384,2.124-0.804,3.216-1.256l8.808-16.38c0,0,18.156-6.216,30.736-10.088
	c-2.552-7.436-6.728-17.304-11-26.324c3.492-1.028,6.924-2.212,10.28-3.576c44.94-18.248,77.176-65.788,77.996-121.824
	c-41.94-5.164-72.132-30.48-89.708-49.22c-0.8-0.852-1.572-1.692-2.32-2.512c-1.492-1.644-2.88-3.224-4.164-4.72
	c-4.492-5.232-7.692-9.432-9.58-11.736c8.616,10.532,32.536,67.012,93.536,74.52c-1.02,69.568-50.236,120.116-112.28,123.316
	c-12.256-0.648-24.016-3.372-35.024-7.84c-4.296,8.78-8.692,18.864-11.656,26.936c5.96,0.836,41.676,13.068,41.676,13.068
	L254.728,433.636z M256,384L256,384c-1.924,0-3.832-0.064-5.732-0.164C252.172,383.936,254.076,384,256,384z"/>
<g>
	<path style="fill:#E6CBC3;" d="M255.996,435.996C256,435.996,256,436,255.996,435.996l1.948-3.616
		c-1.092,0.452-2.16,0.872-3.216,1.256L255.996,435.996z"/>
	<polygon style="fill:#E6CBC3;" points="256,436 256.008,436 256.032,435.968 	"/>
	<path style="fill:#E6CBC3;" d="M297.488,405.912c5.048-1.556,9.228-2.74,10.932-2.98c-2.964-8.064-7.356-18.144-11.648-26.916
		c-3.356,1.364-6.792,2.548-10.28,3.576C290.764,388.604,294.936,398.472,297.488,405.912z"/>
</g>
<g>
	<path style="fill:#91D2F2;" d="M321.248,417.944c-7.796,8.032-25.608,19.364-35.996,20.056c-5-9.252-17.752-13.752-17.752-13.752
		l-11.468,11.72c-0.008,0.012-0.016,0.02-0.024,0.032l-0.004,0.004c0,0,0-0.004-0.004-0.004l0,0l0,0l-1.764-1.804
		c0.636,0.768,1.192,1.436,1.512,1.808c-2.24,2.62-6.696,8.288-8.5,10.624c-1.824-2.464-7.26-9.528-13.508-16.42
		c-2.688,2.056-5.292,4.644-6.992,7.792c-11.252-0.752-31.252-14-37.752-22c0.108-0.14,0.212-0.26,0.32-0.4
		c-28.428,5.624-50.068,14.724-59.74,25.576c-3.62,4.06-5.564,8.364-5.564,12.824v21.368C162.556,498.612,207.712,512,256,512
		c43.372,0,84.204-10.824,120-29.86V454C376,439.152,354.388,426.028,321.248,417.944z"/>
	<polygon style="fill:#91D2F2;" points="255.996,435.996 256,436 256,436 	"/>
</g>
<g>
	<path style="fill:#8AC7E6;" d="M244.5,424.248c0,0-5.548,1.972-10.76,5.96c6.248,6.892,11.684,13.956,13.508,16.42
		c1.804-2.336,6.26-8.004,8.5-10.624c-0.32-0.372-0.876-1.036-1.512-1.808L244.5,424.248z"/>
	<path style="fill:#8AC7E6;" d="M360.796,426.948c-10.384-4.568-23.332-8.432-38.12-11.356c0.108,0.14,0.22,0.264,0.328,0.408
		c-0.5,0.616-1.108,1.272-1.76,1.944C354.388,426.028,376,439.152,376,454v28.14c4.064-2.16,8.072-4.404,12-6.772V454
		c0-4.128-1.688-8.12-4.804-11.912c-0.048-0.06-0.096-0.12-0.144-0.18c-0.156-0.184-0.296-0.372-0.456-0.552
		c-0.024-0.028-0.056-0.056-0.08-0.084C377.876,436.024,370.436,431.188,360.796,426.948z"/>
</g>
<g>
	<path style="fill:#F5F5F5;" d="M254.728,433.636L245.252,416c0,0-35.712-12.232-41.676-13.068c-0.004,0-0.008,0-0.012-0.004
		c-3.612,1.904-8.86,5.692-14.248,12.672c-0.108,0.14-0.212,0.256-0.32,0.4c6.5,8,26.5,21.248,37.752,22
		c1.7-3.148,4.304-5.732,6.992-7.792c5.212-3.988,10.76-5.96,10.76-5.96l9.736,9.948L256,436l-0.004-0.004L254.728,433.636z"/>
	<path style="fill:#F5F5F5;" d="M308.436,402.928c-0.004,0-0.008,0-0.012,0.004c-1.708,0.24-5.884,1.428-10.932,2.98
		C284.908,409.784,266.756,416,266.756,416l-8.808,16.38L256,436l0,0l0,0l0.032-0.032l11.468-11.72c0,0,12.752,4.5,17.752,13.752
		c10.384-0.696,28.196-12.024,35.996-20.056c0.652-0.672,1.256-1.328,1.76-1.944c-0.108-0.144-0.22-0.268-0.328-0.408
		C317.292,408.616,312.048,404.828,308.436,402.928z"/>
</g>
<g>
	<path style="fill:#FFE1D9;" d="M256,384c-1.924,0-3.832-0.064-5.732-0.164C252.168,383.936,254.076,384,256,384L256,384z"/>
	<path style="fill:#FFE1D9;" d="M362.536,260.52c-61-7.508-84.92-63.988-93.536-74.52c0.484,77.072-117.444,62.904-127.044,102.956
		c-0.236-0.88-0.476-1.752-0.692-2.64c10.052,41.592,37.932,75.048,73.972,89.68c11.004,4.468,22.768,7.192,35.024,7.84
		C312.3,380.636,361.516,330.088,362.536,260.52z M204.216,330.6c2.276-3.464,24.28,7.984,51.784,7.984s49.52-11.444,51.792-7.984
		c2.268,3.46-19.544,22.984-51.792,22.984S201.94,334.06,204.216,330.6z"/>
</g>
<path style="fill:#F2D6CE;" d="M269,186c-5,70.668-127.736,53.5-127.736,100.316c0.216,0.888,0.456,1.76,0.692,2.64
	C151.556,248.904,269.484,263.072,269,186z"/>
<path style="fill:#E6BAAD;" d="M307.792,330.6c-2.272-3.46-24.288,7.984-51.792,7.984s-49.508-11.448-51.784-7.984
	c-2.276,3.46,19.536,22.984,51.784,22.984S310.06,334.06,307.792,330.6z"/>
<circle style="fill:#F5F5F5;" cx="216" cy="272" r="16"/>
<circle style="fill:#734822;" cx="216" cy="272" r="8"/>
<circle style="fill:#F5F5F5;" cx="304" cy="272" r="16"/>
<circle style="fill:#734822;" cx="304" cy="272" r="8"/>
<g>
</g>
<g>
</g>
<g>
</g>
<g>
</g>
<g>
</g>
<g>
</g>
<g>
</g>
<g>
</g>
<g>
</g>
<g>
</g>
<g>
</g>
<g>
</g>
<g>
</g>
<g>
</g>
<g>
</g>
</svg>
