<?xml version="1.0" encoding="iso-8859-1"?>
<!-- Generator: Adobe Illustrator 19.0.0, SVG Export Plug-In . SVG Version: 6.00 Build 0)  -->
<svg version="1.1" id="Layer_1" xmlns="http://www.w3.org/2000/svg" xmlns:xlink="http://www.w3.org/1999/xlink" x="0px" y="0px"
	 viewBox="0 0 512 512" style="enable-background:new 0 0 512 512;" xml:space="preserve">
<circle style="fill:#88C5CC;" cx="256" cy="256" r="256"/>
<g>
	<path style="fill:#CC584C;" d="M311.572,384.128c0.132,0.62,0.24,1.24,0.24,1.872c0,4.144-2.972,8.008-8.04,11.316
		c20.136,4.2,39.62,19.94,44.228,66.684v30.896c32.604-12.564,61.984-31.592,86.568-55.544
		C411.408,397.46,355.888,386.56,311.572,384.128z"/>
	<path style="fill:#CC584C;" d="M207.932,397.368c-5.12-3.32-8.12-7.2-8.12-11.368c0-0.632,0.108-1.252,0.24-1.872
		c-44.236,2.428-99.624,13.296-122.864,55c24.636,24.06,54.1,43.164,86.812,55.772V464
		C168.048,417.468,187.572,401.652,207.932,397.368z"/>
</g>
<path style="fill:#406A80;" d="M303.772,397.316c-9.796,6.392-27.58,10.684-47.96,10.684c-20.324,0-38.064-4.268-47.88-10.632
	c-20.36,4.284-39.884,20.1-43.932,66.632v30.896C192.56,505.904,223.56,512,256,512s63.44-6.096,92-17.104V464
	C343.392,417.256,323.908,401.516,303.772,397.316z"/>
<path style="fill:#F5F5F5;" d="M207.932,397.368c9.812,6.364,27.556,10.632,47.88,10.632c20.38,0,38.164-4.292,47.96-10.684
	c5.072-3.308,8.04-7.172,8.04-11.316c0-0.632-0.108-1.252-0.24-1.872c-0.616-2.864-2.636-5.564-5.776-8.008
	c-0.164,8.78-22.48,15.876-49.984,15.876c-2.348,0-4.64-0.068-6.9-0.168c-0.032,0-0.068,0-0.1-0.004c0.008,0,0.016,0,0.024,0
	c-24.204-1.084-42.856-7.68-43.008-15.704c-3.14,2.444-5.16,5.144-5.776,8.008c-0.132,0.62-0.24,1.24-0.24,1.872
	C199.812,390.164,202.812,394.048,207.932,397.368z"/>
<g>
	<path style="fill:#E6CBC3;" d="M248.836,391.824c24.276-1.096,42.976-7.736,42.976-15.8c0-0.592-0.124-1.188-0.328-1.772h0.02
		l-4.72-14.676c-9.068,3.864-19.256,6.888-30.784,8.424c-17.108-2.28-31.284-7.82-43.188-14.564l-6.692,20.816h0.02
		c-0.204,0.584-0.328,1.18-0.328,1.772c0,0.032,0.016,0.064,0.016,0.096C205.976,384.14,224.632,390.74,248.836,391.824z"/>
	<path style="fill:#E6CBC3;" d="M255.812,391.996c-2.348,0-4.64-0.072-6.9-0.168C251.172,391.928,253.464,391.996,255.812,391.996z"
		/>
</g>
<path style="fill:#D9BFB8;" d="M291.504,374.252h-0.02c0.204,0.584,0.328,1.18,0.328,1.772c0,8.06-18.7,14.704-42.976,15.8
	c-0.008,0-0.016,0-0.024,0c0.032,0,0.068,0,0.1,0.004c2.26,0.096,4.548,0.168,6.9,0.168c27.508,0,49.82-7.096,49.984-15.876
	c0-0.032,0.016-0.064,0.016-0.096c0-0.596-0.124-1.188-0.328-1.772h0.02l-6.636-20.632c-3.788,2.132-7.816,4.136-12.084,5.956
	L291.504,374.252z"/>
<g>
	<path style="fill:#FFE1D9;" d="M164.188,180c-2.748,4.332-4,10.336-4,20c0,24,19.48,67,51.812,80c0-11.332,15.48-28,44-28
		s44,16.668,44,28c32.332-13,51.812-56,51.812-80c0-9.664-1.252-15.668-4-20S344,171.164,344,156c0-9.728-1.204-19.448-3.108-28.68
		C315.248,102.648,238.188,139.472,224,104c-3.284,29.56-38.916,15.992-53.776,27.9C168.84,139.74,168,147.872,168,156
		C168,171.164,166.936,175.668,164.188,180z"/>
	<path style="fill:#FFE1D9;" d="M152,160c0,0-16,1.18-16,12v44.276c0,10.816,4,19.724,16,19.724C160,228,160,176,152,160z"/>
	<path style="fill:#FFE1D9;" d="M360,236c12,0,16-8.908,16-19.724V172c0-10.82-16-12-16-12C352,176,352,228,360,236z"/>
	<ellipse style="fill:#FFE1D9;" cx="256" cy="295.2" rx="28" ry="11.2"/>
</g>
<path style="fill:#66401E;" d="M256,368c11.528-1.536,21.716-4.56,30.784-8.424c4.268-1.82,8.296-3.824,12.084-5.956
	C328.924,336.704,344.52,312,356,312c-4-12,12-44,4-76c-8-8-8-60,0-76c0-23.312-0.024-66-23.104-79.656L336,92c0,0-40,8-80,8
	s-80-8-80-8l-0.896-11.656C152.024,94,152,136.688,152,160c8,16,8,68,0,76c-8,32,8,64,4,76c11.436,0,26.972,24.524,56.812,41.436
	C224.716,360.18,238.892,365.72,256,368z M256,306.4c-15.464,0-28-5.016-28-11.2s12.536-11.2,28-11.2s28,5.016,28,11.2
	S271.464,306.4,256,306.4z M224,104c14.188,35.472,91.248-1.352,116.892,23.32C342.796,136.552,344,146.272,344,156
	c0,15.164,1.064,19.668,3.812,24s4,10.336,4,20c0,24-19.48,67-51.812,80c0-11.332-15.48-28-44-28s-44,16.668-44,28
	c-32.332-13-51.812-56-51.812-80c0-9.664,1.252-15.668,4-20S168,171.164,168,156c0-8.128,0.84-16.26,2.224-24.1
	C185.084,119.992,220.716,133.56,224,104z"/>
<path style="fill:#FFD464;" d="M176,92c0,0,40,8,80,8s80-8,80-8l0.896-11.656L340,40l-24,12l-20-24l-20,24l-20-36l-20,36l-20-24
	l-20,24l-24-12l3.104,40.344L176,92z M318,76c0,6.628-5.372,12-12,12s-12-5.372-12-12s5.372-12,12-12S318,69.372,318,76z M272,76
	c0,8.836-7.164,16-16,16s-16-7.164-16-16s7.164-16,16-16S272,67.164,272,76z M206,64c6.628,0,12,5.372,12,12s-5.372,12-12,12
	s-12-5.372-12-12S199.372,64,206,64z"/>
<g>
	<circle style="fill:#CC584C;" cx="256" cy="76" r="16"/>
	<circle style="fill:#CC584C;" cx="206" cy="76" r="12"/>
	<circle style="fill:#CC584C;" cx="306" cy="76" r="12"/>
</g>
<ellipse style="fill:#F5F5F5;" cx="216" cy="180" rx="16" ry="12"/>
<circle style="fill:#2179A6;" cx="216" cy="180" r="8"/>
<ellipse style="fill:#F5F5F5;" cx="296" cy="180" rx="16" ry="12"/>
<circle style="fill:#2179A6;" cx="296" cy="180" r="8"/>
<g>
</g>
<g>
</g>
<g>
</g>
<g>
</g>
<g>
</g>
<g>
</g>
<g>
</g>
<g>
</g>
<g>
</g>
<g>
</g>
<g>
</g>
<g>
</g>
<g>
</g>
<g>
</g>
<g>
</g>
</svg>
