<?xml version="1.0" encoding="iso-8859-1"?>
<!-- Generator: Adobe Illustrator 19.0.0, SVG Export Plug-In . SVG Version: 6.00 Build 0)  -->
<svg version="1.1" id="Layer_1" xmlns="http://www.w3.org/2000/svg" xmlns:xlink="http://www.w3.org/1999/xlink" x="0px" y="0px"
	 viewBox="0 0 512 512" style="enable-background:new 0 0 512 512;" xml:space="preserve">
<circle style="fill:#4AB8A1;" cx="256" cy="256" r="256"/>
<g>
	<path style="fill:#992B1F;" d="M326.596,391.104c0.796,0.108,1.588,0.216,2.388,0.332
		C328.184,391.324,327.392,391.212,326.596,391.104z"/>
	<path style="fill:#992B1F;" d="M334.036,392.216c0.784,0.128,1.568,0.252,2.356,0.388
		C335.608,392.472,334.824,392.344,334.036,392.216z"/>
	<path style="fill:#992B1F;" d="M312.128,389.472c0.732,0.068,1.468,0.14,2.2,0.208C313.592,389.612,312.856,389.54,312.128,389.472
		z"/>
	<path style="fill:#992B1F;" d="M319.288,390.2c0.772,0.088,1.548,0.176,2.324,0.268C320.836,390.376,320.064,390.284,319.288,390.2
		z"/>
	<path style="fill:#992B1F;" d="M341.56,393.552c0.76,0.148,1.52,0.288,2.28,0.44C343.08,393.84,342.32,393.7,341.56,393.552z"/>
	<path style="fill:#992B1F;" d="M399.968,415.196c0.804,0.52,1.588,1.064,2.376,1.6
		C401.556,416.256,400.772,415.712,399.968,415.196z"/>
	<path style="fill:#992B1F;" d="M349.204,395.152c0.688,0.156,1.376,0.3,2.064,0.464
		C350.58,395.452,349.892,395.308,349.204,395.152z"/>
	<path style="fill:#992B1F;" d="M307.436,391.524c0.232,0.812,0.376,1.636,0.376,2.476c0,12.152-25.072,22-56,22s-56-9.848-56-22
		c0-1.728,0.56-3.4,1.516-5.012c-41.768,3.1-93.948,14.076-119.556,50.692C123.864,484.412,186.696,512,256,512
		c59.344,0,113.928-20.248,157.344-54.136C397.032,414.476,350.452,397.804,307.436,391.524z"/>
	<path style="fill:#992B1F;" d="M307.12,389.056c-0.272-0.02-0.552-0.048-0.824-0.068l0.004,0.004
		C306.572,389.016,306.848,389.036,307.12,389.056z"/>
	<path style="fill:#992B1F;" d="M411.616,423.912c0.772,0.668,1.528,1.352,2.272,2.048
		C413.144,425.264,412.388,424.58,411.616,423.912z"/>
	<path style="fill:#992B1F;" d="M416.908,428.892c0.724,0.74,1.44,1.484,2.14,2.252C418.348,430.38,417.632,429.632,416.908,428.892
		z"/>
	<path style="fill:#992B1F;" d="M426.228,440.208c0.596,0.868,1.204,1.732,1.772,2.632
		C427.432,441.94,426.828,441.076,426.228,440.208z"/>
	<path style="fill:#992B1F;" d="M421.788,434.316c0.668,0.808,1.332,1.616,1.972,2.448
		C423.12,435.932,422.456,435.124,421.788,434.316z"/>
	<path style="fill:#992B1F;" d="M365.6,399.536c0.112,0.036,0.228,0.064,0.34,0.1C365.828,399.604,365.712,399.572,365.6,399.536z"
		/>
	<path style="fill:#992B1F;" d="M393.68,411.416c0.776,0.432,1.532,0.896,2.296,1.348
		C395.212,412.312,394.456,411.852,393.68,411.416z"/>
	<path style="fill:#992B1F;" d="M380.352,404.924c0.448,0.188,0.884,0.4,1.332,0.596C381.236,405.328,380.8,405.116,380.352,404.924
		z"/>
	<path style="fill:#992B1F;" d="M387.128,408c0.692,0.336,1.36,0.7,2.044,1.044C388.488,408.7,387.82,408.336,387.128,408z"/>
	<path style="fill:#992B1F;" d="M405.96,419.356c0.796,0.596,1.576,1.212,2.352,1.828
		C407.536,420.564,406.756,419.948,405.96,419.356z"/>
	<path style="fill:#992B1F;" d="M357.028,397.072c0.54,0.144,1.084,0.272,1.624,0.42
		C358.112,397.344,357.568,397.216,357.028,397.072z"/>
</g>
<path style="fill:#8C271C;" d="M429.084,444.588c-0.352-0.592-0.716-1.172-1.084-1.748c-0.568-0.9-1.172-1.76-1.772-2.632
	c-0.804-1.168-1.612-2.328-2.468-3.444c-0.64-0.836-1.304-1.644-1.972-2.448c-0.892-1.08-1.8-2.144-2.744-3.172
	c-0.7-0.764-1.416-1.512-2.14-2.252c-0.984-1-1.988-1.98-3.016-2.936c-0.748-0.692-1.504-1.38-2.272-2.048
	c-1.08-0.936-2.18-1.844-3.304-2.732c-0.78-0.616-1.556-1.232-2.352-1.828c-1.184-0.88-2.392-1.728-3.616-2.56
	c-0.788-0.536-1.572-1.084-2.376-1.6c-1.308-0.84-2.644-1.64-3.992-2.432c-0.764-0.448-1.52-0.912-2.296-1.348
	c-1.48-0.824-2.988-1.604-4.508-2.372c-0.684-0.348-1.352-0.712-2.044-1.044c-1.788-0.868-3.612-1.684-5.444-2.48
	c-0.448-0.192-0.88-0.408-1.332-0.596c-4.692-1.98-9.512-3.736-14.412-5.288c-0.112-0.036-0.228-0.064-0.34-0.1
	c-2.3-0.724-4.62-1.404-6.948-2.044c-0.54-0.148-1.084-0.276-1.624-0.42c-1.916-0.508-3.832-1-5.76-1.456
	c-0.688-0.164-1.376-0.308-2.064-0.464c-1.788-0.404-3.572-0.796-5.364-1.16c-0.76-0.152-1.52-0.292-2.28-0.44
	c-1.724-0.332-3.444-0.652-5.164-0.948c-0.788-0.136-1.572-0.26-2.356-0.388c-1.692-0.276-3.376-0.536-5.056-0.78
	c-0.796-0.116-1.592-0.224-2.388-0.332c-1.668-0.228-3.328-0.44-4.98-0.636c-0.776-0.092-1.552-0.184-2.324-0.268
	c-1.668-0.188-3.316-0.356-4.96-0.516c-0.736-0.072-1.472-0.144-2.2-0.208c-1.684-0.152-3.352-0.288-5.008-0.416
	c-0.272-0.02-0.548-0.044-0.82-0.064c0.492,0.828,0.888,1.668,1.136,2.532c43.016,6.28,89.596,22.948,105.908,66.336
	C418.76,453.636,424.028,449.228,429.084,444.588z"/>
<path style="fill:#F5F5F5;" d="M251.812,416c30.928,0,56-9.848,56-22c0-0.836-0.144-1.66-0.376-2.476
	c-0.244-0.86-0.644-1.704-1.136-2.532l-0.004-0.004c-1.016-1.708-2.532-3.336-4.496-4.864c-0.168,8.776-22.476,15.872-49.984,15.872
	h-0.004h-0.004c-2.352,0-4.644-0.068-6.908-0.168c-0.028,0-0.056,0-0.084-0.004c0.008,0,0.012,0,0.02,0
	c-24.2-1.08-42.856-7.68-43.012-15.7c-1.964,1.528-3.48,3.156-4.496,4.864c-0.956,1.612-1.516,3.284-1.516,5.012
	C195.812,406.152,220.884,416,251.812,416z"/>
<g>
	<path style="fill:#E6CBC3;" d="M251.808,399.996h0.004c-2.356,0-4.648-0.076-6.912-0.168
		C247.164,399.928,249.46,399.996,251.808,399.996z"/>
	<path style="fill:#E6CBC3;" d="M244.836,399.824c24.284-1.092,42.98-7.736,42.98-15.8c0-0.6-0.12-1.188-0.328-1.772h0.016
		l-8.704-27.076c-8.664,3.088-17.712,4.824-26.988,4.824c-1.992,0-3.972-0.1-5.944-0.252c-0.02,0-0.036,0-0.056-0.004
		c0.004,0,0.012,0,0.016,0c-11.624-0.916-22.836-4.448-33.264-9.968l-10.444,32.48h0.016c-0.204,0.584-0.328,1.172-0.328,1.768
		c0,0.032,0.016,0.064,0.016,0.1C201.976,392.144,220.632,398.74,244.836,399.824z"/>
</g>
<path style="fill:#D9BFB8;" d="M287.504,382.252h-0.016c0.208,0.584,0.328,1.172,0.328,1.772c0,8.064-18.7,14.708-42.98,15.8
	c-0.008,0-0.012,0-0.02,0c0.028,0,0.056,0,0.084,0.004c2.264,0.096,4.56,0.168,6.912,0.168h0.004c27.508,0,49.816-7.1,49.984-15.872
	c0-0.032,0.016-0.064,0.016-0.1c-0.004-0.596-0.128-1.188-0.332-1.772h0.016l-10.44-32.476c-3.98,2.104-8.076,3.904-12.264,5.4
	L287.504,382.252z"/>
<g>
	<path style="fill:#FFE1D9;" d="M355.812,244c12,0,16-8.908,16-19.724V180c0-10.82-16-12-16-12v44V244z"/>
	<path style="fill:#FFE1D9;" d="M343.812,244v-76v-2.128c-6.052-17.2-14.48-34.036-26.064-42.432
		c-18.924,5.404-41.576,8.56-65.936,8.56s-47.016-3.152-65.94-8.56c-23.78,17.236-34.356,70.04-38.06,88.56v-44c0,0-16,1.18-16,12
		v44.276c0,10.816,4,19.724,16,19.724c0,40.776,27.34,85.984,64.752,105.776c10.432,5.516,21.644,9.052,33.264,9.968
		C299.12,355.52,343.812,296.14,343.812,244z M226.192,295.832c0.896-4.328,12.296-5.376,25.62-5.376s24.728,1.052,25.616,5.376
		c0.9,4.328-10.5,10.628-25.616,10.628S225.296,300.16,226.192,295.832z"/>
	<path style="fill:#FFE1D9;" d="M251.812,360c-1.992,0-3.972-0.1-5.944-0.252C247.84,359.9,249.82,360,251.812,360z"/>
</g>
<g>
	<path style="fill:#F2D6CE;" d="M245.824,68.06c1.968-0.032,3.948-0.06,5.988-0.06c-2.044,0-4.028,0.028-6,0.06
		c0.008,0,0.016,0,0.024,0c0.004,0,0.008,0,0.008,0C245.84,68.06,245.832,68.06,245.824,68.06z"/>
	<path style="fill:#F2D6CE;" d="M343.836,165.94c-0.008-0.02-0.016-0.044-0.024-0.064V168v76c0,52.14-44.692,111.52-97.984,115.744
		c-0.004,0-0.012,0-0.016,0c0.02,0,0.036,0,0.056,0.004c1.972,0.152,3.952,0.252,5.944,0.252c9.276,0,18.324-1.736,26.988-4.824
		c4.188-1.492,8.284-3.292,12.264-5.4c37.408-19.788,64.748-65,64.748-105.776v-32C353.916,202.512,350.192,184.028,343.836,165.94z
		"/>
</g>
<path style="fill:#CC584C;" d="M185.872,123.44c18.924,5.408,41.58,8.56,65.94,8.56s47.012-3.156,65.936-8.56
	c11.584,8.396,20.012,25.236,26.064,42.432c0.008,0.02,0.016,0.044,0.024,0.064c-0.008-0.024-0.016-0.048-0.024-0.072v-39.48
	c0-1.976-0.084-3.928-0.264-5.856c-2.688-28.86-26.436-51.28-97.7-52.472c-0.004,0-0.004,0-0.008,0
	c-76.064,1.26-98.024,26.692-98.024,58.328V168v44C151.516,193.48,162.092,140.676,185.872,123.44z"/>
<path style="fill:#BF5347;" d="M245.848,68.06c71.264,1.192,95.012,23.616,97.7,52.472c0.18,1.924,0.264,3.876,0.264,5.856v39.48
	c0.008,0.024,0.016,0.048,0.024,0.072c6.356,18.088,10.08,36.572,11.976,46.06v-44v-41.612c0-32.452-23.084-58.388-104-58.388
	c-2.04,0-4.02,0.028-5.988,0.06C245.832,68.06,245.84,68.06,245.848,68.06z"/>
<path style="fill:#CC9B8E;" d="M251.812,306.46c15.116,0,26.516-6.3,25.616-10.628c-0.888-4.324-12.292-5.376-25.616-5.376
	s-24.724,1.048-25.62,5.376C225.296,300.16,236.696,306.46,251.812,306.46z"/>
<ellipse style="fill:#F5F5F5;" cx="207.812" cy="188" rx="16" ry="12"/>
<circle style="fill:#992B1F;" cx="207.812" cy="188" r="8"/>
<ellipse style="fill:#F5F5F5;" cx="287.812" cy="188" rx="16" ry="12"/>
<circle style="fill:#992B1F;" cx="287.812" cy="188" r="8"/>
<g>
</g>
<g>
</g>
<g>
</g>
<g>
</g>
<g>
</g>
<g>
</g>
<g>
</g>
<g>
</g>
<g>
</g>
<g>
</g>
<g>
</g>
<g>
</g>
<g>
</g>
<g>
</g>
<g>
</g>
</svg>
