<?xml version="1.0" encoding="iso-8859-1"?>
<!-- Generator: Adobe Illustrator 19.0.0, SVG Export Plug-In . SVG Version: 6.00 Build 0)  -->
<svg version="1.1" id="Layer_1" xmlns="http://www.w3.org/2000/svg" xmlns:xlink="http://www.w3.org/1999/xlink" x="0px" y="0px"
	 viewBox="0 0 512 512" style="enable-background:new 0 0 512 512;" xml:space="preserve">
<circle style="fill:#E16B5A;" cx="256" cy="256" r="256"/>
<g>
	<polygon style="fill:#CCCCCC;" points="282.252,447.5 251.812,416 274.252,439.5 264.376,461.124 262.252,461.124 266,470.124 
		265.916,470.972 309.5,409.076 309.5,408.992 	"/>
	<polygon style="fill:#CCCCCC;" points="241.376,461.124 239.248,461.124 229.376,439.5 251.812,416 221.376,447.5 199.748,416.936 
		199.748,417.064 237.708,470.972 237.624,470.124 	"/>
</g>
<polygon style="fill:#CC584C;" points="262.252,461.124 264.376,461.124 274.252,439.5 251.812,416 229.376,439.5 239.248,461.124 
	241.376,461.124 237.624,470.124 237.708,470.972 251.812,491 265.916,470.972 266,470.124 "/>
<path style="fill:#406A80;" d="M418.624,425.5l-96.748-34L309.5,409.076l-43.584,61.896L251.812,491l-14.104-20.028l-37.96-53.912
	l-18-25.564L81,421.496l-3.496,17.924C123.62,484.312,186.56,512,256,512c64.376,0,123.156-23.816,168.14-63.052L418.624,425.5z"/>
<path style="fill:#F5F5F5;" d="M221.376,447.5l30.436-31.5l30.44,31.5l27.248-38.508l12.376-17.492l-21.836-13.804l0,0l1.464,4.556
	h-0.016c0.2,0.584,0.324,1.176,0.328,1.772c0,8.824-22.388,15.972-50,15.972h-0.004h-0.004c-2.352,0-4.644-0.068-6.908-0.168
	c-0.028,0-0.056,0-0.084-0.004c0.008,0,0.012,0,0.02,0c-24.304-1.088-43.028-7.732-43.028-15.8c0-0.592,0.124-1.188,0.328-1.772
	h-0.016l1.464-4.556l0,0L181.748,391.5l18,25.436L221.376,447.5z"/>
<g>
	<path style="fill:#E6CBC3;" d="M251.808,399.996h0.004c-2.356,0-4.648-0.076-6.912-0.168
		C247.164,399.928,249.46,399.996,251.808,399.996z"/>
	<path style="fill:#E6CBC3;" d="M202.136,382.252c-0.204,0.584-0.328,1.18-0.328,1.772c0,8.064,18.724,14.712,43.028,15.8
		c24.284-1.092,42.98-7.736,42.98-15.8c0-0.592-0.124-1.188-0.328-1.772h0.016l-8.704-27.076
		c-8.664,3.088-17.712,4.824-26.988,4.824c-1.992,0-3.972-0.1-5.944-0.252c-0.02,0-0.036,0-0.056-0.004c0.004,0,0.012,0,0.016,0
		c-11.624-0.916-22.836-4.448-33.264-9.968l-8.976,27.92l-1.464,4.556H202.136z"/>
</g>
<path style="fill:#D9BFB8;" d="M287.504,382.252h-0.016c0.204,0.584,0.328,1.18,0.328,1.772c0,8.06-18.7,14.708-42.98,15.8
	c-0.008,0-0.012,0-0.02,0c0.028,0,0.056,0,0.084,0.004c2.264,0.096,4.56,0.168,6.912,0.168h0.004c27.612,0,50-7.148,50-15.972
	c-0.004-0.596-0.128-1.188-0.328-1.772h0.016l-1.464-4.556l-8.976-27.92c-3.98,2.104-8.076,3.908-12.264,5.4L287.504,382.252z"/>
<g>
	<path style="fill:#FFE1D9;" d="M355.812,244c12,0,16-8.908,16-19.724V180c0-10.82-16-12-16-12v44V244z"/>
	<path style="fill:#FFE1D9;" d="M251.812,360c-1.992,0-3.972-0.1-5.944-0.252C247.84,359.9,249.82,360,251.812,360z"/>
	<path style="fill:#FFE1D9;" d="M343.812,244v-76v-2.128c-6.052-17.2-14.48-34.036-26.064-42.432
		c-18.924,5.404-41.576,8.56-65.936,8.56s-47.016-3.152-65.94-8.56c-23.78,17.236-34.356,70.04-38.06,88.56v-44c0,0-16,1.18-16,12
		v44.276c0,10.816,4,19.724,16,19.724c0,40.776,27.34,85.984,64.752,105.776c10.432,5.516,21.644,9.052,33.264,9.968
		C299.116,355.52,343.812,296.136,343.812,244z M226.192,295.836c0.896-4.328,12.296-5.376,25.62-5.376s24.728,1.048,25.616,5.376
		c0.9,4.324-10.5,10.624-25.616,10.624S225.296,300.16,226.192,295.836z"/>
</g>
<g>
	<path style="fill:#F2D6CE;" d="M245.824,68.06c1.968-0.032,3.948-0.06,5.988-0.06c-2.044,0-4.028,0.028-6,0.06
		c0.008,0,0.016,0,0.024,0c0.004,0,0.008,0,0.008,0C245.84,68.06,245.832,68.06,245.824,68.06z"/>
	<path style="fill:#F2D6CE;" d="M343.836,165.94c-0.008-0.02-0.016-0.044-0.024-0.064V168v76c0,52.136-44.696,111.52-97.984,115.744
		c-0.004,0-0.012,0-0.016,0c0.02,0,0.036,0,0.056,0.004c1.972,0.152,3.952,0.252,5.944,0.252c9.276,0,18.324-1.736,26.988-4.824
		c4.188-1.492,8.284-3.296,12.264-5.4c37.408-19.792,64.748-65,64.748-105.776v-32C353.916,202.512,350.192,184.028,343.836,165.94z
		"/>
</g>
<path style="fill:#805026;" d="M185.872,123.44c18.924,5.408,41.58,8.56,65.94,8.56s47.012-3.156,65.936-8.56
	c11.584,8.396,20.012,25.236,26.064,42.432c0.008,0.02,0.016,0.044,0.024,0.064c-0.008-0.024-0.016-0.048-0.024-0.072v-39.48
	c0-1.976-0.084-3.928-0.264-5.856c-2.688-28.86-26.436-51.28-97.7-52.472c-0.004,0-0.004,0-0.008,0
	c-76.064,1.26-98.024,26.692-98.024,58.328V168v44C151.516,193.48,162.092,140.676,185.872,123.44z"/>
<path style="fill:#734822;" d="M245.848,68.06c71.264,1.192,95.012,23.616,97.7,52.472c0.18,1.924,0.264,3.876,0.264,5.856v39.48
	c0.008,0.024,0.016,0.048,0.024,0.072c6.356,18.088,10.08,36.572,11.976,46.06v-44v-41.612c0-1.016-0.024-2.02-0.068-3.024
	C354.312,92.34,330.208,68,251.812,68c-2.04,0-4.02,0.028-5.988,0.06C245.832,68.06,245.84,68.06,245.848,68.06z"/>
<path style="fill:#CC9B8E;" d="M251.812,306.46c15.116,0,26.516-6.3,25.616-10.624c-0.888-4.328-12.292-5.376-25.616-5.376
	s-24.724,1.048-25.62,5.376C225.296,300.16,236.696,306.46,251.812,306.46z"/>
<ellipse style="fill:#F5F5F5;" cx="212" cy="200" rx="16" ry="12"/>
<circle style="fill:#734822;" cx="212" cy="200" r="8"/>
<ellipse style="fill:#F5F5F5;" cx="292" cy="200" rx="16" ry="12"/>
<circle style="fill:#734822;" cx="292" cy="200" r="8"/>
<g>
</g>
<g>
</g>
<g>
</g>
<g>
</g>
<g>
</g>
<g>
</g>
<g>
</g>
<g>
</g>
<g>
</g>
<g>
</g>
<g>
</g>
<g>
</g>
<g>
</g>
<g>
</g>
<g>
</g>
</svg>
