<?xml version="1.0" encoding="iso-8859-1"?>
<!-- Generator: Adobe Illustrator 19.0.0, SVG Export Plug-In . SVG Version: 6.00 Build 0)  -->
<svg version="1.1" id="Layer_1" xmlns="http://www.w3.org/2000/svg" xmlns:xlink="http://www.w3.org/1999/xlink" x="0px" y="0px"
	 viewBox="0 0 512 512" style="enable-background:new 0 0 512 512;" xml:space="preserve">
<circle style="fill:#4AB8A1;" cx="256" cy="256" r="256"/>
<path style="fill:#45998B;" d="M255.812,408c-16.216,0-30.776-2.724-41-7.052c8.552,33.972,23.68,84.736,36.732,110.936
	c1.488,0.028,2.96,0.116,4.456,0.116s2.968-0.088,4.456-0.112c13.076-26.252,28.236-77.148,36.78-111.12
	C286.992,405.2,272.252,408,255.812,408z"/>
<g>
	<path style="fill:#F5F5F5;" d="M204,420c0,0-32,12-40,16c0-23.092,11.48-40.976,24.504-53.416L108,396l-36.924,36.924
		c45.064,47.092,107.904,76.972,177.764,78.896L200,456L204,420z"/>
	<path style="fill:#F5F5F5;" d="M323.496,382.584C336.52,395.024,348,412.908,348,436c-8-4-40-16-40-16l4,36l-48.84,55.82
		c69.864-1.924,132.7-31.804,177.764-78.896L404,396L323.496,382.584z"/>
</g>
<g>
	<path style="fill:#FFDC80;" d="M323.38,348.56c-3.58,0.88-7.24,1.7-10.992,2.44C316.136,350.26,319.8,349.444,323.38,348.56z"/>
	<path style="fill:#FFDC80;" d="M168,232.804v-22.84c23.336-64.152,143.612-31.952,146.824-77.536
		C301.788,136.644,280.324,140,256,140c-39.764,0-72-8.956-72-16l-8.62-28.736c-25.192,23.26-41.976,57.212-51.116,93.992
		c-5.62,22.712-43.912,83.504-43.912,83.504c18.476,35.132,61.544,70.252,132.512,80.516l6.572-20.444
		C189.092,315.48,168,277.232,168,232.804z"/>
	<path style="fill:#FFDC80;" d="M298.776,353.332c4.1-0.588,8.08-1.276,11.996-2.024
		C306.86,352.056,302.876,352.744,298.776,353.332L298.776,353.332z"/>
	<path style="fill:#FFDC80;" d="M335.768,345.16c-3.448,1.06-7.008,2.036-10.636,2.956
		C328.76,347.196,332.316,346.216,335.768,345.16z"/>
	<path style="fill:#FFDC80;" d="M427.628,279.748c-1.184,1.908-2.448,3.812-3.78,5.704
		C425.18,283.556,426.44,281.656,427.628,279.748z"/>
	<path style="fill:#FFDC80;" d="M399.896,311.304c-2.072,1.74-4.228,3.448-6.452,5.124
		C395.672,314.752,397.828,313.044,399.896,311.304z"/>
	<path style="fill:#FFDC80;" d="M406.408,305.492c-1.94,1.836-3.94,3.648-6.044,5.432
		C402.464,309.14,404.468,307.328,406.408,305.492z"/>
	<path style="fill:#FFDC80;" d="M412.804,299.052c-1.716,1.848-3.52,3.676-5.392,5.484
		C409.284,302.728,411.088,300.9,412.804,299.052z"/>
	<path style="fill:#FFDC80;" d="M392.644,317.04c-2.276,1.692-4.64,3.34-7.08,4.96C388.004,320.384,390.368,318.732,392.644,317.04z
		"/>
	<path style="fill:#FFDC80;" d="M384.32,322.82c-2.484,1.616-5.036,3.2-7.684,4.732C379.284,326.02,381.836,324.436,384.32,322.82z"
		/>
	<path style="fill:#FFDC80;" d="M375.856,327.988c-2.636,1.508-5.352,2.972-8.152,4.388
		C370.504,330.96,373.22,329.496,375.856,327.988z"/>
	<path style="fill:#FFDC80;" d="M431.648,272.76c-1.044,1.988-2.192,3.972-3.396,5.952
		C429.456,276.732,430.604,274.748,431.648,272.76z"/>
	<path style="fill:#FFDC80;" d="M418.456,292.572c-1.548,1.896-3.184,3.772-4.888,5.636
		C415.272,296.344,416.908,294.468,418.456,292.572z"/>
	<path style="fill:#FFDC80;" d="M346.172,341.66c-3.236,1.176-6.548,2.304-9.96,3.356
		C339.624,343.96,342.936,342.836,346.172,341.66z"/>
	<path style="fill:#FFDC80;" d="M367.016,332.732c-2.852,1.428-5.804,2.796-8.824,4.116
		C361.212,335.528,364.164,334.16,367.016,332.732z"/>
	<path style="fill:#FFDC80;" d="M423.092,286.504c-1.404,1.952-2.868,3.9-4.436,5.828
		C420.224,290.404,421.688,288.456,423.092,286.504z"/>
	<path style="fill:#FFDC80;" d="M356.68,337.508c-3.024,1.296-6.124,2.544-9.32,3.728
		C350.552,340.052,353.652,338.804,356.68,337.508z"/>
</g>
<path style="fill:#F5F5F5;" d="M255.812,391.996c-2.348,0-4.64-0.068-6.9-0.168c-0.032,0-0.068,0-0.1-0.004c0.008,0,0.016,0,0.024,0
	c-17.052-0.764-31.32-4.264-38.332-9.076c1.12,5.152,2.576,11.324,4.308,18.204c10.228,4.328,24.788,7.052,41,7.052
	c16.44,0,31.18-2.8,41.424-7.232c1.744-6.936,3.208-13.148,4.324-18.312C293.812,388.072,276.256,391.996,255.812,391.996z"/>
<g>
	<path style="fill:#F2D6CE;" d="M210.504,382.748c7.012,4.812,21.28,8.312,38.332,9.076c24.276-1.096,42.976-7.736,42.976-15.8
		c0-0.592-0.124-1.188-0.328-1.772h0.02l-11.464-35.66c-7.644,2.708-15.7,4.188-24.04,4.188c-13.052,0-25.424-3.576-36.564-9.948
		l-6.572,20.444l-4.844,15.068C208.092,370.652,208.98,375.736,210.504,382.748z"/>
	<path style="fill:#F2D6CE;" d="M248.912,391.828c2.26,0.1,4.552,0.168,6.9,0.168C253.464,391.996,251.172,391.924,248.912,391.828z
		"/>
</g>
<path style="fill:#E6CBC3;" d="M298.772,353.332l-1.264-3.956l-5.264-16.368c-3.924,2.22-8,4.088-12.204,5.58l11.464,35.66h-0.02
	c0.204,0.584,0.328,1.18,0.328,1.772c0,8.06-18.7,14.704-42.976,15.8c-0.008,0-0.016,0-0.024,0c0.032,0,0.068,0,0.1,0.004
	c2.26,0.096,4.548,0.168,6.9,0.168c20.444,0,38-3.924,45.748-9.54c1.288-5.964,2.124-10.54,2.364-13.12l-5.144-16.004l0,0
	C298.776,353.332,298.772,353.332,298.772,353.332z"/>
<g>
	<path style="fill:#E6E6E6;" d="M210.504,382.748c-1.524-7.012-2.408-12.096-2.484-14.404c-0.004-0.104-0.02-0.252-0.02-0.344
		c-6.06,3.448-12.968,8.344-19.496,14.584C175.48,395.024,164,412.908,164,436c8-4,40-16,40-16l-4,36l48.84,55.82
		c0.9,0.024,1.8,0.052,2.704,0.068c-13.052-26.204-28.184-76.964-36.732-110.936C213.08,394.072,211.62,387.9,210.504,382.748z"/>
	<path style="fill:#E6E6E6;" d="M308,420c0,0,32,12,40,16c0-23.092-11.48-40.976-24.504-53.416
		C316.968,376.344,310.06,371.448,304,368c0,0.356-0.028,0.812-0.076,1.336c-0.24,2.58-1.072,7.16-2.364,13.12
		c-1.116,5.164-2.58,11.376-4.324,18.312c-8.544,33.972-23.704,84.872-36.78,111.12c0.904-0.016,1.804-0.044,2.704-0.068L312,456
		L308,420z"/>
</g>
<path style="fill:#FFE1D9;" d="M344,232.804v-71.636c-7.912-13.788-26.152-21.464-28.68-28.892c-0.156,0.052-0.336,0.1-0.492,0.152
	c-3.216,45.584-123.492,13.384-146.828,77.536v22.84c0,44.428,21.092,82.676,51.436,100.028c11.14,6.368,23.512,9.948,36.564,9.948
	c8.336,0,16.396-1.48,24.04-4.188c4.208-1.492,8.28-3.36,12.204-5.58C322.76,315.744,344,277.38,344,232.804z"/>
<path style="fill:#FFDC80;" d="M344,161.168v71.636c0,44.576-21.24,82.94-51.756,100.208l5.264,16.368l-0.028-0.08
	c58.892-13.46,95.592-44.924,112.216-76.536c0,0-38.252-60.792-43.908-83.504c-6.972-28.08-18.4-54.516-34.624-75.8L328,124
	c0,2.684-4.696,5.64-12.68,8.276C317.848,139.7,336.088,147.38,344,161.168z"/>
<path style="fill:#F2CD6D;" d="M331.164,113.456c16.228,21.284,27.652,47.72,34.624,75.8c5.656,22.712,43.908,83.504,43.908,83.504
	c-16.624,31.612-53.324,63.076-112.216,76.536l0.028,0.08l1.264,3.956h0.004c4.1-0.588,8.08-1.276,11.996-2.024
	c0.536-0.104,1.08-0.2,1.612-0.304c3.752-0.744,7.412-1.56,10.992-2.44c0.588-0.144,1.168-0.296,1.752-0.444
	c3.628-0.924,7.184-1.9,10.636-2.956c0.152-0.048,0.296-0.096,0.448-0.144c3.408-1.052,6.72-2.18,9.96-3.356
	c0.392-0.144,0.796-0.28,1.184-0.424c3.196-1.184,6.296-2.432,9.32-3.728c0.508-0.216,1.008-0.436,1.512-0.656
	c3.02-1.324,5.972-2.692,8.824-4.116c0.232-0.116,0.456-0.24,0.688-0.356c2.8-1.416,5.516-2.88,8.152-4.388
	c0.256-0.148,0.524-0.288,0.78-0.436c2.648-1.532,5.2-3.116,7.684-4.732c0.416-0.272,0.832-0.544,1.248-0.82
	c2.436-1.62,4.804-3.268,7.08-4.96c0.272-0.2,0.532-0.408,0.8-0.612c2.228-1.676,4.384-3.384,6.452-5.124
	c0.152-0.128,0.312-0.256,0.468-0.384c2.1-1.78,4.104-3.596,6.044-5.432c0.336-0.32,0.672-0.636,1.004-0.956
	c1.872-1.808,3.676-3.636,5.392-5.484c0.26-0.28,0.508-0.564,0.764-0.844c1.7-1.864,3.34-3.74,4.888-5.636
	c0.064-0.08,0.136-0.16,0.204-0.24c1.564-1.928,3.028-3.876,4.436-5.828c0.252-0.352,0.508-0.7,0.756-1.052
	c1.332-1.896,2.596-3.796,3.78-5.704c0.212-0.344,0.416-0.688,0.624-1.032c1.204-1.98,2.352-3.968,3.396-5.952
	c0,0-38.256-60.792-43.912-83.504c-9.136-36.784-25.916-70.744-51.112-94.004L331.164,113.456z"/>
<path style="fill:#F5F5F5;" d="M184,124c0,7.044,32.236,16,72,16c24.324,0,45.788-3.356,58.824-7.572
	c0.16-0.052,0.336-0.1,0.492-0.152C323.304,129.64,328,126.684,328,124l3.164-10.544l5.46-18.204L340,84c0,0-32-28-84-28
	s-84,28-84,28l3.38,11.264L184,124z M260,72v16h16v8h-16v16h-8V96h-16v-8h16V72H260z"/>
<polygon style="fill:#CC584C;" points="236,88 236,96 252,96 252,112 260,112 260,96 276,96 276,88 260,88 260,72 252,72 252,88 "/>
<ellipse style="fill:#F5F5F5;" cx="216" cy="204" rx="16" ry="12"/>
<circle style="fill:#242424;" cx="216" cy="204" r="8"/>
<ellipse style="fill:#F5F5F5;" cx="288" cy="204" rx="16" ry="12"/>
<circle style="fill:#242424;" cx="288" cy="204" r="8"/>
<g>
</g>
<g>
</g>
<g>
</g>
<g>
</g>
<g>
</g>
<g>
</g>
<g>
</g>
<g>
</g>
<g>
</g>
<g>
</g>
<g>
</g>
<g>
</g>
<g>
</g>
<g>
</g>
<g>
</g>
</svg>
