<?xml version="1.0" encoding="iso-8859-1"?>
<!-- Generator: Adobe Illustrator 19.0.0, SVG Export Plug-In . SVG Version: 6.00 Build 0)  -->
<svg version="1.1" id="Layer_1" xmlns="http://www.w3.org/2000/svg" xmlns:xlink="http://www.w3.org/1999/xlink" x="0px" y="0px"
	 viewBox="0 0 512 512" style="enable-background:new 0 0 512 512;" xml:space="preserve">
<circle style="fill:#B2E3FF;" cx="256" cy="256" r="256"/>
<g>
	<path style="fill:#406A80;" d="M407.316,403.688l-71.848-9.672c-2.176-0.288-3.716-2.316-3.432-4.492l0.104-0.768l-22.476,3.912
		L318,403.332l-62,49.004l-62-49.004l8.336-10.664l-22.476-3.912l0.104,0.768c0.288,2.176-1.256,4.204-3.432,4.492l-71.848,9.672
		c-2.176,0.292-4.204-1.252-4.5-3.428l-1.052-7.812l-6.036,0.888L70.956,432.8c21.012,21.988,45.86,40.276,73.532,53.688
		c-7.808-12.872-9.92-29.528-9.92-39.736c2.872-2.564,16.124-6.62,29.376-6.62c13.252,0,26.5,4.056,29.376,6.62
		c0,13.78-3.836,39.296-20.38,51.392C198.996,507.08,226.916,512,256,512c67.584,0,129.004-26.232,174.76-69.012L408.664,403.6
		C408.228,403.692,407.78,403.752,407.316,403.688z"/>
	<polygon style="fill:#406A80;" points="183.888,379.96 178.78,380.712 179.068,382.868 	"/>
</g>
<g>
	<path style="fill:#395F73;" d="M412.868,392.448l-1.052,7.812c-0.232,1.712-1.548,2.992-3.152,3.336l22.096,39.388
		c3.528-3.296,6.948-6.7,10.284-10.188l-22.136-39.46L412.868,392.448z"/>
	<polygon style="fill:#395F73;" points="333.22,380.712 328.112,379.96 332.932,382.868 	"/>
</g>
<path style="fill:#335466;" d="M104.684,403.688l71.848-9.672c2.176-0.288,3.72-2.316,3.432-4.492l-0.104-0.768l-8.192-1.424
	l7.4-4.464l-0.288-2.156l-0.428-3.172c-0.296-2.176-2.324-3.716-4.5-3.428l-71.848,9.672c-2.176,0.296-3.72,2.32-3.432,4.492
	l0.56,4.172l1.052,7.812C100.48,402.436,102.508,403.98,104.684,403.688z M163.096,381.692c2.208,0,4,1.792,4,4s-1.792,4-4,4
	s-4-1.792-4-4C159.096,383.484,160.888,381.692,163.096,381.692z M147.208,383.828c2.212,0,4.004,1.792,4.004,4.004
	s-1.792,4.004-4.004,4.004s-4.004-1.792-4.004-4.004S144.996,383.828,147.208,383.828z M131.32,385.968c2.208,0,4,1.792,4,4
	s-1.792,4-4,4s-4-1.792-4-4C127.32,387.76,129.112,385.968,131.32,385.968z M115.44,388.1c2.212,0,4.004,1.792,4.004,4.004
	s-1.792,4.004-4.004,4.004s-4.004-1.792-4.004-4.004S113.228,388.1,115.44,388.1z"/>
<g>
	<circle style="fill:#FFD464;" cx="147.208" cy="387.84" r="4"/>
	<circle style="fill:#FFD464;" cx="163.096" cy="385.68" r="4"/>
	<circle style="fill:#FFD464;" cx="131.32" cy="389.96" r="4"/>
	<circle style="fill:#FFD464;" cx="115.44" cy="392.12" r="4"/>
</g>
<path style="fill:#335466;" d="M340.332,387.332l-8.192,1.424l-0.104,0.768c-0.284,2.176,1.256,4.204,3.432,4.492l71.848,9.672
	c0.464,0.064,0.912,0.004,1.348-0.092c1.604-0.344,2.92-1.624,3.152-3.336l1.052-7.812l0.56-4.172
	c0.288-2.172-1.256-4.196-3.432-4.492l-71.848-9.672c-2.176-0.288-4.204,1.252-4.5,3.428l-0.428,3.172l-0.288,2.156L340.332,387.332
	z M396.564,388.1c2.212,0,4.004,1.792,4.004,4.004s-1.792,4.004-4.004,4.004s-4.004-1.792-4.004-4.004S394.352,388.1,396.564,388.1z
	 M380.68,385.968c2.208,0,4,1.792,4,4s-1.792,4-4,4s-4-1.792-4-4C376.68,387.76,378.472,385.968,380.68,385.968z M368.796,387.832
	c0,2.212-1.792,4.004-4.004,4.004s-4.004-1.792-4.004-4.004s1.792-4.004,4.004-4.004S368.796,385.62,368.796,387.832z
	 M352.908,385.692c0,2.208-1.792,4-4,4s-4-1.792-4-4s1.792-4,4-4S352.908,383.484,352.908,385.692z"/>
<g>
	<circle style="fill:#FFD464;" cx="364.8" cy="387.84" r="4"/>
	<circle style="fill:#FFD464;" cx="348.92" cy="385.68" r="4"/>
	<circle style="fill:#FFD464;" cx="380.68" cy="389.96" r="4"/>
	<circle style="fill:#FFD464;" cx="396.56" cy="392.12" r="4"/>
</g>
<g>
	<path style="fill:#E78244;" d="M334.08,237.52c5.148,0,9.324,4.176,9.324,9.324s-4.176,9.324-9.324,9.324
		c-0.456,0-0.896-0.072-1.336-0.136c-4.228,27.26-18.344,50.352-37.74,63.764l-3.352,24.732
		c49.784-11.488,80.832-38.132,94.912-64.916c0,0-32.5-51.64-37.304-70.928c-1.584-6.372-3.444-12.636-5.572-18.752
		c-4.66,3.38-10.4,6.468-17.032,9.176c4.604,11.684,7.232,24.688,7.396,38.416C334.06,237.524,334.072,237.52,334.08,237.52z"/>
	<path style="fill:#E78244;" d="M367.908,208.688c-2.944-11.844-6.832-23.34-11.672-34.132c0,0,0,0,0,0.004
		C361.076,185.352,364.964,196.844,367.908,208.688z"/>
	<path style="fill:#E78244;" d="M291.168,348.12v0.008c61.112-8.456,98.228-38.444,114.04-68.512l0,0
		C389.392,309.684,352.28,339.664,291.168,348.12z"/>
	<path style="fill:#E78244;" d="M178.976,254.164c-1.584,1.236-3.548,2.004-5.712,2.004c-5.148,0-9.324-4.176-9.324-9.324
		s4.176-9.324,9.324-9.324c1.636,0,3.152,0.46,4.492,1.2c-0.016,5.096,0.168,8.124,0.168,8.124c0-0.92,0.1-1.74,0.132-2.632
		c0.696-19.748,8.972-32.196,21.08-40.388c-23.156-6.596-39.412-17.104-43.364-29.256c-4.84,10.792-8.728,22.28-11.668,34.124
		C139.328,227.98,106.8,279.62,106.8,279.62c15.812,30.072,52.928,60.056,114.044,68.512L217,319.8
		C197.16,306.08,182.84,282.24,178.976,254.164z"/>
</g>
<path style="fill:#2179A6;" d="M177.924,246.844c0,0-0.184-3.028-0.168-8.124c-1.336-0.74-2.852-1.2-4.492-1.2
	c-5.148,0-9.324,4.176-9.324,9.324s4.176,9.324,9.324,9.324c2.164,0,4.132-0.768,5.712-2.004c-0.448-3.264-0.764-6.58-0.924-9.948
	C178.024,245.104,177.924,245.924,177.924,246.844z"/>
<path style="fill:#D97A40;" d="M343.688,189.932c2.128,6.116,3.988,12.38,5.572,18.752c4.804,19.288,37.304,70.928,37.304,70.928
	c-14.08,26.78-45.128,53.428-94.912,64.916l-0.488,3.596c61.112-8.456,98.228-38.44,114.036-68.508l0,0
	c0,0.004-19.832-31.516-30.8-54.5c-3.072-6.436-5.444-12.204-6.496-16.424c-2.944-11.844-6.832-23.336-11.672-34.132
	C354.44,180.096,350.088,185.292,343.688,189.932z"/>
<path style="fill:#2179A6;" d="M343.404,246.844c0-5.148-4.176-9.324-9.324-9.324c-0.008,0-0.02,0.004-0.028,0.004
	c0.004,0.452,0.028,0.9,0.028,1.352v0.004v0.004c0,5.86-0.472,11.588-1.336,17.148c0.44,0.064,0.88,0.136,1.336,0.136
	C339.228,256.168,343.404,251.992,343.404,246.844z"/>
<path style="fill:#FFD7CC;" d="M252.316,414.652c10.58-14.072,23.868-44.524,23.868-44.524l5.848-43.168
	c-8.144,3.448-16.904,5.34-26.032,5.34c-14.212,0-27.524-4.564-39.004-12.504l3.844,28.332l1.196,8.812l0,0L252.316,414.652z"/>
<path style="fill:#F2CCC2;" d="M291.652,344.528l3.352-24.732c-4.104,2.84-8.44,5.248-12.972,7.164l-5.848,43.168
	c0,0-13.284,30.452-23.868,44.524l3.684,7.02l33.964-64.728l0.008,0.004l1.196-8.82v-0.008L291.652,344.528z"/>
<path style="fill:#FFE1D9;" d="M332.744,256.032c0.864-5.564,1.336-11.288,1.336-17.148v-0.004c0,51.584-34.964,93.412-78.08,93.412
	c-2.364,0-4.684-0.176-6.992-0.424c39.832-4.236,71.084-44.228,71.084-92.988c0-12.56-2.104-24.516-5.86-35.452
	c-16.468,4.856-36.544,7.72-58.232,7.72c-0.796,0-1.576-0.024-2.368-0.032c-1.132-0.012-2.26-0.02-3.38-0.048
	c-0.084-0.004-0.168,0-0.252-0.004c0.024,0,0.044,0,0.068-0.004c-18.816-0.456-36.256-3.06-50.932-7.236
	c-12.108,8.192-20.388,20.64-21.08,40.388c0.16,3.368,0.472,6.684,0.924,9.948c3.864,28.076,18.184,51.916,38.02,65.632
	c11.48,7.936,24.792,12.504,39.004,12.504c9.132,0,17.888-1.892,26.032-5.34c4.532-1.916,8.868-4.328,12.972-7.164
	C314.4,306.384,328.516,283.296,332.744,256.032z"/>
<path style="fill:#F2D6CE;" d="M249.008,331.868c2.308,0.248,4.628,0.424,6.992,0.424c43.116,0,78.08-41.828,78.08-93.412v-0.004
	c0-0.452-0.024-0.9-0.028-1.352c-0.164-13.724-2.792-26.732-7.396-38.416c-3.856,1.572-8.012,3.016-12.424,4.32
	c3.756,10.936,5.86,22.892,5.86,35.452C320.092,287.64,288.84,327.632,249.008,331.868z"/>
<polygon style="fill:#F5F5F5;" points="171.668,387.332 179.86,388.756 202.336,392.668 194,403.332 256,452.336 318,403.332 
	309.664,392.668 332.14,388.756 340.332,387.332 332.932,382.868 328.112,379.96 289.972,356.948 289.964,356.944 256,421.672 
	252.316,414.652 222.036,356.944 222.036,356.944 183.888,379.96 179.068,382.868 "/>
<g>
	<path style="fill:#263740;" d="M256,123.856c7.34,0,14.508,0.092,21.432,0.28c3.46,0.092,6.86,0.212,10.192,0.352
		c3.328,0.14,6.588,0.308,9.768,0.496c1.592,0.096,3.16,0.196,4.708,0.3c27.508,1.888,48.408,5.664,56.528,11.392
		c5.448-5.936,8.468-12.38,8.468-19.124c0-28.296-52.572-51.424-118.976-53.188c-66.52,1.712-119.212,24.864-119.212,53.188
		c0,10.776,7.652,20.8,20.768,29.184v-4.464C149.676,129.844,197.276,123.856,256,123.856z"/>
	<path style="fill:#263740;" d="M383.092,117.552c0-7.34-3.54-14.332-9.94-20.696C379.552,103.22,383.092,110.212,383.092,117.552
		L383.092,117.552z"/>
	<path style="fill:#263740;" d="M372.92,96.636c0.06,0.056,0.128,0.112,0.184,0.172C373.048,96.748,372.98,96.692,372.92,96.636z"/>
	<path style="fill:#263740;" d="M248.448,64.356c2.1-0.048,4.212-0.076,6.336-0.088C252.656,64.276,250.544,64.308,248.448,64.356z"
		/>
</g>
<path style="fill:#1E2C33;" d="M367.092,117.556c0,6.744-3.016,13.188-8.468,19.124c2.4,1.692,3.704,3.556,3.704,5.592v0.008v4.456
	c13.112-8.384,20.764-18.404,20.764-29.18l0,0c0-7.34-3.54-14.332-9.94-20.696c-0.016-0.016-0.032-0.032-0.048-0.052
	c-0.06-0.056-0.124-0.112-0.184-0.172C353.528,77.596,308.484,64.252,256,64.252c-0.408,0-0.812,0.016-1.22,0.016
	c-2.124,0.012-4.236,0.04-6.336,0.088c-0.144,0.004-0.296,0.004-0.444,0.008c0.04,0,0.076,0.004,0.116,0.004
	C314.52,66.132,367.092,89.26,367.092,117.556z"/>
<g>
	<path style="fill:#242424;" d="M357.188,168.812C357.188,168.812,357.188,168.808,357.188,168.812c0-0.52-0.048-1.028-0.092-1.536
		l0,0C357.14,167.784,357.188,168.296,357.188,168.812z"/>
	<path style="fill:#242424;" d="M199.136,203.824c14.676,4.18,32.112,6.78,50.932,7.236c50.688-1.256,91.312-18.112,94.844-39.26
		c-19,4.92-51.712,7.324-88.908,7.324c-2.696,0-5.356-0.024-8-0.048c0.152,0,0.304-0.004,0.456-0.004
		c-43.896-0.396-80.428-4.268-93.552-11.816c-0.044,0.516-0.092,1.032-0.092,1.552c0,1.956,0.344,3.876,0.956,5.76
		C159.724,186.72,175.976,197.228,199.136,203.824z"/>
	<path style="fill:#242424;" d="M250.252,211.068c1.12,0.028,2.252,0.036,3.38,0.048
		C252.504,211.104,251.368,211.096,250.252,211.068z"/>
</g>
<path style="fill:#1A1A1A;" d="M344.908,171.804c-3.532,21.148-44.152,38.004-94.844,39.26c-0.024,0-0.044,0-0.068,0.004
	c0.084,0.004,0.168,0,0.252,0.004c1.12,0.032,2.252,0.036,3.38,0.048c0.792,0.008,1.572,0.032,2.368,0.032
	c21.688,0,41.764-2.864,58.232-7.72c4.416-1.304,8.572-2.744,12.424-4.32c6.632-2.708,12.368-5.792,17.032-9.176
	c6.4-4.644,10.752-9.836,12.548-15.376c0,0,0,0,0-0.004c0.608-1.876,0.952-3.792,0.952-5.74v-0.004c0-0.516-0.048-1.028-0.092-1.536
	C354.148,168.968,350.032,170.476,344.908,171.804z"/>
<g>
	<path style="fill:#2179A6;" d="M362.328,142.28v-0.008c0-2.04-1.304-3.9-3.704-5.592c-8.116-5.728-29.02-9.504-56.528-11.392
		C337.736,127.736,362.328,133.34,362.328,142.28z"/>
	<path style="fill:#2179A6;" d="M277.432,124.136c3.46,0.092,6.86,0.212,10.192,0.352
		C284.292,124.348,280.892,124.232,277.432,124.136z"/>
	<path style="fill:#2179A6;" d="M287.62,124.492c3.328,0.14,6.588,0.308,9.768,0.496
		C294.208,124.796,290.948,124.632,287.62,124.492z"/>
	<path style="fill:#2179A6;" d="M248.456,179.076c54.76-0.552,97.872-6.544,97.872-18.376v-18.416
		c0-11.868-43.348-17.852-98.328-18.376c2.644-0.032,5.304-0.052,8-0.052c-58.724,0-106.324,5.988-106.324,18.416v4.464v13.956
		c0,2.436,1.852,4.62,5.228,6.564C168.032,174.808,204.56,178.68,248.456,179.076z M237.704,136.08
		c1.788-1.604,10.044-4.136,18.296-4.132c8.248,0,16.508,2.536,18.296,4.132c0,9.96-3.196,29.82-18.296,34.952
		C240.896,165.9,237.704,146.04,237.704,136.08z"/>
</g>
<path style="fill:#1E7099;" d="M362.328,142.28c0-8.94-24.592-14.544-60.228-16.992c-1.548-0.108-3.12-0.208-4.708-0.3
	c-3.18-0.188-6.44-0.356-9.768-0.496s-6.728-0.26-10.192-0.352c-6.924-0.188-14.088-0.28-21.432-0.28c-2.696,0-5.356,0.02-8,0.052
	c54.98,0.524,98.328,6.508,98.328,18.376v18.416c0,11.832-43.108,17.82-97.872,18.376c-0.152,0-0.304,0.004-0.456,0.004
	c2.644,0.024,5.304,0.048,8,0.048c37.196,0,69.908-2.404,88.908-7.324c5.12-1.324,9.24-2.836,12.184-4.528l0,0
	c3.38-1.944,5.232-4.128,5.232-6.568v-0.016V146.74v-4.46H362.328z"/>
<path style="fill:#F5F5F5;" d="M274.296,136.08c-1.788-1.596-10.048-4.132-18.296-4.132c-8.252-0.004-16.508,2.528-18.296,4.132
	c0,9.96,3.192,29.82,18.296,34.952C271.1,165.9,274.296,146.04,274.296,136.08z M248.06,158.8l3.032-9.336l-7.94-5.772h9.816
	l3.032-9.336l3.036,9.336h9.816l-7.936,5.772l3.028,9.336L256,153.028L248.06,158.8z"/>
<polygon style="fill:#FFD464;" points="263.944,158.8 260.916,149.464 268.852,143.692 259.036,143.692 256,134.356 
	252.968,143.692 243.152,143.692 251.092,149.464 248.06,158.8 256,153.028 "/>
<g>
	<path style="fill:#F5F5F5;" d="M193.32,446.752c-2.876-2.564-16.124-6.62-29.376-6.62c-13.252,0-26.504,4.056-29.376,6.62
		c0,10.208,2.112,26.86,9.92,39.736c9.184,4.452,18.696,8.312,28.448,11.656C189.484,486.048,193.32,460.532,193.32,446.752z"/>
	<ellipse style="fill:#F5F5F5;" cx="220" cy="232" rx="16" ry="12"/>
</g>
<circle style="fill:#2179A6;" cx="220" cy="232" r="8"/>
<ellipse style="fill:#F5F5F5;" cx="292" cy="232" rx="16" ry="12"/>
<circle style="fill:#2179A6;" cx="292" cy="232" r="8"/>
<g>
</g>
<g>
</g>
<g>
</g>
<g>
</g>
<g>
</g>
<g>
</g>
<g>
</g>
<g>
</g>
<g>
</g>
<g>
</g>
<g>
</g>
<g>
</g>
<g>
</g>
<g>
</g>
<g>
</g>
</svg>
