<?xml version="1.0" encoding="iso-8859-1"?>
<!-- Generator: Adobe Illustrator 19.0.0, SVG Export Plug-In . SVG Version: 6.00 Build 0)  -->
<svg version="1.1" id="Layer_1" xmlns="http://www.w3.org/2000/svg" xmlns:xlink="http://www.w3.org/1999/xlink" x="0px" y="0px"
	 viewBox="0 0 512 512" style="enable-background:new 0 0 512 512;" xml:space="preserve">
<circle style="fill:#4AB8A1;" cx="256" cy="256" r="256"/>
<g>
	<path style="fill:#406A80;" d="M402.956,426.912c-0.796,0.328-1.676,0.464-2.56,0.216l-69.828-19.488
		c-2.116-0.584-3.364-2.808-2.78-4.92l0.892-3.204l-8.38-2.944c-8.412,22.656-38.064,50.928-38.064,50.928l-30.096-31.152
		l22.108,23.152l-9.876,21.624h-2.124l3.748,9l3.992,41.48c52.744-2.84,101.224-21.66,140.732-51.684L402.956,426.912z"/>
	<path style="fill:#406A80;" d="M237.624,470.124l3.752-9h-2.128l-9.872-21.624l22.436-23.5l0,0l-30.436,31.5
		c0,0-34.372-32.748-39.624-56l-8.352,2.488l2.44,8.732c0.584,2.112-0.664,4.336-2.78,4.92l-69.828,19.488
		c-2.116,0.588-4.336-0.66-4.928-2.776l-2.064-7.388L81.004,421.5l-3.496,17.924c15.392,14.984,32.664,28.024,51.428,38.78
		c-0.212-2.572-0.308-4.968-0.308-7.08c2.876-2.56,16.124-6.624,29.376-6.624s26.5,4.06,29.376,6.624
		c0,7.768-1.232,19.272-5.252,30.004c16.548,4.98,33.8,8.308,51.572,9.844L237.624,470.124z"/>
</g>
<g>
	<path style="fill:#395F73;" d="M402.956,426.912l7.768,33.008c4.604-3.5,9.064-7.176,13.42-10.972l-5.516-23.448l-12.408-4.36
		l-0.896,3.212C404.98,425.584,404.06,426.46,402.956,426.912z"/>
	<path style="fill:#395F73;" d="M328.68,399.516l1.428-5.12l-8.232-2.892h-0.012c-0.372,1.644-0.92,3.344-1.56,5.072L328.68,399.516
		z"/>
</g>
<path style="fill:#F5F5F5;" d="M221.372,447.5l30.436-31.5l0,0l0,0l0.332,0.348l30.096,31.152c0,0,29.652-28.272,38.064-50.928
	c0.64-1.724,1.188-3.424,1.56-5.072c-6.04-7-21.824-13.804-21.824-13.804l0,0l1.464,4.556h-0.02
	c0.204,0.584,0.328,1.176,0.328,1.772c0,8.824-22.392,15.972-50,15.972c-2.348,0-4.64-0.068-6.9-0.168c-0.032,0-0.068,0-0.1-0.004
	c0.008,0,0.016,0,0.024,0c-24.3-1.088-43.024-7.732-43.024-15.8c0-0.592,0.124-1.188,0.328-1.772h-0.016l1.464-4.556l0,0
	c0,0-15.784,6.804-21.836,13.804C187,414.752,221.372,447.5,221.372,447.5z"/>
<g>
	<path style="fill:#E6CBC3;" d="M202.14,382.252c-0.204,0.584-0.328,1.18-0.328,1.772c0,8.064,18.72,14.712,43.024,15.8
		c24.276-1.092,42.976-7.736,42.976-15.8c0-0.592-0.124-1.188-0.328-1.772h0.02l-8.704-27.076c-1.332,0.476-2.672,0.908-4.02,1.316
		c-0.344,0.104-0.684,0.212-1.028,0.312c-1.412,0.408-2.836,0.772-4.268,1.104c-0.384,0.088-0.768,0.188-1.152,0.272
		c-1.436,0.312-2.884,0.572-4.336,0.804c-0.368,0.06-0.736,0.132-1.104,0.188c-1.6,0.232-3.212,0.408-4.832,0.54
		c-0.216,0.016-0.424,0.048-0.64,0.064c-1.86,0.14-3.728,0.224-5.608,0.224s-3.748-0.084-5.608-0.22
		c-0.128-0.008-0.252-0.028-0.38-0.036c-0.004,0-0.008,0-0.012,0h0.004c-0.084-0.008-0.168-0.02-0.252-0.028
		c-1.62-0.132-3.228-0.308-4.832-0.54c-0.372-0.052-0.736-0.128-1.104-0.188c-1.452-0.232-2.9-0.492-4.336-0.804
		c-0.384-0.084-0.768-0.184-1.152-0.272c-1.432-0.332-2.856-0.696-4.268-1.104c-0.344-0.1-0.684-0.208-1.028-0.312
		c-1.468-0.444-2.92-0.924-4.368-1.448c-0.268-0.096-0.536-0.196-0.808-0.296c-1.532-0.572-3.052-1.184-4.56-1.84
		c-0.172-0.076-0.344-0.148-0.52-0.228c-1.624-0.72-3.228-1.484-4.816-2.296c-0.06-0.032-0.12-0.06-0.18-0.092
		c-0.344-0.176-0.696-0.34-1.036-0.52l-8.976,27.92l-1.464,4.556H202.14z"/>
	<path style="fill:#E6CBC3;" d="M251.812,399.996c-2.348,0-4.64-0.076-6.9-0.168C247.172,399.928,249.464,399.996,251.812,399.996z"
		/>
</g>
<path style="fill:#D9BFB8;" d="M289.844,350.388c-1.588,0.812-3.192,1.576-4.812,2.292c-0.176,0.08-0.356,0.156-0.532,0.232
	c-1.5,0.652-3.016,1.264-4.544,1.836c-0.272,0.104-0.544,0.204-0.82,0.304c-0.112,0.04-0.228,0.084-0.34,0.124l8.704,27.076h-0.02
	c0.204,0.584,0.328,1.18,0.328,1.772c0,8.06-18.7,14.708-42.976,15.8c-0.008,0-0.016,0-0.024,0c0.032,0,0.068,0,0.1,0.004
	c2.26,0.092,4.548,0.168,6.9,0.168c27.608,0,50-7.148,50-15.972c0-0.596-0.124-1.188-0.328-1.772h0.02l-1.464-4.556l-8.976-27.92
	c-0.344,0.18-0.692,0.344-1.036,0.52C289.964,350.328,289.904,350.356,289.844,350.388z"/>
<g>
	<path style="fill:#FFE1D9;" d="M355.812,244c12,0,16-8.908,16-19.728V180c0-10.82-16-12-16-12v44V244z"/>
	<path style="fill:#FFE1D9;" d="M234.14,357.908c-1.432-0.332-2.856-0.696-4.268-1.104
		C231.284,357.212,232.708,357.576,234.14,357.908z"/>
	<path style="fill:#FFE1D9;" d="M218.596,352.684c-1.62-0.72-3.228-1.484-4.816-2.296
		C215.368,351.2,216.972,351.964,218.596,352.684z"/>
	<path style="fill:#FFE1D9;" d="M239.628,358.984c-1.452-0.232-2.9-0.492-4.336-0.804
		C236.728,358.492,238.176,358.752,239.628,358.984z"/>
	<path style="fill:#FFE1D9;" d="M245.564,359.716c-1.62-0.132-3.228-0.308-4.832-0.54
		C242.336,359.408,243.944,359.584,245.564,359.716z"/>
	<path style="fill:#FFE1D9;" d="M228.848,356.492c-1.464-0.444-2.924-0.924-4.368-1.448
		C225.924,355.568,227.38,356.048,228.848,356.492z"/>
	<path style="fill:#FFE1D9;" d="M246.204,359.78c1.86,0.136,3.728,0.22,5.608,0.22c-0.536,0-1.068-0.056-1.604-0.068
		C248.872,359.904,247.532,359.88,246.204,359.78z"/>
	<path style="fill:#FFE1D9;" d="M208.624,347.56v-41.1v-8v-6.96c0-13.532,19.336-24.5,43.188-24.5S295,277.968,295,291.5v6.96v8
		v32.884c28.98-22.716,48.812-60.628,48.812-95.344v-76v-2.124c-0.74-2.1-1.512-4.188-2.324-6.264
		c-16.904,13.508-50.708,22.724-89.676,22.724c-0.384,0-0.764-0.016-1.148-0.016c-1.62-0.008-3.232-0.028-4.836-0.068
		c-0.004,0-0.012,0-0.016,0h0.004c-36.42-0.892-67.652-9.84-83.684-22.648c-7.812,19.968-12.2,41.792-14.32,52.396v-44
		c0,0-16,1.18-16,12v44.272c0,10.82,4,19.728,16,19.728c0,40.776,27.34,85.984,64.752,105.776c0.344,0.18,0.692,0.344,1.036,0.52
		C211.92,349.436,210.26,348.524,208.624,347.56z"/>
	<path style="fill:#FFE1D9;" d="M223.672,354.748c-1.532-0.572-3.052-1.184-4.56-1.84C220.62,353.564,222.14,354.18,223.672,354.748
		z"/>
</g>
<g>
	<polygon style="fill:#F2D6CE;" points="245.812,359.744 245.824,359.744 245.816,359.744 	"/>
	<path style="fill:#F2D6CE;" d="M343.848,165.972c-0.012-0.032-0.024-0.064-0.036-0.096V168v76
		c0,34.716-19.832,72.628-48.812,95.344v8.216c-1.636,0.964-3.296,1.876-4.976,2.736c0.344-0.176,0.696-0.34,1.036-0.52
		c37.412-19.792,64.752-65,64.752-105.776v-32C353.916,202.52,350.196,184.056,343.848,165.972z"/>
	<path style="fill:#F2D6CE;" d="M250.208,359.932c0.536,0.012,1.068,0.068,1.604,0.068c1.88,0,3.748-0.084,5.608-0.22
		c-1.86,0.136-3.728,0.212-5.608,0.212C251.276,359.992,250.744,359.944,250.208,359.932z"/>
	<path style="fill:#F2D6CE;" d="M273.752,356.804c-1.412,0.408-2.836,0.772-4.268,1.104
		C270.916,357.576,272.34,357.212,273.752,356.804z"/>
	<path style="fill:#F2D6CE;" d="M268.332,358.18c-1.436,0.312-2.884,0.572-4.336,0.804
		C265.448,358.752,266.896,358.492,268.332,358.18z"/>
	<path style="fill:#F2D6CE;" d="M262.892,359.172c-1.6,0.232-3.212,0.408-4.832,0.54
		C259.68,359.584,261.288,359.408,262.892,359.172z"/>
	<path style="fill:#F2D6CE;" d="M284.504,352.912c-1.5,0.656-3.016,1.264-4.544,1.836C281.488,354.176,283,353.568,284.504,352.912z
		"/>
	<path style="fill:#F2D6CE;" d="M274.78,356.492c1.348-0.408,2.688-0.844,4.02-1.316c0.116-0.04,0.228-0.084,0.34-0.124
		C277.696,355.572,276.244,356.048,274.78,356.492z"/>
	<path style="fill:#F2D6CE;" d="M289.844,350.388c-1.588,0.812-3.192,1.576-4.812,2.292
		C286.656,351.964,288.26,351.2,289.844,350.388z"/>
</g>
<g>
	<path style="fill:#805026;" d="M162.136,159.604c-7.336-5.864-11.512-12.528-11.512-19.604c0-0.52,0.048-1.036,0.092-1.548
		c-1.148-0.66-2.128-1.348-2.904-2.064V168v44C149.932,201.396,154.32,179.572,162.136,159.604z"/>
	<path style="fill:#805026;" d="M343.812,165.868v-8.24c-0.736,0.672-1.508,1.332-2.324,1.984c0.812,2.076,1.584,4.164,2.324,6.264
		c0.012,0.032,0.024,0.064,0.036,0.096C343.836,165.936,343.824,165.904,343.812,165.868z"/>
</g>
<path style="fill:#734822;" d="M353,140L353,140C353,140.004,353,140.004,353,140c0,6.296-3.304,12.264-9.188,17.628v8.24
	c0.012,0.036,0.024,0.068,0.036,0.104c6.348,18.084,10.068,36.548,11.964,46.028v-44v-31.596c-0.78,0.716-1.756,1.404-2.904,2.064
	C352.952,138.976,353,139.488,353,140z"/>
<path style="fill:#805026;" d="M279.14,355.048c0.272-0.1,0.548-0.2,0.82-0.304c1.528-0.572,3.044-1.18,4.544-1.836
	c0.176-0.076,0.356-0.152,0.532-0.232c1.62-0.72,3.224-1.48,4.812-2.292c0.06-0.032,0.12-0.06,0.18-0.092
	c1.68-0.864,3.336-1.776,4.976-2.736v-8.216v-32.884v-8v-6.96c0-13.532-19.336-24.5-43.188-24.5s-43.188,10.968-43.188,24.5v6.96v8
	v41.104c1.636,0.964,3.296,1.876,4.976,2.736c0.06,0.032,0.12,0.06,0.18,0.092c1.588,0.812,3.196,1.576,4.816,2.296
	c0.172,0.076,0.344,0.152,0.52,0.228c1.504,0.656,3.028,1.268,4.56,1.84c0.268,0.1,0.536,0.2,0.808,0.296
	c1.444,0.524,2.9,1,4.368,1.448c0.344,0.104,0.684,0.212,1.028,0.312c1.412,0.408,2.836,0.772,4.268,1.104
	c0.384,0.088,0.768,0.188,1.152,0.272c1.436,0.312,2.884,0.572,4.336,0.804c0.368,0.06,0.736,0.132,1.104,0.188
	c1.6,0.232,3.212,0.408,4.832,0.54c0.084,0.008,0.168,0.02,0.252,0.028c0.004,0,0.008,0,0.008,0c0.128,0.012,0.252,0.028,0.38,0.036
	c1.328,0.1,2.668,0.124,4.004,0.152c0.536,0.012,1.068,0.06,1.604,0.06c1.88,0,3.748-0.072,5.608-0.212
	c0.216-0.016,0.424-0.048,0.64-0.064c1.62-0.132,3.228-0.308,4.832-0.54c0.372-0.052,0.736-0.128,1.104-0.188
	c1.452-0.232,2.9-0.492,4.336-0.804c0.384-0.084,0.768-0.184,1.152-0.272c1.432-0.332,2.856-0.696,4.268-1.104
	c0.344-0.1,0.684-0.208,1.028-0.312C276.244,356.048,277.696,355.572,279.14,355.048z M226.192,295.836
	c0.896-4.328,12.296-5.376,25.62-5.376s24.728,1.048,25.616,5.376c0.9,4.324-10.5,10.624-25.616,10.624
	S225.296,300.16,226.192,295.836z"/>
<path style="fill:#CC9B8E;" d="M251.812,306.46c15.116,0,26.516-6.3,25.616-10.624c-0.888-4.328-12.292-5.376-25.616-5.376
	s-24.724,1.048-25.62,5.376C225.296,300.16,236.696,306.46,251.812,306.46z"/>
<path style="fill:#335466;" d="M103.228,427.128l69.828-19.488c2.116-0.584,3.364-2.808,2.78-4.92l-2.44-8.732l-0.812-2.916
	c-0.592-2.112-2.812-3.36-4.928-2.772l-69.828,19.484c-2.116,0.588-3.364,2.812-2.78,4.924l1.188,4.256l2.064,7.388
	C98.892,426.468,101.112,427.716,103.228,427.128z M158.6,397.252c2.208,0,4,1.792,4,4s-1.792,4-4,4s-4-1.792-4-4
	S156.392,397.252,158.6,397.252z M143.16,401.556c2.212,0,4.004,1.792,4.004,4.004s-1.792,4.004-4.004,4.004
	c-2.212,0-4.004-1.792-4.004-4.004S140.948,401.556,143.16,401.556z M127.72,405.864c2.208,0,4,1.792,4,4s-1.792,4-4,4
	c-2.208,0-4-1.792-4-4S125.512,405.864,127.72,405.864z M112.284,410.168c2.212,0,4.004,1.792,4.004,4.004s-1.792,4.004-4.004,4.004
	s-4.004-1.792-4.004-4.004S110.072,410.168,112.284,410.168z"/>
<g>
	<circle style="fill:#FFD464;" cx="143.16" cy="405.56" r="4"/>
	<circle style="fill:#FFD464;" cx="158.6" cy="401.24" r="4"/>
	<circle style="fill:#FFD464;" cx="127.72" cy="409.88" r="4"/>
	<circle style="fill:#FFD464;" cx="112.28" cy="414.16" r="4"/>
</g>
<path style="fill:#335466;" d="M327.788,402.72c-0.584,2.112,0.664,4.336,2.78,4.92l69.828,19.488
	c0.884,0.248,1.764,0.112,2.56-0.216c1.104-0.452,2.02-1.328,2.364-2.56l0.896-3.212l2.356-8.432
	c0.584-2.112-0.664-4.336-2.78-4.924L335.964,388.3c-2.116-0.588-4.336,0.66-4.928,2.772l-0.928,3.32l-1.428,5.12L327.788,402.72z
	 M391.34,410.168c2.212,0,4.004,1.792,4.004,4.004s-1.792,4.004-4.004,4.004s-4.004-1.792-4.004-4.004
	S389.128,410.168,391.34,410.168z M375.908,405.864c2.208,0,4,1.792,4,4s-1.792,4-4,4s-4-1.792-4-4S373.7,405.864,375.908,405.864z
	 M360.464,401.556c2.212,0,4.004,1.792,4.004,4.004s-1.792,4.004-4.004,4.004s-4.004-1.792-4.004-4.004
	S358.252,401.556,360.464,401.556z M345.024,397.252c2.208,0,4,1.792,4,4s-1.792,4-4,4s-4-1.792-4-4
	S342.816,397.252,345.024,397.252z"/>
<g>
	<circle style="fill:#FFD464;" cx="360.48" cy="405.56" r="4"/>
	<circle style="fill:#FFD464;" cx="345.04" cy="401.24" r="4"/>
	<circle style="fill:#FFD464;" cx="375.92" cy="409.88" r="4"/>
	<circle style="fill:#FFD464;" cx="391.32" cy="414.16" r="4"/>
</g>
<path style="fill:#295166;" d="M266,470.124l-3.748-9h2.124l9.876-21.624l-22.108-23.152L251.812,416l0,0l-22.436,23.5l9.872,21.624
	h2.128l-3.752,9l-3.928,40.848C241.052,511.608,248.48,512,256,512c4.696,0,9.356-0.144,13.992-0.396L266,470.124z"/>
<path style="fill:#F5F5F5;" d="M158,464.5c-13.252,0-26.5,4.064-29.376,6.624c0,2.108,0.096,4.508,0.308,7.08
	c16.652,9.544,34.46,17.288,53.192,22.928c4.02-10.732,5.252-22.236,5.252-30.004C184.5,468.56,171.252,464.5,158,464.5z"/>
<g>
	<path style="fill:#263740;" d="M358.14,117.92v0.008c13.112-8.384,20.764-18.408,20.764-29.184l0,0
		C378.904,99.516,371.252,109.536,358.14,117.92z"/>
	<path style="fill:#263740;" d="M244.496,35.54c1.408-0.032,2.828-0.044,4.244-0.06C247.32,35.496,245.904,35.508,244.496,35.54z"/>
	<path style="fill:#263740;" d="M251.812,95.048c7.34,0,14.508,0.092,21.428,0.28c3.46,0.092,6.86,0.212,10.188,0.352
		c34.54,1.468,61.508,5.488,71,12.188c5.452-5.94,8.472-12.384,8.472-19.128c0-28.288-52.54-51.408-118.916-53.18
		c-66.54,1.696-119.264,24.852-119.264,53.184c0,10.776,7.652,20.8,20.768,29.184v-4.46
		C145.488,101.036,193.088,95.048,251.812,95.048z"/>
</g>
<path style="fill:#1E2C33;" d="M362.904,88.74c0,6.744-3.02,13.192-8.472,19.128c2.404,1.696,3.708,3.56,3.708,5.6v0.016v4.436
	c13.112-8.384,20.764-18.404,20.764-29.18l0,0c0.004-29.436-56.9-53.304-127.092-53.304c-1.032,0-2.048,0.032-3.072,0.044
	c-1.416,0.02-2.84,0.028-4.244,0.06c-0.228,0.004-0.456,0.004-0.684,0.012c0.06,0,0.116,0.004,0.176,0.008
	C310.364,37.332,362.904,60.452,362.904,88.74z"/>
<g>
	<path style="fill:#242424;" d="M250.664,182.32c-1.62-0.008-3.236-0.024-4.836-0.068
		C247.432,182.292,249.044,182.312,250.664,182.32z"/>
	<path style="fill:#242424;" d="M340.72,142.996c-19.004,4.92-51.716,7.324-88.908,7.324c-1.652,0-3.272-0.02-4.9-0.032
		c-0.384-0.004-0.764-0.004-1.144-0.008c-0.648-0.008-1.308-0.004-1.952-0.012c0.096,0,0.188-0.004,0.284-0.004
		c-43.82-0.404-80.272-4.276-93.38-11.812c-0.044,0.516-0.092,1.028-0.092,1.548c0,7.076,4.172,13.74,11.512,19.604
		c16.032,12.808,47.26,21.756,83.684,22.648C296.536,181.008,337.184,164.148,340.72,142.996z"/>
	<path style="fill:#242424;" d="M353,140c0-0.512-0.048-1.024-0.092-1.532l0,0C352.952,138.98,353,139.488,353,140L353,140z"/>
</g>
<path style="fill:#1A1A1A;" d="M353,140.004L353,140.004c0-0.516-0.048-1.024-0.092-1.536c-2.944,1.692-7.064,3.204-12.188,4.528
	c-3.536,21.152-44.184,38.012-94.904,39.256h-0.004c0.004,0,0.012,0,0.016,0c1.6,0.044,3.216,0.06,4.836,0.068
	c0.384,0,0.764,0.016,1.148,0.016c38.972,0,72.772-9.216,89.676-22.724c0.816-0.652,1.588-1.312,2.324-1.984
	C349.696,152.264,353,146.296,353,140.004z"/>
<g>
	<path style="fill:#2179A6;" d="M273.24,95.328c3.46,0.092,6.86,0.212,10.188,0.352C280.1,95.54,276.7,95.424,273.24,95.328z"/>
	<path style="fill:#2179A6;" d="M358.14,113.484v-0.016c0-2.04-1.304-3.904-3.708-5.6c-9.492-6.696-36.46-10.72-71-12.188
		C326.712,97.52,358.14,103.368,358.14,113.484z"/>
	<path style="fill:#2179A6;" d="M245.764,150.28c0.38,0.004,0.764,0.004,1.144,0.008
		C246.532,150.284,246.144,150.284,245.764,150.28z"/>
	<path style="fill:#2179A6;" d="M244.096,150.264c54.844-0.54,98.044-6.524,98.044-18.372v-18.416
		c0-11.864-43.348-17.856-98.328-18.38c2.644-0.024,5.304-0.048,8-0.048c-58.724,0-106.324,5.988-106.324,18.42v4.46v13.96
		c0,1.608,0.812,3.104,2.324,4.496c0.78,0.716,1.756,1.404,2.904,2.064C163.824,145.988,200.276,149.86,244.096,150.264z
		 M233.516,107.264c1.788-1.596,10.044-4.128,18.296-4.128c8.248,0,16.508,2.532,18.296,4.128c0,9.96-3.196,29.82-18.296,34.952
		C236.708,137.084,233.516,117.224,233.516,107.264z"/>
</g>
<path style="fill:#1E7099;" d="M358.14,113.484c0-10.116-31.428-15.964-74.708-17.8c-3.328-0.14-6.728-0.26-10.188-0.352
	c-6.92-0.188-14.088-0.28-21.428-0.28c-2.696,0-5.356,0.024-8,0.048c54.98,0.524,98.328,6.516,98.328,18.38v18.416
	c0,11.848-43.2,17.832-98.044,18.372c-0.096,0-0.188,0.004-0.284,0.004c0.644,0.008,1.304,0.008,1.952,0.012
	c0.38,0.004,0.764,0.004,1.144,0.008c1.628,0.012,3.248,0.032,4.9,0.032c37.192,0,69.908-2.404,88.908-7.324
	c5.12-1.324,9.24-2.836,12.188-4.528l0,0c1.148-0.66,2.124-1.348,2.904-2.064c1.516-1.392,2.328-2.892,2.328-4.5v-0.016v-13.96
	v-0.012V113.484z"/>
<path style="fill:#F5F5F5;" d="M270.108,107.264c-1.788-1.596-10.048-4.128-18.296-4.128c-8.252,0-16.508,2.532-18.296,4.128
	c0,9.96,3.192,29.82,18.296,34.952C266.912,137.084,270.108,117.224,270.108,107.264z M248.78,114.884l3.032-9.336l3.036,9.336
	h9.816l-7.94,5.772l3.032,9.336l-7.944-5.772l-7.94,5.772l3.036-9.336l-7.944-5.772H248.78z"/>
<polygon style="fill:#FFD464;" points="243.872,129.992 251.812,124.22 259.756,129.992 256.724,120.656 264.664,114.884 
	254.848,114.884 251.812,105.548 248.78,114.884 238.964,114.884 246.908,120.656 "/>
<ellipse style="fill:#F5F5F5;" cx="212" cy="200" rx="16" ry="12"/>
<circle style="fill:#734822;" cx="212" cy="200" r="8"/>
<ellipse style="fill:#F5F5F5;" cx="292" cy="200" rx="16" ry="12"/>
<circle style="fill:#734822;" cx="292" cy="200" r="8"/>
<g>
</g>
<g>
</g>
<g>
</g>
<g>
</g>
<g>
</g>
<g>
</g>
<g>
</g>
<g>
</g>
<g>
</g>
<g>
</g>
<g>
</g>
<g>
</g>
<g>
</g>
<g>
</g>
<g>
</g>
</svg>
