<?xml version="1.0" encoding="iso-8859-1"?>
<!-- Generator: Adobe Illustrator 19.0.0, SVG Export Plug-In . SVG Version: 6.00 Build 0)  -->
<svg version="1.1" id="Layer_1" xmlns="http://www.w3.org/2000/svg" xmlns:xlink="http://www.w3.org/1999/xlink" x="0px" y="0px"
	 viewBox="0 0 512 512" style="enable-background:new 0 0 512 512;" xml:space="preserve">
<circle style="fill:#E16B5A;" cx="256" cy="256" r="256"/>
<g>
	<path style="fill:#242424;" d="M344,136l-4,24c-4-4-37.608-12-84-12c-5.384,0-10.572,0.116-15.588,0.316
		c15.444,12.084,61.54,33.064,83.588,62.952c7.324,9.928,12,20.836,12,32.732v27.916c0,10.932-11.188,33.592-27.552,52.612
		c8.496,4.336,16.36,9.676,23.38,15.896C371.936,294.904,368,213.46,368,188c0-31.688-14.008-60.02-36.324-79.712
		c-0.104,0.756-0.196,1.512-0.352,2.252C339.016,116.384,344,125.596,344,136z"/>
	<path style="fill:#242424;" d="M176,240c0-15.916,63.312-71.408,63.968-91.672C202.016,149.86,175.524,156.476,172,160l-4-24
		c0-10.404,4.984-19.616,12.672-25.46c-0.152-0.74-0.248-1.496-0.348-2.252C158.008,127.98,144,156.312,144,188
		c0,25.46-3.94,106.904,36.172,152.424c7.02-6.22,14.884-11.556,23.38-15.896C187.188,305.508,176,282.848,176,271.916V240z"/>
</g>
<path style="fill:#FFD7CC;" d="M374.156,420.644c-12.816-8.016-35.856-17.58-60.216-25.252c0.016,0.204,0.06,0.4,0.06,0.608
	c0,4.42-3.58,8-8,8c-2.404,0-4.532-1.08-6-2.76v3.044c0.644-0.168,1.304-0.284,2-0.284c4.42,0,8,3.58,8,8s-3.58,8-8,8
	c-3.152,0-5.852-1.84-7.156-4.488C287.444,420.56,272.832,424,256,424c-2.04,0-4.032-0.072-6-0.164c21.452-1.072,38-7.744,38-15.836
	v-64.304c-10.156,7.36-21.104,12.156-32,12.156c-1.032,0-2.06-0.056-3.092-0.152c-0.94-0.076-1.884-0.204-2.824-0.348
	c-0.028-0.004-0.056-0.008-0.084-0.012h0.004c-13.344-2.056-26.532-10.66-38.004-21.82v54.536c-0.904,0.22-1.804,0.44-2.712,0.668
	C212.064,389.98,214,392.756,214,396c0,4.42-3.58,8-8,8s-8-3.58-8-8c0-1.756,0.584-3.368,1.544-4.688
	c-29.064,8.12-58.556,19.828-73.756,29.328c-13.896,8.688-20.272,22.96-23.224,40.292c12.076,9.056,25.004,17.016,38.6,23.852
	c2.328-15.936,8.844-38.796,25.216-44.284c11.528,15.972,44.612,24.628,79.576,26.028c-1.228-1.88-1.956-4.116-1.956-6.528
	c0-6.628,5.372-12,12-12c6.628,0,12,5.372,12,12c0,2.412-0.728,4.648-1.952,6.532c34.992-1.388,68.112-10.048,79.648-26.032
	c16.368,5.488,22.848,28.344,25.156,44.276c9.572-4.816,18.828-10.168,27.668-16.104
	C396.168,447.856,390.076,430.596,374.156,420.644z M202,412c0-4.42,3.58-8,8-8s8,3.58,8,8s-3.58,8-8,8S202,416.42,202,412z
	 M222,436c-4.42,0-8-3.58-8-8s3.58-8,8-8s8,3.58,8,8S226.42,436,222,436z M238,448c-4.42,0-8-3.58-8-8s3.58-8,8-8s8,3.58,8,8
	S242.42,448,238,448z M274,448c-4.42,0-8-3.58-8-8s3.58-8,8-8s8,3.58,8,8S278.42,448,274,448z M290,436c-4.42,0-8-3.58-8-8
	s3.58-8,8-8s8,3.58,8,8S294.42,436,290,436z"/>
<path style="fill:#F2CCC2;" d="M409.416,460.948c-1.228-7.176-3.012-13.852-5.708-19.792c-3.82-8.416-9.4-15.42-17.552-20.516
	c-15.164-9.476-44.608-21.148-73.648-29.264c0.82,1.152,1.316,2.528,1.432,4.016c24.36,7.672,47.4,17.24,60.216,25.252
	c15.92,9.952,22.012,27.212,24.36,48.028C402.216,466.188,405.856,463.616,409.416,460.948z"/>
<path style="fill:#C23527;" d="M345.696,440.5c-11.536,15.98-44.656,24.644-79.648,26.032C263.908,469.816,260.216,472,256,472
	s-7.908-2.184-10.048-5.472c-34.964-1.396-68.048-10.056-79.576-26.028c-16.372,5.488-22.888,28.348-25.216,44.284
	C175.708,502.156,214.692,512,256,512c41.312,0,80.3-9.844,114.852-27.224C368.544,468.844,362.064,445.988,345.696,440.5z"/>
<path style="fill:#F2CCC2;" d="M288,408c0,8.092-16.548,14.764-38,15.836c1.968,0.092,3.96,0.164,6,0.164
	c16.832,0,31.444-3.44,38.844-8.488C294.32,414.448,294,413.264,294,412c0-3.724,2.556-6.824,6-7.716v-3.044
	c-1.228-1.408-2-3.224-2-5.24c0-3.22,1.912-5.976,4.652-7.244c-0.888-0.224-1.772-0.44-2.652-0.656v-54.58
	c-3.828,3.724-7.844,7.168-12,10.18V408z"/>
<g>
	<path style="fill:#FFE1D9;" d="M324,271.916v-60.648c-22.048-29.888-68.144-50.868-83.588-62.952
		c-0.144,0.004-0.3,0.008-0.444,0.016C239.312,168.592,176,224.084,176,240v31.916c0,10.932,11.188,33.592,27.552,52.612
		c2.684,3.12,5.512,6.132,8.448,8.988c11.472,11.16,24.66,19.768,38.004,21.824C287.588,349.54,324,291.652,324,271.916z"/>
	<path style="fill:#FFE1D9;" d="M252.908,355.7c-0.94-0.084-1.884-0.204-2.824-0.348C251.024,355.496,251.968,355.624,252.908,355.7
		z"/>
</g>
<path style="fill:#F2D6CE;" d="M336,244c0-11.896-4.676-22.804-12-32.732v60.648c0,19.736-36.412,77.624-73.996,83.428H250
	c0.028,0.004,0.056,0.008,0.084,0.012c0.94,0.14,1.884,0.26,2.824,0.348c1.032,0.096,2.06,0.152,3.092,0.152
	c10.896,0,21.844-4.796,32-12.156c4.156-3.012,8.172-6.456,12-10.18c2.936-2.856,5.764-5.868,8.448-8.988
	C324.812,305.508,336,282.848,336,271.916V244z"/>
<g>
	<path style="fill:#FFD464;" d="M206,404c4.42,0,8-3.58,8-8c0-3.244-1.936-6.02-4.712-7.276C208.284,388.268,207.176,388,206,388
		c-2.66,0-5.004,1.312-6.456,3.312c-0.96,1.32-1.544,2.932-1.544,4.688C198,400.42,201.58,404,206,404z"/>
	<circle style="fill:#FFD464;" cx="210" cy="412" r="8"/>
	<circle style="fill:#FFD464;" cx="222" cy="428" r="8"/>
	<circle style="fill:#FFD464;" cx="238" cy="440" r="8"/>
	<path style="fill:#FFD464;" d="M298,396c0,2.016,0.772,3.832,2,5.24c1.468,1.676,3.596,2.76,6,2.76c4.42,0,8-3.58,8-8
		c0-0.208-0.044-0.404-0.06-0.608c-0.116-1.492-0.612-2.868-1.432-4.016C311.056,389.34,308.692,388,306,388
		c-1.2,0-2.328,0.284-3.348,0.756C299.912,390.024,298,392.78,298,396z"/>
	<path style="fill:#FFD464;" d="M294,412c0,1.264,0.32,2.448,0.844,3.512C296.148,418.16,298.848,420,302,420c4.42,0,8-3.58,8-8
		s-3.58-8-8-8c-0.696,0-1.356,0.116-2,0.284C296.556,405.176,294,408.276,294,412z"/>
	<circle style="fill:#FFD464;" cx="290" cy="428" r="8"/>
	<circle style="fill:#FFD464;" cx="274" cy="440" r="8"/>
	<path style="fill:#FFD464;" d="M256,472c4.216,0,7.908-2.184,10.048-5.468c1.224-1.884,1.952-4.12,1.952-6.532
		c0-6.628-5.372-12-12-12s-12,5.372-12,12c0,2.412,0.728,4.648,1.952,6.528C248.092,469.816,251.784,472,256,472z"/>
	<path style="fill:#FFD464;" d="M168,136l4,24c3.524-3.524,30.016-10.14,67.968-11.672c0.144-0.004,0.3-0.008,0.444-0.016
		C245.428,148.116,250.616,148,256,148c46.392,0,80,8,84,12l4-24c0-10.404-4.984-19.616-12.676-25.46
		c0.152-0.74,0.248-1.496,0.352-2.252C331.868,106.88,332,105.46,332,104c0-17.672-14.328-32-32-32c-0.348,0-0.684,0.04-1.028,0.052
		C294.668,46.868,277.08,28,256,28c-21.076,0-38.668,18.868-42.972,44.052C212.684,72.04,212.348,72,212,72
		c-17.672,0-32,14.328-32,32c0,1.46,0.132,2.884,0.324,4.288c0.104,0.756,0.196,1.512,0.348,2.252
		C172.984,116.384,168,125.596,168,136z M196,104c0-6.628,5.372-12,12-12s12,5.372,12,12s-5.372,12-12,12S196,110.628,196,104z
		 M292,104c0-6.628,5.372-12,12-12s12,5.372,12,12s-5.372,12-12,12S292,110.628,292,104z M181,145.612
		c-0.356,0.264-0.772,0.388-1.184,0.388c-0.616,0-1.22-0.28-1.612-0.816c-0.656-0.892-0.464-2.14,0.424-2.796
		c12.388-9.1,38.42-13.724,77.372-13.724s64.98,4.616,77.372,13.724c0.896,0.656,1.084,1.912,0.428,2.796
		c-0.66,0.904-1.916,1.084-2.796,0.428c-11.692-8.592-36.924-12.948-75.004-12.948S192.684,137.02,181,145.612z M244,76
		c0-15.464,5.372-28,12-28c6.628,0,12,12.536,12,28s-5.372,28-12,28S244,91.464,244,76z"/>
</g>
<g>
	<ellipse style="fill:#CC584C;" cx="256" cy="76" rx="12" ry="28"/>
	<circle style="fill:#CC584C;" cx="208" cy="104" r="12"/>
	<circle style="fill:#CC584C;" cx="304" cy="104" r="12"/>
</g>
<g>
	<path style="fill:#F5F5F5;" d="M331.004,145.612c0.88,0.656,2.136,0.476,2.796-0.428c0.656-0.884,0.468-2.14-0.428-2.796
		c-12.392-9.108-38.42-13.724-77.372-13.724s-64.984,4.624-77.372,13.724c-0.888,0.656-1.08,1.904-0.424,2.796
		c0.392,0.536,0.996,0.816,1.612,0.816c0.412,0,0.828-0.124,1.184-0.388c11.684-8.592,36.92-12.948,75-12.948
		S319.312,137.02,331.004,145.612z"/>
	<ellipse style="fill:#F5F5F5;" cx="216" cy="216" rx="16" ry="12"/>
</g>
<circle style="fill:#242424;" cx="216" cy="216" r="8"/>
<ellipse style="fill:#F5F5F5;" cx="288" cy="216" rx="16" ry="12"/>
<circle style="fill:#242424;" cx="288" cy="216" r="8"/>
<g>
</g>
<g>
</g>
<g>
</g>
<g>
</g>
<g>
</g>
<g>
</g>
<g>
</g>
<g>
</g>
<g>
</g>
<g>
</g>
<g>
</g>
<g>
</g>
<g>
</g>
<g>
</g>
<g>
</g>
</svg>
