<?xml version="1.0" encoding="iso-8859-1"?>
<!-- Generator: Adobe Illustrator 19.0.0, SVG Export Plug-In . SVG Version: 6.00 Build 0)  -->
<svg version="1.1" id="Layer_1" xmlns="http://www.w3.org/2000/svg" xmlns:xlink="http://www.w3.org/1999/xlink" x="0px" y="0px"
	 viewBox="0 0 512 512" style="enable-background:new 0 0 512 512;" xml:space="preserve">
<circle style="fill:#4AB8A1;" cx="256" cy="256" r="256"/>
<path style="fill:#E6CBC3;" d="M283.864,377.928l-7.072-21.992c-0.516,0.168-1.036,0.312-1.556,0.472
	c-0.492,0.152-0.98,0.304-1.472,0.444c-1.244,0.356-2.5,0.672-3.756,0.972c-0.548,0.128-1.092,0.268-1.64,0.388
	c-1.228,0.264-2.464,0.484-3.704,0.688c-0.576,0.096-1.144,0.208-1.724,0.292c-1.288,0.184-2.588,0.316-3.888,0.436
	c-0.524,0.048-1.04,0.124-1.568,0.16c-1.82,0.136-3.648,0.212-5.484,0.212s-3.664-0.076-5.484-0.208
	c-0.524-0.036-1.04-0.112-1.56-0.16c-1.304-0.12-2.608-0.252-3.9-0.436c-0.568-0.084-1.132-0.192-1.696-0.288
	c-1.252-0.208-2.5-0.428-3.744-0.696c-0.532-0.116-1.056-0.248-1.584-0.376c-1.284-0.304-2.56-0.628-3.828-0.992
	c-0.46-0.132-0.92-0.276-1.38-0.416c-1.348-0.412-2.684-0.852-4.012-1.328c-0.368-0.132-0.736-0.268-1.104-0.408
	c-1.436-0.536-2.856-1.112-4.268-1.724c-0.256-0.112-0.512-0.22-0.764-0.332c-1.396-0.62-2.78-1.276-4.152-1.968l-5.772,17.948
	L252,404L283.864,377.928z"/>
<path style="fill:#D9BFB8;" d="M284.412,353.032c-1.332,0.576-2.676,1.116-4.028,1.624c-0.424,0.16-0.844,0.316-1.268,0.468
	c-0.772,0.276-1.544,0.556-2.324,0.812l7.072,21.992l11.084-9.068l-5.796-18.028c-1.224,0.612-2.456,1.196-3.7,1.748
	C285.104,352.736,284.76,352.884,284.412,353.032z"/>
<g>
	<path style="fill:#E6E6E6;" d="M87.424,448.572c0.52,0.456,1.044,0.908,1.568,1.356c-0.284-0.66-0.576-1.252-0.884-1.74
		L87.424,448.572z"/>
	<path style="fill:#E6E6E6;" d="M415.892,448.192c-1.272,2.016-2.34,5.572-3.236,10.212c2.976-2.304,5.9-4.668,8.768-7.1
		L415.892,448.192z"/>
	<path style="fill:#E6E6E6;" d="M252,488c55.104,0,99.784-40.464,99.992-75.756L316,392l-20,35v17l-7.372-4.096L284,448
		l-13.016-17.9l-0.028-0.016C268.368,438.136,260.908,444,252,444s-16.368-5.864-18.956-13.912l-0.028,0.016L220,448l-4.628-8.096
		L208,444v-17l-20-35l-35.992,20.244C152.216,447.536,196.896,488,252,488z"/>
</g>
<g>
	<polygon style="fill:#F5F5F5;" points="220,448 233.016,430.1 215.372,439.904 	"/>
	<path style="fill:#F5F5F5;" d="M208,404l25.044,13.912C235.632,409.864,243.092,404,252,404l-43.244-35.384L208,368l-20,24l20,35
		V404z"/>
	<path style="fill:#F5F5F5;" d="M252,404c8.908,0,16.368,5.864,18.956,13.912L296,404v23l20-35l-20-24l-1.052,0.86l-11.084,9.068
		L252,404z"/>
	<polygon style="fill:#F5F5F5;" points="284,448 288.628,439.904 270.984,430.1 	"/>
</g>
<g>
	<path style="fill:#242424;" d="M270.956,417.912C268.368,409.864,260.908,404,252,404s-16.368,5.864-18.956,13.912L208,404v23v17
		l7.372-4.096l17.644-9.8l0.028-0.016C235.632,438.136,243.092,444,252,444c8.908,0,16.368-5.864,18.956-13.912l0.028,0.016
		l17.644,9.8L296,444v-17v-23L270.956,417.912z"/>
	<path style="fill:#242424;" d="M416,448l-64-36c0,0.08-0.008,0.164-0.008,0.244C351.784,447.536,307.104,488,252,488
		s-99.784-40.464-99.992-75.756c0-0.08-0.008-0.164-0.008-0.244l-64,36c0.036,0.056,0.072,0.132,0.108,0.192
		c0.308,0.488,0.6,1.08,0.884,1.74C133.828,488.58,192.16,512,256,512c59.032,0,113.352-20.032,156.656-53.6
		c0.896-4.64,1.964-8.196,3.236-10.212C415.928,448.132,415.964,448.056,416,448z"/>
</g>
<g>
	<path style="fill:#FFE1D9;" d="M356,244c12,0,16-8.908,16-19.724V180c0-10.82-16-12-16-12v40V244z"/>
	<path style="fill:#FFE1D9;" d="M208.812,306.46v-8v-6.96c0-13.532,19.336-24.5,43.188-24.5s43.188,10.968,43.188,24.5v6.96v8
		v32.888C324.168,316.632,344,278.72,344,244v-76v-20.324c-2.272-6.512-5.032-12.62-8.472-17.788c0.108,1.984,0.008,3.864-0.2,5.68
		c-0.02,0.172-0.032,0.348-0.056,0.516c-2.152,16.552-16.356,26.072-23.832,27.412l0,0h-0.004c0.04-0.096,0.06-0.192,0.096-0.288
		c0.552-1.444,1.012-2.876,1.38-4.296l0,0c5.196-20.156-9.352-37.172-50.228-21.668c-28.888,10.96-80.832,4.048-84.568-17.568
		c-18.596,17.12-24.404,49.956-27.612,71.952c-0.928,6.592-1.696,12.328-2.504,16.372v-40c0,0-16,1.18-16,12v44.276
		c0,10.816,4,19.724,16,19.724c0,41.132,27.824,86.76,65.74,106.272c-1.66-0.856-3.304-1.76-4.928-2.712V306.46z"/>
	<path style="fill:#FFE1D9;" d="M234.032,357.836c-1.284-0.304-2.56-0.624-3.828-0.992
		C231.472,357.212,232.748,357.536,234.032,357.836z"/>
	<path style="fill:#FFE1D9;" d="M239.36,358.908c-1.252-0.208-2.504-0.428-3.744-0.696C236.856,358.48,238.104,358.7,239.36,358.908
		z"/>
	<path style="fill:#FFE1D9;" d="M252,360c-1.836,0-3.668-0.076-5.484-0.208C248.336,359.924,250.164,360,252,360z"/>
	<path style="fill:#FFE1D9;" d="M228.824,356.428c-1.344-0.412-2.684-0.852-4.012-1.328
		C226.14,355.576,227.476,356.02,228.824,356.428z"/>
	<path style="fill:#FFE1D9;" d="M223.708,354.692c-1.432-0.54-2.856-1.112-4.268-1.724
		C220.852,353.58,222.276,354.156,223.708,354.692z"/>
	<path style="fill:#FFE1D9;" d="M214.056,350.432c0.156,0.08,0.312,0.156,0.472,0.236c1.372,0.692,2.756,1.348,4.152,1.968
		C217.12,351.944,215.58,351.212,214.056,350.432z"/>
	<path style="fill:#FFE1D9;" d="M244.952,359.632c-1.304-0.12-2.608-0.252-3.9-0.436
		C242.348,359.38,243.648,359.512,244.952,359.632z"/>
</g>
<g>
	<path style="fill:#F2D6CE;" d="M355.34,204.276c-0.084-0.504-0.168-1.064-0.252-1.596c-0.132-0.856-0.268-1.728-0.404-2.656
		c-1.26-8.564-2.7-19.972-5.136-31.72c-0.008-0.036-0.016-0.076-0.024-0.112c-0.472-2.264-0.976-4.54-1.528-6.808v-0.004
		c-1.132-4.66-2.452-9.268-4-13.7V168v76c0,34.72-19.832,72.632-48.812,95.348v8.216C330.56,326.772,356,283.328,356,244v-36
		C355.776,206.888,355.56,205.624,355.34,204.276z"/>
	<path style="fill:#F2D6CE;" d="M294.82,347.776c-1.444,0.84-2.908,1.648-4.384,2.412
		C291.916,349.42,293.376,348.616,294.82,347.776z"/>
	<path style="fill:#F2D6CE;" d="M262.94,359.196c-1.288,0.188-2.588,0.316-3.888,0.436
		C260.352,359.512,261.652,359.38,262.94,359.196z"/>
	<path style="fill:#F2D6CE;" d="M257.484,359.792C255.668,359.924,253.836,360,252,360C253.836,360,255.664,359.924,257.484,359.792
		z"/>
	<path style="fill:#F2D6CE;" d="M268.372,358.216c-1.228,0.264-2.464,0.48-3.704,0.688
		C265.904,358.696,267.14,358.48,268.372,358.216z"/>
	<path style="fill:#F2D6CE;" d="M273.768,356.856c-1.244,0.356-2.5,0.672-3.756,0.972
		C271.268,357.532,272.52,357.212,273.768,356.856z"/>
	<path style="fill:#F2D6CE;" d="M280.384,354.66c1.352-0.508,2.696-1.052,4.028-1.624
		C283.08,353.608,281.736,354.148,280.384,354.66z"/>
	<path style="fill:#F2D6CE;" d="M285.448,352.58c1.244-0.556,2.476-1.14,3.7-1.748c0.168-0.084,0.336-0.168,0.504-0.252
		C288.264,351.284,286.864,351.952,285.448,352.58z"/>
	<path style="fill:#F2D6CE;" d="M275.236,356.412c0.52-0.16,1.04-0.304,1.556-0.472c0.78-0.256,1.552-0.536,2.324-0.812
		C277.832,355.588,276.536,356.012,275.236,356.412z"/>
</g>
<path style="fill:#242424;" d="M218.676,352.636c0.256,0.112,0.508,0.224,0.764,0.332c1.408,0.612,2.832,1.184,4.268,1.724
	c0.368,0.136,0.736,0.276,1.104,0.408c1.328,0.48,2.668,0.916,4.012,1.328c0.46,0.14,0.916,0.284,1.38,0.416
	c1.268,0.364,2.548,0.688,3.828,0.992c0.528,0.124,1.056,0.26,1.584,0.376c1.24,0.268,2.492,0.488,3.744,0.696
	c0.564,0.096,1.128,0.204,1.696,0.288c1.292,0.188,2.596,0.316,3.9,0.436c0.52,0.048,1.036,0.124,1.56,0.16
	c1.816,0.132,3.648,0.208,5.484,0.208s3.668-0.076,5.484-0.208c0.524-0.04,1.044-0.112,1.568-0.16c1.3-0.12,2.6-0.252,3.888-0.436
	c0.576-0.084,1.148-0.196,1.724-0.292c1.24-0.208,2.476-0.424,3.704-0.688c0.548-0.12,1.092-0.256,1.64-0.388
	c1.26-0.3,2.512-0.612,3.756-0.972c0.492-0.14,0.98-0.296,1.472-0.444c1.3-0.4,2.596-0.824,3.88-1.284
	c0.424-0.152,0.848-0.308,1.268-0.468c1.352-0.508,2.696-1.048,4.028-1.624c0.344-0.148,0.692-0.3,1.036-0.452
	c1.412-0.632,2.816-1.3,4.204-2c0.26-0.132,0.524-0.26,0.784-0.396c1.476-0.764,2.94-1.568,4.384-2.412
	c0.12-0.072,0.248-0.132,0.368-0.204v-0.008v-8.216V306.46v-8v-6.96c0-13.532-19.336-24.5-43.188-24.5s-43.188,10.968-43.188,24.5
	v6.96v8v41.1c1.62,0.952,3.264,1.856,4.928,2.712c0.104,0.056,0.212,0.104,0.316,0.16
	C215.58,351.212,217.12,351.944,218.676,352.636z M226.38,295.836c0.9-4.328,12.296-5.376,25.62-5.376
	c13.324,0,24.728,1.048,25.62,5.376c0.896,4.324-10.504,10.624-25.62,10.624S225.484,300.16,226.38,295.836z"/>
<path style="fill:#FFE1D9;" d="M252,306.46c15.116,0,26.516-6.3,25.62-10.624c-0.892-4.328-12.296-5.376-25.62-5.376
	s-24.72,1.048-25.62,5.376C225.484,300.16,236.884,306.46,252,306.46z"/>
<g>
	<path style="fill:#242424;" d="M177.188,112.168c0.308,1.988,0.1,5.528,1.168,7.268c-0.084,0.076-0.152,0.168-0.236,0.244
		c3.736,21.616,55.68,28.528,84.568,17.568c40.876-15.504,55.428,1.512,50.228,21.668c8.252-6.008,19.048-25.804,17.836-38.104
		c2.464,3.672,2.928,4.564,4.776,9c0,0.028,0,0.052,0,0.08c3.44,5.168,6.2,11.276,8.472,17.788c1.548,4.432,2.868,9.04,4,13.7
		v-38.988c0-31.904-22.348-57.492-99.98-58.352C170.36,64.892,148,90.48,148,122.392v4v34.86
		C152.108,144.268,162.024,123.332,177.188,112.168z"/>
	<path style="fill:#242424;" d="M150.508,191.632c-0.976,6.708-1.724,12.444-2.508,16.368
		C148.808,203.956,149.576,198.22,150.508,191.632z"/>
	<path style="fill:#242424;" d="M335.328,135.572c-0.02,0.172-0.032,0.348-0.056,0.516
		C335.3,135.916,335.308,135.744,335.328,135.572z"/>
	<path style="fill:#242424;" d="M311.44,163.5h0.004c0.036-0.096,0.056-0.188,0.092-0.284
		C311.5,163.308,311.48,163.404,311.44,163.5z"/>
	<path style="fill:#242424;" d="M349.528,168.192c0.008,0.036,0.016,0.076,0.024,0.112
		C349.54,168.264,349.532,168.228,349.528,168.192z"/>
	<path style="fill:#242424;" d="M355.34,204.276c0.22,1.348,0.436,2.612,0.66,3.724C355.776,206.888,355.56,205.624,355.34,204.276z
		"/>
	<path style="fill:#242424;" d="M354.684,200.024c0.136,0.928,0.272,1.8,0.404,2.656
		C354.956,201.824,354.82,200.952,354.684,200.024z"/>
</g>
<g>
	<path style="fill:#0D0D0D;" d="M150.508,191.632c3.208-21.996,9.012-54.832,27.612-71.952c0.084-0.076,0.152-0.168,0.236-0.244
		c-1.068-1.74-0.86-5.28-1.168-7.268c-15.164,11.164-25.08,32.1-29.188,49.084V164v4v40
		C148.784,204.076,149.532,198.34,150.508,191.632z"/>
	<path style="fill:#0D0D0D;" d="M348,122.392v38.988v0.004c0.548,2.268,1.056,4.544,1.528,6.808
		c0.008,0.036,0.016,0.076,0.024,0.112c2.432,11.752,3.876,23.156,5.136,31.72c0.136,0.928,0.272,1.8,0.404,2.656
		c0.084,0.532,0.168,1.092,0.252,1.596c0.216,1.348,0.432,2.612,0.656,3.724v-40v-4v-37.608v-4C356,89.936,332.916,64,252,64
		c-1.364,0-2.668,0.028-4,0.04c0.008,0,0.012,0,0.02,0C325.652,64.9,348,90.488,348,122.392z"/>
	<path style="fill:#0D0D0D;" d="M330.752,120.812c1.212,12.3-9.584,32.092-17.836,38.104l0,0c-0.368,1.42-0.824,2.856-1.38,4.296
		c-0.036,0.096-0.052,0.188-0.092,0.284l0,0c7.476-1.34,21.68-10.86,23.832-27.412c0.024-0.172,0.036-0.344,0.056-0.516
		c0.208-1.82,0.308-3.696,0.2-5.68c0-0.028,0-0.052,0-0.08C333.68,125.376,333.216,124.484,330.752,120.812z"/>
</g>
<path style="fill:#FFFFFF;" d="M24,244h12v36c0,15.46,12.54,28,28,28s28-12.54,28-28v-36h12c2.212,0,4-1.788,4-4
	c0-22.908-17.608-41.768-40-43.796v-113.9c-2.736,2.96-5.404,5.988-8,9.076v104.824C37.608,198.232,20,217.092,20,240
	C20,242.212,21.788,244,24,244z M88,264v4v12c0,7.084-3.104,13.444-8,17.84l0,0c0,0-0.004,0-0.004,0.004
	c-3.308,2.968-7.428,5.024-11.996,5.796l0,0c-0.004,0-0.012,0-0.016,0C66.684,303.86,65.36,304,64,304s-2.684-0.14-3.984-0.36
	c-0.004,0-0.012,0-0.016,0l0,0c-2.968-0.5-5.748-1.544-8.244-3.032c-0.008-0.004-0.012-0.008-0.02-0.012
	c-1.336-0.796-2.584-1.72-3.732-2.752c0,0-0.004,0-0.004-0.004l0,0c-4.896-4.396-8-10.756-8-17.84v-12v-4v-26.252l0.28-1.184
	C41.96,224.844,52.16,216,64,216s22.04,8.844,23.72,20.568L88,238.52V264z M64,204c18.5,0,33.78,14.024,35.776,32H92
	c-1.944-13.564-13.904-24-28-24s-26.056,10.436-28,24h-7.776C30.22,218.024,45.5,204,64,204z"/>
<g>
	<path style="fill:#E6E6E6;" d="M67.984,303.64c-1.3,0.22-2.62,0.36-3.984,0.36C65.36,304,66.684,303.86,67.984,303.64z"/>
	<path style="fill:#E6E6E6;" d="M51.736,300.592c-1.332-0.796-2.584-1.716-3.732-2.752C49.156,298.876,50.4,299.796,51.736,300.592z
		"/>
	<path style="fill:#E6E6E6;" d="M40,280c0,7.084,3.104,13.444,8,17.84V284c0-2.212,1.788-4,4-4s4,1.788,4,4v18.6
		c-1.488-0.528-2.908-1.2-4.244-1.996c2.496,1.488,5.276,2.532,8.244,3.032V284c0-2.212,1.788-4,4-4c2.212,0,4,1.788,4,4v19.64
		c4.568-0.772,8.692-2.828,11.996-5.796c-2.308,2.072-5.016,3.688-7.996,4.756V284c0-2.212,1.788-4,4-4s4,1.788,4,4v13.84
		c4.896-4.396,8-10.756,8-17.84v-12H40V280z"/>
	<path style="fill:#E6E6E6;" d="M64,304c-1.364,0-2.684-0.14-3.984-0.36C61.316,303.86,62.64,304,64,304z"/>
	<path style="fill:#E6E6E6;" d="M87.72,236.568C86.04,224.844,75.84,216,64,216s-22.04,8.844-23.72,20.564L40,237.748V264h48v-25.48
		L87.72,236.568z"/>
</g>
<g>
	<path style="fill:#B3B3B3;" d="M76,280c-2.212,0-4,1.788-4,4v18.6c2.984-1.068,5.688-2.688,7.996-4.756c0,0,0.004,0,0.004-0.004
		l0,0V284C80,281.788,78.212,280,76,280z"/>
	<path style="fill:#B3B3B3;" d="M64,280c-2.212,0-4,1.788-4,4v19.64l0,0c0.004,0,0.012,0,0.016,0c1.3,0.22,2.62,0.36,3.984,0.36
		s2.684-0.14,3.984-0.36c0.004,0,0.012,0,0.016,0l0,0V284C68,281.788,66.212,280,64,280z"/>
	<path style="fill:#B3B3B3;" d="M56,284c0-2.212-1.788-4-4-4s-4,1.788-4,4v13.84l0,0c0,0,0.004,0,0.004,0.004
		c1.152,1.032,2.4,1.956,3.732,2.752c0.008,0.004,0.012,0.008,0.02,0.012c1.336,0.796,2.756,1.464,4.244,1.996V284z"/>
</g>
<rect x="40" y="264" style="fill:#CCCCCC;" width="48" height="4"/>
<ellipse style="fill:#F5F5F5;" cx="216" cy="200" rx="16" ry="12"/>
<circle style="fill:#242424;" cx="216" cy="200" r="8"/>
<ellipse style="fill:#F5F5F5;" cx="288" cy="200" rx="16" ry="12"/>
<circle style="fill:#242424;" cx="288" cy="200" r="8"/>
<g>
</g>
<g>
</g>
<g>
</g>
<g>
</g>
<g>
</g>
<g>
</g>
<g>
</g>
<g>
</g>
<g>
</g>
<g>
</g>
<g>
</g>
<g>
</g>
<g>
</g>
<g>
</g>
<g>
</g>
</svg>
