<?xml version="1.0" encoding="iso-8859-1"?>
<!-- Generator: Adobe Illustrator 19.0.0, SVG Export Plug-In . SVG Version: 6.00 Build 0)  -->
<svg version="1.1" id="Layer_1" xmlns="http://www.w3.org/2000/svg" xmlns:xlink="http://www.w3.org/1999/xlink" x="0px" y="0px"
	 viewBox="0 0 512 512" style="enable-background:new 0 0 512 512;" xml:space="preserve">
<ellipse style="fill:#C2D5D8;" cx="256" cy="272" rx="256" ry="240"/>
<polygon style="fill:#CCCCCC;" points="233.5,439.144 256,492 278.22,439.136 256,416 "/>
<g>
	<path style="fill:#F5F5F5;" d="M304.04,377.696L304.04,377.696L304.04,377.696z"/>
	<polygon style="fill:#F5F5F5;" points="207.584,377.696 207.584,377.696 191.26,388.02 207.152,379.048 	"/>
	<path style="fill:#F5F5F5;" d="M233.5,439.144L256,416l22.22,23.136l19.508-46.42c-8.916,4.38-24.344,7.28-41.916,7.28
		c-2.348,0-4.64-0.068-6.9-0.168c-0.032,0-0.068,0-0.1-0.004c0.008,0,0.016,0,0.024,0c-14.768-0.66-27.448-3.372-35.14-7.212
		L233.5,439.144z"/>
</g>
<g>
	<path style="fill:#E6CBC3;" d="M207.772,378.696l5.924,13.912c7.692,3.844,20.372,6.552,35.14,7.212
		c24.276-1.096,42.976-7.736,42.976-15.8c0-0.592-0.124-1.188-0.328-1.772h0.02l-8.704-27.072
		c-8.664,3.088-17.712,4.824-26.988,4.824c-1.992,0-3.972-0.1-5.944-0.252c-0.02,0-0.036,0-0.056-0.004c0.004,0,0.012,0,0.016,0
		c-11.624-0.916-22.836-4.448-33.264-9.964l-8.976,27.92l-0.436,1.352L207.772,378.696z"/>
	<path style="fill:#E6CBC3;" d="M248.912,399.828c2.26,0.1,4.552,0.168,6.9,0.168C253.464,399.996,251.172,399.924,248.912,399.828z
		"/>
</g>
<path style="fill:#D9BFB8;" d="M291.504,382.252h-0.02c0.204,0.584,0.328,1.18,0.328,1.772c0,8.06-18.7,14.704-42.976,15.8
	c-0.008,0-0.016,0-0.024,0c0.032,0,0.068,0,0.1,0.004c2.26,0.096,4.548,0.168,6.9,0.168c17.572,0,33-2.9,41.916-7.28l6.312-15.02
	l0,0l-8.976-27.92c-3.98,2.104-8.076,3.904-12.264,5.4L291.504,382.252z"/>
<g>
	<polygon style="fill:#FFE1D9;" points="359.812,168 359.816,167.064 359.812,167.064 	"/>
	<path style="fill:#FFE1D9;" d="M375.812,224.272V180c0-10.82-16-12-16-12v76C371.812,244,375.812,235.092,375.812,224.272z"/>
	<path style="fill:#FFE1D9;" d="M256,176c-13.568,0-60.788-0.168-94.848-6.916l8.788,19.484c2.888-3.788,8.692-6.828,15.204-7.44
		c17.872-1.684,27.232-2.256,45.12-2.796c9.22-0.276,17.728,5.708,17.728,13.036c0,2.64,0,4.868,0,6.956h16c0-2.088,0-4.316,0-6.956
		c0-7.328,8.32-13.312,17.54-13.036c17.888,0.54,27.336,1.112,45.22,2.796c6.24,0.58,11.864,3.396,14.892,6.964l6.168-13.788v-4.644
		C314.04,175.84,269.168,176,256,176z"/>
	<path style="fill:#FFE1D9;" d="M347.812,244v-53.256L344,198.552c0,4.236,0,7.556,0,12.808c0,5.868-7.62,11.572-16.848,12.44
		c-17.88,1.68-27.684,2.256-45.572,2.796c-9.216,0.272-17.584-5.712-17.584-13.04c0-2.764,0-5.076,0-7.248h-16
		c0,2.172,0,4.492,0,7.248c0,7.328-8.46,13.312-17.68,13.04c-17.884-0.54-27.78-1.116-45.66-2.796
		c-9.224-0.864-16.66-6.56-16.66-12.44c0-4.808,0-8.008,0-11.76l-16.124-32.62c-0.02-0.004-0.036-0.008-0.056-0.016L151.812,168
		c0,0-16,1.18-16,12v44.272c0,10.82,4,19.728,16,19.728c0,40.776,27.34,85.988,64.748,105.776
		c10.432,5.516,21.644,9.048,33.264,9.964C303.12,355.52,347.812,296.136,347.812,244z"/>
	<path style="fill:#FFE1D9;" d="M249.868,359.748c1.972,0.152,3.952,0.252,5.944,0.252C253.82,360,251.84,359.9,249.868,359.748z"/>
</g>
<g>
	<path style="fill:#F2D6CE;" d="M347.812,174.304l2.264-5.064c-0.748,0.144-1.508,0.28-2.264,0.42V174.304z"/>
	<path style="fill:#F2D6CE;" d="M359.312,167.196l-11.5,23.552V244c0,52.136-44.692,111.52-97.984,115.744c-0.004,0-0.012,0-0.016,0
		c0.02,0,0.036,0,0.056,0.004c1.972,0.152,3.952,0.252,5.944,0.252c9.276,0,18.324-1.736,26.988-4.824
		c4.188-1.492,8.284-3.292,12.264-5.4c37.408-19.788,64.748-65,64.748-105.776v-76v-0.936
		C359.644,167.108,359.48,167.152,359.312,167.196z"/>
</g>
<g>
	<path style="fill:#1A1A1A;" d="M176.852,452.5l18.336-35.5l-38-9.748l27.164-15.336L85,421.5l-4.844,24.832
		c41.156,36.5,95.2,60.308,155.084,64.816L176.852,452.5z"/>
	<path style="fill:#1A1A1A;" d="M316.624,416l18.336,35.5l-58.528,59.672c59.86-4.436,113.904-28.148,155.092-64.552l-4.9-25.116
		l-95.212-28.352l23.212,13.104L316.624,416z"/>
</g>
<g>
	<path style="fill:#242424;" d="M297.728,392.716l-19.508,46.42L256,492l-22.5-52.856l-19.808-46.532l-5.924-13.912l-0.62,0.352
		l-15.892,8.972l-6.904,3.9l-27.164,15.336l38,9.748l-18.336,35.5l58.388,58.648C242.096,511.664,249.004,512,256,512
		c6.884,0,13.684-0.328,20.432-0.828L334.96,451.5L316.624,416l38-9.748l-23.212-13.104l-27.372-15.452l0,0L297.728,392.716z"/>
	<path style="fill:#242424;" d="M152,136c-4.436,0-14.332,10.332-24,20c4.66,4.66,13.232,8.224,23.82,10.968
		c0.02,0.004,0.036,0.008,0.056,0.016L168,199.604c0,3.752,0,6.952,0,11.76c0,5.88,7.436,11.576,16.66,12.44
		c17.88,1.68,27.776,2.256,45.66,2.796c9.22,0.272,17.68-5.712,17.68-13.04c0-2.756,0-5.076,0-7.248h16c0,2.172,0,4.484,0,7.248
		c0,7.328,8.368,13.312,17.584,13.04c17.888-0.54,27.692-1.116,45.572-2.796C336.38,222.932,344,217.228,344,211.36
		c0-5.252,0-8.572,0-12.808l3.812-7.808l11.5-23.552c0.168-0.044,0.332-0.088,0.5-0.132h0.004
		c10.756-2.752,19.468-6.344,24.184-11.06c-9.668-9.668-19.564-20-24-20c0-35.252-21.752-136-48-136s-46.232,24-56,24
		S226.248,0,200,0S152,100.752,152,136z M347.812,174.304l-6.168,13.788c-3.028-3.568-8.652-6.384-14.892-6.964
		c-17.884-1.684-27.332-2.256-45.22-2.796c-9.22-0.276-17.54,5.708-17.54,13.036c0,2.64,0,4.868,0,6.956h-16
		c0-2.088,0-4.316,0-6.956c0-7.328-8.508-13.312-17.728-13.036c-17.888,0.54-27.248,1.112-45.12,2.796
		c-6.512,0.612-12.316,3.652-15.204,7.44l-8.788-19.484C195.212,175.832,242.432,176,256,176c13.168,0,58.04-0.16,91.812-6.34
		c0.76-0.14,1.52-0.276,2.264-0.42L347.812,174.304z M359.98,135.02C325.876,143.796,270.832,144,256,144s-69.876-0.204-103.98-8.98
		c0.088-8.472,1.368-19.372,3.62-31.112C189.9,111.808,241.684,112,256,112c14.316,0,66.1-0.192,100.36-8.092
		C358.608,115.64,359.892,126.548,359.98,135.02z"/>
</g>
<path style="fill:#F5F5F5;" d="M256,112c-14.316,0-66.1-0.192-100.36-8.092c-2.252,11.74-3.532,22.64-3.62,31.112
	C186.124,143.796,241.168,144,256,144s69.876-0.204,103.98-8.98c-0.088-8.472-1.372-19.38-3.62-31.112
	C322.1,111.808,270.316,112,256,112z"/>
<g>
</g>
<g>
</g>
<g>
</g>
<g>
</g>
<g>
</g>
<g>
</g>
<g>
</g>
<g>
</g>
<g>
</g>
<g>
</g>
<g>
</g>
<g>
</g>
<g>
</g>
<g>
</g>
<g>
</g>
</svg>
