<?xml version="1.0" encoding="iso-8859-1"?>
<!-- Generator: Adobe Illustrator 19.0.0, SVG Export Plug-In . SVG Version: 6.00 Build 0)  -->
<svg version="1.1" id="Layer_1" xmlns="http://www.w3.org/2000/svg" xmlns:xlink="http://www.w3.org/1999/xlink" x="0px" y="0px"
	 viewBox="0 0 512 512" style="enable-background:new 0 0 512 512;" xml:space="preserve">
<circle style="fill:#4AB8A1;" cx="256" cy="256" r="256"/>
<path style="fill:#2995CC;" d="M350.636,408.344c-27.224-8.352-64.968,4.328-64.968,4.328h-38h-38c0,0-27.816-9.344-52.916-6.708
	c-19.628,11.952-35.772,31.692-40.968,64.184c20.452,13.42,42.928,23.984,66.892,31.136L164.336,476l24.332-27.336H256h67.332
	L347.664,476l-18.34,25.284c20.852-6.224,40.6-14.996,58.848-26.02V472C383.616,440.504,368.924,420.736,350.636,408.344z"/>
<path style="fill:#C23527;" d="M299.576,376.252l1.928,6h-0.02c0.204,0.584,0.328,1.176,0.328,1.772
	c0,8.824-22.392,15.972-50,15.972c-2.348,0-4.64-0.068-6.9-0.168c-0.032,0-0.068,0-0.1-0.004c0.008,0,0.016,0,0.024,0
	c-24.3-1.088-43.024-7.732-43.024-15.8c0-0.592,0.124-1.188,0.328-1.772h-0.024l1.928-6c-46.256,1.692-109.976,9.724-144.752,43.552
	c16.208,19.444,35.26,36.412,56.492,50.344c5.196-32.492,21.34-52.236,40.968-64.184c25.1-2.636,52.916,6.708,52.916,6.708h38h38
	c0,0,37.744-12.68,64.968-4.328c18.288,12.388,32.98,32.156,37.536,63.656v3.268c22.764-13.752,43.172-30.984,60.584-50.904
	C415.2,386.656,347.856,378.02,299.576,376.252z"/>
<g>
	<path style="fill:#E6CBC3;" d="M202.14,382.252c-0.204,0.584-0.328,1.18-0.328,1.772c0,8.064,18.72,14.712,43.024,15.8
		c24.276-1.092,42.976-7.736,42.976-15.8c0-0.592-0.124-1.188-0.328-1.772h0.02l-7.552-23.492c-9.396,0.908-18.932,1.24-28.14,1.24
		c-2.388,0-4.796-0.028-7.22-0.076c-0.26-0.004-0.516-0.004-0.78-0.008c0.04,0,0.08-0.004,0.12-0.004
		c-11.228-0.244-22.724-1.068-33.7-2.9l-6.188,19.24l-1.928,6H202.14z"/>
	<path style="fill:#E6CBC3;" d="M251.812,399.996c-2.348,0-4.644-0.076-6.9-0.168C247.172,399.928,249.464,399.996,251.812,399.996z
		"/>
</g>
<path style="fill:#D9BFB8;" d="M287.504,382.252h-0.02c0.204,0.584,0.328,1.18,0.328,1.772c0,8.06-18.7,14.708-42.976,15.8
	c-0.008,0-0.016,0-0.024,0c0.032,0,0.068,0,0.1,0.004c2.256,0.092,4.548,0.168,6.9,0.168c27.608,0,50-7.148,50-15.972
	c0-0.596-0.124-1.188-0.328-1.772h0.02l-1.928-6l-6.184-19.24c-4.412,0.736-8.908,1.312-13.436,1.748L287.504,382.252z"/>
<g>
	<path style="fill:#FFE1D9;" d="M355.704,211.408L355.624,244c12,0,16.188-8.908,16.188-19.728V180c0-10.82-16-12-16-12v44
		C355.776,211.82,355.74,211.592,355.704,211.408z"/>
	<path style="fill:#FFE1D9;" d="M339.624,304c0-16,0-52,0-60l0.188-76v-26.128c-1.356-2.832-2.832-5.528-4.476-7.996
		c0.056,0.984,0.036,1.932,0.012,2.872c0,0.056,0,0.108,0,0.164c-0.028,0.808-0.1,1.588-0.18,2.364
		c-0.032,0.304-0.052,0.608-0.096,0.908c-2.184,16.416-16.228,25.884-23.716,27.284c-0.032,0.008-0.068,0.02-0.104,0.028v-0.004l0,0
		c0.612-1.536,1.084-3.068,1.476-4.584c0,0,0,0,0.004-0.004c4.028-15.624-3.884-29.288-26.672-27.44c0.016,0,0.032,0,0.048,0.004
		c-1.528,0.124-3.136,0.328-4.792,0.588c-0.3,0.048-0.604,0.1-0.908,0.152c-1.46,0.248-2.976,0.556-4.54,0.92
		c-0.824,0.196-1.688,0.432-2.54,0.66c-1.224,0.324-2.444,0.64-3.728,1.032c-2.032,0.628-4.136,1.348-6.32,2.16
		c-0.268,0.1-0.508,0.168-0.78,0.268c-0.12,0.048-0.256,0.084-0.376,0.128c-0.98,0.364-1.992,0.708-3.024,1.032
		c-0.436,0.136-0.876,0.268-1.32,0.396c-0.832,0.244-1.68,0.472-2.54,0.692c-0.404,0.104-0.8,0.212-1.208,0.308
		c-1.2,0.284-2.42,0.544-3.66,0.78c-0.408,0.076-0.82,0.144-1.228,0.216c-0.948,0.168-1.908,0.324-2.876,0.464
		c-0.448,0.064-0.896,0.132-1.344,0.188c-1.312,0.172-2.636,0.328-3.976,0.452c-0.116,0.012-0.232,0.02-0.348,0.028
		c-1.308,0.116-2.624,0.204-3.944,0.276c-0.408,0.02-0.82,0.04-1.228,0.056c-1.12,0.048-2.24,0.08-3.364,0.092
		c-0.336,0.004-0.672,0.016-1.008,0.016c-1.38,0.008-2.76-0.012-4.136-0.052c-0.124-0.004-0.248,0-0.372-0.004
		c0.032,0,0.064-0.004,0.1-0.008c-23.56-0.776-46.284-8.604-48.708-22.636c-18.596,17.12-24.404,49.956-27.612,71.952
		c-0.932,6.588-1.7,12.324-2.508,16.368V168c0,0-16,1.18-16,12v44.272C131.812,235.092,136,244,148,244c0,8,0,44,0,60
		c2.808,33.704,30.264,47.672,62.232,53.012c10.976,1.832,22.472,2.656,33.7,2.9C287.796,358.916,335.86,349.196,339.624,304z"/>
	<path style="fill:#FFE1D9;" d="M251.812,360c-2.384,0-4.796-0.028-7.22-0.076C247.016,359.972,249.424,360,251.812,360z"/>
</g>
<g>
	<path style="fill:#F2D6CE;" d="M243.812,68.092c0.008,0,0.02,0,0.028,0c0.02,0,0.04,0,0.064,0
		C243.872,68.092,243.84,68.092,243.812,68.092z"/>
	<path style="fill:#F2D6CE;" d="M355.152,208.28c-0.084-0.512-0.172-1.084-0.256-1.628c-0.128-0.836-0.26-1.688-0.396-2.592
		c-1.508-10.244-3.272-24.584-6.688-38.672v-0.016c-2-8.24-4.576-16.348-8-23.496V168l-0.188,76c0,8,0,44,0,60
		c-3.764,45.196-51.828,54.916-95.692,55.912c-0.04,0-0.08,0.004-0.12,0.004c0.264,0.004,0.52,0.004,0.78,0.008
		c2.424,0.048,4.836,0.076,7.22,0.076c9.208,0,18.744-0.332,28.14-1.24c4.532-0.436,9.024-1.012,13.436-1.748
		c31.972-5.34,59.428-19.308,62.236-53.012c0-16,0-52,0-60l0.08-32.592C355.52,210.44,355.336,209.404,355.152,208.28z"/>
</g>
<g>
	<path style="fill:#CC584C;" d="M262.124,141.38c-0.98,0.364-1.992,0.708-3.024,1.032
		C260.132,142.088,261.14,141.744,262.124,141.38z"/>
	<path style="fill:#CC584C;" d="M244.92,145.46c-1.312,0.172-2.636,0.328-3.976,0.452
		C242.284,145.788,243.608,145.632,244.92,145.46z"/>
	<path style="fill:#CC584C;" d="M235.424,146.268c-1.12,0.048-2.24,0.08-3.364,0.092
		C233.184,146.348,234.304,146.316,235.424,146.268z"/>
	<path style="fill:#CC584C;" d="M254.032,143.808c-1.2,0.284-2.42,0.544-3.66,0.78C251.612,144.352,252.832,144.092,254.032,143.808
		z"/>
	<path style="fill:#CC584C;" d="M257.78,142.808c-0.832,0.244-1.68,0.472-2.54,0.692C256.1,143.28,256.948,143.052,257.78,142.808z"
		/>
	<path style="fill:#CC584C;" d="M249.144,144.804c-0.948,0.168-1.908,0.324-2.876,0.464
		C247.236,145.128,248.192,144.972,249.144,144.804z"/>
	<path style="fill:#CC584C;" d="M231.052,146.38c-1.38,0.008-2.76-0.012-4.136-0.052
		C228.292,146.368,229.672,146.384,231.052,146.38z"/>
	<path style="fill:#CC584C;" d="M355.812,212c-0.224-1.112-0.44-2.376-0.66-3.72c0.184,1.124,0.368,2.164,0.552,3.128
		C355.74,211.592,355.776,211.82,355.812,212z"/>
	<path style="fill:#CC584C;" d="M177,116.168c0.308,1.988,0.1,5.528,1.168,7.268c-0.084,0.076-0.152,0.168-0.236,0.244
		c2.424,14.028,25.148,21.86,48.708,22.636c10.04-0.36,19.84-2.016,27.86-5.06c13.216-5.008,23.624-6.58,31.56-5.784
		c22.788-1.844,30.7,11.816,26.672,27.44c8.252-6.012,19.044-25.804,17.832-38.096c2.464,3.672,2.928,4.564,4.772,8.996
		c0,0.024,0,0.044,0,0.068c1.644,2.468,3.12,5.16,4.476,7.996c3.424,7.144,6,15.256,8,23.496v-38.976
		c0-31.904-22.348-57.488-99.98-58.352c-1.316,0.016-2.648,0.024-3.932,0.052c-0.02,0-0.04,0-0.064,0
		c-74.46,1.668-96.028,26.936-96.028,58.3v38.86C151.92,148.264,161.836,127.332,177,116.168z"/>
	<path style="fill:#CC584C;" d="M150.32,195.632c-0.98,6.708-1.724,12.444-2.508,16.368
		C148.62,207.956,149.388,202.22,150.32,195.632z"/>
	<path style="fill:#CC584C;" d="M240.596,145.94c-1.308,0.116-2.624,0.204-3.944,0.276
		C237.976,146.144,239.292,146.056,240.596,145.94z"/>
	<path style="fill:#CC584C;" d="M269.6,138.824c-2.024,0.62-4.136,1.348-6.32,2.16C265.46,140.172,267.568,139.452,269.6,138.824z"
		/>
	<path style="fill:#CC584C;" d="M335.348,136.752c0,0.052,0.004,0.112,0,0.164C335.348,136.86,335.348,136.804,335.348,136.752z"/>
	<path style="fill:#CC584C;" d="M311.252,167.5c0.032-0.008,0.068-0.02,0.104-0.028c-0.032,0.008-0.068,0.02-0.1,0.024
		C311.252,167.496,311.252,167.5,311.252,167.5z"/>
	<path style="fill:#CC584C;" d="M335.168,139.28c-0.032,0.304-0.056,0.612-0.096,0.908
		C335.116,139.888,335.136,139.58,335.168,139.28z"/>
	<path style="fill:#CC584C;" d="M281.316,136.06c-0.3,0.048-0.604,0.1-0.908,0.152C280.712,136.16,281.016,136.108,281.316,136.06z"
		/>
	<path style="fill:#CC584C;" d="M275.868,137.132c-0.824,0.192-1.688,0.436-2.54,0.66
		C274.18,137.564,275.044,137.328,275.868,137.132z"/>
	<path style="fill:#CC584C;" d="M354.5,204.056c0.132,0.904,0.264,1.756,0.396,2.592C354.764,205.812,354.636,204.964,354.5,204.056
		z"/>
</g>
<g>
	<path style="fill:#BF5347;" d="M150.32,195.632c3.208-21.996,9.012-54.832,27.612-71.952c0.084-0.076,0.152-0.168,0.236-0.244
		c-1.068-1.74-0.86-5.28-1.168-7.268c-15.164,11.164-25.08,32.096-29.188,49.084V168v44
		C148.596,208.076,149.344,202.34,150.32,195.632z"/>
	<path style="fill:#BF5347;" d="M254.5,141.252c-8.02,3.048-17.82,4.704-27.86,5.06c-0.032,0-0.064,0.004-0.1,0.008
		c0.124,0.004,0.248,0,0.372,0.004c1.376,0.04,2.756,0.06,4.136,0.052c0.336,0,0.672-0.012,1.008-0.016
		c1.124-0.016,2.244-0.044,3.364-0.092c0.412-0.016,0.82-0.036,1.228-0.056c1.324-0.072,2.64-0.16,3.944-0.276
		c0.116-0.012,0.232-0.016,0.348-0.028c1.34-0.124,2.664-0.28,3.976-0.452c0.452-0.06,0.896-0.124,1.344-0.188
		c0.968-0.14,1.924-0.296,2.876-0.464c0.408-0.072,0.824-0.14,1.228-0.216c1.24-0.236,2.464-0.496,3.66-0.78
		c0.408-0.096,0.804-0.208,1.208-0.308c0.86-0.22,1.704-0.448,2.54-0.692c0.444-0.128,0.884-0.26,1.32-0.396
		c1.032-0.324,2.04-0.664,3.024-1.032c0.124-0.044,0.256-0.084,0.376-0.128c0.268-0.104,0.512-0.172,0.78-0.268
		c2.184-0.812,4.296-1.536,6.32-2.16c1.284-0.396,2.504-0.712,3.728-1.032c0.852-0.224,1.72-0.468,2.54-0.66
		c1.564-0.364,3.08-0.672,4.54-0.92c0.304-0.052,0.608-0.104,0.908-0.152c1.656-0.26,3.264-0.464,4.792-0.588
		c-0.016,0-0.032,0-0.048-0.004C278.124,134.672,267.716,136.244,254.5,141.252z"/>
	<path style="fill:#BF5347;" d="M347.812,126.392v38.976v0.016c3.416,14.088,5.18,28.428,6.688,38.672
		c0.132,0.904,0.264,1.756,0.396,2.592c0.084,0.544,0.172,1.116,0.256,1.628c0.22,1.344,0.44,2.608,0.66,3.72V168v-41.608
		c0-32.456-23.076-58.392-104-58.392c-1.368,0-2.668,0.028-4,0.04c0.008,0,0.012,0,0.02,0
		C325.464,68.904,347.812,94.488,347.812,126.392z"/>
	<path style="fill:#BF5347;" d="M330.564,124.812c1.212,12.296-9.58,32.088-17.832,38.096c0,0,0,0-0.004,0.004
		c-0.392,1.516-0.864,3.048-1.476,4.584l0,0c0.032-0.004,0.068-0.02,0.1-0.024c7.488-1.4,21.532-10.868,23.716-27.284
		c0.04-0.3,0.064-0.604,0.096-0.908c0.08-0.776,0.156-1.556,0.18-2.364c0-0.052-0.004-0.112,0-0.164
		c0.028-0.944,0.044-1.892-0.012-2.872c0-0.024,0-0.044,0-0.068C333.492,129.376,333.028,128.484,330.564,124.812z"/>
</g>
<path style="fill:#C23527;" d="M323.332,448.668H256h-67.332l-24.332,27.336l18.34,25.284c7.872,2.348,15.896,4.336,24.068,5.928
	l-21.896-30.188l11-12.36h120.308l11.004,12.36l-21.896,30.188c8.168-1.592,16.196-3.58,24.068-5.928l18.34-25.284L323.332,448.668z
	"/>
<path style="fill:#FFD464;" d="M316.152,464.668H195.844l-11,12.36l21.896,30.188C222.688,510.324,239.144,512,256,512
	s33.312-1.676,49.26-4.784l21.896-30.188L316.152,464.668z"/>
<ellipse style="fill:#F5F5F5;" cx="212" cy="200" rx="16" ry="12"/>
<circle style="fill:#2179A6;" cx="212" cy="200" r="8"/>
<ellipse style="fill:#F5F5F5;" cx="292" cy="200" rx="16" ry="12"/>
<circle style="fill:#2179A6;" cx="292" cy="200" r="8"/>
<g>
</g>
<g>
</g>
<g>
</g>
<g>
</g>
<g>
</g>
<g>
</g>
<g>
</g>
<g>
</g>
<g>
</g>
<g>
</g>
<g>
</g>
<g>
</g>
<g>
</g>
<g>
</g>
<g>
</g>
</svg>
