<?xml version="1.0" encoding="iso-8859-1"?>
<!-- Generator: Adobe Illustrator 19.0.0, SVG Export Plug-In . SVG Version: 6.00 Build 0)  -->
<svg version="1.1" id="Layer_1" xmlns="http://www.w3.org/2000/svg" xmlns:xlink="http://www.w3.org/1999/xlink" x="0px" y="0px"
	 viewBox="0 0 512 512" style="enable-background:new 0 0 512 512;" xml:space="preserve">
<circle style="fill:#E16B5A;" cx="256" cy="256" r="256"/>
<g>
	<path style="fill:#242424;" d="M125.792,420.64c17.38-10.864,53.46-24.62,86.208-32.588V333.52c-20.84-20.272-36-48.876-36-61.604
		v-96.86V172v-24c23.436-1.408,64.372-20.844,80-39.728c15.628,18.884,56.564,38.32,80,39.728v24v3.056v96.86
		c0,12.724-15.16,41.328-36,61.604v54.58c32.752,7.976,68.804,21.696,86.156,32.54c4.892,3.056,8.856,6.8,12.068,11.124
		c5.48,7.372,8.768,16.448,10.756,26.66c15.308-15.084,16.284-38.084,1.048-72.992c-15.664-35.892-62.692-75.416-58.12-199.024
		c2.068-56.156-45.368-101.936-103.376-106.072c-39.36,3.384-112.064,33.448-105.192,136.928
		c7.332,110.444-36.672,134.444-60.004,133.78c7.664,13,25.524,25.276,35.664,28c-23.884,15.008-44.696,19.856-74.792,17.968
		c1.12,0.068,2.252,0.144,3.348,0.196c-1.628,0.088-3.288,0.132-4.964,0.16c12.724,19.168,27.972,36.492,45.252,51.564
		c5.052,2.584,10.292,4.988,15.64,7.22C106.776,440.984,113.192,428.512,125.792,420.64z"/>
	<path style="fill:#242424;" d="M436.66,421.996c0.196,2.02,0.304,3.98,0.316,5.88C436.968,425.98,436.856,424.016,436.66,421.996z"
		/>
	<path style="fill:#242424;" d="M252.4,80.084C253.644,80.028,254.844,80,256,80C254.844,80,253.644,80.028,252.4,80.084z"/>
	<path style="fill:#242424;" d="M426.028,385.42c6.088,13.952,9.592,26.004,10.624,36.412
		C435.62,411.428,432.12,399.372,426.028,385.42z"/>
	<path style="fill:#242424;" d="M248.552,80.336c1.132-0.096,2.228-0.164,3.304-0.216C250.78,80.172,249.688,80.236,248.552,80.336z
		"/>
	<path style="fill:#242424;" d="M367.628,197.752c0.044-3.7,0.136-7.48,0.28-11.344c0.068-1.84,0.084-3.672,0.044-5.488
		c0.036,1.812,0.024,3.64-0.044,5.476C367.764,190.264,367.672,194.048,367.628,197.752z"/>
</g>
<g>
	<path style="fill:#1A1A1A;" d="M436.652,421.832c-1.032-10.404-4.536-22.46-10.624-36.412
		c-15.176-34.764-59.78-72.944-58.4-187.668c0.044-3.704,0.136-7.488,0.28-11.356c0.068-1.836,0.084-3.664,0.044-5.476
		c-0.924-45.42-34.22-83.216-78.488-96.148C278.844,81.672,267.588,80,256,80c-1.156,0-2.356,0.028-3.6,0.084
		c-0.176,0.008-0.368,0.028-0.544,0.036c-1.076,0.056-2.168,0.12-3.304,0.216c-0.008,0-0.016,0-0.024,0h0.004
		c58.004,4.136,105.444,49.916,103.376,106.072c-4.572,123.608,42.456,163.132,58.12,199.024
		c15.236,34.908,14.26,57.908-1.048,72.992c0.16,0.828,0.292,1.68,0.436,2.524c9.388-7.04,18.264-14.724,26.592-22.964
		c0.636-3.168,0.988-6.52,0.968-10.108c-0.012-1.896-0.12-3.86-0.316-5.88C436.656,421.94,436.66,421.888,436.652,421.832z"/>
	<path style="fill:#1A1A1A;" d="M44.208,397.012c-0.64-0.04-1.268-0.068-1.916-0.112c0.104,0.156,0.2,0.316,0.304,0.472
		c1.676-0.028,3.336-0.076,4.964-0.16C46.46,397.156,45.328,397.08,44.208,397.012z"/>
</g>
<path style="fill:#FFD7CC;" d="M374.156,420.644c-15.252-9.536-44.948-21.28-74.156-29.4V408c0,8.836-19.7,16-44,16
	c-2.04,0-4.032-0.072-6-0.164c21.452-1.072,38-7.744,38-15.836v-64.304c-10.156,7.36-21.104,12.156-32,12.156
	c-1.032,0-2.06-0.056-3.092-0.152c-0.94-0.076-1.884-0.204-2.824-0.348c-0.028-0.004-0.056-0.008-0.084-0.012h0.004
	c-13.344-2.056-26.532-10.66-38.004-21.82v54.536c-32.748,7.968-68.828,21.72-86.208,32.588
	c-12.6,7.876-19.016,20.344-22.312,35.512c-0.34,1.564-0.64,3.16-0.916,4.78c12.076,9.056,25.004,17.016,38.6,23.852
	c2.328-15.936,8.844-38.796,25.216-44.284c25.264,35.004,87.8,0.572,89.608,67.5h0.172c1.804-66.928,64.276-32.496,89.54-67.5
	c16.368,5.488,22.848,28.344,25.156,44.276c9.572-4.816,18.828-10.168,27.668-16.104
	C396.168,447.856,390.076,430.596,374.156,420.644z"/>
<path style="fill:#F2CCC2;" d="M398.224,431.764c-3.216-4.324-7.18-8.068-12.068-11.124c-17.352-10.844-53.404-24.568-86.156-32.54
	v-54.58c-3.828,3.724-7.844,7.168-12,10.18V408c0,8.092-16.548,14.764-38,15.836c1.968,0.092,3.96,0.164,6,0.164
	c24.3,0,44-7.164,44-16v-16.756c29.208,8.12,58.908,19.864,74.156,29.4c15.92,9.952,22.012,27.212,24.36,48.028
	c3.7-2.484,7.34-5.056,10.9-7.728c-0.144-0.844-0.276-1.696-0.436-2.524C406.992,448.208,403.708,439.136,398.224,431.764z"/>
<path style="fill:#C23527;" d="M345.696,440.5c-25.264,35.004-87.736,0.572-89.54,67.5h-0.172
	c-1.808-66.928-64.344-32.496-89.608-67.5c-16.372,5.488-22.888,28.348-25.216,44.284C175.708,502.156,214.692,512,256,512
	c41.312,0,80.3-9.844,114.852-27.224C368.544,468.844,362.064,445.988,345.696,440.5z"/>
<g>
	<path style="fill:#FFE1D9;" d="M252.908,355.7c-0.94-0.084-1.884-0.204-2.824-0.348C251.024,355.496,251.968,355.624,252.908,355.7
		z"/>
	<path style="fill:#FFE1D9;" d="M324,271.916v-96.24c-18.928,0.868-40.88,1.312-68,1.312c-33.024,0-58.464-0.652-80-1.932v96.86
		c0,12.724,15.16,41.328,36,61.604c11.472,11.16,24.66,19.768,38.004,21.824C287.588,349.54,324,291.652,324,271.916z"/>
</g>
<path style="fill:#F2D6CE;" d="M336,271.916v-96.86c-3.852,0.228-7.88,0.432-12,0.62v96.24c0,19.736-36.412,77.624-73.996,83.428
	H250c0.028,0.004,0.056,0.008,0.084,0.012c0.94,0.14,1.884,0.26,2.824,0.348c1.032,0.096,2.06,0.152,3.092,0.152
	c10.896,0,21.844-4.796,32-12.156c4.156-3.012,8.172-6.456,12-10.18C320.84,313.244,336,284.64,336,271.916z"/>
<path style="fill:#FFD464;" d="M324,175.676c4.12-0.188,8.148-0.392,12-0.62V172v-24c-23.436-1.408-64.372-20.844-80-39.728
	c-15.628,18.884-56.564,38.32-80,39.728v24v3.056c21.536,1.28,46.976,1.932,80,1.932C283.12,176.988,305.072,176.54,324,175.676z
	 M250.584,142.936L256,126.292l5.416,16.644h17.5l-14.164,10.292l5.408,16.644L256,159.584l-14.16,10.288l5.412-16.644
	l-14.168-10.292H250.584z"/>
<polygon style="fill:#C23527;" points="241.84,169.872 256,159.584 270.16,169.872 264.752,153.228 278.916,142.936 
	261.416,142.936 256,126.292 250.584,142.936 233.084,142.936 247.252,153.228 "/>
<ellipse style="fill:#F5F5F5;" cx="220" cy="212" rx="16" ry="12"/>
<circle style="fill:#242424;" cx="220" cy="212" r="8"/>
<ellipse style="fill:#F5F5F5;" cx="292" cy="212" rx="16" ry="12"/>
<circle style="fill:#242424;" cx="292" cy="212" r="8"/>
<g>
</g>
<g>
</g>
<g>
</g>
<g>
</g>
<g>
</g>
<g>
</g>
<g>
</g>
<g>
</g>
<g>
</g>
<g>
</g>
<g>
</g>
<g>
</g>
<g>
</g>
<g>
</g>
<g>
</g>
</svg>
