<?xml version="1.0" encoding="iso-8859-1"?>
<!-- Generator: Adobe Illustrator 19.0.0, SVG Export Plug-In . SVG Version: 6.00 Build 0)  -->
<svg version="1.1" id="Layer_1" xmlns="http://www.w3.org/2000/svg" xmlns:xlink="http://www.w3.org/1999/xlink" x="0px" y="0px"
	 viewBox="0 0 512 512" style="enable-background:new 0 0 512 512;" xml:space="preserve">
<circle style="fill:#C2D5D8;" cx="256" cy="256" r="256"/>
<circle style="fill:#FFFFFF;" cx="444" cy="68" r="68"/>
<circle style="fill:#CC584C;" cx="444" cy="68" r="56.668"/>
<g>
	<path style="fill:#91D2F2;" d="M319.3,390.2c0.768,0.084,1.536,0.176,2.308,0.268C320.832,390.376,320.068,390.284,319.3,390.2z"/>
	<path style="fill:#91D2F2;" d="M298.36,388.48c0.552,0.028,1.12,0.068,1.676,0.1C299.48,388.548,298.916,388.512,298.36,388.48z"/>
	<path style="fill:#91D2F2;" d="M380.368,404.932c0.412,0.172,0.808,0.368,1.216,0.544
		C381.176,405.3,380.78,405.104,380.368,404.932z"/>
	<path style="fill:#91D2F2;" d="M357.076,397.084c0.52,0.14,1.048,0.264,1.568,0.408
		C358.124,397.348,357.596,397.224,357.076,397.084z"/>
	<path style="fill:#91D2F2;" d="M393.696,411.424c0.756,0.424,1.492,0.872,2.236,1.312
		C395.188,412.3,394.452,411.848,393.696,411.424z"/>
	<path style="fill:#91D2F2;" d="M291.84,388.18c0.368,0.016,0.752,0.032,1.124,0.048C292.592,388.212,292.212,388.196,291.84,388.18
		z"/>
	<path style="fill:#91D2F2;" d="M387.144,408.008c0.664,0.324,1.308,0.676,1.968,1.008
		C388.452,408.68,387.808,408.328,387.144,408.008z"/>
	<path style="fill:#91D2F2;" d="M349.24,395.16c0.672,0.152,1.348,0.296,2.02,0.452C350.584,395.456,349.912,395.312,349.24,395.16z
		"/>
	<path style="fill:#91D2F2;" d="M334.052,392.22c0.78,0.128,1.556,0.252,2.336,0.384
		C335.608,392.468,334.832,392.344,334.052,392.22z"/>
	<path style="fill:#91D2F2;" d="M326.608,391.108c0.788,0.108,1.576,0.216,2.368,0.328
		C328.184,391.324,327.396,391.216,326.608,391.108z"/>
	<path style="fill:#91D2F2;" d="M312.132,389.472c0.724,0.064,1.456,0.136,2.184,0.208
		C313.588,389.608,312.86,389.54,312.132,389.472z"/>
	<path style="fill:#91D2F2;" d="M341.584,393.556c0.752,0.144,1.5,0.284,2.252,0.436C343.08,393.84,342.332,393.7,341.584,393.556z"
		/>
	<path style="fill:#91D2F2;" d="M305.152,388.908c0.648,0.048,1.304,0.1,1.96,0.148C306.456,389.008,305.8,388.952,305.152,388.908z
		"/>
	<path style="fill:#91D2F2;" d="M365.724,399.572c0.068,0.02,0.136,0.04,0.204,0.06C365.86,399.612,365.792,399.596,365.724,399.572
		z"/>
	<path style="fill:#91D2F2;" d="M426.252,440.232c0.588,0.856,1.184,1.708,1.744,2.592
		C427.436,441.94,426.84,441.092,426.252,440.232z"/>
	<path style="fill:#91D2F2;" d="M421.808,434.336c0.66,0.796,1.316,1.592,1.948,2.416
		C423.124,435.928,422.468,435.132,421.808,434.336z"/>
	<path style="fill:#91D2F2;" d="M416.928,428.912c0.712,0.728,1.416,1.464,2.108,2.216
		C418.348,430.376,417.644,429.64,416.928,428.912z"/>
	<path style="fill:#91D2F2;" d="M413.344,457.864c-22.76-60.548-104.512-69.076-153.164-69.944c-3.248,0.04-6.096,0.08-8.368,0.08
		c-27.672,0-133.768-5.904-174.04,51.68C123.864,484.412,186.696,512,256,512C315.344,512,369.928,491.752,413.344,457.864z"/>
	<path style="fill:#91D2F2;" d="M411.636,423.928c0.756,0.656,1.5,1.332,2.236,2.012
		C413.136,425.26,412.396,424.584,411.636,423.928z"/>
	<path style="fill:#91D2F2;" d="M405.98,419.368c0.784,0.584,1.548,1.188,2.312,1.796
		C407.528,420.556,406.764,419.952,405.98,419.368z"/>
	<path style="fill:#91D2F2;" d="M285.584,387.98c0.056,0,0.116,0.004,0.172,0.004C285.7,387.984,285.64,387.984,285.584,387.98z"/>
	<path style="fill:#91D2F2;" d="M399.988,415.204c0.788,0.508,1.556,1.04,2.328,1.568
		C401.54,416.248,400.776,415.712,399.988,415.204z"/>
</g>
<g>
	<path style="fill:#8AC7E6;" d="M314.32,389.68c1.648,0.16,3.308,0.332,4.98,0.52C317.628,390.012,315.968,389.84,314.32,389.68z"/>
	<path style="fill:#8AC7E6;" d="M307.112,389.056c1.66,0.128,3.332,0.264,5.024,0.416
		C310.444,389.32,308.772,389.184,307.112,389.056z"/>
	<path style="fill:#8AC7E6;" d="M285.756,387.988c1.98,0.048,4.012,0.112,6.084,0.192C289.768,388.1,287.74,388.036,285.756,387.988
		z"/>
	<path style="fill:#8AC7E6;" d="M300.036,388.58c1.688,0.096,3.388,0.204,5.112,0.328
		C303.424,388.784,301.724,388.676,300.036,388.58z"/>
	<path style="fill:#8AC7E6;" d="M292.964,388.228c1.772,0.072,3.568,0.156,5.396,0.252
		C296.532,388.384,294.74,388.3,292.964,388.228z"/>
	<path style="fill:#8AC7E6;" d="M395.932,412.736c1.368,0.804,2.728,1.616,4.052,2.468C398.66,414.352,397.3,413.54,395.932,412.736
		z"/>
	<path style="fill:#8AC7E6;" d="M419.036,431.128c0.952,1.04,1.872,2.116,2.772,3.208
		C420.904,433.244,419.988,432.168,419.036,431.128z"/>
	<path style="fill:#8AC7E6;" d="M413.872,425.94c1.044,0.964,2.06,1.96,3.056,2.972C415.932,427.9,414.916,426.908,413.872,425.94z"
		/>
	<path style="fill:#8AC7E6;" d="M408.292,421.16c1.136,0.9,2.256,1.82,3.348,2.768C410.544,422.98,409.428,422.06,408.292,421.16z"
		/>
	<path style="fill:#8AC7E6;" d="M402.312,416.772c1.24,0.844,2.468,1.7,3.664,2.596C404.78,418.472,403.552,417.616,402.312,416.772
		z"/>
	<path style="fill:#8AC7E6;" d="M429.044,444.624c0.016-0.012,0.028-0.028,0.04-0.04c-0.356-0.596-0.72-1.176-1.088-1.76
		C428.364,443.408,428.688,444.028,429.044,444.624z"/>
	<path style="fill:#8AC7E6;" d="M321.604,390.468c1.66,0.196,3.328,0.412,5,0.64C324.932,390.88,323.264,390.664,321.604,390.468z"
		/>
	<path style="fill:#8AC7E6;" d="M389.112,409.012c1.544,0.78,3.08,1.572,4.584,2.412
		C392.192,410.588,390.656,409.796,389.112,409.012z"/>
	<path style="fill:#8AC7E6;" d="M285.584,387.98c-9.972-0.244-18.72-0.152-25.492-0.064c0.028,0,0.06,0,0.088,0
		C266.952,387.832,275.632,387.736,285.584,387.98z"/>
	<path style="fill:#8AC7E6;" d="M423.756,436.752c0.864,1.128,1.684,2.3,2.496,3.48C425.44,439.052,424.62,437.88,423.756,436.752z"
		/>
	<path style="fill:#8AC7E6;" d="M336.388,392.604c1.728,0.296,3.464,0.62,5.196,0.952
		C339.848,393.224,338.116,392.9,336.388,392.604z"/>
	<path style="fill:#8AC7E6;" d="M328.972,391.436c1.688,0.244,3.38,0.508,5.08,0.784
		C332.356,391.944,330.664,391.68,328.972,391.436z"/>
	<path style="fill:#8AC7E6;" d="M343.832,393.992c1.804,0.364,3.604,0.76,5.408,1.168
		C347.436,394.752,345.636,394.356,343.832,393.992z"/>
	<path style="fill:#8AC7E6;" d="M381.584,405.476c1.876,0.812,3.732,1.644,5.56,2.532
		C385.316,407.12,383.46,406.288,381.584,405.476z"/>
	<path style="fill:#8AC7E6;" d="M365.928,399.632c4.912,1.556,9.74,3.316,14.44,5.296
		C375.668,402.948,370.84,401.188,365.928,399.632z"/>
	<path style="fill:#8AC7E6;" d="M358.644,397.488c2.376,0.652,4.736,1.344,7.084,2.084
		C363.38,398.832,361.016,398.14,358.644,397.488z"/>
	<path style="fill:#8AC7E6;" d="M351.256,395.612c1.944,0.46,3.884,0.956,5.82,1.472
		C355.14,396.572,353.204,396.072,351.256,395.612z"/>
	<path style="fill:#8AC7E6;" d="M426.252,440.232c-0.812-1.18-1.632-2.352-2.496-3.48c-0.632-0.824-1.288-1.62-1.948-2.416
		c-0.904-1.092-1.82-2.168-2.772-3.208c-0.688-0.752-1.392-1.488-2.108-2.216c-0.996-1.016-2.012-2.008-3.056-2.972
		c-0.736-0.68-1.476-1.356-2.236-2.012c-1.092-0.948-2.212-1.868-3.348-2.768c-0.764-0.604-1.528-1.212-2.312-1.796
		c-1.196-0.892-2.424-1.752-3.664-2.596c-0.772-0.524-1.54-1.06-2.328-1.568c-1.328-0.856-2.688-1.668-4.052-2.468
		c-0.744-0.436-1.48-0.888-2.236-1.312c-1.504-0.84-3.04-1.632-4.584-2.412c-0.656-0.332-1.304-0.684-1.968-1.008
		c-1.828-0.884-3.688-1.72-5.56-2.532c-0.408-0.176-0.808-0.372-1.216-0.544c-4.7-1.984-9.528-3.744-14.44-5.296
		c-0.068-0.02-0.136-0.04-0.204-0.06c-2.344-0.74-4.708-1.432-7.084-2.084c-0.52-0.144-1.044-0.268-1.568-0.408
		c-1.936-0.512-3.872-1.012-5.82-1.472c-0.672-0.16-1.348-0.3-2.02-0.452c-1.8-0.408-3.604-0.804-5.408-1.168
		c-0.752-0.152-1.5-0.292-2.252-0.436c-1.732-0.332-3.464-0.656-5.196-0.952c-0.78-0.132-1.556-0.26-2.336-0.384
		c-1.696-0.276-3.392-0.54-5.08-0.784c-0.792-0.112-1.58-0.224-2.368-0.328c-1.676-0.228-3.344-0.44-5-0.64
		c-0.772-0.092-1.54-0.18-2.308-0.268c-1.672-0.188-3.332-0.36-4.98-0.52c-0.728-0.072-1.46-0.144-2.184-0.208
		c-1.692-0.152-3.364-0.288-5.024-0.416c-0.652-0.048-1.312-0.104-1.96-0.148c-1.728-0.124-3.428-0.228-5.112-0.328
		c-0.556-0.032-1.124-0.068-1.676-0.1c-1.828-0.1-3.624-0.18-5.396-0.252c-0.372-0.016-0.756-0.036-1.124-0.048
		c-2.072-0.08-4.104-0.144-6.084-0.192c-0.056,0-0.116-0.004-0.172-0.004c-9.956-0.244-18.632-0.152-25.404-0.064
		c48.648,0.868,130.4,9.396,153.164,69.944c5.404-4.216,10.66-8.608,15.7-13.24c-0.356-0.596-0.68-1.216-1.048-1.8
		C427.436,441.94,426.84,441.092,426.252,440.232z"/>
</g>
<ellipse style="fill:#F5F5F5;" cx="251.812" cy="394" rx="56" ry="22"/>
<path style="fill:#E6CBC3;" d="M301.484,382.252h0.02l-13.692-42.584l-36-2.664l-36,2.664l-13.696,42.584h0.024
	c-0.204,0.584-0.328,1.18-0.328,1.772c0,8.824,22.388,15.972,50,15.972c27.608,0,50-7.148,50-15.972
	C301.812,383.428,301.688,382.836,301.484,382.252z"/>
<path style="fill:#D9BFB8;" d="M301.484,382.252h0.02l-13.692-42.584l-36-2.664l-7,0.516l29,2.148l13.692,42.584h-0.02
	c0.204,0.584,0.328,1.18,0.328,1.772c0,8.064-18.712,14.712-43,15.8c2.288,0.096,4.616,0.172,7,0.172c27.608,0,50-7.148,50-15.972
	C301.812,383.428,301.688,382.836,301.484,382.252z"/>
<path style="fill:#FFE1D9;" d="M355.812,168v-41.612c0-32.452-23.084-58.388-104-58.388s-104,25.936-104,58.388V168
	c0,0-16,1.18-16,12v44.276c0,10.816,4,19.724,16,19.724c0,54.084,48.092,116,104,116s104-61.916,104-116c12,0,16-8.908,16-19.724
	V180C371.812,169.18,355.812,168,355.812,168z"/>
<path style="fill:#F2D6CE;" d="M251.812,68c-2.048,0-4.032,0.028-6,0.06c76.048,1.264,98,26.696,98,58.328V168v76
	c0,52.14-44.704,111.532-98,115.744c1.992,0.156,3.988,0.256,6,0.256c55.908,0,104-61.916,104-116v-76v-41.612
	C355.812,93.936,332.736,68,251.812,68z"/>
<path style="fill:#242424;" d="M251.812,68c-80.916,0-104,25.936-104,58.388V168v44c3.704-18.52,14.28-71.324,38.064-88.56
	c18.92,5.408,41.576,8.56,65.936,8.56c24.356,0,47.016-3.156,65.936-8.56c23.776,17.24,34.36,70.04,38.064,88.56v-44v-41.612
	C355.812,93.936,332.736,68,251.812,68z"/>
<path style="fill:#1A1A1A;" d="M251.812,68c-2.04,0-4.02,0.028-5.988,0.06c76.036,1.268,97.988,26.696,97.988,58.328v39.48
	c6.372,18.112,10.1,36.632,12,46.132v-44v-41.612C355.812,93.936,332.736,68,251.812,68z"/>
<g>
	<path style="fill:#F5F5F5;" d="M443.656,98.668c-4.416,0-8-3.584-8-8V45.336c0-4.416,3.584-8,8-8s8,3.584,8,8v45.332
		C451.656,95.084,448.08,98.668,443.656,98.668z"/>
	<path style="fill:#F5F5F5;" d="M466.668,76h-45.336c-4.416,0-8-3.584-8-8s3.584-8,8-8h45.336c4.416,0,8,3.584,8,8
		S471.084,76,466.668,76z"/>
	<ellipse style="fill:#F5F5F5;" cx="220" cy="204" rx="16" ry="12"/>
</g>
<circle style="fill:#242424;" cx="220" cy="204" r="8"/>
<ellipse style="fill:#F5F5F5;" cx="292" cy="204" rx="16" ry="12"/>
<circle style="fill:#242424;" cx="292" cy="204" r="8"/>
<g>
</g>
<g>
</g>
<g>
</g>
<g>
</g>
<g>
</g>
<g>
</g>
<g>
</g>
<g>
</g>
<g>
</g>
<g>
</g>
<g>
</g>
<g>
</g>
<g>
</g>
<g>
</g>
<g>
</g>
</svg>
