<?xml version="1.0" encoding="iso-8859-1"?>
<!-- Generator: Adobe Illustrator 19.0.0, SVG Export Plug-In . SVG Version: 6.00 Build 0)  -->
<svg version="1.1" id="Layer_1" xmlns="http://www.w3.org/2000/svg" xmlns:xlink="http://www.w3.org/1999/xlink" x="0px" y="0px"
	 viewBox="0 0 512 512" style="enable-background:new 0 0 512 512;" xml:space="preserve">
<circle style="fill:#B2E3FF;" cx="256" cy="256" r="256"/>
<circle style="fill:#FFFFFF;" cx="444" cy="68" r="68"/>
<circle style="fill:#CC584C;" cx="444" cy="68" r="56.668"/>
<g>
	<path style="fill:#45998B;" d="M307.436,391.524c0.232,0.812,0.376,1.64,0.376,2.476c0,12.152-25.072,22-56,22s-56-9.848-56-22
		c0-1.728,0.556-3.4,1.516-5.012c-41.768,3.1-93.948,14.076-119.556,50.692C123.864,484.412,186.696,512,256,512
		c59.344,0,113.928-20.248,157.344-54.136C397.032,414.472,350.448,397.804,307.436,391.524z"/>
	<path style="fill:#45998B;" d="M399.988,415.204c0.788,0.508,1.556,1.04,2.328,1.568
		C401.54,416.248,400.776,415.712,399.988,415.204z"/>
	<path style="fill:#45998B;" d="M393.696,411.424c0.756,0.424,1.492,0.872,2.236,1.312
		C395.188,412.3,394.452,411.848,393.696,411.424z"/>
	<path style="fill:#45998B;" d="M426.252,440.232c0.588,0.856,1.184,1.708,1.744,2.592
		C427.436,441.94,426.84,441.092,426.252,440.232z"/>
	<path style="fill:#45998B;" d="M421.808,434.336c0.66,0.796,1.316,1.592,1.948,2.416
		C423.124,435.928,422.468,435.132,421.808,434.336z"/>
	<path style="fill:#45998B;" d="M416.928,428.912c0.712,0.728,1.416,1.464,2.108,2.216
		C418.348,430.376,417.644,429.64,416.928,428.912z"/>
	<path style="fill:#45998B;" d="M380.368,404.932c0.412,0.172,0.808,0.368,1.216,0.544
		C381.176,405.3,380.78,405.104,380.368,404.932z"/>
	<path style="fill:#45998B;" d="M387.144,408.008c0.664,0.324,1.308,0.676,1.968,1.008
		C388.452,408.68,387.808,408.328,387.144,408.008z"/>
	<path style="fill:#45998B;" d="M411.636,423.928c0.756,0.656,1.5,1.332,2.236,2.012
		C413.136,425.26,412.396,424.584,411.636,423.928z"/>
	<path style="fill:#45998B;" d="M405.98,419.368c0.784,0.584,1.548,1.188,2.312,1.796
		C407.528,420.556,406.764,419.952,405.98,419.368z"/>
	<path style="fill:#45998B;" d="M312.132,389.472c0.724,0.064,1.456,0.136,2.184,0.208
		C313.588,389.608,312.86,389.54,312.132,389.472z"/>
	<path style="fill:#45998B;" d="M357.076,397.084c0.52,0.14,1.048,0.264,1.568,0.408
		C358.124,397.348,357.596,397.224,357.076,397.084z"/>
	<path style="fill:#45998B;" d="M349.24,395.16c0.672,0.152,1.348,0.296,2.02,0.452C350.584,395.456,349.912,395.312,349.24,395.16z
		"/>
	<path style="fill:#45998B;" d="M307.112,389.056c-0.268-0.02-0.544-0.048-0.812-0.068l0.004,0.004
		C306.568,389.016,306.84,389.036,307.112,389.056z"/>
	<path style="fill:#45998B;" d="M341.584,393.556c0.752,0.144,1.5,0.284,2.252,0.436C343.08,393.84,342.332,393.7,341.584,393.556z"
		/>
	<path style="fill:#45998B;" d="M365.724,399.572c0.068,0.02,0.136,0.04,0.204,0.06C365.86,399.612,365.792,399.596,365.724,399.572
		z"/>
	<path style="fill:#45998B;" d="M319.3,390.2c0.768,0.084,1.536,0.176,2.308,0.268C320.832,390.376,320.068,390.284,319.3,390.2z"/>
	<path style="fill:#45998B;" d="M334.052,392.22c0.78,0.128,1.556,0.252,2.336,0.384
		C335.608,392.468,334.832,392.344,334.052,392.22z"/>
	<path style="fill:#45998B;" d="M326.608,391.108c0.788,0.108,1.576,0.216,2.368,0.328
		C328.184,391.324,327.396,391.216,326.608,391.108z"/>
</g>
<path style="fill:#3F8C7F;" d="M429.084,444.584c-0.356-0.596-0.72-1.176-1.088-1.76c-0.56-0.884-1.156-1.736-1.744-2.592
	c-0.812-1.18-1.632-2.352-2.496-3.48c-0.632-0.824-1.288-1.62-1.948-2.416c-0.904-1.092-1.82-2.168-2.772-3.208
	c-0.688-0.752-1.392-1.488-2.108-2.216c-0.996-1.016-2.012-2.008-3.056-2.972c-0.736-0.68-1.476-1.356-2.236-2.012
	c-1.092-0.948-2.212-1.868-3.348-2.768c-0.764-0.604-1.528-1.212-2.312-1.796c-1.2-0.892-2.424-1.752-3.664-2.596
	c-0.772-0.524-1.54-1.06-2.328-1.568c-1.328-0.856-2.688-1.668-4.052-2.468c-0.744-0.436-1.48-0.888-2.236-1.312
	c-1.504-0.84-3.04-1.632-4.584-2.412c-0.656-0.332-1.304-0.684-1.968-1.008c-1.828-0.888-3.684-1.72-5.56-2.532
	c-0.408-0.176-0.808-0.372-1.216-0.544c-4.7-1.984-9.528-3.74-14.44-5.296c-0.068-0.02-0.136-0.04-0.204-0.06
	c-2.344-0.74-4.708-1.432-7.084-2.084c-0.52-0.144-1.044-0.268-1.568-0.408c-1.936-0.512-3.872-1.012-5.82-1.472
	c-0.672-0.16-1.348-0.3-2.02-0.452c-1.8-0.408-3.6-0.804-5.408-1.168c-0.752-0.152-1.5-0.292-2.252-0.436
	c-1.736-0.332-3.464-0.656-5.196-0.952c-0.78-0.132-1.556-0.26-2.336-0.384c-1.696-0.276-3.388-0.54-5.08-0.784
	c-0.792-0.112-1.58-0.224-2.368-0.328c-1.676-0.228-3.34-0.44-5-0.64c-0.772-0.092-1.54-0.18-2.308-0.268
	c-1.672-0.188-3.328-0.36-4.98-0.52c-0.728-0.072-1.46-0.144-2.184-0.208c-1.692-0.152-3.364-0.292-5.024-0.416
	c-0.272-0.02-0.54-0.04-0.812-0.06c0.492,0.828,0.888,1.668,1.136,2.528c43.016,6.28,89.596,22.948,105.908,66.34
	C418.76,453.632,424.028,449.228,429.084,444.584z"/>
<path style="fill:#F5F5F5;" d="M251.812,416c30.928,0,56-9.848,56-22c0-0.84-0.144-1.664-0.376-2.476
	c-0.244-0.86-0.644-1.7-1.136-2.528l-0.004-0.004c-1.016-1.708-2.536-3.34-4.5-4.868c-0.164,8.78-22.48,15.876-49.984,15.876
	c-2.348,0-4.64-0.068-6.9-0.168c-0.032,0-0.068,0-0.1-0.004c0.008,0,0.016,0,0.024,0c-24.204-1.084-42.856-7.68-43.008-15.704
	c-1.964,1.532-3.484,3.16-4.5,4.868c-0.956,1.612-1.516,3.284-1.516,5.012C195.812,406.152,220.884,416,251.812,416z"/>
<g>
	<path style="fill:#E6CBC3;" d="M251.812,399.996c-2.348,0-4.644-0.076-6.9-0.168C247.172,399.928,249.464,399.996,251.812,399.996z
		"/>
	<path style="fill:#E6CBC3;" d="M244.836,399.824c24.276-1.092,42.976-7.736,42.976-15.8c0-0.592-0.124-1.188-0.328-1.772h0.02
		l-8.704-27.076c-8.664,3.088-17.712,4.824-26.988,4.824c-1.992,0-3.972-0.1-5.944-0.252c-0.02,0-0.036,0-0.056-0.004
		c0.004,0,0.012,0,0.016,0c-11.624-0.916-22.836-4.448-33.268-9.968l-10.444,32.476h0.024c-0.204,0.584-0.328,1.18-0.328,1.772
		c0,0.032,0.016,0.064,0.016,0.096C201.976,392.14,220.632,398.74,244.836,399.824z"/>
</g>
<path style="fill:#D9BFB8;" d="M287.504,382.252h-0.02c0.204,0.584,0.328,1.18,0.328,1.772c0,8.06-18.7,14.708-42.976,15.8
	c-0.008,0-0.016,0-0.024,0c0.032,0,0.068,0,0.1,0.004c2.256,0.092,4.548,0.168,6.9,0.168c27.508,0,49.82-7.096,49.984-15.876
	c0-0.032,0.016-0.064,0.016-0.096c0-0.596-0.124-1.188-0.328-1.772h0.02l-10.44-32.476c-3.98,2.104-8.076,3.908-12.264,5.4
	L287.504,382.252z"/>
<g>
	<path style="fill:#FFE1D9;" d="M355.812,244c12,0,16-8.908,16-19.724V180c0-10.82-16-12-16-12v44V244z"/>
	<path style="fill:#FFE1D9;" d="M343.812,244v-76v-2.12c-6.052-17.2-14.484-34.04-26.064-42.44c-18.92,5.404-41.58,8.56-65.936,8.56
		c-24.36,0-47.016-3.152-65.936-8.56c-23.784,17.236-34.36,70.04-38.064,88.56v-44c0,0-16,1.18-16,12v44.276
		c0,10.816,4,19.724,16,19.724c0,40.772,27.34,85.984,64.748,105.776c10.432,5.52,21.644,9.052,33.268,9.968
		C299.116,355.52,343.812,296.136,343.812,244z"/>
	<path style="fill:#FFE1D9;" d="M251.812,360c-1.992,0-3.972-0.1-5.944-0.252C247.84,359.9,249.82,360,251.812,360z"/>
</g>
<g>
	<path style="fill:#F2D6CE;" d="M245.824,68.06c1.968-0.032,3.948-0.06,5.988-0.06c-2.048,0-4.032,0.028-6,0.06
		c0.008,0,0.016,0,0.024,0c0.004,0,0.008,0,0.008,0C245.84,68.06,245.832,68.06,245.824,68.06z"/>
	<path style="fill:#F2D6CE;" d="M343.856,165.996c-0.012-0.04-0.028-0.08-0.044-0.116V168v76c0,52.136-44.696,111.52-97.984,115.744
		c-0.004,0-0.012,0-0.016,0c0.02,0,0.036,0,0.056,0.004c1.972,0.152,3.952,0.252,5.944,0.252c9.276,0,18.324-1.736,26.988-4.824
		c4.188-1.492,8.284-3.296,12.264-5.4c37.408-19.792,64.748-65,64.748-105.776v-32C353.916,202.524,350.2,184.068,343.856,165.996z"
		/>
</g>
<path style="fill:#99602E;" d="M185.876,123.44c18.92,5.408,41.576,8.56,65.936,8.56c24.356,0,47.016-3.156,65.936-8.56
	c11.58,8.396,20.012,25.236,26.064,42.44c0.012,0.04,0.028,0.08,0.044,0.116c-0.016-0.044-0.028-0.084-0.044-0.128v-39.48
	c0-1.976-0.084-3.928-0.264-5.856c-2.688-28.86-26.436-51.28-97.7-52.472c-0.004,0-0.004,0-0.008,0
	c-76.064,1.26-98.024,26.692-98.024,58.328V168v44C151.516,193.48,162.092,140.676,185.876,123.44z"/>
<path style="fill:#8C582A;" d="M245.848,68.06c71.264,1.192,95.012,23.616,97.7,52.472c0.18,1.924,0.264,3.876,0.264,5.856v39.48
	c0.016,0.044,0.028,0.084,0.044,0.128c6.344,18.072,10.06,36.528,11.956,46.004v-44v-41.612c0-1.016-0.024-2.02-0.068-3.024
	C354.312,92.34,330.208,68,251.812,68c-2.04,0-4.02,0.028-5.988,0.06C245.832,68.06,245.84,68.06,245.848,68.06z"/>
<g>
	<path style="fill:#F5F5F5;" d="M459.108,76h-34c-4.416,0-8-3.584-8-8s3.584-8,8-8h34c4.416,0,8,3.584,8,8S463.528,76,459.108,76z"
		/>
	<ellipse style="fill:#F5F5F5;" cx="220" cy="200" rx="16" ry="12"/>
</g>
<circle style="fill:#734822;" cx="220" cy="200" r="8"/>
<ellipse style="fill:#F5F5F5;" cx="292" cy="200" rx="16" ry="12"/>
<circle style="fill:#734822;" cx="292" cy="200" r="8"/>
<g>
</g>
<g>
</g>
<g>
</g>
<g>
</g>
<g>
</g>
<g>
</g>
<g>
</g>
<g>
</g>
<g>
</g>
<g>
</g>
<g>
</g>
<g>
</g>
<g>
</g>
<g>
</g>
<g>
</g>
</svg>
