<?xml version="1.0" encoding="iso-8859-1"?>
<!-- Generator: Adobe Illustrator 19.0.0, SVG Export Plug-In . SVG Version: 6.00 Build 0)  -->
<svg version="1.1" id="Layer_1" xmlns="http://www.w3.org/2000/svg" xmlns:xlink="http://www.w3.org/1999/xlink" x="0px" y="0px"
	 viewBox="0 0 512 512" style="enable-background:new 0 0 512 512;" xml:space="preserve">
<circle style="fill:#88C5CC;" cx="256" cy="256" r="256"/>
<path style="fill:#E6CBC3;" d="M283.864,377.928l-7.088-22.044c-8.044,2.652-16.412,4.116-24.964,4.116
	c-1.992,0-3.972-0.1-5.944-0.252c-0.02,0-0.036,0-0.056-0.004c0.004,0,0.012,0,0.016,0c-10.908-0.86-21.448-4.04-31.328-8.992
	l-5.744,17.864L252,404L283.864,377.928z"/>
<path style="fill:#D9BFB8;" d="M283.864,377.928l11.084-9.068l-5.824-18.112c-4.016,2.012-8.132,3.748-12.348,5.136L283.864,377.928
	z"/>
<g>
	<path style="fill:#FFE1D9;" d="M355.812,211.98V212v32c12,0,16-8.908,16-19.728V180c0-10.804-15.952-11.996-15.996-12v44
		C355.816,211.996,355.812,211.988,355.812,211.98z"/>
	<path style="fill:#FFE1D9;" d="M251.812,360c-1.992,0-3.972-0.1-5.944-0.252C247.84,359.9,249.82,360,251.812,360z"/>
	<path style="fill:#FFE1D9;" d="M343.812,244v-76v-2.132v-0.004c-6.052-17.196-14.48-34.032-26.06-42.428
		C296,192,148,80,147.812,212v-44c0,0-16,1.18-16,12v44.272c0,10.82,4,19.728,16,19.728c0,41.472,28.288,87.516,66.688,106.752
		c9.88,4.948,20.42,8.132,31.328,8.992C299.12,355.52,343.812,296.136,343.812,244z"/>
</g>
<path style="fill:#F2D6CE;" d="M343.812,165.868V168v76c0,52.136-44.692,111.52-97.984,115.744c-0.004,0-0.012,0-0.016,0
	c0.02,0,0.036,0,0.056,0.004c1.972,0.152,3.952,0.252,5.944,0.252c8.552,0,16.92-1.464,24.964-4.112
	c4.216-1.388,8.332-3.124,12.348-5.136c38.396-19.236,66.688-65.28,66.688-106.752v-32
	C353.908,202.5,350.184,183.984,343.812,165.868z"/>
<g>
	<path style="fill:#99602E;" d="M355.812,126.392V168v43.98c0,0.004,0.004,0.012,0.004,0.02v-44l0,0L355.812,126.392
		c0-22.312-10.908-41.544-44.02-51.388C344.904,84.848,355.812,104.08,355.812,126.392z"/>
	<path style="fill:#99602E;" d="M302.2,72.56c3.384,0.736,6.58,1.552,9.588,2.448C308.78,74.112,305.584,73.296,302.2,72.56z"/>
	<path style="fill:#99602E;" d="M317.752,123.436c11.58,8.396,20.008,25.232,26.06,42.428v-39.472c0-5.932-0.772-11.644-2.528-17.02
		c-7.608-23.3-33.68-40.28-95.46-41.308c1.968-0.036,3.948-0.064,5.988-0.064c-80.916,0-104,25.936-104,58.392V168v44
		C148,80,296,192,317.752,123.436z"/>
</g>
<path style="fill:#8C582A;" d="M341.284,109.372c1.756,5.376,2.528,11.088,2.528,17.02v39.472v0.004
	c6.372,18.116,10.096,36.632,12,46.132v-0.02V168v-41.608c0-22.312-10.908-41.544-44.02-51.388
	c-3.012-0.896-6.204-1.712-9.588-2.448C288.656,69.62,272.04,68,251.812,68c-2.04,0-4.02,0.028-5.988,0.064
	C307.604,69.092,333.68,86.072,341.284,109.372z"/>
<g>
	<path style="fill:#E6E6E6;" d="M415.892,448.192c-1.272,2.016-2.34,5.572-3.236,10.212c2.976-2.304,5.9-4.668,8.768-7.1
		L415.892,448.192z"/>
	<path style="fill:#E6E6E6;" d="M87.424,448.572c0.52,0.456,1.044,0.908,1.568,1.356c-0.284-0.66-0.576-1.252-0.884-1.74
		L87.424,448.572z"/>
	<path style="fill:#E6E6E6;" d="M252,488c55.104,0,99.784-40.464,99.992-75.756L316,392l-20,35v17l-7.372-4.096L284,448
		l-13.016-17.9l-0.028-0.016C268.368,438.136,260.908,444,252,444s-16.368-5.864-18.956-13.912l-0.028,0.016L220,448l-4.628-8.096
		L208,444v-17l-20-35l-35.992,20.244C152.216,447.536,196.896,488,252,488z"/>
</g>
<g>
	<polygon style="fill:#F5F5F5;" points="220,448 233.016,430.1 215.372,439.904 	"/>
	<path style="fill:#F5F5F5;" d="M208,404l25.044,13.912C235.632,409.864,243.092,404,252,404l-43.244-35.384L208,368l-20,24l20,35
		V404z"/>
	<path style="fill:#F5F5F5;" d="M252,404c8.908,0,16.368,5.864,18.956,13.912L296,404v23l20-35l-20-24l-1.052,0.86l-11.084,9.068
		L252,404z"/>
	<polygon style="fill:#F5F5F5;" points="284,448 288.628,439.904 270.984,430.1 	"/>
</g>
<g>
	<path style="fill:#242424;" d="M270.956,417.912C268.368,409.864,260.908,404,252,404s-16.368,5.864-18.956,13.912L208,404v23v17
		l7.372-4.096l17.644-9.8l0.028-0.016C235.632,438.136,243.092,444,252,444c8.908,0,16.368-5.864,18.956-13.912l0.028,0.016
		l17.644,9.8L296,444v-17v-23L270.956,417.912z"/>
	<path style="fill:#242424;" d="M416,448l-64-36c0,0.08-0.008,0.164-0.008,0.244C351.784,447.536,307.104,488,252,488
		s-99.784-40.464-99.992-75.756c0-0.08-0.008-0.164-0.008-0.244l-64,36c0.036,0.056,0.072,0.132,0.108,0.192
		c0.308,0.488,0.6,1.08,0.884,1.74C133.828,488.58,192.16,512,256,512c59.032,0,113.352-20.032,156.656-53.6
		c0.896-4.64,1.964-8.196,3.236-10.212C415.928,448.132,415.964,448.056,416,448z"/>
</g>
<circle style="fill:#F5F5F5;" cx="208" cy="200" r="16"/>
<circle style="fill:#734822;" cx="208" cy="200" r="8"/>
<circle style="fill:#F5F5F5;" cx="296" cy="200" r="16"/>
<circle style="fill:#734822;" cx="296" cy="200" r="8"/>
<g>
</g>
<g>
</g>
<g>
</g>
<g>
</g>
<g>
</g>
<g>
</g>
<g>
</g>
<g>
</g>
<g>
</g>
<g>
</g>
<g>
</g>
<g>
</g>
<g>
</g>
<g>
</g>
<g>
</g>
</svg>
