<?xml version="1.0" encoding="iso-8859-1"?>
<!-- Generator: Adobe Illustrator 19.0.0, SVG Export Plug-In . SVG Version: 6.00 Build 0)  -->
<svg version="1.1" id="Layer_1" xmlns="http://www.w3.org/2000/svg" xmlns:xlink="http://www.w3.org/1999/xlink" x="0px" y="0px"
	 viewBox="0 0 512 512" style="enable-background:new 0 0 512 512;" xml:space="preserve">
<circle style="fill:#2D4452;" cx="256" cy="256" r="256"/>
<g>
	<path style="fill:#E78244;" d="M390.464,226.58c1.304,2.972,2.792,6.144,4.412,9.428
		C393.256,232.724,391.768,229.552,390.464,226.58z"/>
	<path style="fill:#E78244;" d="M245.232,90.812c1.704-0.144,3.424-0.256,5.156-0.34C248.652,90.548,246.936,90.672,245.232,90.812z
		"/>
	<path style="fill:#E78244;" d="M328.496,369.048c0.004,0,0.004,0,0.008,0.004c52.24-14.412,85.088-43.736,100.52-73.076
		c0,0-21.196-33.688-34.148-59.968c12.952,26.28,34.148,59.968,34.14,59.968C413.588,325.316,380.74,354.64,328.496,369.048z"/>
	<path style="fill:#E78244;" d="M197.616,364.292c0.704-0.232,1.396-0.46,2.08-0.688c4.336-1.44,8.208-2.736,11.12-3.788
		c0.064-0.024,0.124-0.044,0.188-0.068c0.736-0.268,1.384-0.516,1.988-0.752l-2.228-16.436
		c-23.14-16.008-39.816-43.892-44.168-76.708c-0.376,0.052-0.748,0.116-1.136,0.116c-4.42,0-8-3.58-8-8
		c0-4.352,3.48-7.876,7.808-7.98c0.016,4.992,0.192,7.98,0.192,7.98c0-1.08,0.116-2.048,0.152-3.092
		c2.78-77.824,107.668-57.352,139.432-81.156c3.456-2.588,6.052-5.7,7.544-9.524l0,0c5.988,5.744,11.364,12.36,15.964,19.72
		c0.868,1.392,1.712,2.808,2.524,4.248c9.764,17.288,15.464,38.132,15.464,60.564l0,0l0,0c0,0.46-0.024,0.912-0.028,1.372
		c3.76,0.656,6.62,3.916,6.62,7.86c0,4.328-3.444,7.832-7.74,7.972c-4.372,32.78-21.036,60.628-44.156,76.624l-2.228,16.436
		c2.864,1.116,7.284,2.612,12.492,4.34c2.024,0.672,4.184,1.388,6.388,2.12c0.072,0.024,0.14,0.048,0.212,0.072
		c45.752-15.28,75.016-42.388,89.3-69.556c0,0-37.676-59.884-43.252-82.256c-15.62-62.9-53.884-117.448-118.952-122.904
		c-65.032,5.456-103.332,60.004-118.956,122.908c-5.536,22.368-43.256,82.256-43.256,82.256
		c15.428,29.34,48.276,58.664,100.516,73.072C188.304,367.388,193.148,365.776,197.616,364.292
		C197.616,364.296,197.616,364.292,197.616,364.292z"/>
</g>
<path style="fill:#D97A40;" d="M364.144,213.72c5.576,22.372,43.252,82.256,43.252,82.256c-14.284,27.168-43.544,54.276-89.3,69.556
	c2.096,0.696,4.224,1.408,6.388,2.144c0.116,0.04,0.228,0.08,0.344,0.116c1.22,0.416,2.444,0.836,3.668,1.26
	c52.244-14.408,85.092-43.732,100.52-73.072c0.004,0-21.188-33.688-34.14-59.968c-1.62-3.284-3.108-6.456-4.412-9.428
	c-2.172-4.956-3.828-9.368-4.7-12.864C369.296,147.404,327.68,90.332,256,90.332c-1.896,0-3.76,0.052-5.608,0.14
	c-1.736,0.084-3.452,0.2-5.156,0.34c-0.016,0-0.032,0-0.044,0.004c0,0,0,0,0.004,0C310.26,96.272,348.524,150.82,364.144,213.72z"/>
<path style="fill:#C23527;" d="M354.688,386.796c-8.372,20.144-37.944,48.48-57.092,60.06c-5.32,3.216-9.844,5.16-12.872,5.252
	c-0.128-2.196-0.448-4.5-0.884-6.828l0,0c-2.392-12.504-9.004-25.912-15.14-28.76c-4.596,0-8.916,0.904-12.692,0.904
	c-0.7,0-1.436-0.056-2.168-0.104l0,0c-0.004,0-0.008,0-0.012,0c-1.74-0.12-3.572-0.316-5.476-0.5c-0.16-0.016-0.3-0.028-0.46-0.04
	c0.004,0,0.008,0,0.012,0c-1.496-0.14-3.016-0.256-4.588-0.256c-0.004,0-0.004,0.004-0.008,0.004c0,0,0.004,0,0.008,0
	c-6.884,4.832-15.296,22.492-16.02,35.584c-0.452-0.012-0.944-0.072-1.46-0.168c-0.24-0.044-0.512-0.124-0.768-0.184
	c-0.264-0.064-0.52-0.116-0.8-0.196c-17.828-5.176-63.384-46.44-68.716-70.164c-21.232,5.308-64.428,17.012-93.212,41.924
	C109.28,477.604,178.6,512,256,512c71.856,0,136.76-29.644,183.252-77.324C417.972,409.148,381.34,394.772,354.688,386.796z
	 M256,491.3c-5.972,0-10.812-4.84-10.812-10.812c0-5.972,4.84-10.812,10.812-10.812c5.972,0,10.812,4.84,10.812,10.812
	S261.972,491.3,256,491.3z"/>
<path style="fill:#B33124;" d="M354.688,386.796c26.656,7.976,63.284,22.352,84.568,47.88c3.588-3.676,7.048-7.472,10.412-11.36
	c-28.78-24.908-71.968-36.612-93.2-41.92C356.076,383.108,355.464,384.92,354.688,386.796z"/>
<g>
	<rect x="300.12" y="342.48" style="fill:#E6AFA0;" width="0.008" height="16.588"/>
	<path style="fill:#E6AFA0;" d="M283.76,351.856c-8.748,3.368-18.072,5.208-27.76,5.208c-16.484,0-31.924-5.296-45.236-14.504
		l2.228,16.436c0.108-0.04,0.252-0.092,0.352-0.132c0,17.46,17.296,41.464,40.112,46.668c0.844,0.068,1.684,0.18,2.54,0.18
		c7.856,0,15.192-3.036,21.512-7.768L283.76,351.856z"/>
</g>
<path style="fill:#D9A597;" d="M298.484,361.78c0.084-0.98,0.168-1.964,0.168-2.916c0.1,0.04,0.24,0.088,0.348,0.132l2.228-16.428
	c-5.488,3.796-11.332,6.928-17.468,9.292l-6.244,46.088c10.96-8.204,18.768-21.576,20.652-33.652l0,0
	C298.292,363.448,298.4,362.612,298.484,361.78z"/>
<g>
	<path style="fill:#992B1F;" d="M165.46,257.964c0,0-0.172-2.988-0.192-7.98c-4.328,0.104-7.808,3.628-7.808,7.98c0,4.42,3.58,8,8,8
		c0.388,0,0.76-0.06,1.136-0.116c-0.48-3.604-0.808-7.268-0.98-10.98C165.576,255.916,165.46,256.884,165.46,257.964z"/>
	<path style="fill:#992B1F;" d="M353.132,257.964c0-3.944-2.864-7.204-6.62-7.86c-0.056,5.38-0.432,10.668-1.12,15.836
		C349.688,265.796,353.132,262.292,353.132,257.964z"/>
</g>
<g>
	<path style="fill:#FFE1D9;" d="M328.552,183.916c-4.6-7.36-9.976-13.976-15.964-19.72l0,0
		C318.576,169.94,323.952,176.556,328.552,183.916z"/>
	<path style="fill:#FFE1D9;" d="M283.76,351.856c6.136-2.364,11.98-5.496,17.468-9.292c0.004,0,0.004-0.004,0.008-0.004
		c23.12-15.992,39.784-43.844,44.156-76.624c0.688-5.164,1.064-10.452,1.12-15.836c0.004-0.46,0.028-0.912,0.028-1.372l0,0
		c0,59.832-40.536,108.332-90.54,108.332c-2.736,0-5.432-0.208-8.108-0.492c46.192-4.908,82.432-51.284,82.432-107.836
		c0-29.14-9.636-55.556-25.28-75.012c-31.764,23.804-136.652,3.332-139.428,81.148c0.172,3.712,0.504,7.376,0.98,10.98
		c4.356,32.816,21.028,60.704,44.168,76.708c13.312,9.208,28.752,14.504,45.236,14.504
		C265.684,357.064,275.008,355.224,283.76,351.856z"/>
</g>
<path style="fill:#F2D6CE;" d="M247.892,356.568c2.676,0.284,5.372,0.492,8.108,0.492c50.004,0,90.54-48.5,90.54-108.332l0,0
	c0-22.436-5.7-43.276-15.464-60.564c-0.812-1.44-1.656-2.856-2.524-4.248c-4.6-7.36-9.976-13.976-15.964-19.72
	c-1.496,3.824-4.092,6.936-7.544,9.524c15.644,19.456,25.28,45.872,25.28,75.012C330.324,305.284,294.084,351.66,247.892,356.568z"
	/>
<g>
	<path style="fill:#F5F5F5;" d="M297.592,446.856c19.152-11.576,48.724-39.912,57.092-60.06c0.78-1.876,1.392-3.688,1.776-5.4
		c0,0,0,0,0-0.004c-0.88-0.844-2.268-1.76-4.04-2.724c1.772,0.964,3.152,1.876,4.032,2.72
		C351.932,401.5,318.524,434.196,297.592,446.856z"/>
	<path style="fill:#F5F5F5;" d="M311.5,363.34c2.024,0.672,4.184,1.388,6.388,2.12C315.684,364.728,313.524,364.012,311.5,363.34z"
		/>
	<path style="fill:#F5F5F5;" d="M199.696,363.604c4.344-1.436,8.204-2.732,11.12-3.788
		C207.904,360.872,204.032,362.168,199.696,363.604z"/>
	<path style="fill:#F5F5F5;" d="M324.488,367.676c0.116,0.04,0.228,0.076,0.344,0.116
		C324.716,367.752,324.6,367.712,324.488,367.676z"/>
	<path style="fill:#F5F5F5;" d="M224.264,451.556c-3.3-0.976-7.556-3.196-12.308-6.268c2.392-12.504,10.7-22.268,16.596-25.584
		c6.896-3.884,14.004-3.136,14.752-3.18c0.004,0,0.004-0.004,0.008-0.004c1.568,0,3.092,0.116,4.588,0.256
		c1.496-0.136,3.008-0.252,4.572-0.252c0.456,0.212,0.912,0.476,1.364,0.796c0.736,0.052,1.468,0.104,2.168,0.104
		c3.776,0,8.096-0.904,12.692-0.904c6.136,2.848,12.748,16.256,15.14,28.76c20.992-13.6,52.056-44.548,56.4-63.892
		c-4.964-4.78-26.08-11.796-42.072-17.096c-1.884,12.076-9.692,25.448-20.652,33.652c-6.32,4.732-13.656,7.768-21.512,7.768
		c-0.86,0-1.696-0.108-2.54-0.18c0.128,0.028,0.252,0.076,0.376,0.104c-25.452,0.636-53.24-22.3-56.22-41.34
		c-4.468,1.484-9.312,3.092-14.12,4.756c-12.396,4.292-24.372,8.9-27.948,12.34C160.88,405.12,206.44,446.384,224.264,451.556z"/>
	<path style="fill:#F5F5F5;" d="M253.824,417.32c-1.736-0.124-3.576-0.32-5.476-0.5C250.252,417.004,252.084,417.2,253.824,417.32z"
		/>
	<path style="fill:#F5F5F5;" d="M225.832,451.94c-0.244-0.044-0.512-0.12-0.768-0.184
		C225.32,451.816,225.588,451.896,225.832,451.94z"/>
	<path style="fill:#F5F5F5;" d="M213.348,358.864c-0.104,0.04-0.244,0.092-0.352,0.132c-0.604,0.236-1.252,0.48-1.988,0.752
		C211.868,359.432,212.672,359.132,213.348,358.864z"/>
	<path style="fill:#F5F5F5;" d="M298.652,358.864c0,0.952-0.084,1.932-0.168,2.916C298.584,360.792,298.652,359.816,298.652,358.864
		z"/>
</g>
<path style="fill:#CCCCCC;" d="M247.9,416.776c-0.004,0-0.008,0-0.012,0c0.16,0.016,0.3,0.028,0.46,0.04
	c1.9,0.18,3.74,0.38,5.476,0.5c0.004,0,0.008,0,0.012,0l0,0c-0.452-0.32-0.908-0.584-1.364-0.796
	C250.908,416.524,249.396,416.64,247.9,416.776z"/>
<g>
	<path style="fill:#E6E6E6;" d="M213.348,358.864c-0.676,0.268-1.48,0.568-2.344,0.884c-0.064,0.024-0.124,0.044-0.188,0.068
		c-2.92,1.06-6.776,2.352-11.12,3.788c-0.684,0.228-1.372,0.452-2.08,0.688v0.004c2.98,19.04,30.768,41.976,56.22,41.34
		c-0.128-0.028-0.252-0.076-0.376-0.104C230.644,400.328,213.348,376.324,213.348,358.864z"/>
	<path style="fill:#E6E6E6;" d="M228.552,419.704c-5.896,3.316-14.204,13.08-16.596,25.584c4.752,3.076,9.008,5.296,12.308,6.268
		c0.28,0.084,0.532,0.132,0.8,0.196c0.256,0.064,0.524,0.14,0.768,0.184c0.52,0.096,1.008,0.156,1.46,0.168
		c0.724-13.092,9.136-30.752,16.02-35.584c0,0-0.004,0-0.008,0C242.556,416.572,235.448,415.82,228.552,419.704z"/>
	<path style="fill:#E6E6E6;" d="M324.828,367.792c-0.116-0.04-0.228-0.076-0.344-0.116c-2.164-0.736-4.292-1.448-6.388-2.144
		c-0.072-0.024-0.14-0.048-0.212-0.072c-2.2-0.732-4.36-1.448-6.388-2.12c-5.208-1.732-9.628-3.224-12.492-4.34
		c-0.004,0-0.004,0-0.008-0.004c-0.104-0.04-0.244-0.092-0.348-0.132c0,0.952-0.068,1.928-0.168,2.916
		c-0.084,0.832-0.192,1.668-0.32,2.512l0,0c15.992,5.3,37.108,12.316,42.072,17.096c-4.344,19.344-35.408,50.292-56.4,63.892l0,0
		c0.436,2.328,0.756,4.632,0.884,6.828c3.028-0.092,7.552-2.036,12.872-5.252c20.932-12.66,54.34-45.356,58.864-65.468
		c-0.88-0.844-2.26-1.756-4.032-2.72c-5.448-2.96-14.564-6.376-23.92-9.616c-0.004,0-0.004,0-0.008-0.004
		C327.276,368.628,326.052,368.208,324.828,367.792z"/>
</g>
<circle style="fill:#242424;" cx="256" cy="480.48" r="10.812"/>
<ellipse style="fill:#F5F5F5;" cx="212" cy="238.32" rx="16" ry="12"/>
<circle style="fill:#734822;" cx="212" cy="238.32" r="8"/>
<ellipse style="fill:#F5F5F5;" cx="292" cy="238.32" rx="16" ry="12"/>
<circle style="fill:#734822;" cx="292" cy="238.32" r="8"/>
<g>
</g>
<g>
</g>
<g>
</g>
<g>
</g>
<g>
</g>
<g>
</g>
<g>
</g>
<g>
</g>
<g>
</g>
<g>
</g>
<g>
</g>
<g>
</g>
<g>
</g>
<g>
</g>
<g>
</g>
</svg>
