<?xml version="1.0" encoding="iso-8859-1"?>
<!-- Generator: Adobe Illustrator 19.0.0, SVG Export Plug-In . SVG Version: 6.00 Build 0)  -->
<svg version="1.1" id="Layer_1" xmlns="http://www.w3.org/2000/svg" xmlns:xlink="http://www.w3.org/1999/xlink" x="0px" y="0px"
	 viewBox="0 0 512 512" style="enable-background:new 0 0 512 512;" xml:space="preserve">
<ellipse style="fill:#4AB8A1;" cx="256" cy="272" rx="256" ry="240"/>
<g>
	<path style="fill:#406A80;" d="M88,416l-5.264,32.636c14.668,12.652,30.924,23.696,48.44,32.888
		c11.924-17.992,12.76-64.616,12.82-82.116L88,416z"/>
	<path style="fill:#406A80;" d="M426.576,450.916l-6.012-30.728l-52.548-18.448c0.132,19.004,1.38,62.544,12.808,79.784
		C397.28,472.888,412.616,462.616,426.576,450.916z"/>
	<path style="fill:#406A80;" d="M256,404c-33.14,0-60-14.084-60-20l-28,8.296V468h176v-74.692l-28.156-9.884
		c0.052,0.192,0.156,0.388,0.156,0.576C316,389.916,289.14,404,256,404z"/>
</g>
<path style="fill:#F5F5F5;" d="M305.672,378.252c0.204,0.584,0.328,1.176,0.328,1.768c0,0,0,0,0,0.004l0,0
	c0,8.824-22.392,15.972-50,15.972c-0.16,0-0.308-0.012-0.464-0.012c-2.124-0.008-4.208-0.064-6.26-0.152
	c-0.088-0.004-0.184-0.004-0.272-0.008c0.02,0,0.04-0.004,0.06-0.004c-24.316-1.08-43.06-7.732-43.06-15.8
	c0-0.592,0.124-1.188,0.328-1.772h-0.02l0.584-1.82C200.052,378.952,196,381.712,196,384c0,5.916,26.86,20,60,20s60-14.084,60-20
	c0-0.188-0.104-0.384-0.156-0.576c-0.596-2.168-4.452-4.676-10.74-6.996l0.588,1.824H305.672z"/>
<g>
	<path style="fill:#E6CBC3;" d="M206.328,378.248c-0.204,0.584-0.328,1.18-0.328,1.772c0,8.068,18.744,14.72,43.06,15.8
		c24.26-1.1,42.94-7.74,42.94-15.796c0-0.596-0.124-1.188-0.328-1.776h0.02l-8.704-27.072C274.328,354.264,265.276,356,256,356
		c-1.992,0-3.972-0.1-5.944-0.252c-0.02,0-0.036,0-0.056-0.004c0.004,0,0.012,0,0.016,0c-11.624-0.916-22.836-4.448-33.268-9.968
		l-9.856,30.652l-0.584,1.82L206.328,378.248L206.328,378.248z"/>
	<path style="fill:#E6CBC3;" d="M305.672,378.252c0.204,0.584,0.328,1.176,0.328,1.772c0,0,0,0,0-0.004
		C306,379.428,305.876,378.836,305.672,378.252z"/>
	<path style="fill:#E6CBC3;" d="M249.272,395.832c2.056,0.088,4.136,0.148,6.26,0.152
		C253.408,395.976,251.328,395.916,249.272,395.832z"/>
</g>
<path style="fill:#D9BFB8;" d="M291.692,378.248h-0.02c0.204,0.588,0.328,1.18,0.328,1.776c0,8.056-18.68,14.696-42.94,15.796
	c-0.02,0-0.04,0.004-0.06,0.004c0.088,0.004,0.184,0.004,0.272,0.008c2.052,0.088,4.136,0.144,6.26,0.152
	c0.156,0,0.308,0.012,0.464,0.012c27.608,0,50-7.148,50-15.972l0,0c0-0.596-0.124-1.188-0.328-1.772h0.02l-0.588-1.824
	l-9.856-30.652c-3.98,2.104-8.076,3.904-12.264,5.4L291.692,378.248z"/>
<g>
	<path style="fill:#FFE1D9;" d="M360,240c12,0,16-8.908,16-19.728V176c0-10.82-16-12-16-12v44V240z"/>
	<path style="fill:#FFE1D9;" d="M348,240v-76v-2.132l0,0c-6.048-17.196-14.48-34.032-26.064-42.432
		C303.016,124.844,280.36,128,256,128s-47.016-3.156-65.936-8.564C166.28,136.68,155.704,189.476,152,208v-44c0,0-16,1.18-16,12
		v44.272c0,10.82,4,19.728,16,19.728c0,40.776,27.34,85.988,64.748,105.776c10.432,5.52,21.644,9.052,33.268,9.968
		C303.308,351.52,348,292.136,348,240z"/>
	<path style="fill:#FFE1D9;" d="M250.056,355.748C252.028,355.9,254.008,356,256,356C254.008,356,252.028,355.9,250.056,355.748z"/>
</g>
<path style="fill:#F2D6CE;" d="M348,161.868V164v76c0,52.136-44.692,111.52-97.984,115.744c-0.004,0-0.012,0-0.016,0
	c0.02,0,0.036,0,0.056,0.004C252.028,355.9,254.008,356,256,356c9.276,0,18.328-1.736,26.988-4.824
	c4.188-1.492,8.284-3.292,12.264-5.4C332.66,325.988,360,280.776,360,240v-32C358.1,198.5,354.372,179.984,348,161.868z"/>
<path style="fill:#805026;" d="M190.064,119.436C208.984,124.844,231.64,128,256,128s47.016-3.156,65.936-8.564
	c11.584,8.4,20.016,25.232,26.064,42.432v-39.476c0-2.164-0.112-4.292-0.328-6.392H152.328c-0.216,2.1-0.328,4.228-0.328,6.392V164
	v44C155.704,189.476,166.28,136.68,190.064,119.436z"/>
<path style="fill:#734822;" d="M352,116h-4.328c0.216,2.1,0.328,4.228,0.328,6.392v39.476l0,0c6.372,18.116,10.1,36.632,12,46.132
	v-44v-41.608c0-2.164-0.112-4.292-0.328-6.392H356H352z"/>
<path style="fill:#263740;" d="M168,468v-75.704V388c0,0-16,4-24,8c0,0.956,0,2.108-0.004,3.408
	c-0.056,17.5-0.896,64.124-12.82,82.116C168.112,500.908,210.664,512,256,512s87.888-11.092,124.824-30.476
	c-11.428-17.24-12.672-60.78-12.808-79.784C368,399.436,368,397.492,368,396c-8-4-24-8-24-8v5.308V468H168z"/>
<g>
	<path style="fill:#E6C45C;" d="M212.796,84C214.86,76.344,216,68.308,216,60c0-14.656-3.464-28.484-9.56-40.784
		c-25.928,12.66-45.716,35.38-54.068,64.784H212.796z"/>
	<path style="fill:#E6C45C;" d="M347.644,84c-7.292-25.672-23.296-46.264-44.504-59.5C298.56,35.428,296,47.408,296,60
		c0,8.308,1.14,16.344,3.204,24H347.644z"/>
</g>
<g>
	<path style="fill:#D9B957;" d="M252,0.116c0.012,0,0.024,0,0.036,0.004c2.684,0.088,5.332,0.296,7.964,0.56V0.12
		C258.668,0.076,257.344,0,256,0S253.332,0.08,252,0.116z"/>
	<path style="fill:#D9B957;" d="M268,1.784c11.76,2.024,22.864,5.78,32.944,11.16C292.736,26.72,288,42.8,288,60
		c0,8.308,1.14,16.344,3.204,24h8C297.14,76.344,296,68.308,296,60c0-12.592,2.56-24.572,7.14-35.5
		c21.208,13.236,37.212,33.828,44.504,59.5H356c6.6,0,12,5.4,12,12v8c0,6.6-5.4,12-12,12h3.672H364h4c6.6,0,12-5.4,12-12v-8
		c0-6.6-5.4-12-12-12h-8.372c-8.352-29.404-28.14-52.124-54.068-64.784c1.056-2.132,2.168-4.236,3.384-6.272
		C294.412,5.188,277.8,0.728,260.092,0.12c2.664,0.1,5.296,0.268,7.908,0.532V1.784z"/>
</g>
<g>
	<path style="fill:#F5F5F5;" d="M260,84h8V1.784V0.652c-2.612-0.264-5.244-0.432-7.908-0.532c-0.032,0-0.06-0.004-0.092-0.008V0.12
		v0.56V84z"/>
	<path style="fill:#F5F5F5;" d="M244,84h8V0.12V0.116c-0.032,0-0.06,0.004-0.092,0.008c-2.664,0.096-5.296,0.264-7.908,0.528V84z"/>
</g>
<path style="fill:#F2CF61;" d="M352,116h4c6.6,0,12-5.4,12-12v-8c0-6.6-5.4-12-12-12h-8.356h-48.44h-8
	C289.14,76.344,288,68.308,288,60c0-17.2,4.736-33.28,12.944-47.056C290.864,7.564,279.76,3.808,268,1.784V84h-8V0.68
	c-2.632-0.264-5.28-0.472-7.964-0.564c-0.012,0-0.024,0-0.036,0V84h-8V0.652c2.612-0.264,5.244-0.432,7.908-0.532
	c-17.712,0.604-34.324,5.068-48.852,12.824c1.212,2.036,2.324,4.14,3.384,6.272C212.536,31.516,216,45.344,216,60
	c0,8.308-1.14,16.344-3.204,24h-60.424H144c-6.6,0-12,5.4-12,12v8c0,6.6,5.4,12,12,12h4h4.328h195.344H352z"/>
<ellipse style="fill:#F5F5F5;" cx="216" cy="188" rx="16" ry="12"/>
<circle style="fill:#242424;" cx="216" cy="188" r="8"/>
<ellipse style="fill:#F5F5F5;" cx="296" cy="188" rx="16" ry="12"/>
<circle style="fill:#242424;" cx="296" cy="188" r="8"/>
<g>
</g>
<g>
</g>
<g>
</g>
<g>
</g>
<g>
</g>
<g>
</g>
<g>
</g>
<g>
</g>
<g>
</g>
<g>
</g>
<g>
</g>
<g>
</g>
<g>
</g>
<g>
</g>
<g>
</g>
</svg>
