<?xml version="1.0" encoding="iso-8859-1"?>
<!-- Generator: Adobe Illustrator 19.0.0, SVG Export Plug-In . SVG Version: 6.00 Build 0)  -->
<svg xmlns="http://www.w3.org/2000/svg" xmlns:xlink="http://www.w3.org/1999/xlink" version="1.1" id="Capa_1" x="0px" y="0px" viewBox="0 0 501 501" style="enable-background:new 0 0 501 501;" xml:space="preserve" width="512" height="512">
<g>
	<path style="fill:#276372;" d="M68.507,420.009C29.346,376.584,5.5,319.079,5.5,256c0-135.156,109.441-244.75,244.538-245   c134.35-0.248,244.478,108.83,245.455,243.177c0.467,64.206-23.772,122.741-63.768,166.68   c-6.746,7.411-16.298,11.643-26.319,11.643H96.503C85.821,432.5,75.66,427.941,68.507,420.009z"/>
	<path style="fill:#84B8C8;" d="M467.349,233.427L467.349,233.427c0,113.804-92.256,206.06-206.059,206.06h-21.58   c-113.803,0-206.059-92.256-206.059-206.059v0c0-12.34,1.219-24.396,3.542-36.053c7.81-39.184,28.106-73.862,56.561-99.722   c-4.564-3.862-7.469-9.624-7.469-16.071V71.053C86.284,59.426,95.71,50,107.337,50h109.74h66.845h109.74   c11.627,0,21.053,9.426,21.053,21.053V81.58c0,6.445-2.904,12.206-7.465,16.068C444.17,131.202,467.349,179.607,467.349,233.427z"/>
	<path style="fill:#9DC6D4;" d="M467.349,233.427c0.44,15.502-1.726,30.612-4.973,45.141   c-33.011,64.363-100.069,108.384-177.4,108.285c-108.561-0.14-196.465-86.311-198.651-194.851   c-0.156-7.75,0.131-15.401,0.839-22.931c0.023-0.248,0.047-0.497,0.072-0.745c3.721-37.372,30.196-70.68,67.752-70.68h80.922   h171.34C438.5,125.167,465.5,168.25,467.349,233.427z M133.654,81.58h142.11h123.162c8.721,0,15.79-7.069,15.79-15.79v0   c0-8.721-7.069-15.79-15.79-15.79H294.5l-0.612-0.181C281.024,46.023,267.329,46.086,254.5,50l0,0H133.654   c-8.721,0-15.79,7.069-15.79,15.79v0C117.864,74.511,124.933,81.58,133.654,81.58z"/>
	<path style="fill:#FFB23C;" d="M250.5,365.8c52.71,0,102.875,7.493,148.378,21.01c-36.482,32.747-84.705,52.677-137.587,52.677   h-21.58c-52.883,0-101.105-19.93-137.587-52.677C147.625,373.293,197.79,365.8,250.5,365.8z"/>
	<path style="fill:#24BD87;" d="M281.741,365.762c-1.947,2.763-5.04,4.239-8.182,4.239c-1.991,0-4.002-0.593-5.753-1.828   l-5.448-3.841c-8.394-5.915-13.482-15.192-13.959-25.451c-0.477-10.261,3.728-19.971,11.538-26.641   c3.04-2.597,4.7-6.377,4.555-10.372c-0.146-3.994-2.075-7.644-5.295-10.012l-8.919-6.562c-4.449-3.272-5.403-9.532-2.13-13.981   c3.273-4.448,9.531-5.402,13.981-2.13l8.92,6.562c8.167,6.008,13.062,15.265,13.43,25.396c0.369,10.133-3.842,19.721-11.551,26.306   c-3.079,2.63-4.737,6.459-4.549,10.504c0.188,4.045,2.193,7.702,5.503,10.034l5.449,3.842   C283.844,355.009,284.924,361.248,281.741,365.762z"/>
	<path style="fill:#029A64;" d="M349.644,297.73l-1.674,10.946c-1.533,10.022-7.462,18.653-16.267,23.68   c-8.805,5.028-19.252,5.746-28.662,1.972c-3.758-1.508-7.92-1.2-11.415,0.844c-3.496,2.043-5.805,5.516-6.336,9.53l-0.875,6.61   c-0.724,5.475-5.75,9.326-11.225,8.601c-3.351-0.443-6.094-2.498-7.551-5.281c-0.924-1.764-1.332-3.82-1.05-5.944l0.875-6.608   c1.346-10.18,7.203-18.992,16.07-24.174c8.868-5.183,19.421-5.963,28.953-2.139c3.711,1.488,7.83,1.205,11.302-0.777   c3.471-1.982,5.808-5.385,6.412-9.336l1.674-10.946c0.835-5.46,5.938-9.209,11.397-8.374   C346.729,287.168,350.478,292.269,349.644,297.73z"/>
	<path style="fill:#E2BEB8;" d="M165.235,402.113c-9.592,9.592-29.032,5.704-43.42-8.684s-18.276-33.828-8.684-43.42   c9.592-9.592,29.032-5.704,43.42,8.684S174.828,392.521,165.235,402.113z M251.025,401.065   c-14.388-14.388-33.828-18.276-43.42-8.684c-9.592,9.592-5.704,29.032,8.684,43.42c14.388,14.388,33.828,18.276,43.42,8.684   C269.302,434.893,265.414,415.453,251.025,401.065z M317.871,372.818c0,13.565-16.495,24.562-36.843,24.562   c-20.348,0-36.843-10.997-36.843-24.562s16.495-24.562,36.843-24.562C301.375,348.256,317.871,359.252,317.871,372.818z"/>
	<path style="fill:#B57063;" d="M212.604,365.8c0,11.627-14.139,21.053-31.58,21.053s-31.58-9.426-31.58-21.053   c0-11.627,14.139-21.053,31.58-21.053S212.604,354.173,212.604,365.8z M313.51,371.966c-12.333,12.333-15.665,28.996-7.443,37.217   s24.885,4.889,37.217-7.443c12.333-12.333,15.665-28.996,7.443-37.217C342.506,356.301,325.843,359.634,313.51,371.966z"/>
	<path style="fill:#FC703B;" d="M239.25,196.864c-7.4,19.275-27.898,33.136-52.04,33.136c-19.589,0-36.774-9.129-46.515-22.868   c-5.363,7.561-12.971,13.731-22.005,17.744c-2.453,1.09-4.992-1.427-3.949-3.9c3.308-7.846,5.89-16.591,7.579-25.976   c-1.689-9.385-4.271-18.13-7.579-25.976c-1.043-2.473,1.497-4.989,3.949-3.9c9.034,4.013,16.642,10.183,22.005,17.744   C150.435,169.129,167.62,160,187.209,160c24.142,0,44.64,13.862,52.04,33.136C239.711,194.339,239.711,195.661,239.25,196.864z"/>
	<path style="fill:#F05D22;" d="M229.625,212.169C219.541,223.055,204.291,230,187.209,230c-19.589,0-36.774-9.129-46.515-22.868   c-5.363,7.561-12.971,13.731-22.005,17.744c-2.453,1.09-4.992-1.427-3.949-3.9c3.308-7.846,5.89-16.591,7.579-25.976   c-1.689-9.385-4.271-18.13-7.579-25.976c-1.043-2.473,1.497-4.989,3.949-3.9c9.034,4.013,16.642,10.183,22.005,17.744   c6.322-8.917,15.79-15.871,27.005-19.669c-7.254,5.119-11.533,11.374-11.533,18.134c0,17.305,27.951,31.333,62.43,31.333   C222.363,212.667,226.044,212.49,229.625,212.169z"/>
	<path style="fill:#895348;" d="M214.5,190c0,5.523-4.477,10-10,10s-10-4.477-10-10s4.477-10,10-10S214.5,184.477,214.5,190z"/>
	<path style="fill:#EF3C54;" d="M432.503,420c-44.841,49.732-109.768,81-182.003,81s-137.162-31.268-182.003-81H432.503z"/>
	<path style="fill:#DCFBFF;" d="M294.5,50h-40c0-11.046,8.954-20,20-20S294.5,38.954,294.5,50z M219.5,300c-8.284,0-15,6.716-15,15   c0,8.284,6.716,15,15,15s15-6.716,15-15C234.5,306.716,227.784,300,219.5,300z M224.5,30c8.284,0,15-6.716,15-15   c0-8.284-6.716-15-15-15s-15,6.716-15,15C209.5,23.284,216.216,30,224.5,30z M264.5,130c-11.046,0-20,8.954-20,20   c0,11.046,8.954,20,20,20s20-8.954,20-20C284.5,138.954,275.546,130,264.5,130z M291.442,97.648   c-1.231,2.177-1.942,4.687-1.942,7.367c0,8.284,6.716,15,15,15s15-6.716,15-15c0-2.68-0.711-5.19-1.942-7.367H291.442z M399.5,280   c-8.284,0-15,6.716-15,15c0,8.284,6.716,15,15,15s15-6.716,15-15C414.5,286.716,407.784,280,399.5,280z"/>
</g>















</svg>
