<?xml version="1.0" encoding="iso-8859-1"?>
<!-- Generator: Adobe Illustrator 19.0.0, SVG Export Plug-In . SVG Version: 6.00 Build 0)  -->
<svg xmlns="http://www.w3.org/2000/svg" xmlns:xlink="http://www.w3.org/1999/xlink" version="1.1" id="Capa_1" x="0px" y="0px" viewBox="0 0 512 512" style="enable-background:new 0 0 512 512;" xml:space="preserve" width="512" height="512">
<g>
	<path style="fill:#903152;" d="M501,256c0,135.31-109.69,245-245,245S11,391.31,11,256S120.69,11,256,11S501,120.69,501,256z"/>
	<path style="fill:#A93C64;" d="M381,256c0,69.036-55.964,125-125,125s-125-55.964-125-125s55.964-125,125-125S381,186.964,381,256z   "/>
	<path style="fill:#F5596E;" d="M480.199,251L372.43,64.338c-1.786-3.094-5.088-5-8.66-5H148.23c-3.572,0-6.874,1.906-8.66,5   L31.801,251c-1.786,3.094-1.786,6.906,0,10l104.262,180.587l-12.044,20.86c5.604,3.59,11.372,6.944,17.275,10.078l11.468-19.863   h205.234l11.758,20.365c5.917-3.108,11.695-6.445,17.314-10.01l-11.752-20.355L480.199,261   C481.985,257.906,481.985,254.094,480.199,251z M454.219,246h-182.14l91.07-157.738L454.219,246z M255.379,234.925L165.551,79.338   h179.656L255.379,234.925z M148.23,89.338L238.68,246H57.781L148.23,89.338z M57.781,266h179.657L147.61,421.587L57.781,266z    M164.309,432.662l91.07-157.738l91.07,157.738H164.309z M273.321,266h180.898L363.77,422.662L273.321,266z"/>
	<path style="fill:#FFA9B4;" d="M300.833,442.662c0,5.523-4.477,10-10,10c-5.523,0-10-4.477-10-10s4.477-10,10-10   C296.356,432.662,300.833,437.139,300.833,442.662z M221.167,79.338c5.523,0,10-4.477,10-10s-4.477-10-10-10   c-5.523,0-10,4.477-10,10S215.644,79.338,221.167,79.338z M290.833,59.338c-5.523,0-10,4.477-10,10s4.477,10,10,10   c5.523,0,10-4.477,10-10S296.356,59.338,290.833,59.338z M221.167,432.662c-5.523,0-10,4.477-10,10s4.477,10,10,10   c5.523,0,10-4.477,10-10S226.689,432.662,221.167,432.662z M223.667,190c-5.523,0-10,4.477-10,10s4.477,10,10,10   c5.523,0,10-4.477,10-10S229.189,190,223.667,190z M318.104,136.25c-5.523,0-10,4.477-10,10s4.477,10,10,10c5.523,0,10-4.477,10-10   S323.627,136.25,318.104,136.25z M192.667,136.25c-5.523,0-10,4.477-10,10s4.477,10,10,10c5.523,0,10-4.477,10-10   S198.189,136.25,192.667,136.25z M296.75,200c0-5.523-4.477-10-10-10s-10,4.477-10,10s4.477,10,10,10S296.75,205.523,296.75,200z    M101.167,140.833c-5.523,0-10,4.477-10,10c0,5.523,4.477,10,10,10c5.523,0,10-4.477,10-10   C111.167,145.311,106.689,140.833,101.167,140.833z M88.125,328.25c-5.523,0-10,4.477-10,10s4.477,10,10,10s10-4.477,10-10   S93.648,328.25,88.125,328.25z M424,328.25c-5.523,0-10,4.477-10,10s4.477,10,10,10s10-4.477,10-10S429.523,328.25,424,328.25z    M420.833,150.833c0-5.523-4.477-10-10-10c-5.523,0-10,4.477-10,10c0,5.523,4.477,10,10,10   C416.356,160.833,420.833,156.356,420.833,150.833z M170,246c-5.523,0-10,4.477-10,10s4.477,10,10,10s10-4.477,10-10   S175.523,246,170,246z M370,246c-5.523,0-10,4.477-10,10s4.477,10,10,10s10-4.477,10-10S375.523,246,370,246z"/>
	<path style="fill:#FFC981;" d="M266,442.662c0,5.523-4.477,10-10,10s-10-4.477-10-10s4.477-10,10-10S266,437.139,266,442.662z    M256,59.338c-5.523,0-10,4.477-10,10s4.477,10,10,10s10-4.477,10-10S261.523,59.338,256,59.338z M207.417,182   c5.523,0,10-4.477,10-10s-4.477-10-10-10c-5.523,0-10,4.477-10,10S201.894,182,207.417,182z M303.167,162c-5.523,0-10,4.477-10,10   s4.477,10,10,10c5.523,0,10-4.477,10-10S308.689,162,303.167,162z M209.417,324.552c-5.523,0-10,4.477-10,10   c0,5.523,4.477,10,10,10c5.523,0,10-4.477,10-10C219.417,329.03,214.939,324.552,209.417,324.552z M301.583,324.552   c-5.523,0-10,4.477-10,10c0,5.523,4.477,10,10,10c5.523,0,10-4.477,10-10C311.583,329.03,307.106,324.552,301.583,324.552z    M84.885,169.115c-5.523,0-10,4.477-10,10c0,5.523,4.477,10,10,10c5.523,0,10-4.477,10-10   C94.885,173.592,90.408,169.115,84.885,169.115z M427.177,169.115c-5.523,0-10,4.477-10,10c0,5.523,4.477,10,10,10   c5.523,0,10-4.477,10-10C437.177,173.592,432.7,169.115,427.177,169.115z M140,246c-5.523,0-10,4.477-10,10s4.477,10,10,10   s10-4.477,10-10S145.523,246,140,246z M340,246c-5.523,0-10,4.477-10,10s4.477,10,10,10s10-4.477,10-10S345.523,246,340,246z"/>
	<path style="fill:#FFBD61;" d="M259.535,200.965l15.479,31.365c0.574,1.163,1.684,1.97,2.968,2.156l34.613,5.03   c3.233,0.47,4.524,4.443,2.185,6.724l-25.046,24.414c-0.929,0.906-1.353,2.21-1.134,3.489l5.913,34.473   c0.552,3.22-2.828,5.676-5.719,4.155l-30.959-16.276c-1.148-0.604-2.52-0.604-3.669,0l-30.959,16.276   c-2.892,1.52-6.272-0.935-5.719-4.155l5.913-34.473c0.219-1.279-0.205-2.583-1.134-3.489l-25.046-24.414   c-2.34-2.281-1.049-6.254,2.185-6.724l34.613-5.03c1.284-0.187,2.394-0.993,2.968-2.156l15.479-31.365   C253.911,198.035,258.089,198.035,259.535,200.965z"/>
	<path style="fill:#FFC981;" d="M314.78,246.239l-25.046,24.414c-0.929,0.906-1.353,2.21-1.134,3.489l0.806,4.697   c-1.569,0.096-3.146,0.161-4.739,0.161c-29.793,0-55.581-17.079-68.156-41.97l17.507-2.544c1.284-0.187,2.394-0.993,2.968-2.156   l15.479-31.365c1.446-2.93,5.624-2.93,7.07,0l15.479,31.365c0.574,1.163,1.684,1.97,2.968,2.156l34.613,5.03   C315.829,239.985,317.12,243.958,314.78,246.239z"/>
	<path style="fill:#FF855B;" d="M101.167,90h100c0,33.137-22.386,60-50,60S101.167,123.137,101.167,90z"/>
	<path style="fill:#FF9978;" d="M131.167,90h70c0,26.865-14.715,49.603-35,57.249C145.882,139.603,131.167,116.865,131.167,90z"/>
	<path style="fill:#FFAE93;" d="M101.289,94c-0.073-1.323-0.123-2.654-0.123-4c0-33.137,22.386-60,50-60s50,26.863,50,60   c0,1.346-0.05,2.677-0.123,4H101.289z"/>
	<path style="fill:#FFC3B0;" d="M201.093,92.891c-0.016,0.37-0.029,0.74-0.049,1.109h-74.756c-0.073-1.364-0.121-2.736-0.121-4.122   c0-27.453,14.475-50.714,34.498-58.783c23.056,5.323,40.479,29.637,40.5,58.852c-0.001,0.668-0.012,1.333-0.032,1.995   c0,0.002,0,0.003,0,0.005C201.124,92.263,201.106,92.577,201.093,92.891z"/>
	<path style="fill:#FFD69E;" d="M206.167,104h-110c-2.761,0-5-2.239-5-5V89c0-2.761,2.239-5,5-5h110c2.761,0,5,2.239,5,5v10   C211.167,101.761,208.928,104,206.167,104z"/>
	<path style="fill:#6AA8BB;" d="M10,256h100c0,33.137-22.386,60-50,60S10,289.137,10,256z M360.833,150c27.615,0,50-26.863,50-60   h-100C310.833,123.137,333.219,150,360.833,150z M360.833,452.662c27.615,0,50-26.863,50-60h-100   C310.833,425.799,333.219,452.662,360.833,452.662z"/>
	<path style="fill:#84B8C8;" d="M40,256h70c0,26.865-14.715,49.603-35,57.249C54.715,305.603,40,282.865,40,256z M340.833,90h70   c0,26.865-14.715,49.603-35,57.249C355.548,139.603,340.833,116.865,340.833,90z M340.833,392.662h70   c0,26.865-14.715,49.603-35,57.249C355.548,442.265,340.833,419.527,340.833,392.662z"/>
	<path style="fill:#30DAEC;" d="M10.123,260C10.05,258.677,10,257.346,10,256c0-33.137,22.386-60,50-60s50,26.863,50,60   c0,1.346-0.05,2.677-0.123,4H10.123z M410.711,94c0.073-1.323,0.123-2.654,0.123-4c0-33.137-22.386-60-50-60s-50,26.863-50,60   c0,1.346,0.05,2.677,0.123,4H410.711z M410.711,396.662c0.073-1.323,0.123-2.654,0.123-4c0-33.137-22.386-60-50-60   s-50,26.863-50,60c0,1.346,0.05,2.677,0.123,4H410.711z"/>
	<path style="fill:#8AE8F5;" d="M109.911,259.243c-0.012,0.252-0.02,0.505-0.034,0.757H35.121c-0.073-1.39-0.121-2.789-0.121-4.202   c0-27.105,13.575-50.201,32.618-59.106c23.976,4.398,42.345,29.231,42.38,59.222C109.996,257.032,109.961,258.14,109.911,259.243z    M410.8,91.948c0-0.002,0-0.003,0-0.005c0.02-0.662,0.031-1.327,0.032-1.995c-0.021-29.215-17.445-53.53-40.5-58.852   c-20.024,8.069-34.499,31.33-34.499,58.783c0,1.386,0.048,2.758,0.121,4.122h74.756c0.02-0.368,0.033-0.739,0.049-1.109   C410.773,92.577,410.791,92.263,410.8,91.948z M410.8,394.61c0-0.002,0-0.003,0-0.005c0.02-0.662,0.031-1.327,0.032-1.995   c-0.021-29.215-17.445-53.53-40.5-58.852c-20.024,8.069-34.499,31.33-34.499,58.783c0,1.386,0.048,2.758,0.121,4.122h74.756   c0.02-0.368,0.033-0.739,0.049-1.109C410.773,395.239,410.791,394.926,410.8,394.61z"/>
	<path style="fill:#B5F3FB;" d="M120,255v10c0,2.761-2.239,5-5,5H5c-2.761,0-5-2.239-5-5v-10c0-2.761,2.239-5,5-5h110   C117.761,250,120,252.239,120,255z M415.833,84h-110c-2.761,0-5,2.239-5,5v10c0,2.761,2.239,5,5,5h110c2.761,0,5-2.239,5-5V89   C420.833,86.239,418.595,84,415.833,84z M415.833,386.662h-110c-2.761,0-5,2.239-5,5v10c0,2.761,2.239,5,5,5h110   c2.761,0,5-2.239,5-5v-10C420.833,388.901,418.595,386.662,415.833,386.662z"/>
	<path style="fill:#FCA20C;" d="M101.167,392.662h100c0,33.137-22.386,60-50,60S101.167,425.799,101.167,392.662z M402,256h100   c0,33.137-22.386,60-50,60S402,289.137,402,256z"/>
	<path style="fill:#FFB23C;" d="M131.167,392.662h70c0,26.865-14.715,49.603-35,57.249   C145.882,442.265,131.167,419.527,131.167,392.662z M432,256h70c0,26.865-14.715,49.603-35,57.249   C446.715,305.603,432,282.865,432,256z"/>
	<path style="fill:#FFBD61;" d="M201.167,392.662c0,1.346-0.05,2.677-0.123,4H101.29c-0.073-1.323-0.123-2.654-0.123-4   c0-33.137,22.386-60,50-60S201.167,359.525,201.167,392.662z M452,196c-27.614,0-50,26.863-50,60c0,1.346,0.05,2.677,0.123,4   h99.754c0.073-1.323,0.123-2.654,0.123-4C502,222.863,479.614,196,452,196z"/>
	<path style="fill:#FFC981;" d="M201.166,392.61c-0.001,0.668-0.012,1.333-0.032,1.995c0,0.002,0,0.003,0,0.005   c-0.01,0.316-0.027,0.629-0.04,0.943c-0.016,0.37-0.029,0.74-0.049,1.109h-74.756c-0.073-1.364-0.121-2.736-0.121-4.122   c0-27.453,14.475-50.714,34.498-58.783C183.721,339.08,201.145,363.395,201.166,392.61z M459.229,196.633   C440.39,205.703,427,228.758,427,255.782c0,1.418,0.048,2.823,0.121,4.218h74.756c0.013-0.237,0.02-0.475,0.032-0.712   c0.051-1.12,0.087-2.245,0.089-3.381C501.96,225.759,483.391,200.833,459.229,196.633z"/>
	<path style="fill:#FFD69E;" d="M211.167,391.662v10c0,2.761-2.239,5-5,5h-110c-2.761,0-5-2.239-5-5v-10c0-2.761,2.239-5,5-5h110   C208.928,386.662,211.167,388.901,211.167,391.662z M507,250H397c-2.761,0-5,2.239-5,5v10c0,2.761,2.239,5,5,5h110   c2.761,0,5-2.239,5-5v-10C512,252.239,509.761,250,507,250z"/>
	<path style="fill:#FFE2BD;" d="M211.167,89v10c0,2.761-2.239,5-5,5h-80c-2.761,0-5-2.239-5-5V89c0-2.761,2.239-5,5-5h15V30   c0-5.523,4.477-10,10-10c5.523,0,10,4.477,10,10v54h45C208.928,84,211.167,86.239,211.167,89z"/>
	<path style="fill:#DCFBFF;" d="M120,255v10c0,2.761-2.239,5-5,5H35c-2.761,0-5-2.239-5-5v-10c0-2.761,2.239-5,5-5h15v-54   c0-5.523,4.477-10,10-10s10,4.477,10,10v54h45C117.761,250,120,252.239,120,255z M415.833,84h-45V30c0-5.523-4.477-10-10-10h0   c-5.523,0-10,4.477-10,10v54h-15c-2.761,0-5,2.239-5,5v10c0,2.761,2.239,5,5,5h80c2.761,0,5-2.239,5-5V89   C420.833,86.239,418.595,84,415.833,84z M415.833,386.662h-45V333c0-5.523-4.477-10-10-10h0c-5.523,0-10,4.477-10,10v53.662h-15   c-2.761,0-5,2.239-5,5v10c0,2.761,2.239,5,5,5h80c2.761,0,5-2.239,5-5v-10C420.833,388.901,418.595,386.662,415.833,386.662z"/>
	<path style="fill:#FFE2BD;" d="M211.167,391.662v10c0,2.761-2.239,5-5,5h-80c-2.761,0-5-2.239-5-5v-10c0-2.761,2.239-5,5-5h15V333   c0-5.523,4.477-10,10-10h0c5.523,0,10,4.477,10,10v53.662h45C208.928,386.662,211.167,388.901,211.167,391.662z M507,250h-45v-54   c0-5.523-4.477-10-10-10s-10,4.477-10,10v54h-15c-2.761,0-5,2.239-5,5v10c0,2.761,2.239,5,5,5h80c2.761,0,5-2.239,5-5v-10   C512,252.239,509.761,250,507,250z"/>
</g>















</svg>
