<?xml version="1.0" encoding="iso-8859-1"?>
<!-- Generator: Adobe Illustrator 19.0.0, SVG Export Plug-In . SVG Version: 6.00 Build 0)  -->
<svg xmlns="http://www.w3.org/2000/svg" xmlns:xlink="http://www.w3.org/1999/xlink" version="1.1" id="Capa_1" x="0px" y="0px" viewBox="0 0 512 512" style="enable-background:new 0 0 512 512;" xml:space="preserve" width="512" height="512">
<g>
	<path style="fill:#276372;" d="M11,256C11,120.867,120.403,11.287,255.469,11.001c135.176-0.287,244.436,107.813,245.523,242.985   c0.618,76.907-34.207,145.695-89.114,191.028c-3.314,2.736-7.656,3.869-11.901,3.199c-45.478-7.177-93.835-11.046-143.977-11.046   c-50.142,0-98.499,3.869-143.977,11.046c-4.244,0.67-8.585-0.462-11.898-3.198C45.696,400.078,11,332.094,11,256z"/>
	<path style="fill:#2F7589;" d="M397.412,229.948c-1.687,22.637-20.069,40.839-42.72,42.326   c-16.445,1.079-31.181-6.503-40.112-18.626c-10.025,20.173-30.831,34.044-54.887,34.044c-21.898,0-41.101-11.497-51.934-28.775   c-4.788,1.892-10.088,2.77-15.644,2.329c-17.689-1.403-31.67-16.205-32.104-33.944c-0.482-19.694,15.338-35.81,34.922-35.81   c3.274,0,6.441,0.455,9.445,1.301c2.052,0.577,4.217-0.222,5.457-1.957c11.111-15.541,29.297-25.678,49.858-25.678   c21.636,0,40.643,11.221,51.542,28.156c1.734,2.694,5.508,3.002,7.766,0.729c8.322-8.378,19.85-13.568,32.592-13.568   C378.136,180.475,399.422,202.979,397.412,229.948z"/>
	<path style="fill:#84B8C8;" d="M275.668,88.306l-109.348,50.99c-3.754,1.75-8.216,0.126-9.967-3.628l-0.827-1.773   c-1.75-3.754-0.126-8.216,3.628-9.967l11.132-5.191l14.772-40.585c-6.558-16.894-22.979-28.908-42.161-28.908   c-24.932,0-45.217,20.284-45.217,45.217V280H75.07V94.461c0-37.399,30.427-67.826,67.826-67.826c24.049,0,45.2,12.593,57.246,31.52   l56.198,20.454l12.161-5.671c3.754-1.751,8.216-0.126,9.967,3.628l0.827,1.773C281.046,82.093,279.422,86.555,275.668,88.306z"/>
	<path style="fill:#9DC6D4;" d="M275.668,88.306l-65.682,30.628c-9.772-1.849-16.75-6.094-19.12-12.606   c-4.384-12.045,8.25-28.28,29.811-40.699l35.664,12.98l12.161-5.671c3.754-1.751,8.216-0.126,9.967,3.628l0.827,1.773   C281.046,82.093,279.422,86.555,275.668,88.306z"/>
	<path style="fill:#6AA8BB;" d="M395,155v40c0,2.761-2.239,5-5,5s-5-2.239-5-5v-40c0-2.761,2.239-5,5-5S395,152.239,395,155z    M440,179.633c-2.761,0-5,2.239-5,5v40c0,2.761,2.239,5,5,5s5-2.239,5-5v-40C445,181.872,442.761,179.633,440,179.633z"/>
	<path style="fill:#E988A9;" d="M399.919,252.331c-1.121,16.255-14.317,29.407-30.574,30.479   c-11.773,0.777-22.325-4.65-28.719-13.329c-7.175,14.437-22.065,24.364-39.28,24.364c-15.672,0-29.414-8.228-37.167-20.593   C261.337,274.376,258.242,275,255,275c-6.658,0-12.703-2.608-17.184-6.851C231.422,279.686,219.126,287.5,205,287.5   c-12.394,0-23.379-6.016-30.207-15.283C166.612,288.68,149.632,300,130,300c-20.888,0-38.776-12.813-46.255-31.005   c-5.156,4.414-12.124,6.773-19.64,5.781c-11.255-1.485-20.207-10.657-21.448-21.941C40.998,237.758,52.759,225,67.5,225   c3.988,0,7.756,0.936,11.1,2.598c2.873,1.429,6.348,0.475,7.937-2.313C95.139,210.185,111.377,200,130,200   c16.927,0,31.882,8.415,40.926,21.287c2.039,2.902,6.183,3.406,8.802,1.014c6.665-6.087,15.534-9.801,25.272-9.801   c12.03,0,22.733,5.667,29.594,14.475c1.866,2.396,5.189,2.965,7.81,1.431C246.103,226.242,250.405,225,255,225   c1.892,0,3.734,0.212,5.505,0.613c2.26,0.511,4.593-0.377,6-2.218c8.011-10.478,20.634-17.241,34.842-17.241   c14.597,0,27.522,7.137,35.49,18.108c2.059,2.835,6.096,3.189,8.742,0.892c5.769-5.007,13.298-8.039,21.537-8.039   C386.048,217.115,401.244,233.115,399.919,252.331z"/>
	<path style="fill:#FFF5F5;" d="M470,219.633v60c0,5.523-4.477,10-10,10h-40c-5.523,0-10-4.477-10-10v-60c0-5.523,4.477-10,10-10h40   C465.523,209.633,470,214.11,470,219.633z"/>
	<path style="fill:#FFCDBC;" d="M420,190v60c0,5.523-4.477,10-10,10h-40c-5.523,0-10-4.477-10-10v-60c0-5.523,4.477-10,10-10h40   C415.523,180,420,184.477,420,190z"/>
	<path style="fill:#FFB23C;" d="M450,186.936c0,5.926-2.584,11.24-6.682,14.899c-1.884,1.682-4.752,1.682-6.635,0   c-4.098-3.658-6.682-8.972-6.682-14.899c0-6.913,3.517-12.993,8.85-16.584c0.697-0.469,1.602-0.469,2.299,0   C446.483,173.942,450,180.023,450,186.936z M391.15,140.719c-0.697-0.469-1.602-0.469-2.299,0c-5.334,3.59-8.85,9.671-8.85,16.584   c0,5.926,2.584,11.24,6.682,14.899c1.884,1.682,4.752,1.682,6.635,0c4.098-3.658,6.682-8.972,6.682-14.899   C400,150.389,396.483,144.309,391.15,140.719z"/>
	<path style="fill:#B5F3FB;" d="M512,270L512,270c0,11.046-8.954,20-20,20h-36l-30.747,122.986   c-2.766,11.065-6.931,21.486-12.267,31.101C370.47,479.611,315.736,501,256,501c-59.736,0-114.47-21.389-156.986-56.913   c-5.337-9.615-9.501-20.036-12.267-31.101L56,290H20c-11.046,0-20-8.954-20-20l0,0c0-11.046,8.954-20,20-20h472   C503.046,250,512,258.954,512,270z"/>
	<path style="fill:#DCFBFF;" d="M451,310l-20.126,80.505C394.724,427.277,344.953,450,290,450   c-83.203,0-154.517-52.085-184.65-126.175c-2.684-6.6,2.119-13.825,9.244-13.825H280c5.743,0,10.356-4.841,9.978-10.666   c-0.344-5.315-4.995-9.334-10.321-9.334H50c-11.288,0-20.392-9.351-19.987-20.729C30.398,258.433,39.635,250,50.479,250H492   c11.288,0,20.392,9.351,19.987,20.729C511.602,281.567,502.365,290,491.521,290H456h-65.658c-5.326,0-9.977,4.019-10.321,9.334   C379.644,305.159,384.257,310,390,310H451z"/>
	<path style="fill:#E988A9;" d="M360,245v70c0,8.284-6.716,15-15,15s-15-6.716-15-15v-25.872c-1.566,0.554-3.244,0.872-5,0.872   c-8.284,0-15-6.716-15-15v-30c0-8.284,6.716-15,15-15c3.847,0,7.345,1.461,10,3.842c2.655-2.381,6.153-3.842,10-3.842   C353.284,230,360,236.716,360,245z"/>
</g>















</svg>
