<?xml version="1.0" encoding="iso-8859-1"?>
<!-- Generator: Adobe Illustrator 19.0.0, SVG Export Plug-In . SVG Version: 6.00 Build 0)  -->
<svg xmlns="http://www.w3.org/2000/svg" xmlns:xlink="http://www.w3.org/1999/xlink" version="1.1" id="Capa_1" x="0px" y="0px" viewBox="0 0 501 501" style="enable-background:new 0 0 501 501;" xml:space="preserve" width="512" height="512">
<g>
	<path style="fill:#FFBD61;" d="M495.5,256c0,135.31-109.69,245-245,245S5.5,391.31,5.5,256s109.69-245,245-245   S495.5,120.69,495.5,256z"/>
	<path style="fill:#FFC981;" d="M28,256H5.5c0-10.157,0.63-20.167,1.831-30H28c8.284,0,15,6.716,15,15S36.284,256,28,256z M345,419   h-46.013c-8.284,0-15,6.716-15,15s6.716,15,15,15H345c8.284,0,15-6.716,15-15S353.284,419,345,419z M295.5,218h160   c8.284,0,15-6.716,15-15c0-8.284-6.716-15-15-15h-85c-5.523,0-10-4.477-10-10c0-5.523,4.477-10,10-10h108.704   c-3.988-10.358-8.656-20.376-13.955-30H325.5c-8.284,0-15,6.716-15,15c0,8.284,6.716,15,15,15h15c5.523,0,10,4.477,10,10   c0,5.523-4.477,10-10,10h-45c-8.284,0-15,6.716-15,15C280.5,211.284,287.216,218,295.5,218z M385.65,370c0,8.284,6.716,15,15,15   h58.158c5.946-9.58,11.248-19.599,15.849-30H400.65C392.365,355,385.65,361.716,385.65,370z M105.036,375H36.31   c5.846,10.499,12.44,20.522,19.712,30h49.013c8.284,0,15-6.716,15-15S113.32,375,105.036,375z M231.5,30c0-8.284-6.716-15-15-15   h-10.274c-28.842,5.265-55.915,15.585-80.282,30H216.5C224.784,45,231.5,38.284,231.5,30z M45,205h102c8.284,0,15-6.716,15-15   s-6.716-15-15-15H45c-8.284,0-15,6.716-15,15S36.716,205,45,205z M225.072,235h-102c-8.284,0-15,6.716-15,15s6.716,15,15,15h102   c8.284,0,15-6.716,15-15S233.357,235,225.072,235z"/>
	<path style="fill:#FFE2BD;" d="M312.523,252.518c1.782-2.38,5.482-2.071,6.779,0.605c13.95,28.787,8.608,63.97-14.75,87.328h0   c-29.849,29.849-78.243,29.849-108.092,0h0c-26.879-26.879-29.92-69.426-7.138-99.854l36.685-48.998   c1.644-2.195,4.939-2.111,6.5,0.144c0.5,0.722,1.015,1.438,1.545,2.146l43.897,58.631   C286.586,264.055,303.885,264.055,312.523,252.518L312.523,252.518z"/>
	<path style="fill:#FA7786;" d="M280.5,300c0,11.046-8.954,20-20,20h-20c-11.046,0-20-8.954-20-20s8.954-20,20-20h20   C271.546,280,280.5,288.954,280.5,300z M175.5,280h-20c-11.046,0-20,8.954-20,20s8.954,20,20,20h20c11.046,0,20-8.954,20-20   S186.546,280,175.5,280z M345.5,280h-20c-11.046,0-20,8.954-20,20s8.954,20,20,20h20c11.046,0,20-8.954,20-20   S356.546,280,345.5,280z"/>
	<path style="fill:#EF3C54;" d="M332.094,386.31l52.39,74.821c-8.384,5.487-17.122,10.475-26.177,14.919l-53.288-76.104   c-12.467,4.785-25.722,7.979-39.519,9.329v91.254c-4.963,0.3-9.961,0.47-15,0.47s-10.037-0.17-15-0.47v-91.254   c-13.797-1.35-27.052-4.544-39.519-9.329l-53.288,76.104c-9.055-4.445-17.793-9.432-26.177-14.919l52.39-74.821   c-28.735-18.283-50.926-45.935-62.268-78.658c-1.129-3.257,1.275-6.662,4.722-6.662h278.28c3.447,0,5.852,3.404,4.722,6.662   C383.019,340.375,360.828,368.027,332.094,386.31z"/>
	<path style="fill:#D43147;" d="M283.987,406.312c-10.775,2.419-21.982,3.697-33.487,3.697c-66.605,0-123.21-42.779-143.862-102.357   c-1.129-3.257,1.275-6.662,4.722-6.662h49.133C180.97,354.07,227.264,394.309,283.987,406.312z"/>
	<path style="fill:#FF855B;" d="M425.703,69.087C382.946,88.732,319.087,100,250.5,100S118.054,88.732,75.297,69.087   c-5.018-2.306-7.217-8.243-4.912-13.262s8.242-7.216,13.262-4.912C123.878,69.398,184.693,80,250.5,80   s126.622-10.602,166.853-29.087c5.019-2.307,10.956-0.106,13.262,4.912C432.92,60.844,430.721,66.781,425.703,69.087z"/>
	<path style="fill:#B57063;" d="M85.5,5v69.896V160v277.104c-10.96-9.991-21-20.971-30-32.786V160v-52.318V5c0-2.761,2.239-5,5-5h20   C83.261,0,85.5,2.239,85.5,5z M440.5,0h-20c-2.761,0-5,2.239-5,5v69.896V160v277.104c10.96-9.991,21-20.971,30-32.786V160v-52.318   V5C445.5,2.239,443.261,0,440.5,0z"/>
	<path style="fill:#C44775;" d="M290.5,78.153v80.569c0,2.805-3.041,4.554-5.465,3.143l-27.22-15.837   c-4.522-2.631-10.108-2.631-14.63,0l-27.22,15.837c-2.424,1.41-5.465-0.339-5.465-3.143V78.667   C221.173,79.233,232.032,80,243.015,80C259.18,80,275.075,79.366,290.5,78.153z"/>
	<path style="fill:#0AB174;" d="M194.375,77.365l-13.991,79.345c-0.487,2.762-3.785,3.956-5.928,2.147L150.4,138.533   c-3.996-3.376-9.498-4.346-14.407-2.54l-29.557,10.87c-2.632,0.968-5.323-1.282-4.836-4.045l14.158-80.054   c10.413,2.411,20.926,5.662,31.742,7.569C163.419,73.14,178.974,75.882,194.375,77.365z"/>
	<path style="fill:#01A2BB;" d="M350.459,70.333c10.816-1.907,21.329-5.158,31.742-7.569l14.158,80.054   c0.487,2.762-2.204,5.013-4.836,4.045l-29.557-10.87c-4.91-1.806-10.411-0.836-14.407,2.54l-24.057,20.323   c-2.142,1.81-5.441,0.616-5.928-2.147l-13.991-79.345C318.985,75.882,334.54,73.14,350.459,70.333z"/>
</g>















</svg>
