<?xml version="1.0" encoding="iso-8859-1"?>
<!-- Generator: Adobe Illustrator 19.0.0, SVG Export Plug-In . SVG Version: 6.00 Build 0)  -->
<svg xmlns="http://www.w3.org/2000/svg" xmlns:xlink="http://www.w3.org/1999/xlink" version="1.1" id="Capa_1" x="0px" y="0px" viewBox="0 0 512 512" style="enable-background:new 0 0 512 512;" xml:space="preserve" width="512" height="512">
<g>
	<path style="fill:#DCFBFF;" d="M501,256c0,135.31-109.69,245-245,245S11,391.31,11,256S120.69,11,256,11S501,120.69,501,256z"/>
	<path style="fill:#8AE8F5;" d="M499.322,284.662C485.127,406.464,381.612,501,256,501S26.873,406.464,12.678,284.662   C22.229,288.114,32.53,290,43.273,290c24.969,0,47.561-10.169,63.865-26.59c3.874-3.902,10.214-3.902,14.088,0   C137.53,279.832,160.123,290,185.091,290s47.561-10.169,63.865-26.589c3.874-3.901,10.214-3.901,14.088,0   C279.348,279.831,301.941,290,326.909,290s47.561-10.169,63.865-26.589c3.874-3.901,10.214-3.901,14.088,0   C421.166,279.831,443.759,290,468.727,290C479.47,290,489.771,288.114,499.322,284.662z"/>
	<path style="fill:#30DAEC;" d="M58.266,400.645c-12.863-17.557-23.452-36.884-31.316-57.556c5.294,0.972,10.748,1.483,16.323,1.483   c24.969,0,47.561-10.168,63.865-26.59c3.874-3.901,10.214-3.901,14.088,0c16.304,16.421,38.897,26.59,63.865,26.59   s47.561-10.168,63.865-26.589c3.874-3.901,10.214-3.901,14.088,0c16.304,16.421,38.897,26.589,63.865,26.589   s47.561-10.168,63.865-26.589c3.874-3.901,10.214-3.901,14.088,0c16.304,16.421,38.897,26.589,63.865,26.589   c5.575,0,11.029-0.512,16.323-1.483c-7.865,20.672-18.454,40-31.316,57.556H58.266z"/>
	<path style="fill:#FFBD61;" d="M461.121,390C417.369,456.836,341.848,501,256,501S94.631,456.836,50.88,390H461.121z"/>
	<path style="fill:#EF3C54;" d="M237.269,298.334c16.079,47.033-16.256,132.375-84.193,155.601   c-10.815,3.697-21.879,5.59-32.906,5.982c-33.663-22.468-61.443-53.048-80.557-88.948c24.909-4.961,51.145-11.981,77.88-21.121   c45.273-15.477,85.749-34.865,118.242-55.535C236.288,295.63,236.803,296.969,237.269,298.334z"/>
	<path style="fill:#D43147;" d="M237.269,298.334c16.079,47.033-16.256,132.375-84.193,155.601   c-10.815,3.697-21.881,5.589-32.908,5.981c-15.789-10.538-30.279-22.863-43.194-36.682c18.783,1.883,38.265,0.217,57.148-6.238   c55.284-18.899,89.536-73.354,95.84-119.078c1.949-1.197,3.878-2.397,5.773-3.603C236.288,295.63,236.803,296.969,237.269,298.334z   "/>
	<path style="fill:#895348;" d="M291.355,299.549c-6.45,9.362-6.45,24.541,0,33.902l0,0c3.905,5.668,3.905,14.858,0,20.526l0,0   c-6.45,9.362-6.45,24.541,0,33.902l0,0c3.905,5.668,3.905,14.858,0,20.526l0,0c-6.45,9.362-6.45,24.541,0,33.902l0,0   c3.905,5.668,3.905,14.858,0,20.526l0,0c-6.45,9.362-6.45,24.541,0,33.902l0,0c0.344,0.499,0.646,1.033,0.929,1.582   C280.444,500.079,268.33,501,256,501s-24.444-0.921-36.284-2.679c0.283-0.548,0.585-1.083,0.929-1.582l0,0   c6.45-9.362,6.45-24.54,0-33.902l0,0c-3.905-5.668-3.905-14.858,0-20.526l0,0c6.45-9.362,6.45-24.54,0-33.902l0,0   c-3.905-5.668-3.905-14.858,0-20.526l0,0c6.45-9.362,6.45-24.54,0-33.902l0,0c-3.905-5.668-3.905-14.858,0-20.526l0,0   c6.45-9.362,6.45-24.54,0-33.902l0,0c-3.905-5.668-3.905-14.858,0-20.526l0,0c6.45-9.362,6.45-24.54,0-33.902h0   c-3.905-5.668-3.905-14.858,0-20.527l28.284-41.053c3.905-5.668,10.237-5.668,14.142,0l28.284,41.053   c3.905,5.668,3.905,14.858,0,20.527h0c-6.45,9.362-6.45,24.541,0,33.902l0,0C295.261,284.691,295.261,293.881,291.355,299.549   L291.355,299.549z"/>
	<path style="fill:#7D4B41;" d="M252.929,224.593c-3.905,5.668-3.905,14.858,0,20.527h0c6.45,9.362,6.45,24.541,0,33.902l0,0   c-3.905,5.668-3.905,14.858,0,20.526l0,0c6.45,9.362,6.45,24.541,0,33.902l0,0c-3.905,5.668-3.905,14.858,0,20.526l0,0   c6.45,9.362,6.45,24.541,0,33.902l0,0c-3.905,5.668-3.905,14.858,0,20.526l0,0c6.45,9.362,6.45,24.541,0,33.902l0,0   c-3.905,5.668-3.905,14.858,0,20.526l0,0c6.45,9.362,6.45,24.541,0,33.902l0,0c-0.862,1.251-1.522,2.679-2.003,4.196   c-10.582-0.215-20.999-1.099-31.21-2.615c0.283-0.548,0.585-1.083,0.929-1.582l0,0c6.45-9.362,6.45-24.54,0-33.902l0,0   c-3.905-5.668-3.905-14.858,0-20.526l0,0c6.45-9.362,6.45-24.54,0-33.902l0,0c-3.905-5.668-3.905-14.858,0-20.526l0,0   c6.45-9.362,6.45-24.54,0-33.902l0,0c-3.905-5.668-3.905-14.858,0-20.526l0,0c6.45-9.362,6.45-24.54,0-33.902l0,0   c-3.905-5.668-3.905-14.858,0-20.526l0,0c6.45-9.362,6.45-24.54,0-33.902h0c-3.905-5.668-3.905-14.858,0-20.527l28.284-41.053   c3.905-5.668,10.237-5.668,14.142,0l9.071,13.166L252.929,224.593z"/>
	<path style="fill:#24BD87;" d="M506.98,200H363.382c0.511,0.347,1.027,0.683,1.535,1.039   c34.148,23.934,51.705,62.709,50.078,101.495c-0.13,3.104-3.663,4.827-6.208,3.043L258.138,199.989   c-1.154-0.056-2.271-0.508-3.138-1.289c-1.347,1.212-3.302,1.627-5.044,1.007c-0.517,0.182-1.075,0.293-1.673,0.293h-9.707   L119.75,279.458c-2.086,1.395-4.909-0.058-4.96-2.568c-0.583-29.118,12.206-57.93,36.462-76.89H5.02   c-3.94,0-6.355-4.359-4.231-7.678c26.537-41.457,72.986-68.941,125.862-68.941c20.573,0,40.164,4.177,57.997,11.702L76.083,26.518   c-2.786-2.786-1.411-7.576,2.437-8.42c48.079-10.551,100.358,2.86,137.747,40.249c19.315,19.315,32.214,42.608,38.733,67.24   c6.519-24.631,19.417-47.924,38.733-67.24c37.389-37.389,89.668-50.799,137.747-40.249c3.848,0.844,5.223,5.635,2.437,8.42   L323.804,136.631c18.768-8.503,39.599-13.25,61.545-13.25c52.876,0,99.325,27.484,125.862,68.941   C513.335,195.641,510.92,200,506.98,200z"/>
	<path style="fill:#0AB174;" d="M142.724,249.794l48.402-18.064l-71.376,47.728c-2.086,1.395-4.909-0.058-4.96-2.568   c-0.583-29.118,12.206-57.929,36.461-76.89H5.02c-3.94,0-6.355-4.359-4.231-7.678c26.537-41.457,72.986-68.942,125.862-68.942   c6.065,0,12.04,0.378,17.916,1.081c-32.288,6.028-61.519,22.59-83.274,46.547c-2.649,2.918-0.999,7.621,2.886,8.279l93.822,15.897   c5.963-3.886,12.202-7.022,18.606-9.425c1.211-0.454,2.067,1.204,1.001,1.936c-20.287,13.927-34.078,35.051-39.121,58.458   C137.96,248.608,140.373,250.672,142.724,249.794z M184.925,135.359c1.309,1.31,3.41-0.33,2.458-1.918L130.72,38.925   c-2.026-3.379,0.471-7.692,4.409-7.577c28.533,0.837,56.47,9.85,80.217,26.106C178.022,20.755,126.209,7.633,78.52,18.097   c-3.848,0.844-5.223,5.635-2.437,8.42L184.925,135.359z M316.689,198.087c-10.097-6.881-19.953-12.995-29.046-18.113   c11.803-0.157,25.334-1.042,39.658-2.717c35.153-4.112,64.569-11.756,74.977-18.839c-11.761-4.49-42.147-5.138-77.301-1.026   c-20.096,2.351-38.309,5.856-52.176,9.751c8.057-9.353,16.569-19.838,25.162-31.089c27.748-36.332,48.033-69.769,52.152-84.761   c-13.379,7.92-40.299,36.29-68.047,72.622c-9.01,11.797-17.226,23.284-24.364,33.938c-6.415-9.995-14.22-20.957-23.042-32.167   c-23.012-29.237-46.033-51.393-58.102-56.824c2.443,13.007,18.568,40.59,41.58,69.828c5.569,7.076,11.137,13.731,16.552,19.841   c-13.705-3.134-31.192-5.738-50.336-7.237c-35.285-2.763-65.624-0.951-77.205,3.986c10.671,6.679,40.358,13.19,75.643,15.953   c18.442,1.444,35.525,1.636,49.293,0.788c-7.35,3.073-15.391,7.096-23.594,11.925c-21.438,12.621-37.555,26.954-41.359,35.954   c9.715,1.041,30.068-6.097,51.505-18.718c7.868-4.632,15.015-9.495,21.104-14.24c-4.992,9.044-8.394,16.511-9.829,21.734   c6.711-3.973,16.83-13.093,28.751-25.781c7.009,6.211,13.06,10.586,17.576,12.619c-0.196-1.045-0.49-2.194-0.86-3.42   c8.666,7.212,18.861,14.9,30.044,22.521c29.247,19.931,56.475,33.436,68.978,34.906   C368.463,238.422,345.936,218.019,316.689,198.087z"/>
	<path style="fill:#C28579;" d="M340,400h-20c-5.523,0-10-4.477-10-10v0c0-5.523,4.477-10,10-10h20c5.523,0,10,4.477,10,10v0   C350,395.523,345.523,400,340,400z"/>
	<path style="fill:#FCA20C;" d="M380,440h-20c-5.523,0-10-4.477-10-10v0c0-5.523,4.477-10,10-10h20c5.523,0,10,4.477,10,10v0   C390,435.523,385.523,440,380,440z"/>
	<path style="fill:#F05D22;" d="M270,195c0,19.33-15.67,35-35,35s-35-15.67-35-35s15.67-35,35-35S270,175.67,270,195z"/>
	<path style="fill:#D14F1B;" d="M267.638,207.638C262.569,220.72,249.872,230,235,230c-19.33,0-35-15.67-35-35   c0-14.872,9.28-27.569,22.362-32.638c-1.52,3.921-2.362,8.18-2.362,12.638c0,19.33,15.67,35,35,35   C259.458,210,263.717,209.158,267.638,207.638z"/>
	<path style="fill:#895348;" d="M300,170c0,16.569-13.431,30-30,30s-30-13.431-30-30s13.431-30,30-30S300,153.432,300,170z"/>
</g>















</svg>
