<?xml version="1.0" encoding="iso-8859-1"?>
<!-- Generator: Adobe Illustrator 19.0.0, SVG Export Plug-In . SVG Version: 6.00 Build 0)  -->
<svg xmlns="http://www.w3.org/2000/svg" xmlns:xlink="http://www.w3.org/1999/xlink" version="1.1" id="Capa_1" x="0px" y="0px" viewBox="0 0 501 501" style="enable-background:new 0 0 501 501;" xml:space="preserve" width="512" height="512">
<g>
	<path style="fill:#84B8C8;" d="M490,250.611C489.94,386.345,380.663,495.538,244.929,495.5   c-43.429-0.012-84.208-11.336-119.574-31.168c-3.639-2.04-6.674-4.999-8.869-8.547c-19.847-32.079-46.888-59.233-78.876-79.214   c-2.906-1.815-5.293-4.35-6.956-7.345C10.961,333.749-0.193,292.876,0.003,249.378C0.608,114.25,109.871,5.5,245,5.5   C380.347,5.5,490.06,115.25,490,250.611z"/>
	<path style="fill:#FFE2BD;" d="M389.5,274.5v190h-39h-1H125.661c-39.948-22.325-72.998-55.504-95.161-95.555V164.5v-32.445V24.5   h320v60v80v110H389.5z"/>
	<path style="fill:#FFF5F5;" d="M389.5,274.5v190h-15h-1h-23h-1H149.661c-1.248-0.698-2.49-1.406-3.725-2.125   C88.956,429.208,54.5,367.662,54.5,301.732V164.5v-32.445V24.5h296v60v80v110h24H389.5z"/>
	<path style="fill:#FFAE93;" d="M459.5,354.5H429v75c0,19.33-15.67,35-35,35h-8.5c-19.33,0-35-15.67-35-35v-155h69h9.5h30.5V354.5z"/>
	<path style="fill:#FFE2BD;" d="M496,354.5h-67v-45c0-19.33,15.67-35,35-35h2c19.33,0,35,15.67,35,35v40   C501,352.261,498.761,354.5,496,354.5z"/>
	<path style="fill:#FC703B;" d="M350.5,45.5h-320v-20c0-11.046,8.954-20,20-20h280c11.046,0,20,8.954,20,20V45.5z"/>
	<path style="fill:#FF855B;" d="M64.5,25.5c0,5.523-4.477,10-10,10s-10-4.477-10-10c0-5.523,4.477-10,10-10S64.5,19.977,64.5,25.5z    M84.5,15.5c-5.523,0-10,4.477-10,10c0,5.523,4.477,10,10,10s10-4.477,10-10C94.5,19.977,90.023,15.5,84.5,15.5z M114.5,15.5   c-5.523,0-10,4.477-10,10c0,5.523,4.477,10,10,10s10-4.477,10-10C124.5,19.977,120.023,15.5,114.5,15.5z"/>
	<path style="fill:#FFBD61;" d="M194,204.5H54c-2.761,0-5-2.239-5-5v-130c0-2.761,2.239-5,5-5h140c2.761,0,5,2.239,5,5v130   C199,202.261,196.761,204.5,194,204.5z"/>
	<path style="fill:#FFD69E;" d="M109,99.5c0,13.807-11.193,25-25,25s-25-11.193-25-25s11.193-25,25-25S109,85.693,109,99.5z"/>
	<path style="fill:#E48F00;" d="M194,204.5H88.541L79,194.959l76.924-76.924c1.953-1.953,5.118-1.953,7.071,0L199,154.041V199.5   C199,202.261,196.761,204.5,194,204.5z"/>
	<path style="fill:#FCA20C;" d="M152.64,204.5H54c-2.761,0-5-2.239-5-5v-11.36l40.104-40.104c1.953-1.953,5.118-1.953,7.071,0   L152.64,204.5z"/>
	<path style="fill:#FF9978;" d="M194,364.5H54c-2.761,0-5-2.239-5-5v-130c0-2.761,2.239-5,5-5h140c2.761,0,5,2.239,5,5v130   C199,362.261,196.761,364.5,194,364.5z"/>
	<path style="fill:#FF855B;" d="M279,414.5c0,4.142-3.358,7.5-7.5,7.5s-7.5-3.358-7.5-7.5s3.358-7.5,7.5-7.5S279,410.358,279,414.5z    M289,337c0-2.761-2.239-5-5-5h-60c-2.761,0-5,2.239-5,5v5c0,2.761,2.239,5,5,5h60c2.761,0,5-2.239,5-5V337z M224,187h100   c2.761,0,5-2.239,5-5v-5c0-2.761-2.239-5-5-5H224c-2.761,0-5,2.239-5,5v5C219,184.761,221.239,187,224,187z M224,127h50   c2.761,0,5-2.239,5-5v-5c0-2.761-2.239-5-5-5h-50c-2.761,0-5,2.239-5,5v5C219,124.761,221.239,127,224,127z M224,287h50   c2.761,0,5-2.239,5-5v-5c0-2.761-2.239-5-5-5h-50c-2.761,0-5,2.239-5,5v5C219,284.761,221.239,287,224,287z M321.5,407   c-4.142,0-7.5,3.358-7.5,7.5s3.358,7.5,7.5,7.5s7.5-3.358,7.5-7.5S325.642,407,321.5,407z M296.5,407c-4.142,0-7.5,3.358-7.5,7.5   s3.358,7.5,7.5,7.5s7.5-3.358,7.5-7.5S300.642,407,296.5,407z M364,127c2.761,0,5-2.239,5-5v-5c0-2.761-2.239-5-5-5h-70   c-2.761,0-5,2.239-5,5v5c0,2.761,2.239,5,5,5H364z M384,82H224c-2.761,0-5,2.239-5,5v5c0,2.761,2.239,5,5,5h160   c2.761,0,5-2.239,5-5v-5C389,84.239,386.761,82,384,82z M384,142H224c-2.761,0-5,2.239-5,5v5c0,2.761,2.239,5,5,5h160   c2.761,0,5-2.239,5-5v-5C389,144.239,386.761,142,384,142z M324,302H224c-2.761,0-5,2.239-5,5v5c0,2.761,2.239,5,5,5h100   c2.761,0,5-2.239,5-5v-5C329,304.239,326.761,302,324,302z M324,272h-30c-2.761,0-5,2.239-5,5v5c0,2.761,2.239,5,5,5h30   c2.761,0,5-2.239,5-5v-5C329,274.239,326.761,272,324,272z M384,242H224c-2.761,0-5,2.239-5,5v5c0,2.761,2.239,5,5,5h160   c2.761,0,5-2.239,5-5v-5C389,244.239,386.761,242,384,242z"/>
	<path style="fill:#FF855B;" d="M174,294.5c0,27.614-22.386,50-50,50s-50-22.386-50-50c0-27.614,22.386-50,50-50   S174,266.886,174,294.5z"/>
	<path style="fill:#FFE2BD;" d="M103.17,316.054v-43.107c0-2.221,2.363-3.644,4.326-2.606l40.775,21.554   c2.094,1.107,2.094,4.106,0,5.213l-40.775,21.554C105.533,319.698,103.17,318.275,103.17,316.054z"/>
	<path style="fill:#FF9978;" d="M204,392.73l5-3.586l41.908,23.613c1.358,0.765,1.358,2.72,0,3.485L209,439.855l-5-3.586V392.73z"/>
	<path style="fill:#2F7589;" d="M43.241,389.5H209v50H89.094C71.6,425.053,56.159,408.214,43.241,389.5z"/>
	<path style="fill:#276372;" d="M66.688,418.5H209v21H89.094C81.191,432.974,73.713,425.953,66.688,418.5z"/>
	<path style="fill:#1A4F5B;" d="M250.908,416.242L234,425.769v-22.538l16.908,9.527   C252.265,413.522,252.265,415.478,250.908,416.242z"/>
</g>















</svg>
