<?xml version="1.0" encoding="iso-8859-1"?>
<!-- Generator: Adobe Illustrator 19.0.0, SVG Export Plug-In . SVG Version: 6.00 Build 0)  -->
<svg xmlns="http://www.w3.org/2000/svg" xmlns:xlink="http://www.w3.org/1999/xlink" version="1.1" id="Capa_1" x="0px" y="0px" viewBox="0 0 512 512" style="enable-background:new 0 0 512 512;" xml:space="preserve" width="512" height="512">
<g>
	<path style="fill:#8AE8F5;" d="M501,261.5c0,135.31-109.69,245-245,245S11,396.81,11,261.5s109.69-245,245-245   S501,126.19,501,261.5z"/>
	<path style="fill:#B5F3FB;" d="M35.865,246.5c0-8.284,6.716-15,15-15h94.359c8.284,0,15,6.716,15,15s-6.716,15-15,15H50.865   C42.581,261.5,35.865,254.784,35.865,246.5z M266.364,471.028c0-8.284-6.716-15-15-15h-85c-5.523,0-10-4.478-10-10   c0-5.523,4.477-10,10-10h155c8.284,0,15-6.716,15-15s-6.716-15-15-15h-200c-8.284,0-15,6.716-15,15s6.716,15,15,15h15   c5.523,0,10,4.477,10,10c0,5.522-4.477,10-10,10h-29.298c15.562,11.933,32.595,22.038,50.783,30h93.514   C259.648,486.028,266.364,479.313,266.364,471.028z M60,160.5c0,8.284,6.716,15,15,15h36.263c8.284,0,15-6.716,15-15   s-6.716-15-15-15H75C66.716,145.5,60,152.216,60,160.5z M347.332,34.105h-5.595c-8.284,0-15,6.716-15,15s6.716,15,15,15h59.387   C384.646,51.97,366.596,41.85,347.332,34.105z M31.844,360.5h51.201c8.284,0,15-6.716,15-15s-6.716-15-15-15H20.868   C23.885,340.798,27.559,350.813,31.844,360.5z M340,85.5h-36.263c-8.284,0-15,6.716-15,15s6.716,15,15,15H340   c8.284,0,15-6.716,15-15S348.284,85.5,340,85.5z"/>
	<path style="fill:#FA7786;" d="M100,272.5L100,272.5c0-60.751,49.249-110,110-110h170c60.751,0,110,49.249,110,110v0   c0,60.751-49.249,110-110,110H210C149.249,382.5,100,333.251,100,272.5z"/>
	<path style="fill:#FA7786;" d="M270,75.5c0,38.66-31.34,70-70,70s-70-31.34-70-70s31.34-70,70-70S270,36.84,270,75.5z M65,25.5   c-2.226,0-4.412,0.168-6.551,0.48C54.468,14.08,43.24,5.5,30,5.5c-16.569,0-30,13.431-30,30c0,13.239,8.58,24.468,20.48,28.449   C20.168,66.088,20,68.274,20,70.5c0,24.853,20.147,45,45,45s45-20.147,45-45C110,45.647,89.853,25.5,65,25.5z"/>
	<path style="fill:#FF8F9D;" d="M130,272.5L130,272.5c0-60.751,49.249-110,110-110h140c60.751,0,110,49.249,110,110v0   c0,60.751-49.249,110-110,110H240C179.249,382.5,130,333.251,130,272.5z M270,75.5c0,14.45-4.381,27.876-11.883,39.026   c-11.15,7.503-24.576,11.883-39.026,11.883c-38.66,0-70-31.34-70-70c0-14.45,4.381-27.876,11.883-39.026   C172.125,9.881,185.55,5.5,200,5.5C238.66,5.5,270,36.84,270,75.5z M110,70.5c0,9.289-2.816,17.92-7.639,25.088   c-7.168,4.823-15.799,7.639-25.088,7.639c-22.424,0-41.011-16.404-44.431-37.865c9.186-0.863,17.162-5.871,22.052-13.129   c-4.776,3.21-10.525,5.085-16.712,5.085c-16.569,0-30-13.432-30-30c0-6.193,1.877-11.947,5.093-16.725   C18.053,7.377,23.807,5.5,30,5.5c13.239,0,24.467,8.579,28.448,20.478C60.587,25.666,62.774,25.5,65,25.5   C89.853,25.5,110,45.647,110,70.5z"/>
	<path style="fill:#FFA9B4;" d="M96.119,52.179c4.74,8.835-0.12,21.375-5.399,23.093c-8.568,2.788-24.817-20.795-19.766-27.838   C74.385,42.649,90.442,41.598,96.119,52.179z M446,260.5c-1.041-33.965-34.439-69.673-64-67c-8.281,0.749-19.618,4.813-20.5,11   c-1.384,9.707,24.649,12.863,47,37c20.185,21.797,23.034,45.227,30,44C443.662,284.591,446.321,270.982,446,260.5z M202.451,21.226   c-4.471,7.623,23.378,42.808,33.63,41.703c6.316-0.681,8.939-15.458,0.246-28.246C225.915,19.367,205.488,16.048,202.451,21.226z"/>
	<path style="fill:#2F7589;" d="M512,272.5c0-74.559-60.441-135-135-135s-135,60.441-135,135   c0,65.69,46.922,120.413,109.076,132.503c-0.037,0.496-0.076,0.992-0.076,1.497l0,0c0,7.805,4.48,14.547,11,17.843v58.099   c10.433-5.014,20.451-10.753,30-17.138v-40.961c6.52-3.295,11-10.038,11-17.843l0,0c0-0.505-0.039-1.001-0.076-1.497   C465.078,392.913,512,338.19,512,272.5z M377,377.5c-57.99,0-105-47.01-105-105s47.01-105,105-105s105,47.01,105,105   S434.99,377.5,377,377.5z"/>
	<path style="fill:#276372;" d="M361,402.366c0,2.24-1.998,3.954-4.214,3.621C291.818,396.231,242,340.188,242,272.5   c0-74.559,60.441-135,135-135c4.899,0,9.736,0.268,14.5,0.777C323.761,145.511,271,202.841,271,272.5   c0,57.878,36.424,107.244,87.599,126.437C360.036,399.475,361,400.831,361,402.366L361,402.366z"/>
</g>















</svg>
