<?xml version="1.0" encoding="iso-8859-1"?>
<!-- Generator: Adobe Illustrator 19.0.0, SVG Export Plug-In . SVG Version: 6.00 Build 0)  -->
<svg xmlns="http://www.w3.org/2000/svg" xmlns:xlink="http://www.w3.org/1999/xlink" version="1.1" id="Capa_1" x="0px" y="0px" viewBox="0 0 501 501" style="enable-background:new 0 0 501 501;" xml:space="preserve" width="512" height="512">
<g>
	<path style="fill:#FFB23C;" d="M60.099,407.509c-1.187,0.173-2.377-0.299-3.114-1.246C24.72,364.771,5.5,312.632,5.5,256   c0-135.31,109.69-245,245-245s245,109.69,245,245c0,56.637-19.223,108.78-51.494,150.274c-0.731,0.94-1.913,1.409-3.091,1.237   c-59.657-8.714-123.723-13.45-190.415-13.45C183.814,394.062,119.752,398.796,60.099,407.509z"/>
	<path style="fill:#368A9C;" d="M444.065,406.19C399.241,463.875,329.21,501,250.5,501s-148.741-37.125-193.565-94.81V258.96   c0-6.074,4.924-10.998,10.998-10.998h365.134c6.074,0,10.998,4.924,10.998,10.998V406.19z"/>
	<path style="fill:#4A99AF;" d="M444.065,406.19C399.241,463.875,329.21,501,250.5,501c-61.426,0-117.57-22.608-160.571-59.954   V258.96c0-6.074,4.924-10.998,10.998-10.998h332.14c6.074,0,10.998,4.924,10.998,10.998V406.19z"/>
	<path style="fill:#368A9C;" d="M135.518,262.305h10.998v76.986h-10.998V262.305z M221.899,262.305v76.986h10.998v-76.986H221.899z"/>
	<path style="fill:#2F7589;" d="M124.52,465.463h21.996v12.42c-7.55-3.544-14.891-7.457-21.996-11.725V465.463z M179.22,490.454   c7.199,2.186,14.533,4.062,21.996,5.586v-72.11H179.22V490.454z M232.897,500.365C238.712,500.777,244.58,501,250.5,501   c1.469,0,2.931-0.03,4.393-0.056v-35.481h-21.996V500.365z M324.5,390.936h-10.998V266.962h-22.994v123.974l0,0v21.996l0,0v84.798   c7.795-1.281,15.466-2.926,22.994-4.923v-79.875H324.5c5.523,0,10-4.477,10-10v-1.996C334.5,395.413,330.023,390.936,324.5,390.936   z"/>
	<path style="fill:#FFC981;" d="M157.514,333.792c0,9.111-7.386,16.497-16.497,16.497s-16.497-7.386-16.497-16.497   c0-9.111,7.386-16.497,16.497-16.497S157.514,324.681,157.514,333.792z M227.398,317.295c-9.111,0-16.497,7.386-16.497,16.497   c0,9.111,7.386,16.497,16.497,16.497s16.497-7.386,16.497-16.497C243.895,324.681,236.509,317.295,227.398,317.295z"/>
	<path style="fill:#B6273C;" d="M463.861,214.968H34.939l38.727-106.499c3.161-8.693,11.422-14.479,20.672-14.479h248.546h61.579   c9.249,0,17.511,5.786,20.672,14.479L463.861,214.968z"/>
	<path style="fill:#A1273B;" d="M105.56,108.469L66.833,214.968H34.939l38.727-106.499c3.161-8.693,11.422-14.479,20.672-14.479   h31.894C116.982,93.99,108.721,99.776,105.56,108.469z"/>
	<path style="fill:#FA7786;" d="M452.863,218.461v35c0,21.259-17.234,38.493-38.493,38.493h0c-14.004,0-26.259-7.48-32.994-18.661   c-6.735,11.181-18.99,18.661-32.994,18.661h0c-14.004,0-26.259-7.48-32.994-18.661c-6.735,11.181-18.99,18.661-32.994,18.661h0   c-14.004,0-26.259-7.48-32.994-18.661c-6.735,11.181-18.99,18.661-32.994,18.661h0c-14.004,0-26.259-7.48-32.994-18.661   c-6.735,11.181-18.99,18.661-32.994,18.661l0,0c-14.004,0-26.259-7.48-32.994-18.661c-6.735,11.181-18.99,18.661-32.994,18.661l0,0   c-21.259,0-38.493-17.234-38.493-38.493v-35c0-1.929,1.564-3.493,3.493-3.493h65.988h4.012h61.976h4.012h61.976h4.012h61.976h4.012   h61.976h4.012h65.988C451.299,214.968,452.863,216.532,452.863,218.461z"/>
	<path style="fill:#F5596E;" d="M99.457,288.902c-4.618,1.961-9.694,3.052-15.027,3.052c-21.259,0-38.493-17.234-38.493-38.493v-35   c0-1.929,1.564-3.493,3.493-3.493h30.068c-1.928,0.001-3.491,1.564-3.491,3.493v35C76.007,269.382,85.674,283.044,99.457,288.902z"/>
	<path style="fill:#FFE2BD;" d="M177.913,253.461c0,7.255,2.01,14.04,5.499,19.832c-6.735,11.181-18.99,18.661-32.994,18.661   c-21.259,0-38.493-17.234-38.493-38.493v-35c0-1.929,1.564-3.493,3.493-3.493h65.988c-1.929,0-3.493,1.563-3.493,3.493V253.461z    M309.889,218.461c0-1.929,1.564-3.493,3.493-3.493h-65.988c-1.929,0-3.493,1.563-3.493,3.493v35   c0,21.259,17.234,38.493,38.493,38.493h0c14.004,0,26.259-7.48,32.994-18.661c-3.489-5.792-5.499-12.577-5.499-19.832V218.461z    M449.37,214.968h-70c-1.929,0-3.493,1.563-3.493,3.493v35c0,21.259,17.234,38.493,38.493,38.493h0   c21.259,0,38.493-17.234,38.493-38.493v-35C452.863,216.532,451.299,214.968,449.37,214.968z"/>
	<path style="fill:#B6273C;" d="M460.46,225.966H40.54c-5.523,0-10-4.477-10-10v-12.994c0-5.523,4.477-10,10-10h419.92   c5.523,0,10,4.477,10,10v12.994C470.46,221.489,465.983,225.966,460.46,225.966z"/>
	<path style="fill:#D43147;" d="M460.46,225.966H66.935c-5.523,0-10-4.477-10-10v-12.994c0-5.523,4.477-10,10-10H460.46   c5.523,0,10,4.477,10,10v12.994C470.46,221.489,465.983,225.966,460.46,225.966z"/>
	<path style="fill:#0AB174;" d="M250.5,215.968c-59.638,0-107.984-48.346-107.984-107.984S190.862,0,250.5,0   s107.984,48.346,107.984,107.984S310.138,215.968,250.5,215.968z"/>
	<path style="fill:#FFE2BD;" d="M137.015,420h-2.994c-8.284,0-15-6.716-15-15v-20.062c0-2.761,2.239-5,5-5h22.994   c2.761,0,5,2.239,5,5V405C152.015,413.284,145.299,420,137.015,420z"/>
	<path style="fill:#9DC6D4;" d="M422.484,336.198v12.994c0,5.523-4.477,10-10,10H344.5c-5.523,0-10-4.477-10-10v-12.994   c0-5.523,4.477-10,10-10h67.984C418.007,326.198,422.484,330.675,422.484,336.198z M227.897,395.667h-54.675c-2.761,0-5,2.239-5,5   V405c0,8.284,6.716,15,15,15h34.675c8.284,0,15-6.716,15-15v-4.333C232.897,397.905,230.659,395.667,227.897,395.667z"/>
	<path style="fill:#895348;" d="M161.007,458.667v11.996c0,2.761-2.239,5-5,5h-14.094c-11.017-5.457-21.563-11.714-31.565-18.703   c0.7-1.917,2.522-3.293,4.681-3.293h40.978C158.768,453.667,161.007,455.905,161.007,458.667z M290.508,412.932H89.929v21.996   h200.579V412.932z M269.384,470.663v-11.996c0-2.761-2.239-5-5-5h-40.978c-2.761,0-5,2.239-5,5v11.996c0,2.761,2.239,5,5,5h40.978   C267.146,475.663,269.384,473.424,269.384,470.663z"/>
	<path style="fill:#24BD87;" d="M358.484,107.984c0,54.219-39.961,99.101-92.037,106.81c-7.129-1.055-14.03-2.807-20.633-5.184   c-11.839-4.262-8.727-21.715,3.856-21.587c0.276,0.003,0.553,0.004,0.83,0.004c45.638,0,82.355-38.196,79.928-84.364   c-2.185-41.571-36.515-74.79-78.133-75.701c-0.861-0.019-1.718-0.024-2.573-0.016c-12.607,0.12-15.763-17.32-3.9-21.59   c6.6-2.376,13.499-4.127,20.625-5.181C318.523,8.884,358.484,53.765,358.484,107.984z"/>
	<path style="fill:#B5F3FB;" d="M313.271,65.667h-1.813c-2.283,0-4.479,0.363-6.543,1.023c-0.521-2.075-1.138-4.113-1.87-6.096   c-0.72-1.95-2.603-3.227-4.682-3.227H195.967c-2.078,0-3.962,1.276-4.681,3.226c-2.656,7.196-3.97,15.041-3.612,23.239   c0.974,22.359,14.49,41.64,33.627,50.95h-29.273c-2.437,0-4.412,1.976-4.412,4.412c0,10.719,8.689,19.408,19.408,19.408h80.284   c10.719,0,19.408-8.689,19.408-19.408c0-2.437-1.975-4.412-4.412-4.412h-29.188c12.398-6.014,22.388-16.196,28.158-28.732   c3.031,1.637,6.499,2.568,10.186,2.568h1.813c11.86,0,21.475-9.615,21.475-21.475C334.746,75.281,325.132,65.667,313.271,65.667z    M312.365,96.538c-2.743,0-5.203-1.183-6.921-3.057c0.833-3.967,1.271-8.08,1.271-12.294c0-0.508-0.021-1.01-0.034-1.515   c1.579-1.203,3.545-1.926,5.684-1.926c5.189,0,9.396,4.207,9.396,9.396S317.554,96.538,312.365,96.538z"/>
	<path style="fill:#DCFBFF;" d="M313.271,65.667h-1.813c-2.283,0-4.479,0.363-6.543,1.023c-0.521-2.075-1.138-4.113-1.87-6.096   c-0.72-1.95-2.603-3.227-4.682-3.227h-91.282C205.4,61.402,204.5,65.635,204.5,70c0,27.614,35.817,50,80,50   c2.702,0,5.372-0.086,8.005-0.25c3.51-4.123,6.476-8.722,8.768-13.701c3.031,1.637,6.499,2.568,10.186,2.568h1.813   c11.86,0,21.475-9.615,21.475-21.475C334.746,75.281,325.132,65.667,313.271,65.667z M312.365,96.538   c-2.743,0-5.203-1.183-6.921-3.057c0.833-3.967,1.271-8.08,1.271-12.294c0-0.508-0.021-1.01-0.034-1.515   c1.579-1.203,3.545-1.926,5.684-1.926c5.189,0,9.396,4.207,9.396,9.396S317.554,96.538,312.365,96.538z"/>
</g>















</svg>
