<?xml version="1.0" encoding="iso-8859-1"?>
<!-- Generator: Adobe Illustrator 19.0.0, SVG Export Plug-In . SVG Version: 6.00 Build 0)  -->
<svg xmlns="http://www.w3.org/2000/svg" xmlns:xlink="http://www.w3.org/1999/xlink" version="1.1" id="Capa_1" x="0px" y="0px" viewBox="0 0 501 501" style="enable-background:new 0 0 501 501;" xml:space="preserve" width="512" height="512">
<g>
	<path style="fill:#FFBD61;" d="M63.476,404.211c-4.449,0.7-8.943-1.102-11.583-4.751C22.712,359.134,5.5,309.581,5.5,256   c0-135.119,109.381-244.69,244.427-244.999c133.751-0.306,242.474,105.591,245.508,239.308   c1.265,55.76-16.116,107.4-46.327,149.149c-2.641,3.65-7.135,5.453-11.585,4.753C379.077,395.013,316.118,390,250.5,390   C184.882,390,121.922,395.013,63.476,404.211z"/>
	<path style="fill:#895348;" d="M450.5,397.537C406.116,460.14,333.081,501,250.5,501s-155.616-40.86-200-103.463V270   c0-11.046,8.954-20,20-20h360c11.046,0,20,8.954,20,20V397.537z"/>
	<path style="fill:#9D6256;" d="M450.5,397.537C406.116,460.14,333.081,501,250.5,501c-64.049,0-122.348-24.588-166-64.826V270   c0-11.046,8.954-20,20-20h326c11.046,0,20,8.954,20,20V397.537z"/>
	<path style="fill:#368A9C;" d="M354.833,130v70c0,11.046-8.954,20-20,20h-52c-11.046,0-20-8.954-20-20v-70c0-11.046,8.954-20,20-20   h52C345.879,110,354.833,118.954,354.833,130z M176.5,150h-52c-11.046,0-20,8.954-20,20v30c0,11.046,8.954,20,20,20h52   c11.046,0,20-8.954,20-20v-30C196.5,158.954,187.546,150,176.5,150z"/>
	<path style="fill:#4A99AF;" d="M354.833,130v70c0,11.046-8.954,20-20,20H314.5c-11.046,0-20-8.954-20-20v-70   c0-11.046,8.954-20,20-20h20.333C345.879,110,354.833,118.954,354.833,130z M176.5,150h-22c-11.046,0-20,8.954-20,20v30   c0,11.046,8.954,20,20,20h22c11.046,0,20-8.954,20-20v-30C196.5,158.954,187.546,150,176.5,150z"/>
	<path style="fill:#4A99AF;" d="M414.833,20v100c0,11.046-8.954,20-20,20h-172c-11.046,0-20-8.954-20-20V20c0-11.046,8.954-20,20-20   h172C405.879,0,414.833,8.954,414.833,20z"/>
	<path style="fill:#6AA8BB;" d="M414.833,20v100c0,11.046-8.954,20-20,20H254.5c-11.046,0-20-8.954-20-20V20   c0-11.046,8.954-20,20-20h140.333C405.879,0,414.833,8.954,414.833,20z"/>
	<path style="fill:#B5F3FB;" d="M450.5,190v80h-400v-80c0-11.046,8.954-20,20-20h360C441.546,170,450.5,178.954,450.5,190z"/>
	<path style="fill:#DCFBFF;" d="M450.5,190v80h-366v-80c0-11.046,8.954-20,20-20h326C441.546,170,450.5,178.954,450.5,190z"/>
	<path style="fill:#8AE8F5;" d="M384.5,120h-150c-5.523,0-10-4.477-10-10V30c0-5.523,4.477-10,10-10h150c5.523,0,10,4.477,10,10v80   C394.5,115.523,390.023,120,384.5,120z"/>
	<path style="fill:#DCFBFF;" d="M384.5,20h-80c-18.515,0-34.678,10.065-43.319,25.022c-1.451,2.512-0.5,5.732,2.105,7.008   C269.927,55.282,274.5,62.106,274.5,70c0,7.893-4.573,14.718-11.215,17.97c-2.605,1.276-3.556,4.496-2.105,7.008   C269.822,109.935,285.985,120,304.5,120h80c5.523,0,10-4.477,10-10V30C394.5,24.477,390.023,20,384.5,20z M309.5,90   c-11.046,0-20-8.954-20-20c0-11.046,8.954-20,20-20s20,8.954,20,20C329.5,81.046,320.546,90,309.5,90z M364.5,90   c-11.046,0-20-8.954-20-20c0-11.046,8.954-20,20-20s20,8.954,20,20C384.5,81.046,375.546,90,364.5,90z"/>
	<path style="fill:#8AE8F5;" d="M369.5,200c0,5.523-4.477,10-10,10s-10-4.477-10-10c0-5.523,4.477-10,10-10S369.5,194.477,369.5,200   z M387,190c-5.523,0-10,4.477-10,10c0,5.523,4.477,10,10,10s10-4.477,10-10C397,194.477,392.523,190,387,190z M414.5,190   c-5.523,0-10,4.477-10,10c0,5.523,4.477,10,10,10s10-4.477,10-10C424.5,194.477,420.023,190,414.5,190z"/>
	<path style="fill:#9DC6D4;" d="M300.921,450H200.079c-44.183,0-80-35.817-80-80v-70c0-44.183,35.817-80,80-80h100.842   c44.183,0,80,35.817,80,80v70C380.921,414.183,345.104,450,300.921,450z"/>
	<path style="fill:#6AA8BB;" d="M298.239,430h-95.478c-33.137,0-60-26.863-60-60v-70c0-33.137,26.863-60,60-60h95.478   c33.137,0,60,26.863,60,60v70C358.239,403.137,331.376,430,298.239,430z"/>
	<path style="fill:#30DAEC;" d="M299.663,410h-98.327c-22.091,0-40-17.909-40-40v-70c0-22.091,17.909-40,40-40h98.327   c22.091,0,40,17.909,40,40v70C339.663,392.091,321.755,410,299.663,410z"/>
	<path style="fill:#8AE8F5;" d="M339.663,300v61.332C329.957,366.858,318.9,370,307.156,370h-39.009   c-38.472,0-69.659-33.579-69.659-75v0c0-12.644,2.919-24.549,8.051-35h95.973C323.03,260,339.663,277.909,339.663,300z"/>
</g>















</svg>
