<?xml version="1.0" encoding="iso-8859-1"?>
<!-- Generator: Adobe Illustrator 19.0.0, SVG Export Plug-In . SVG Version: 6.00 Build 0)  -->
<svg xmlns="http://www.w3.org/2000/svg" xmlns:xlink="http://www.w3.org/1999/xlink" version="1.1" id="Capa_1" x="0px" y="0px" viewBox="0 0 501 501" style="enable-background:new 0 0 501 501;" xml:space="preserve" width="512" height="512">
<g>
	<path style="fill:#FC703B;" d="M5.5,256c0-135.31,109.69-245,244.999-245c135.278,0,245.417,110.495,245,245.772   c-0.265,85.863-44.707,161.317-111.782,204.859c-5.142,3.338-11.277,4.811-17.364,4.091C329.185,461.328,290.393,459,250.5,459   c-39.893,0-78.685,2.328-115.853,6.722c-6.055,0.716-12.168-0.721-17.283-4.038C50.043,418.019,5.5,342.217,5.5,256z"/>
	<path style="fill:#84B8C8;" d="M366,299v173.106c-1.656,0.887-3.323,1.755-5.001,2.605   c-33.201,16.809-187.798,16.809-220.998-0.003c-8.282-4.194-16.293-8.844-24.001-13.917V299c0-11.046,8.954-20,20-20h210   C357.046,279,366,287.954,366,299z"/>
	<path style="fill:#9DC6D4;" d="M385,299v161.792c-7.709,5.073-15.72,9.723-24.002,13.917   C327.799,491.52,176.952,492.444,145,477.175V299c0-11.046,8.954-20,20-20h200C376.046,279,385,287.954,385,299z"/>
	<path style="fill:#DCFBFF;" d="M361,329v145.712C327.798,491.52,290.258,501,250.5,501s-77.298-9.48-110.5-26.288V329   c0-11.046,8.954-20,20-20h36.519c4.532,0,8.655,2.759,10.242,7.004C209.599,323.595,216.918,329,225.5,329h50   c8.582,0,15.901-5.405,18.739-12.996c1.587-4.245,5.71-7.004,10.242-7.004H341C352.046,309,361,317.954,361,329z M225.69,303.786   c-4.339,0-7.857,3.518-7.857,7.857s3.518,7.857,7.857,7.857c4.339,0,7.857-3.518,7.857-7.857S230.03,303.786,225.69,303.786z"/>
	<path style="fill:#8AE8F5;" d="M170.214,326.857c0,4.339-3.518,7.857-7.857,7.857s-7.857-3.518-7.857-7.857   s3.518-7.857,7.857-7.857S170.214,322.518,170.214,326.857z M186.643,319c-4.339,0-7.857,3.518-7.857,7.857   s3.518,7.857,7.857,7.857s7.857-3.518,7.857-7.857S190.982,319,186.643,319z M336.643,319c-4.339,0-7.857,3.518-7.857,7.857   s3.518,7.857,7.857,7.857s7.857-3.518,7.857-7.857S340.982,319,336.643,319z"/>
	<path style="fill:#6AA8BB;" d="M272.964,319.5h-21.357c-4.339,0-7.857-3.518-7.857-7.857l0,0c0-4.339,3.518-7.857,7.857-7.857   h21.357c4.339,0,7.857,3.518,7.857,7.857l0,0C280.821,315.982,277.304,319.5,272.964,319.5z"/>
	<path style="fill:#6AA8BB;" d="M344.5,424v5c0,2.761-2.239,5-5,5h-90c-2.761,0-5-2.239-5-5v-5c0-2.761,2.239-5,5-5h90   C342.261,419,344.5,421.239,344.5,424z M339.5,444h-50c-2.761,0-5,2.239-5,5v5c0,2.761,2.239,5,5,5h50c2.761,0,5-2.239,5-5v-5   C344.5,446.239,342.261,444,339.5,444z"/>
	<path style="fill:#30DAEC;" d="M170.214,477.857c0,3.625-2.459,6.669-5.798,7.575c-2.942-1.104-5.861-2.255-8.748-3.468   c-0.736-1.196-1.168-2.6-1.168-4.107c0-4.339,3.518-7.857,7.857-7.857S170.214,473.518,170.214,477.857z M212.357,470   c-4.339,0-7.857,3.518-7.857,7.857s3.518,7.857,7.857,7.857s7.857-3.518,7.857-7.857S216.697,470,212.357,470z M187.357,470   c-4.339,0-7.857,3.518-7.857,7.857s3.518,7.857,7.857,7.857s7.857-3.518,7.857-7.857S191.697,470,187.357,470z M309.5,354h-150   c-2.761,0-5,2.239-5,5v5c0,2.761,2.239,5,5,5h150c2.761,0,5-2.239,5-5v-5C314.5,356.239,312.261,354,309.5,354z M249.5,384h-90   c-2.761,0-5,2.239-5,5v5c0,2.761,2.239,5,5,5h90c2.761,0,5-2.239,5-5v-5C254.5,386.239,252.261,384,249.5,384z"/>
	<path style="fill:#30DAEC;" d="M304.5,90h-210c-24.853,0-45-20.147-45-45v0c0-24.853,20.147-45,45-45h210c24.853,0,45,20.147,45,45   v0C349.5,69.853,329.353,90,304.5,90z"/>
	<path style="fill:#8AE8F5;" d="M349.5,45L349.5,45c0,24.853-20.147,45-45,45h-19.645l-26.464,26.464   c-1.953,1.953-5.118,1.953-7.071,0L224.855,90H129.5c-24.853,0-45-20.147-45-45l0,0c0-24.853,20.147-45,45-45h175   C329.353,0,349.5,20.147,349.5,45z"/>
	<path style="fill:#01A2BB;" d="M234.5,27.5v5c0,2.761-2.239,5-5,5h-150c-2.761,0-5-2.239-5-5v-5c0-2.761,2.239-5,5-5h150   C232.261,22.5,234.5,24.739,234.5,27.5z M262,22.5c-4.142,0-7.5,3.358-7.5,7.5s3.358,7.5,7.5,7.5s7.5-3.358,7.5-7.5   S266.142,22.5,262,22.5z M169.5,52.5h-90c-2.761,0-5,2.239-5,5v5c0,2.761,2.239,5,5,5h90c2.761,0,5-2.239,5-5v-5   C174.5,54.739,172.261,52.5,169.5,52.5z"/>
	<path style="fill:#FFD69E;" d="M369.5,220h-210c-24.853,0-45-20.147-45-45v0c0-24.853,20.147-45,45-45h210   c24.853,0,45,20.147,45,45v0C414.5,199.853,394.353,220,369.5,220z"/>
	<path style="fill:#FFE2BD;" d="M414.5,175L414.5,175c0,24.853-20.147,45-45,45H256.926l-28.536,28.536   c-1.953,1.953-5.118,1.953-7.071,0L192.784,220H189.5c-24.853,0-45-20.147-45-45l0,0c0-24.853,20.147-45,45-45h180   C394.353,130,414.5,150.147,414.5,175z"/>
	<path style="fill:#FF9978;" d="M294.5,155v5c0,2.761-2.239,5-5,5h-150c-2.761,0-5-2.239-5-5v-5c0-2.761,2.239-5,5-5h150   C292.261,150,294.5,152.239,294.5,155z M312,150c-4.142,0-7.5,3.358-7.5,7.5s3.358,7.5,7.5,7.5s7.5-3.358,7.5-7.5   S316.142,150,312,150z M337,150c-4.142,0-7.5,3.358-7.5,7.5s3.358,7.5,7.5,7.5s7.5-3.358,7.5-7.5S341.142,150,337,150z M372,150   c-4.142,0-7.5,3.358-7.5,7.5s3.358,7.5,7.5,7.5s7.5-3.358,7.5-7.5S376.142,150,372,150z M229.5,180h-90c-2.761,0-5,2.239-5,5v5   c0,2.761,2.239,5,5,5h90c2.761,0,5-2.239,5-5v-5C234.5,182.239,232.261,180,229.5,180z"/>
</g>















</svg>
