<?xml version="1.0" encoding="iso-8859-1"?>
<!-- Generator: Adobe Illustrator 19.0.0, SVG Export Plug-In . SVG Version: 6.00 Build 0)  -->
<svg xmlns="http://www.w3.org/2000/svg" xmlns:xlink="http://www.w3.org/1999/xlink" version="1.1" id="Capa_1" x="0px" y="0px" viewBox="0 0 501 501" style="enable-background:new 0 0 501 501;" xml:space="preserve" width="512" height="512">
<g>
	<path style="fill:#FFB23C;" d="M495.5,256c0,135.31-109.69,245-245,245S5.5,391.31,5.5,256s109.69-245,245-245   S495.5,120.69,495.5,256z"/>
	<path style="fill:#24BD87;" d="M203.059,28.559c21.519-7.228,46.226-2.285,63.367,14.855c17.14,17.14,22.083,41.848,14.855,63.367   c-21.519,7.228-46.226,2.285-63.367-14.855C200.774,74.785,195.831,50.078,203.059,28.559z"/>
	<path style="fill:#029A64;" d="M214.926,43.16c-1.021-1.774,0.96-3.755,2.734-2.734c8.259,4.755,19.4,13.648,30.641,24.89   c11.241,11.241,20.135,22.382,24.89,30.641c1.021,1.774-0.96,3.755-2.734,2.734c-8.259-4.755-19.4-13.649-30.641-24.89   C228.575,62.56,219.681,51.42,214.926,43.16z"/>
	<path style="fill:#F05D22;" d="M297.028,136.327c-3.94,3.94-10.475,3.603-13.903-0.79c-25.704-32.942-23.405-80.643,6.897-110.944   s78.003-32.601,110.944-6.897c4.393,3.428,4.73,9.963,0.79,13.903L297.028,136.327z"/>
	<path style="fill:#FC703B;" d="M400.876,17.625c-0.056-0.044-0.112-0.087-0.168-0.131c-15.395-11.918-36.011-15.029-54.233-8.173   c-9.118,3.43-18.242,8.327-26.966,14.603c-2.193,1.578-2.25,4.799-0.109,6.447c3.27,2.518,5.606,6.223,6.327,10.551l3.875,23.249   l-23.249-3.875c-4.327-0.721-8.032-3.056-10.55-6.326c-1.646-2.137-4.868-2.089-6.444,0.101   c-6.206,8.624-11.062,17.639-14.487,26.653c-6.795,17.882-4.25,38.104,7.198,53.43c0.324,0.433,0.652,0.864,0.985,1.292   c3.449,4.433,10.002,4.851,13.973,0.88L401.756,31.599C405.727,27.627,405.309,21.075,400.876,17.625z M307.982,107.025   c-5.764,5.874-14.931,6.719-21.672,1.999h0c-7.616-5.333-9.467-15.831-4.134-23.447c4.72-6.742,13.623-9.082,21.049-5.534   l21.267,10.161L307.982,107.025z M372.454,42.552l-16.822,16.509l-10.161-21.267c-3.548-7.426-1.207-16.328,5.534-21.049h0   c7.616-5.333,18.114-3.482,23.447,4.134v0C379.173,27.622,378.328,36.788,372.454,42.552z"/>
	<path style="fill:#B5F3FB;" d="M363.783,98.798c26.848,40.113,42.82,90.342,42.82,144.866c0,3.089-0.051,6.164-0.153,9.224   c-2.569,77.413-49.088,124.788-105.458,142.136c-18.109,5.573-30.493,22.264-30.493,41.211v63.948   c-6.597,0.533-13.265,0.816-20,0.816s-13.403-0.283-20-0.816v-63.948c0-18.947-12.383-35.638-30.493-41.211   C143.638,377.676,97.118,330.301,94.55,252.888c-0.102-3.06-0.153-6.135-0.153-9.224c0-54.524,15.972-104.753,42.82-144.866   c3.695-5.52,9.932-8.798,16.575-8.798h193.415C353.85,90,360.088,93.277,363.783,98.798z"/>
	<path style="fill:#DCFBFF;" d="M406.603,243.664c0,3.089-0.051,6.164-0.153,9.224c-1.112,33.506-10.461,61.38-25.275,83.633   C355.788,357.57,324.528,370,290.712,370c-84.935,0-153.788-78.35-153.788-175c0-39.397,11.443-75.751,30.751-105h97.975   c1.159,16.18,6.981,32.088,17.475,45.536c3.428,4.393,9.963,4.73,13.903,0.79L343.354,90h3.853c6.642,0,12.88,3.277,16.575,8.797   C390.631,138.911,406.603,189.14,406.603,243.664z M260.5,410c-5.523,0-10,4.477-10,10v81c6.735,0,13.403-0.283,20-0.816V420   C270.5,414.477,266.023,410,260.5,410z"/>
	<path style="fill:#E988A9;" d="M348.847,160c7.853,0,14.743,5.147,17.071,12.647c7.012,22.589,10.686,46.607,10.686,71.017   c0,2.725-0.046,5.494-0.137,8.229c-2.678,80.714-59.845,106.932-84.299,114.458c-0.181,0.056-0.363,0.112-0.543,0.169   c-26.8,8.469-55.448,8.47-82.248,0.001c-0.181-0.057-0.363-0.114-0.545-0.17c-24.454-7.526-81.621-33.745-84.298-114.458   c-0.09-2.726-0.136-5.494-0.136-8.229c0-23.287,3.344-46.218,9.739-67.891C136.907,166.381,145.627,160,155.42,160H348.847z"/>
	<path style="fill:#F0A1BB;" d="M365.869,172.489c-2.304-7.405-9.103-12.489-16.857-12.489H233.628c-2.061-5.822-7.6-10-14.128-10   c-2.466,0-4.787,0.606-6.839,1.661C209.498,144.784,202.565,140,194.5,140s-14.998,4.784-18.161,11.661   c-2.052-1.054-4.373-1.661-6.839-1.661c-6.528,0-12.067,4.178-14.128,10c-9.065,0-16.675,6.875-17.538,15.899   c-0.6,6.273-0.909,12.646-0.909,19.101c0,9.963,0.736,19.729,2.141,29.237c2.7-2.618,6.376-4.237,10.434-4.237   c8.284,0,15,6.716,15,15s-6.716,15-15,15c-1.788,0-3.494-0.329-5.084-0.903c18.987,66.529,72.049,115.576,135.752,120.485   c3.849-0.858,7.674-1.866,11.459-3.062c0.18-0.057,0.36-0.113,0.541-0.169c24.454-7.526,81.621-33.744,84.299-114.458   c0.091-2.736,0.137-5.504,0.137-8.229C376.603,219.197,372.912,195.124,365.869,172.489z M299.5,210c-8.284,0-15-6.716-15-15   s6.716-15,15-15s15,6.716,15,15S307.784,210,299.5,210z M349.5,250c-8.284,0-15-6.716-15-15s6.716-15,15-15s15,6.716,15,15   S357.784,250,349.5,250z"/>
	<path style="fill:#FFC3B0;" d="M226.675,286.109c5.858,5.857,5.858,15.355,0,21.213l-28.284,28.284   c-5.858,5.858-15.355,5.858-21.213,0l-28.284-28.284c-5.858-5.858-5.858-15.355,0-21.213l28.284-28.285   c5.858-5.858,15.355-5.858,21.213,0L226.675,286.109z M309.5,260h-40c-8.284,0-15,6.716-15,15v40c0,8.284,6.716,15,15,15h40   c8.284,0,15-6.716,15-15v-40C324.5,266.716,317.784,260,309.5,260z"/>
	<path style="fill:#FFCDBC;" d="M210.336,269.771c6.597,6.597,6.597,17.293,0,23.891l0,0c-12.455,12.455-32.649,12.455-45.104,0l0,0   c-6.597-6.597-6.597-17.293,0-23.891l11.945-11.946c5.858-5.858,15.355-5.858,21.213,0L210.336,269.771z M309.5,260H292   c-9.665,0-17.5,7.835-17.5,17.5l0,0c0,17.949,14.551,32.5,32.5,32.5c9.665,0,17.5-7.835,17.5-17.5V275   C324.5,266.716,317.784,260,309.5,260z"/>
	<path style="fill:#C44775;" d="M264.5,215c0,19.33-15.67,35-35,35s-35-15.67-35-35s15.67-35,35-35S264.5,195.67,264.5,215z"/>
	<path style="fill:#D95785;" d="M264.5,215c0,5.859-1.447,11.377-3.992,16.229c-4.852,2.545-10.37,3.992-16.229,3.992   c-19.33,0-35-15.67-35-35c0-5.859,1.447-11.377,3.992-16.229c4.852-2.544,10.37-3.992,16.229-3.992   C248.83,180,264.5,195.67,264.5,215z"/>
</g>















</svg>
