<?xml version="1.0" encoding="iso-8859-1"?>
<!-- Generator: Adobe Illustrator 19.0.0, SVG Export Plug-In . SVG Version: 6.00 Build 0)  -->
<svg xmlns="http://www.w3.org/2000/svg" xmlns:xlink="http://www.w3.org/1999/xlink" version="1.1" id="Capa_1" x="0px" y="0px" viewBox="0 0 501 501" style="enable-background:new 0 0 501 501;" xml:space="preserve" width="512" height="512">
<g>
	<path style="fill:#FFB23C;" d="M495.5,256c0,135.31-109.69,245-245,245S5.5,391.31,5.5,256s109.69-245,245-245   S495.5,120.69,495.5,256z"/>
	<path style="fill:#EF3C54;" d="M445.5,269.054c0,99.892-87.477,181.159-195,181.159s-195-81.268-195-181.159   c0-79.306,121.682-161.809,153.919-182.273c9.653-6.128,16.016-16.495,16.493-27.919c0.022-0.528,0.033-1.057,0.033-1.588   c0-9.946-3.88-19.304-10.926-26.349C207.975,23.88,198.617,20,188.672,20c-1.942,0-3.86,0.153-5.744,0.443   c13.339-3.819,27.145-6.53,41.31-8.04c1.708,1.36,3.357,2.812,4.924,4.379c10.822,10.822,16.783,25.202,16.783,40.491   c0,12.063-3.712,23.561-10.594,33.192c-1.84,2.574-14.106,12.401-23.389,18.562c-14.816,9.834-38.435,26.444-61.821,46.771   C101.311,198.24,75.5,237.403,75.5,269.054c0,88.863,78.505,161.159,175,161.159s175-72.296,175-161.159   c0-31.706-25.81-70.886-74.638-113.305c-25.7-22.327-51.682-40.157-65.951-49.445c-6.85-4.459-17.926-13.865-19.929-16.792   c-6.455-9.432-9.927-20.571-9.927-32.238c0-15.289,5.961-29.669,16.783-40.491S297.04,0,312.328,0s29.668,5.96,40.49,16.782   c14.529,14.529,38.169,14.529,52.696,0c4.028-4.026,10.632-3.901,14.499,0.375c3.616,3.997,3.217,10.241-0.618,14.028   c-22.348,22.066-58.48,21.978-80.72-0.26C331.631,23.88,319.755,20,309.81,20s-16.784,3.88-23.829,10.925   c-7.046,7.045-10.926,16.402-10.926,26.349c0,0.531,0.011,1.061,0.033,1.588c0.477,11.427,6.846,21.797,16.505,27.92   C323.856,107.238,445.5,189.635,445.5,269.054z"/>
	<path style="fill:#276372;" d="M305.5,435c0,30.376-24.624,55-55,55s-55-24.624-55-55s24.624-55,55-55S305.5,404.624,305.5,435z"/>
	<path style="fill:#2F7589;" d="M295,420.5c0,16.569-13.431,30-30,30s-30-13.431-30-30s13.431-30,30-30S295,403.931,295,420.5z"/>
	<path style="fill:#C44775;" d="M185.5,405c0,24.853-20.147,45-45,45s-45-20.147-45-45s20.147-45,45-45S185.5,380.147,185.5,405z"/>
	<path style="fill:#D95785;" d="M176.909,393.136c0,13.556-10.989,24.545-24.545,24.545c-13.556,0-24.545-10.989-24.545-24.545   c0-13.556,10.989-24.545,24.545-24.545C165.92,368.591,176.909,379.58,176.909,393.136z"/>
	<path style="fill:#029A64;" d="M460.25,319.5c0,19.33-15.67,35-35,35s-35-15.67-35-35s15.67-35,35-35S460.25,300.17,460.25,319.5z"/>
	<path style="fill:#24BD87;" d="M453.568,310.273c0,10.544-8.547,19.091-19.091,19.091c-10.544,0-19.091-8.547-19.091-19.091   c0-10.544,8.547-19.091,19.091-19.091C445.021,291.182,453.568,299.729,453.568,310.273z"/>
	<path style="fill:#FFD69E;" d="M110.75,319.5c0,19.33-15.67,35-35,35s-35-15.67-35-35s15.67-35,35-35S110.75,300.17,110.75,319.5z    M360.5,360c-24.853,0-45,20.147-45,45s20.147,45,45,45s45-20.147,45-45S385.353,360,360.5,360z"/>
	<path style="fill:#FFE2BD;" d="M104.068,310.273c0,10.544-8.547,19.091-19.091,19.091s-19.091-8.547-19.091-19.091   c0-10.544,8.547-19.091,19.091-19.091S104.068,299.729,104.068,310.273z M372.364,368.591c-13.556,0-24.545,10.989-24.545,24.545   c0,13.556,10.989,24.545,24.545,24.545c13.556,0,24.545-10.989,24.545-24.545C396.909,379.58,385.92,368.591,372.364,368.591z"/>
</g>















</svg>
