<?xml version="1.0" encoding="iso-8859-1"?>
<!-- Generator: Adobe Illustrator 19.0.0, SVG Export Plug-In . SVG Version: 6.00 Build 0)  -->
<svg xmlns="http://www.w3.org/2000/svg" xmlns:xlink="http://www.w3.org/1999/xlink" version="1.1" id="Capa_1" x="0px" y="0px" viewBox="0 0 501 501" style="enable-background:new 0 0 501 501;" xml:space="preserve" width="512" height="512">
<g>
	<path style="fill:#9DC6D4;" d="M490,250.5c0,102.038-62.379,189.508-151.083,226.354c-28.923,12.014-107.384,18.372-114.011,17.834   c-15.645-1.27-30.874-4.01-45.549-8.081c-10.049-2.788-52.102-20.841-62.726-27.389c-10.947-6.747-21.322-14.331-31.038-22.662   c-8.824-7.567-40.136-43.348-46.74-53.605C14.265,344.761,0,299.296,0,250.5c0-12.231,0.896-24.252,2.626-36.002   c2.819-19.143,33.119-93.194,45.612-110.003C92.888,44.422,164.399,5.5,245,5.5C380.31,5.5,490,115.19,490,250.5z"/>
	<path style="fill:#B5F3FB;" d="M155.464,309.64l-46.587-173.867c-8.576-32.008,10.418-64.908,42.426-73.485l0,0   c5.335-1.429,10.818,1.736,12.247,7.071l59.528,222.163c1.429,5.335-1.736,10.818-7.071,12.247l-48.296,12.941   C162.377,318.141,156.893,314.975,155.464,309.64z"/>
	<path style="fill:#8AE8F5;" d="M143.573,265.264l37.677-82.889h12.583l7.417,27.682v82.318h-50.412L143.573,265.264z"/>
	<path style="fill:#FC703B;" d="M500.314,156.986c1.939,3.333-0.465,7.514-4.322,7.514H287v-110h208.992   c3.856,0,6.261,4.181,4.322,7.514l-21.776,37.428c-3.617,6.217-3.617,13.898,0,20.116L500.314,156.986z"/>
	<path style="fill:#D14F1B;" d="M337,79.5L337,79.5c0,13.807-11.193,25-25,25h-15v70h-15c-13.807,0-25-11.193-25-25v-70   c0-13.807,11.193-25,25-25h5h10h15C325.807,54.5,337,65.693,337,79.5z"/>
	<path style="fill:#FC703B;" d="M48.244,104.5H327v85c0,13.807-11.193,25-25,25H2.639C8.649,173.692,24.714,136.159,48.244,104.5z"/>
	<path style="fill:#D14F1B;" d="M237,214.5h-70l50-110h20V214.5z"/>
	<path style="fill:#FFF5F5;" d="M225.039,316.711l-48.296-12.941c-5.335-1.429-8.5-6.913-7.071-12.247L229.2,69.36   c1.429-5.335,6.913-8.5,12.247-7.071l0,0c32.008,8.576,51.003,41.477,42.426,73.485L237.286,309.64   C235.857,314.975,230.373,318.141,225.039,316.711z"/>
	<path style="fill:#EF3C54;" d="M280.75,324.5h-24.817v-50c0-5.523-4.477-10-10-10h-99.116c-5.523,0-10,4.477-10,10v50H112   c-35.73,0-65.604,24.993-73.144,58.445c12.921,20.069,28.696,38.124,46.747,53.603C83.296,431.545,82,425.985,82,420.125v-11.25   c0-21.711,17.664-39.375,39.375-39.375h39.375v50.625c0,21.711-17.664,39.375-39.375,39.375c-1.605,0-3.184-0.108-4.739-0.295   c19.297,11.894,40.366,21.186,62.723,27.388c6.842-5.831,12.621-12.872,17.014-20.786c6.682,12.04,16.58,22.05,28.535,28.868   c6.628,0.538,13.327,0.825,20.093,0.825c33.272,0,64.988-6.645,93.912-18.659c10.522-12.911,16.838-29.386,16.838-47.341v-30   C355.75,358.079,322.171,324.5,280.75,324.5z M310.75,420.125c0,21.711-17.664,39.375-39.375,39.375S232,441.836,232,420.125V369.5   h39.375c21.711,0,39.375,17.664,39.375,39.375V420.125z"/>
	<path style="fill:#B6273C;" d="M216.375,304.5c0,11.046-8.954,20-20,20c-11.046,0-20-8.954-20-20c0-11.046,8.954-20,20-20   C207.421,284.5,216.375,293.454,216.375,304.5z"/>
	<path style="fill:#D43147;" d="M146.817,264.5H177c-5.523,0-10,4.477-10,10v50v10c0,11.046-8.954,20-20,20h-23.558   c-30.153,0-54.933,14.197-55.189,44.349c-0.002,0.217-0.003,0.434-0.003,0.651v20.648c-10.946-11.401-20.801-23.856-29.394-37.203   C46.396,349.493,76.27,324.5,112,324.5h5h19.817v-50C136.817,268.977,141.294,264.5,146.817,264.5z"/>
</g>















</svg>
