<?xml version="1.0" encoding="iso-8859-1"?>
<!-- Generator: Adobe Illustrator 19.0.0, SVG Export Plug-In . SVG Version: 6.00 Build 0)  -->
<svg xmlns="http://www.w3.org/2000/svg" xmlns:xlink="http://www.w3.org/1999/xlink" version="1.1" id="Capa_1" x="0px" y="0px" viewBox="0 0 501 501" style="enable-background:new 0 0 501 501;" xml:space="preserve" width="512" height="512">
<g>
	<path style="fill:#FC703B;" d="M490,256c0,135.31-109.69,245-245,245C172.39,501,0,318.7,0,256C0,120.69,109.69,11,245,11   S490,120.69,490,256z"/>
	<path style="fill:#368A9C;" d="M391,40h100c5.523,0,10,4.477,10,10v50c0,11.046-8.954,20-20,20h-90V40z"/>
	<path style="fill:#1A4F5B;" d="M419,20v80c0,11.046-8.954,20-20,20h-90V0h90C410.046,0,419,8.954,419,20z"/>
	<path style="fill:#368A9C;" d="M389,0c-11.046,0-20,8.954-20,20v260l-110-30V20c0-11.046,8.954-20,20-20h90H389z"/>
	<path style="fill:#276372;" d="M289,45v10c0,2.761-2.239,5-5,5h-10c-2.761,0-5-2.239-5-5V45c0-2.761,2.239-5,5-5h10   C286.761,40,289,42.239,289,45z M284,10h-10c-2.761,0-5,2.239-5,5v10c0,2.761,2.239,5,5,5h10c2.761,0,5-2.239,5-5V15   C289,12.239,286.761,10,284,10z M354,190h-10c-2.761,0-5,2.239-5,5v10c0,2.761,2.239,5,5,5h10c2.761,0,5-2.239,5-5v-10   C359,192.239,356.761,190,354,190z M354,130h-10c-2.761,0-5,2.239-5,5v10c0,2.761,2.239,5,5,5h10c2.761,0,5-2.239,5-5v-10   C359,132.239,356.761,130,354,130z M284,130h-10c-2.761,0-5,2.239-5,5v10c0,2.761,2.239,5,5,5h10c2.761,0,5-2.239,5-5v-10   C289,132.239,286.761,130,284,130z M284,100h-10c-2.761,0-5,2.239-5,5v10c0,2.761,2.239,5,5,5h10c2.761,0,5-2.239,5-5v-10   C289,102.239,286.761,100,284,100z M284,70h-10c-2.761,0-5,2.239-5,5v10c0,2.761,2.239,5,5,5h10c2.761,0,5-2.239,5-5V75   C289,72.239,286.761,70,284,70z M354,160h-10c-2.761,0-5,2.239-5,5v10c0,2.761,2.239,5,5,5h10c2.761,0,5-2.239,5-5v-10   C359,162.239,356.761,160,354,160z M354,100h-10c-2.761,0-5,2.239-5,5v10c0,2.761,2.239,5,5,5h10c2.761,0,5-2.239,5-5v-10   C359,102.239,356.761,100,354,100z M484,50h-10c-2.761,0-5,2.239-5,5v10c0,2.761,2.239,5,5,5h10c2.761,0,5-2.239,5-5V55   C489,52.239,486.761,50,484,50z M484,110h-10c-2.761,0-5,2.239-5,5v5h12c2.846,0,5.549-0.604,8-1.675V115   C489,112.239,486.761,110,484,110z M484,80h-10c-2.761,0-5,2.239-5,5v10c0,2.761,2.239,5,5,5h10c2.761,0,5-2.239,5-5V85   C489,82.239,486.761,80,484,80z M354,70h-10c-2.761,0-5,2.239-5,5v10c0,2.761,2.239,5,5,5h10c2.761,0,5-2.239,5-5V75   C359,72.239,356.761,70,354,70z M354,40h-10c-2.761,0-5,2.239-5,5v10c0,2.761,2.239,5,5,5h10c2.761,0,5-2.239,5-5V45   C359,42.239,356.761,40,354,40z M354,10h-10c-2.761,0-5,2.239-5,5v10c0,2.761,2.239,5,5,5h10c2.761,0,5-2.239,5-5V15   C359,12.239,356.761,10,354,10z"/>
	<path style="fill:#B5F3FB;" d="M379,317c0,84.969-54.351,157.231-130.179,183.952c-1.273,0.02-2.544,0.048-3.821,0.048   C109.69,501,0,391.31,0,256c0-1.278,0.029-2.548,0.048-3.821C26.769,176.351,99.031,122,184,122C291.696,122,379,209.304,379,317z"/>
	<path style="fill:#DCFBFF;" d="M309,317c0,69.036-55.964,125-125,125S59,386.036,59,317s55.964-125,125-125S309,247.964,309,317z    M379,317c0,84.965-54.344,157.229-130.166,183.951c-1.277,0.02-2.552,0.049-3.834,0.049c-98.699,0-183.754-58.371-222.561-142.468   C19.535,345.148,18,331.254,18,317c0-102.818,79.577-187.044,180.5-194.463C299.423,129.956,379,214.182,379,317z M329,317   c0-80.081-64.919-145-145-145S39,236.919,39,317s64.919,145,145,145S329,397.081,329,317z"/>
	<path style="fill:#6AA8BB;" d="M114,317c0,24.853-20.147,45-45,45s-45-20.147-45-45c0-24.853,20.147-45,45-45S114,292.147,114,317z    M184,387c-24.853,0-45,20.147-45,45c0,24.853,20.147,45,45,45s45-20.147,45-45C229,407.147,208.853,387,184,387z M184,157   c-24.853,0-45,20.147-45,45c0,24.853,20.147,45,45,45s45-20.147,45-45C229,177.147,208.853,157,184,157z M299,272   c-24.853,0-45,20.147-45,45c0,24.853,20.147,45,45,45s45-20.147,45-45C344,292.147,323.853,272,299,272z M184,272   c-24.853,0-45,20.147-45,45c0,24.853,20.147,45,45,45s45-20.147,45-45C229,292.147,208.853,272,184,272z"/>
	<path style="fill:#368A9C;" d="M205,341c7.004,0,13.634-1.601,19.544-4.455C217.27,351.608,201.849,362,184,362   c-24.853,0-45-20.147-45-45c0-17.849,10.392-33.27,25.456-40.544C161.601,282.366,160,288.996,160,296   C160,320.853,180.147,341,205,341z M160,181c0-7.004,1.601-13.634,4.456-19.544C149.392,168.73,139,184.151,139,202   c0,24.853,20.147,45,45,45c17.849,0,33.27-10.392,40.544-25.455C218.634,224.399,212.004,226,205,226   C180.147,226,160,205.853,160,181z M160,411c0-7.004,1.601-13.634,4.456-19.544C149.392,398.73,139,414.151,139,432   c0,24.853,20.147,45,45,45c17.849,0,33.27-10.392,40.544-25.455C218.634,454.399,212.004,456,205,456   C180.147,456,160,435.853,160,411z M320,341c-24.853,0-45-20.147-45-45c0-7.004,1.601-13.634,4.456-19.544   C264.392,283.73,254,299.151,254,317c0,24.853,20.147,45,45,45c17.849,0,33.27-10.392,40.544-25.455   C333.634,339.399,327.004,341,320,341z M45,296c0-7.004,1.601-13.634,4.456-19.544C34.392,283.73,24,299.151,24,317   c0,24.853,20.147,45,45,45c17.849,0,33.27-10.392,40.544-25.455C103.634,339.399,97.004,341,90,341C65.147,341,45,320.853,45,296z"/>
</g>















</svg>
