<?xml version="1.0" encoding="iso-8859-1"?>
<!-- Generator: Adobe Illustrator 19.0.0, SVG Export Plug-In . SVG Version: 6.00 Build 0)  -->
<svg xmlns="http://www.w3.org/2000/svg" xmlns:xlink="http://www.w3.org/1999/xlink" version="1.1" id="Capa_1" x="0px" y="0px" viewBox="0 0 501 501" style="enable-background:new 0 0 501 501;" xml:space="preserve" width="512" height="512">
<g>
	<path style="fill:#8AE8F5;" d="M134.5,471.834c-20.81-11.206-79.661-67.364-89.134-81.834C20.158,351.496,5.5,305.461,5.5,256   c0-135.165,109.456-244.765,244.566-245C385.114,10.766,495.5,120.952,495.5,256c0,50.198-15.098,96.866-41,135.716   c-9.21,13.814-68.407,69.812-90.001,81.183c-18.245,9.608-37.849,16.981-58.449,21.757c-2.483,0.576-5.061,0.557-7.561,0.06   C282.97,491.631,266.926,490,250.5,490c-16.424,0-32.466,1.631-47.984,4.715c-2.504,0.498-5.086,0.517-7.572-0.06   C173.591,489.704,153.308,481.962,134.5,471.834z"/>
	<path style="fill:#24BD87;" d="M339.663,296.841c-31.477,14.678-66.242,10.227-87.912-8.728   c-0.59-28.784,18.346-58.276,49.823-72.955s66.242-10.227,87.912,8.728C390.077,252.67,371.14,282.163,339.663,296.841z    M172.759,318.875c24.991,11.654,52.592,8.119,69.797-6.929c0.469-22.853-14.566-46.268-39.557-57.922   c-24.991-11.653-52.592-8.119-69.797,6.929C132.734,283.806,147.768,307.222,172.759,318.875z"/>
	<path style="fill:#0AB174;" d="M363.831,280.587c-6.876,6.42-14.983,11.971-24.168,16.254   c-31.477,14.678-66.242,10.227-87.912-8.728c-0.582-28.35,17.789-57.377,48.418-72.27c-16.688,15.582-26.074,36.316-25.656,56.701   c21.67,18.954,56.435,23.406,87.912,8.728C362.9,281.051,363.362,280.815,363.831,280.587z M203,254.025   c-3.546-1.653-7.144-2.99-10.758-4.043c14.032,12.489,21.965,29.471,21.622,46.159c-14.764,12.914-37.183,17.337-59.039,10.972   c5.184,4.614,11.193,8.619,17.934,11.762c24.991,11.653,52.592,8.119,69.797-6.929C243.025,289.094,227.991,265.678,203,254.025z"/>
	<path style="fill:#029A64;" d="M304.33,265.085c1.014,5.429-2.564,10.652-7.994,11.667C275.571,280.632,260.5,298.82,260.5,320v100   c0,5.522-4.477,10-10,10s-10-4.478-10-10v-69c0-27.57-22.43-50-50-50c-5.523,0-10-4.478-10-10s4.477-10,10-10   c20.613,0,39.168,8.96,51.99,23.185c6.029-23.678,25.285-42.443,50.174-47.093C298.09,256.072,303.315,259.656,304.33,265.085z    M104.467,338.893c-11.455,10.399-20.335,23.138-26.183,37.16c-3.445-5.326-7.583-10.233-12.355-14.565   c-4.089-3.71-10.414-3.406-14.125,0.683c-3.712,4.09-3.406,10.414,0.683,14.126c11.25,10.213,17.703,24.792,17.703,40.001   c0,5.522,4.477,10,10,10c0.003,0,0.006,0,0.009,0s0.006,0,0.009,0c5.523,0,10-4.478,10-10c0-23.798,10.097-46.613,27.703-62.596   c4.089-3.713,4.395-10.037,0.682-14.126S108.556,335.181,104.467,338.893z M445.044,362.17c-3.712-4.088-10.036-4.394-14.125-0.683   c-4.772,4.332-8.91,9.239-12.355,14.565c-5.848-14.022-14.729-26.761-26.183-37.16c-4.089-3.71-10.413-3.406-14.126,0.683   c-3.712,4.089-3.406,10.413,0.683,14.126c17.606,15.982,27.703,38.798,27.703,62.596c0,5.522,4.477,10,10,10   c0.003,0,0.006,0,0.009,0s0.006,0,0.009,0c5.523,0,10-4.478,10-10c0-15.208,6.453-29.788,17.703-40.001   C448.451,372.584,448.756,366.26,445.044,362.17z"/>
	<path style="fill:#2F7589;" d="M332.424,133.262H168.576c-8.909,0-13.371-10.771-7.071-17.071L194.5,83.196   c6.86-6.86,14.668-12.19,23-16.007V62.5c0-4.478,2.943-8.266,7-9.541V10c0-5.523,4.477-10,10-10h32c5.523,0,10,4.477,10,10v42.959   c4.057,1.274,7,5.063,7,9.541v4.688c8.332,3.817,16.14,9.147,23,16.007l32.995,32.995   C345.795,122.49,341.333,133.262,332.424,133.262z"/>
	<path style="fill:#4A99AF;" d="M266.5,50h-12c-5.523,0-10-4.477-10-10V10c0-5.523,4.477-10,10-10h12c5.523,0,10,4.477,10,10v30   C276.5,45.523,272.023,50,266.5,50z M316.511,93.207c-30.508-23.564-74.726-21.496-102.801,6.245   c-0.158,0.157-0.316,0.314-0.474,0.472l-24.802,24.802c-3.15,3.15-0.919,8.536,3.536,8.536h140.455   c8.909,0,13.371-10.771,7.071-17.071L316.511,93.207z"/>
	<path style="fill:#DCFBFF;" d="M224.5,200c0,5.523-4.477,10-10,10s-10-4.477-10-10s4.477-10,10-10S224.5,194.477,224.5,200z    M218.178,151.716c-3.905-3.905-10.237-3.905-14.142,0l-21.213,21.213c-3.905,3.905-3.905,10.237,0,14.142   c3.905,3.905,10.237,3.905,14.142,0l21.213-21.213C222.083,161.953,222.083,155.621,218.178,151.716z M185.5,150   c0-5.523-4.477-10-10-10s-10,4.477-10,10s4.477,10,10,10S185.5,155.523,185.5,150z M325.5,140c-5.523,0-10,4.477-10,10   s4.477,10,10,10s10-4.477,10-10S331.023,140,325.5,140z M250.5,210c-5.523,0-10,4.477-10,10s4.477,10,10,10s10-4.477,10-10   S256.023,210,250.5,210z M296.964,151.716c-3.905-3.905-10.237-3.905-14.142,0c-3.905,3.905-3.905,10.237,0,14.142l21.213,21.213   c3.905,3.905,10.237,3.905,14.142,0c3.905-3.905,3.905-10.237,0-14.142L296.964,151.716z M250.5,150c-5.523,0-10,4.477-10,10v30   c0,5.523,4.477,10,10,10s10-4.477,10-10v-30C260.5,154.477,256.023,150,250.5,150z M299.5,205c-5.523,0-10,4.477-10,10   s4.477,10,10,10s10-4.477,10-10S305.023,205,299.5,205z"/>
	<path style="fill:#9D6256;" d="M455.621,390c-23.04,35.197-54.887,64.102-92.419,83.583l-13.192-48.372   c-2.495-9.147-3.759-18.587-3.759-28.068c0-3.945,3.198-7.143,7.143-7.143H455.621z M324.5,361h-150c-5.523,0-10,4.477-10,10   c0,13.274,1.77,26.489,5.262,39.295l22.728,83.336c0.044,0.163,0.1,0.32,0.152,0.479c18.553,4.492,37.924,6.89,57.858,6.89   c19.149,0,37.783-2.201,55.667-6.356c0.129-0.33,0.247-0.665,0.342-1.013l22.728-83.336c3.493-12.806,5.262-26.021,5.262-39.295   C334.5,365.477,330.023,361,324.5,361z M146.893,390H45.379c22.912,35.001,54.534,63.777,91.795,83.253l13.102-48.042   c2.495-9.147,3.759-18.587,3.759-28.068C154.036,393.198,150.838,390,146.893,390z"/>
	<path style="fill:#B57063;" d="M154.75,397.143c0,9.481-1.264,18.921-3.759,28.068l-13.192,48.372   c-32.952-17.103-61.532-41.46-83.608-70.972c-0.093-1.82-0.155-3.643-0.155-5.468c0-3.945,3.198-7.143,7.143-7.143h86.429   C151.552,390,154.75,393.198,154.75,397.143z M325.5,361h-121c-5.538,0-10.003,4.531-10,10.069   c0.003,5.687,0.342,11.362,0.995,16.999c0.293,2.525,2.434,4.432,4.976,4.432h106.215c4.107,0,7.688,3.165,7.811,7.269   c0.128,4.248-3.278,7.731-7.497,7.731H205.571c-3.292,0-5.686,3.125-4.827,6.302c0.681,2.522,1.442,5.335,2.031,7.51   c0.59,2.18,2.566,3.687,4.825,3.687h79.087c4.107,0,7.688,3.165,7.811,7.269c0.128,4.248-3.278,7.731-7.497,7.731h-72.59   c-3.297,0-5.691,3.135-4.824,6.315l12.904,47.316c0.766,2.808,2.687,5.055,5.164,6.3c7.524,0.696,15.141,1.069,22.846,1.069   c19.294,0,38.061-2.243,56.069-6.46c0.301-0.291,0.639-0.618,0.94-0.909l22.728-83.336c3.488-12.789,5.257-25.985,5.262-39.24   C335.502,365.525,331.03,361,325.5,361z M374.821,390c-3.945,0-7.143,3.198-7.143,7.143c0,9.481,1.264,18.921,3.759,28.068   l10.285,37.71c29.523-18.762,54.751-43.67,73.899-72.921H374.821z"/>
</g>















</svg>
