<?xml version="1.0" encoding="iso-8859-1"?>
<!-- Generator: Adobe Illustrator 19.0.0, SVG Export Plug-In . SVG Version: 6.00 Build 0)  -->
<svg xmlns="http://www.w3.org/2000/svg" xmlns:xlink="http://www.w3.org/1999/xlink" version="1.1" id="Capa_1" x="0px" y="0px" viewBox="0 0 501 501" style="enable-background:new 0 0 501 501;" xml:space="preserve" width="512" height="512">
<g>
	<path style="fill:#30DAEC;" d="M32.798,280.212c-11.332,0-20.643-8.85-21.337-20.161C11.156,255.073,11,250.055,11,245   C11,109.69,120.69,0,256,0s245,109.69,245,245c0,5.055-0.156,10.073-0.461,15.051c-0.694,11.311-10.005,20.161-21.337,20.161   H32.798z"/>
	<path style="fill:#8AE8F5;" d="M80,192c0,8.284-6.716,15-15,15H13.937c1.592-10.223,3.818-20.236,6.633-30H65   C73.284,177,80,183.716,80,192z M439.906,152h-160c-8.284,0-15,6.716-15,15c0,8.284,6.716,15,15,15h160c8.284,0,15-6.716,15-15   C454.906,158.716,448.19,152,439.906,152z M212.667,172.705h-28.91c-8.284,0-15,6.716-15,15c0,8.284,6.716,15,15,15h28.91   c8.284,0,15-6.716,15-15C227.667,179.421,220.951,172.705,212.667,172.705z M135,127H41.251c-5.299,9.624-9.967,19.642-13.955,30   H135c8.284,0,15-6.716,15-15C150,133.716,143.284,127,135,127z M335,113c8.284,0,15-6.716,15-15s-6.716-15-15-15h-85   c-5.523,0-10-4.477-10-10s4.477-10,10-10h155c3.997,0,7.62-1.574,10.309-4.123C404.006,49.193,391.812,40.52,378.864,33H205   c-8.284,0-15,6.716-15,15s6.716,15,15,15h15c5.523,0,10,4.477,10,10s-4.477,10-10,10h-45c-8.284,0-15,6.716-15,15s6.716,15,15,15   H335z"/>
	<path style="fill:#0AB174;" d="M500.593,259C493.335,387.794,386.61,490,256,490S18.665,387.794,11.407,259h64.395l-2.454-36.985   c-0.199-2.997,3.64-4.394,5.414-1.971L107.277,259h7.727l29.336-56.195c1.484-2.843,5.793-1.688,5.657,1.516L147.673,259H500.593z"/>
	<path style="fill:#018655;" d="M240,409c0,27.614-44.772,50-100,50c-1.137,0-2.268-0.013-3.396-0.032   c-33.031-18.471-61.342-44.363-82.68-75.427C71.341,368.851,103.367,359,140,359C195.228,359,240,381.386,240,409z"/>
	<path style="fill:#FFD69E;" d="M90,501c-49.706,0-90-40.294-90-90s40.294-90,90-90s90,40.294,90,90S139.706,501,90,501z"/>
	<path style="fill:#FFE2BD;" d="M91.489,321.012c-17.464-0.282-33.81,4.415-47.718,12.758c-3.998,6.664-7.153,13.889-9.328,21.527   c-0.514,1.805,0.742,3.585,2.601,3.843c0.958,0.133,1.932,0.364,2.918,0.709c5.327,1.861,9.241,6.663,9.924,12.264   C50.997,381.241,43.905,389,35,389c-0.012,0-0.025,0-0.037,0c-1.872-0.005-3.362,1.575-3.106,3.429   c0.748,5.417,1.978,10.679,3.646,15.743c0.546,1.657,2.378,2.511,4,1.87c2.183-0.862,4.615-1.227,7.161-0.952   c6.97,0.753,12.596,6.453,13.265,13.431c0.511,5.333-1.778,10.15-5.563,13.178c-1.359,1.087-1.523,3.101-0.36,4.396   c1.527,1.7,3.117,3.341,4.768,4.92c1.295,1.239,3.374,1.076,4.487-0.329c3.019-3.809,7.84-6.119,13.184-5.618   c6.951,0.652,12.636,6.2,13.449,13.134c0.348,2.972-0.181,5.79-1.355,8.241c-0.773,1.613,0.021,3.546,1.703,4.157   c5.241,1.906,10.71,3.339,16.354,4.247c1.976,0.318,3.684-1.356,3.481-3.347c-0.102-1.001-0.104-2.032,0.008-3.086   c0.79-7.392,7.087-13.218,14.519-13.409C133.069,448.787,140,455.584,140,464c0,0.014,0,0.029,0,0.043   c-0.006,2.019,1.834,3.554,3.788,3.044c8.348-2.179,16.223-5.527,23.442-9.857c8.344-13.909,13.041-30.256,12.758-47.721   C179.205,361.213,139.784,321.793,91.489,321.012z M75,409c-8.284,0-15-6.716-15-15s6.716-15,15-15s15,6.716,15,15   S83.284,409,75,409z M105,439c-8.284,0-15-6.716-15-15s6.716-15,15-15s15,6.716,15,15S113.284,439,105,439z M135,409   c-8.284,0-15-6.716-15-15s6.716-15,15-15s15,6.716,15,15S143.284,409,135,409z"/>
	<path style="fill:#1A4F5B;" d="M379.973,352.27L379.973,352.27l-2.588,9.659c-7.147,26.673-34.564,42.502-61.237,35.355   l-53.126-14.235c-45.345-12.15-72.254-58.759-60.104-104.103v0c12.15-45.344,58.759-72.254,104.103-60.104l53.126,14.235   L408.36,53.141c15.145,12.043,28.835,25.836,40.756,41.083L379.973,352.27z"/>
	<path style="fill:#2F7589;" d="M433.313,75.929L398.697,204.89c-2.144,8.002-10.369,12.751-18.371,10.607   c-8.002-2.145-12.751-10.369-10.607-18.372L408.36,53.141C417.191,60.164,425.534,67.773,433.313,75.929z"/>
	<path style="fill:#276372;" d="M278.729,342.784l-53.126-14.235c-8.677-2.325-16.677-5.916-23.859-10.514   c-2.585-12.548-2.368-25.871,1.174-39.089v0c12.15-45.344,58.759-72.254,104.103-60.104l52.885,14.171l-19.94,74.417   C332.819,334.102,305.402,349.931,278.729,342.784z"/>
</g>















</svg>
