<?xml version="1.0" encoding="iso-8859-1"?>
<!-- Generator: Adobe Illustrator 19.0.0, SVG Export Plug-In . SVG Version: 6.00 Build 0)  -->
<svg xmlns="http://www.w3.org/2000/svg" xmlns:xlink="http://www.w3.org/1999/xlink" version="1.1" id="Capa_1" x="0px" y="0px" viewBox="0 0 501 501" style="enable-background:new 0 0 501 501;" xml:space="preserve" width="512" height="512">
<g>
	<path style="fill:#0AB174;" d="M501,250.5c0,135.31-109.69,245-245,245S11,385.81,11,250.5s109.69-245,245-245   c62.225,0,119.032,23.197,162.244,61.416c6.307,5.578,28.831,30.005,33.762,36.569C482.77,144.435,501,195.338,501,250.5z"/>
	<path style="fill:#30DAEC;" d="M140,355.911H80c-11.046,0-20-8.954-20-20V86.927c0-11.046,8.954-20,20-20h60   c11.046,0,20,8.954,20,20v248.984C160,346.957,151.046,355.911,140,355.911z"/>
	<path style="fill:#8AE8F5;" d="M432,355.911H110c-11.046,0-20-8.954-20-20V86.927c0-11.045,8.954-20,20-20h308.231   c12.447,11.008,23.773,23.253,33.769,36.559v232.425C452,346.957,443.046,355.911,432,355.911z"/>
	<path style="fill:#1A4F5B;" d="M232,354.573v29c0,11.045-8.954,20-20,20H42c-11.046,0-20-8.955-20-20v-0.875h-8.375   C6.1,382.698,0,376.598,0,369.073s6.1-13.625,13.625-13.625H22v-0.875c0-11.046,8.954-20,20-20h170   C223.046,334.573,232,343.527,232,354.573z"/>
	<path style="fill:#276372;" d="M212,334.573H42c-11.046,0-20,8.954-20,20v10c0,11.045,8.954,20,20,20h170c11.046,0,20-8.955,20-20   v-10C232,343.527,223.046,334.573,212,334.573z M162,375.073h-20c-5.523,0-10-4.477-10-10s4.477-10,10-10h20   c5.523,0,10,4.477,10,10S167.523,375.073,162,375.073z"/>
	<path style="fill:#DCFBFF;" d="M221.5,234.5h69c2.761,0,5,2.239,5,5v10c0,2.761-2.239,5-5,5h-69c-2.761,0-5-2.239-5-5v-10   C216.5,236.739,218.739,234.5,221.5,234.5z M365,194.5h-80c-2.761,0-5,2.239-5,5v10c0,2.761,2.239,5,5,5h80c2.761,0,5-2.239,5-5   v-10C370,196.739,367.761,194.5,365,194.5z M260,209.5v-10c0-2.761-2.239-5-5-5h-60c-2.761,0-5,2.239-5,5v10c0,2.761,2.239,5,5,5   h60C257.761,214.5,260,212.261,260,209.5z M226,274.5c-5.523,0-10,4.477-10,10s4.477,10,10,10s10-4.477,10-10   S231.523,274.5,226,274.5z M256,274.5c-5.523,0-10,4.477-10,10s4.477,10,10,10s10-4.477,10-10S261.523,274.5,256,274.5z M286,274.5   c-5.523,0-10,4.477-10,10s4.477,10,10,10s10-4.477,10-10S291.523,274.5,286,274.5z"/>
	<path style="fill:#D95785;" d="M155,194.5h45v20h-45c-2.761,0-5-2.239-5-5v-10C150,196.739,152.239,194.5,155,194.5z M155,134.5h70   c2.761,0,5-2.239,5-5v-10c0-2.761-2.239-5-5-5h-70c-2.761,0-5,2.239-5,5v10C150,132.261,152.239,134.5,155,134.5z M365,114.5H255   c-2.761,0-5,2.239-5,5v10c0,2.761,2.239,5,5,5h110c2.761,0,5-2.239,5-5v-10C370,116.739,367.761,114.5,365,114.5z M320,154.5h-29   c-2.761,0-5,2.239-5,5v10c0,2.761,2.239,5,5,5h29c2.761,0,5-2.239,5-5v-10C325,156.739,322.761,154.5,320,154.5z M261,154.5h-69   c-2.761,0-5,2.239-5,5v10c0,2.761,2.239,5,5,5h69c2.761,0,5-2.239,5-5v-10C266,156.739,263.761,154.5,261,154.5z"/>
	<path style="fill:#D43147;" d="M212,324.073h60c11.046,0,20,8.954,20,20v50c0,11.046-8.954,20-20,20h-60c-11.046,0-20-8.954-20-20   v-50C192,333.027,200.954,324.073,212,324.073z"/>
	<path style="fill:#EF3C54;" d="M212,324.073h60c11.046,0,20,8.954,20,20v21c0,11.046-8.954,20-20,20h-60c-11.046,0-20-8.954-20-20   v-21C192,333.027,200.954,324.073,212,324.073z"/>
	<path style="fill:#1A4F5B;" d="M307,434.073c-35.898,0-65-29.102-65-65s29.102-65,65-65s65,29.102,65,65   S342.898,434.073,307,434.073z"/>
	<path style="fill:#276372;" d="M310.283,304.154c-12.885-0.637-24.985,2.5-35.327,8.374c-5.373,9.459-8.456,20.389-8.456,32.044   c0,21.419,10.369,40.404,26.352,52.245c1.698,1.258,4.025,0.989,5.45-0.573c2.684-2.942,6.635-4.705,10.995-4.414   c5.044,0.336,9.426,3.651,11.514,8.255c0.845,1.863,1.19,3.656,1.189,5.363c-0.002,2.043,1.655,3.686,3.691,3.867   c1.914,0.17,3.851,0.257,5.809,0.257c11.656,0,22.585-3.083,32.044-8.456c5.874-10.343,9.011-22.442,8.374-35.327   C370.28,332.649,343.424,305.792,310.283,304.154z M308.364,382.709c-7.531,0-13.636-6.105-13.636-13.636   s6.105-13.636,13.636-13.636S322,361.542,322,369.073S315.895,382.709,308.364,382.709z M308.364,346.345   c-7.531,0-13.636-6.105-13.636-13.636s6.105-13.636,13.636-13.636S322,325.178,322,332.709S315.895,346.345,308.364,346.345z"/>
</g>















</svg>
