<?xml version="1.0" encoding="iso-8859-1"?>
<!-- Generator: Adobe Illustrator 19.0.0, SVG Export Plug-In . SVG Version: 6.00 Build 0)  -->
<svg xmlns="http://www.w3.org/2000/svg" xmlns:xlink="http://www.w3.org/1999/xlink" version="1.1" id="Capa_1" x="0px" y="0px" viewBox="0 0 501 501" style="enable-background:new 0 0 501 501;" xml:space="preserve" width="512" height="512">
<g>
	<path style="fill:#8AE8F5;" d="M490,256c0,135.31-109.69,245-245,245S0,391.31,0,256S109.69,11,245,11S490,120.69,490,256z"/>
	<path style="fill:#4A99AF;" d="M0.247,245.273L79,243.815v24.37l-78.753-1.458C0.094,263.169,0,259.596,0,256   S0.094,248.831,0.247,245.273z"/>
	<path style="fill:#4A99AF;" d="M426.501,99.769l-306.018,294.89l-14.142-14.142l294.89-306.018   c-2.937-11.567,0.114-24.342,9.166-33.393c8.723-8.723,20.902-11.869,32.128-9.459L467.23,6.01   c7.623-7.91,20.252-8.027,28.02-0.259c7.768,7.768,7.651,20.397-0.259,28.02l-25.637,24.705c2.41,11.226-0.736,23.405-9.459,32.128   C450.843,99.655,438.068,102.706,426.501,99.769z"/>
	<path style="fill:#C44775;" d="M120.411,130c0,27.57,22.43,50,50,50c5.523,0,10,4.478,10,10s-4.477,10-10,10   c-38.598,0-70-31.401-70-70s31.402-70,70-70c27.57,0,50-22.43,50-50c0-5.522,4.477-10,10-10s10,4.478,10,10   c0,38.599-31.402,70-70,70C142.84,80,120.411,102.43,120.411,130z"/>
	<path style="fill:#D95785;" d="M368.589,297.821c0,91.127-73.873,165-165,165s-165-73.873-165-165s73.873-165,165-165   S368.589,206.694,368.589,297.821z"/>
	<path style="fill:#C44775;" d="M340.979,389.21c-29.575,44.372-80.064,73.611-137.389,73.611c-91.127,0-165-73.873-165-165   c0-57.325,29.239-107.814,73.611-137.389c-17.439,26.165-27.611,57.587-27.611,91.389c0,91.127,73.873,165,165,165   C283.391,416.821,314.814,406.649,340.979,389.21z"/>
	<path style="fill:#4A99AF;" d="M159,361.131L29.013,486.391c-3.998,3.853-10.346,3.794-14.272-0.132l0,0   c-3.926-3.926-3.985-10.274-0.132-14.272L141.797,340L159,361.131z"/>
	<path style="fill:#4A99AF;" d="M501,256c0,10.985-9.013,19.833-19.997,19.63l-35.597-0.659C439.173,284.613,428.336,291,416,291   c-12.801,0-23.991-6.875-30.094-17.131L219,270.778v-29.556l166.906-3.091C392.009,227.875,403.199,221,416,221   c12.336,0,23.173,6.387,29.406,16.03l35.597-0.659C491.987,236.167,501,245.015,501,256z"/>
	<path style="fill:#6AA8BB;" d="M453.333,58.167c0,10.678-8.656,19.333-19.333,19.333s-19.333-8.656-19.333-19.333   S423.323,38.833,434,38.833S453.333,47.489,453.333,58.167z M423,229.78c-10.677,0-19.333,8.656-19.333,19.333   s8.656,19.333,19.333,19.333s19.333-8.656,19.333-19.333S433.677,229.78,423,229.78z"/>
	<path style="fill:#C44775;" d="M365.073,331.83c-1.421,6.783-3.26,13.411-5.486,19.859c-24.931-13.725-54.189-19.996-84.327-16.302   c3.046,9.445,5.573,19.041,7.587,28.75c22.817-2.861,45.509,1.956,65.05,13.726c-3.251,5.849-6.847,11.479-10.762,16.864   c-15.346-9.102-33.074-12.892-50.935-10.845c2.436,18.34,3.039,36.998,1.766,55.75c-6.722,4.008-13.752,7.553-21.048,10.589   c7.277-63.929-9.092-127.318-46.585-179.949c-7.052,9.686-14.758,18.979-23.111,27.813   c31.515,46.094,44.244,101.496,35.854,156.922c-0.27,1.785-0.562,3.563-0.874,5.335c-6.8,1.189-13.744,1.961-20.803,2.29   c0.723-3.51,1.363-7.048,1.903-10.618c7.445-49.185-3.402-98.355-30.577-139.653c-8.644,7.93-17.703,15.263-27.132,21.973   c22.237,33.246,31.154,72.99,25.136,112.749c-0.704,4.653-1.615,9.241-2.705,13.764c-6.654-1.035-13.178-2.464-19.544-4.269   c1.002-4.101,1.834-8.264,2.474-12.488c5.271-34.825-2.557-69.64-22.065-98.752c-24.644,14.999-51.405,26.023-79.48,32.75   c-3.331-5.97-6.302-12.166-8.883-18.563c105.256-23.607,186.594-111.218,200.836-219.67c6.593,1.991,13.012,4.381,19.228,7.147   c-3.039,20.767-8.355,40.972-15.853,60.307c10.79-1.145,21.563-1.666,32.276-1.573c8.503-12.223,13.423-26.223,14.472-40.738   c6.36,4.695,12.369,9.835,17.984,15.375c-1.972,9.194-5.226,18.104-9.718,26.503c11.792,1.066,23.472,2.891,34.984,5.44   c4.609,7.592,8.615,15.591,11.969,23.921c-35.096-10.294-72.886-13.326-111.323-7.562c-4.048,8.289-8.515,16.382-13.391,24.257   c0.707,0.551,1.357,1.198,1.915,1.955c2.789,3.785,5.475,7.623,8.057,11.512c2.135-0.447,5.321-1.174,8.233-1.839   c8.855-2.021,14.449-3.27,17.456-3.554c34.108-3.216,67.985,1.552,99.305,13.598c1.032,7.33,1.588,14.813,1.624,22.42   c-30.224-13.365-64.089-19.403-99.051-16.105c-1.923,0.182-10.036,2.033-14.882,3.14c-0.578,0.132-1.119,0.255-1.654,0.377   c5.783,10.297,10.873,20.893,15.272,31.724C301.848,311.069,335.42,316.607,365.073,331.83z M217.446,133.406   c-4.57-0.38-9.189-0.584-13.857-0.584c-2.087,0-4.162,0.052-6.231,0.129c-9.567,86.513-74.526,156.575-158.527,173.803   c0.362,6.778,1.131,13.448,2.286,19.985c42.59-8.283,81.738-28.987,113.07-60.319C190.354,230.254,212.363,183.674,217.446,133.406   z M162.052,138.097c-7.419,1.924-14.631,4.357-21.606,7.249c-10.609,49.222-47.169,88.903-94.601,103.953   c-2.215,7.209-3.944,14.629-5.161,22.221c28.581-6.742,54.801-21.27,76.067-42.536C141.645,204.09,157.31,172.412,162.052,138.097z   "/>
</g>















</svg>
