<?xml version="1.0" encoding="iso-8859-1"?>
<!-- Generator: Adobe Illustrator 19.0.0, SVG Export Plug-In . SVG Version: 6.00 Build 0)  -->
<svg xmlns="http://www.w3.org/2000/svg" xmlns:xlink="http://www.w3.org/1999/xlink" version="1.1" id="Capa_1" x="0px" y="0px" viewBox="0 0 501 501" style="enable-background:new 0 0 501 501;" xml:space="preserve" width="512" height="512">
<g>
	<path style="fill:#F0A1BB;" d="M490,256c0,116.755-81.669,214.434-190.997,239.029c-9.599,2.159-65.737,12.095-129.384-10.529   c-51.559-18.327-111.106-65.584-130.625-95.832C14.32,350.434,0,304.889,0,256C0,120.69,109.69,11,245,11S490,120.69,490,256z"/>
	<path style="fill:#B5F3FB;" d="M299,300v195.016c-17.375,3.909-35.444,5.984-54,5.984c-86.421,0-162.384-44.75-206-112.336V300   c0-11.046,8.954-20,20-20h44v-51c0-11.046,8.954-20,20-20h92c11.046,0,20,8.954,20,20v51h44C290.046,280,299,288.954,299,300z"/>
	<path style="fill:#DCFBFF;" d="M299,300v195.016c-17.375,3.909-35.444,5.984-54,5.984c-67.031,0-127.764-26.93-172-70.547V300   c0-11.046,8.954-20,20-20h35.25c2.623,0,4.75-2.127,4.75-4.75l0,0c0-3.452,2.798-6.25,6.25-6.25h76.25   c4.219,0,7.624-3.483,7.497-7.731c-0.123-4.105-3.704-7.269-7.811-7.269H139.25c-3.452,0-6.25-2.798-6.25-6.25v0   c0-3.452,2.798-6.25,6.25-6.25h76.25c4.219,0,7.624-3.483,7.497-7.731c-0.123-4.105-3.704-7.269-7.811-7.269H136.93   c-2.031,0-3.512-1.989-2.862-3.913C136.739,214.689,144.199,209,153,209h62c11.046,0,20,8.954,20,20v51h44   C290.046,280,299,288.954,299,300z"/>
	<path style="fill:#4A99AF;" d="M214.258,99.922l-53.205,61.082c-3.359,3.856-9.087,4.557-13.276,1.623l0,0   c-32.123-22.493-39.93-66.768-17.437-98.891l0,0c2.933-4.189,8.555-5.49,13.031-3.015L214.258,99.922z"/>
	<path style="fill:#276372;" d="M378.441,86.372l-179.797,31.535l-5.209-29.544l179.797-31.535L378.441,86.372z"/>
	<path style="fill:#D43147;" d="M317.719,129.158l-17.117-88.357c-1.05-5.422,2.494-10.669,7.916-11.719L455.779,0.553   c16.266-3.151,32.007,7.481,35.158,23.747l9.509,49.087c3.151,16.266-7.481,32.007-23.747,35.158l-147.262,28.528   C324.016,138.124,318.769,134.58,317.719,129.158z"/>
	<path style="fill:#EF3C54;" d="M257.971,389H299v106.016c-17.375,3.909-35.444,5.984-54,5.984   c-86.276,0-162.128-44.602-205.779-112h88.808c13.338,0,26.216-4.279,37.322-11.665C173.271,372.069,182.777,369,193,369   s19.729,3.069,27.648,8.335C231.755,384.721,244.633,389,257.971,389z M490.937,24.3l8.355,43.128   c-4.406,6.219-11.167,10.773-19.265,12.201l-157.72,27.81c-3.692,0.651-7.264-0.817-9.48-3.526l-12.227-63.113   c-1.05-5.422,2.494-10.669,7.916-11.719L455.779,0.553C472.045-2.598,487.786,8.034,490.937,24.3z M165.24,156.197l4.38-5.028   c-9.284-8.639-15.821-19.364-19.391-30.928c-1.008-3.265-2.813-6.2-5.213-8.633c-2.057-2.086-3.526-4.793-4.073-7.897   c-0.833-4.725,0.648-9.316,3.625-12.625c2.215-2.462,3.726-5.461,4.509-8.678c1.278-5.251,3.172-10.412,5.707-15.375l-11.414-6.312   c-4.476-2.475-10.097-1.174-13.031,3.016h0c-15.221,21.737-16.554,49.031-5.876,71.38c4.658,9.75,8.142,20.018,10.018,30.659v0   c0.539,3.059,1.971,5.737,3.979,7.814c3.348,3.461,8.299,5.252,13.398,4.353h0c4.079-0.719,7.481-3.024,9.683-6.168   s3.204-7.129,2.485-11.209l0,0C163.75,159.001,164.196,157.395,165.24,156.197z"/>
	<path style="fill:#D43147;" d="M39.221,389H73v41.453C60.299,417.93,48.958,404.034,39.221,389z"/>
</g>















</svg>
