<?xml version="1.0" encoding="iso-8859-1"?>
<!-- Generator: Adobe Illustrator 19.0.0, SVG Export Plug-In . SVG Version: 6.00 Build 0)  -->
<svg xmlns="http://www.w3.org/2000/svg" xmlns:xlink="http://www.w3.org/1999/xlink" version="1.1" id="Capa_1" x="0px" y="0px" viewBox="0 0 501 501" style="enable-background:new 0 0 501 501;" xml:space="preserve" width="512" height="512">
<g>
	<path style="fill:#903152;" d="M75.734,420.893c-3.634,0.466-7.265-0.886-9.678-3.644C28.354,374.161,5.5,317.752,5.5,256   c0-135.18,109.48-244.79,244.611-245c134.433-0.209,244.534,108.988,245.384,243.418c0.394,62.359-22.519,119.353-60.529,162.806   c-2.42,2.767-6.056,4.136-9.702,3.668C370.031,413.815,311.341,410,250.5,410C189.658,410,130.967,413.815,75.734,420.893z"/>
	<path style="fill:#368A9C;" d="M420.5,380h-340c-8.284,0-15-6.716-15-15V15c0-8.284,6.716-15,15-15h340c8.284,0,15,6.716,15,15v350   C435.5,373.284,428.784,380,420.5,380z"/>
	<path style="fill:#6AA8BB;" d="M420.5,380h-301c-8.284,0-15-6.716-15-15V15c0-8.284,6.716-15,15-15h301c8.284,0,15,6.716,15,15v350   C435.5,373.284,428.784,380,420.5,380z"/>
	<path style="fill:#84B8C8;" d="M378.167,147.667c0,70.508-57.158,127.667-127.667,127.667s-127.667-57.158-127.667-127.667   S179.992,20,250.5,20S378.167,77.158,378.167,147.667z"/>
	<path style="fill:#F05D22;" d="M356.5,315v90c0,8.284-6.716,15-15,15h-182c-8.284,0-15-6.716-15-15v-90c0-8.284,6.716-15,15-15h182   C349.784,300,356.5,306.716,356.5,315z"/>
	<path style="fill:#FC703B;" d="M356.5,315v90c0,8.284-6.716,15-15,15h-142c-8.284,0-15-6.716-15-15v-90c0-8.284,6.716-15,15-15h142   C349.784,300,356.5,306.716,356.5,315z"/>
	<path style="fill:#B57063;" d="M435.5,416.623C390.581,468.314,324.359,501,250.5,501s-140.081-32.686-185-84.377V352h370V416.623z   "/>
	<path style="fill:#C28579;" d="M105.259,352H435.5v64.623C390.581,468.315,324.359,501,250.5,501   c-54.372,0-104.598-17.723-145.241-47.691V352z"/>
	<path style="fill:#FFB23C;" d="M435.5,380h-370v-30h370V380z"/>
	<path style="fill:#FFBD61;" d="M435.5,380h-331v-30h331V380z"/>
	<path style="fill:#FFE2BD;" d="M305.5,450h-110c-8.284,0-15-6.716-15-15v-50c0-8.284,6.716-15,15-15h110c8.284,0,15,6.716,15,15v50   C320.5,443.284,313.784,450,305.5,450z"/>
	<path style="fill:#FFC981;" d="M300.5,391.5v7c0,2.209-1.791,4-4,4h-92c-2.209,0-4-1.791-4-4v-7c0-2.209,1.791-4,4-4h92   C298.709,387.5,300.5,389.291,300.5,391.5z M272.5,417.5h-44c-2.209,0-4,1.791-4,4v7c0,2.209,1.791,4,4,4h44c2.209,0,4-1.791,4-4   v-7C276.5,419.291,274.709,417.5,272.5,417.5z"/>
	<path style="fill:#30DAEC;" d="M362.096,132.641l-110.494,116.2l-0.15,0.465c-0.298,0.924-1.606,0.924-1.904,0l-0.15-0.465   l-110.494-116.2c-1.56-1.64-1.823-4.124-0.642-6.054l25.651-41.935c0.909-1.485,2.524-2.391,4.265-2.391h58.219h39.062h9.142   h58.219c1.741,0,3.357,0.906,4.265,2.391l25.651,41.936C363.919,128.518,363.655,131.001,362.096,132.641z"/>
	<path style="fill:#8AE8F5;" d="M363.418,129.861H137.581c-0.149-1.11,0.065-2.266,0.681-3.274l25.651-41.935   c0.909-1.485,2.524-2.391,4.265-2.391h58.219h39.062h9.142h58.219c1.741,0,3.356,0.906,4.265,2.391l25.651,41.936   C363.354,127.594,363.568,128.751,363.418,129.861z"/>
	<path style="fill:#DCFBFF;" d="M363.418,129.861H265.46v-47.6h9.142h58.219c1.741,0,3.356,0.906,4.265,2.391l25.651,41.936   C363.354,127.594,363.568,128.751,363.418,129.861z"/>
	<path style="fill:#B5F3FB;" d="M251.86,129.861h-40.8l15.338-47.6h0h39.062h9.142h0l15.338,47.6h73.479   c-0.136,1.017-0.577,1.996-1.323,2.781L250.5,250l0,0L251.86,129.861z"/>
	<path style="fill:#8AE8F5;" d="M249.548,249.307L211.06,129.861h78.88l-38.488,119.446   C251.154,250.231,249.846,250.231,249.548,249.307z"/>
</g>















</svg>
