<?xml version="1.0" encoding="iso-8859-1"?>
<!-- Generator: Adobe Illustrator 19.0.0, SVG Export Plug-In . SVG Version: 6.00 Build 0)  -->
<svg xmlns="http://www.w3.org/2000/svg" xmlns:xlink="http://www.w3.org/1999/xlink" version="1.1" id="Capa_1" x="0px" y="0px" viewBox="0 0 501 501" style="enable-background:new 0 0 501 501;" xml:space="preserve" width="512" height="512">
<g>
	<path style="fill:#276372;" d="M495.5,256c0,135.31-109.69,245-245,245c-4.672,0-9.312-0.134-13.919-0.394   c-6.773-0.383-12.081-5.964-12.081-12.748v0c0-31.954-25.904-57.857-57.857-57.857H95.179c-11.528,0-22.461-5.046-30.005-13.762   C27.997,373.281,5.5,317.27,5.5,256.001C5.5,121,115.621,10.934,250.622,11C385.876,11.066,495.5,120.731,495.5,256z"/>
	<path style="fill:#4A99AF;" d="M414.583,52v78c0,29.676-21.661,54.374-50,59.151V337c0,40.252-32.748,73-73,73s-73-32.748-73-73   V112c0-12.131-9.869-22-22-22s-22,9.869-22,22v50.698c5.972,3.46,10,9.904,10,17.302v50c0,11.046-8.954,20-20,20h0   c-11.046,0-20-8.954-20-20v-50c0-7.399,4.028-13.843,10-17.303V112c0-23.159,18.841-42,42-42s42,18.841,42,42v225   c0,29.224,23.776,53,53,53s53-23.776,53-53V189.151c-28.339-4.777-50-29.475-50-59.151V52h20v78c0,22.056,17.944,40,40,40   s40-17.944,40-40V52H414.583z"/>
	<path style="fill:#FFD69E;" d="M264.583,241v230c0,15.171-11.264,27.705-25.884,29.712   c-69.591-3.301-131.575-35.634-174.116-85.159V241c0-16.569,13.431-30,30-30h140C251.152,211,264.583,224.431,264.583,241z"/>
	<path style="fill:#FFE2BD;" d="M264.583,241v230c0,15.171-11.264,27.705-25.884,29.712c-52.81-2.505-101.238-21.728-140.116-52.496   V241c0-16.569,13.431-30,30-30h106C251.152,211,264.583,224.431,264.583,241z"/>
	<path style="fill:#FFC981;" d="M164.583,370c-27.614,0-50,22.386-50,50s22.386,50,50,50s50-22.386,50-50S192.198,370,164.583,370z    M164.583,436.667c-9.205,0-16.667-7.462-16.667-16.667s7.462-16.667,16.667-16.667c9.205,0,16.667,7.462,16.667,16.667   S173.788,436.667,164.583,436.667z"/>
	<path style="fill:#0EBCD7;" d="M224.583,349h-120c-11.046,0-20-8.954-20-20v-80c0-11.046,8.954-20,20-20h120   c11.046,0,20,8.954,20,20v80C244.583,340.046,235.629,349,224.583,349z"/>
	<path style="fill:#02D0E7;" d="M224.583,349H134.5c-11.046,0-20-8.954-20-20v-80c0-11.046,8.954-20,20-20h90.083   c11.046,0,20,8.954,20,20v80C244.583,340.046,235.629,349,224.583,349z"/>
	<path style="fill:#01A2BB;" d="M178.583,306v11c0,1.104-0.895,2-2,2h-76c-1.105,0-2-0.896-2-2v-11c0-1.104,0.895-2,2-2h76   C177.688,304,178.583,304.896,178.583,306z M100.583,294h56c1.105,0,2-0.896,2-2v-11c0-1.104-0.895-2-2-2h-56c-1.105,0-2,0.896-2,2   v11C98.583,293.104,99.479,294,100.583,294z M226.083,294c4.142,0,7.5-3.358,7.5-7.5s-3.358-7.5-7.5-7.5   c-4.142,0-7.5,3.358-7.5,7.5S221.941,294,226.083,294z M201.083,304c-4.142,0-7.5,3.358-7.5,7.5s3.358,7.5,7.5,7.5   c4.142,0,7.5-3.358,7.5-7.5S205.225,304,201.083,304z M226.083,304c-4.142,0-7.5,3.358-7.5,7.5s3.358,7.5,7.5,7.5   c4.142,0,7.5-3.358,7.5-7.5S230.225,304,226.083,304z M201.083,279c-4.142,0-7.5,3.358-7.5,7.5s3.358,7.5,7.5,7.5   c4.142,0,7.5-3.358,7.5-7.5S205.225,279,201.083,279z"/>
	<path style="fill:#DCFBFF;" d="M188.583,253.5v11c0,1.104-0.895,2-2,2h-86c-1.105,0-2-0.896-2-2v-11c0-1.104,0.895-2,2-2h86   C187.688,251.5,188.583,252.396,188.583,253.5z M226.083,251.5c-4.142,0-7.5,3.358-7.5,7.5s3.358,7.5,7.5,7.5   c4.142,0,7.5-3.358,7.5-7.5S230.225,251.5,226.083,251.5z"/>
	<path style="fill:#FFB23C;" d="M336.083,24L336.083,24c0,10.449-6.68,19.334-16,22.629V64c0,8.837-7.163,16-16,16s-16-7.163-16-16   V48v-8V24c0-13.255,10.745-24,24-24S336.083,10.745,336.083,24z M412.417,0c-13.255,0-24,10.745-24,24v16v8v16   c0,8.837,7.163,16,16,16s16-7.163,16-16V46.629c9.32-3.295,16-12.18,16-22.629l0,0C436.417,10.745,425.671,0,412.417,0z"/>
	<path style="fill:#FFBD61;" d="M320.083,46.629V64c0,5.814-3.112,10.888-7.75,13.69c-4.638-2.802-7.75-7.876-7.75-13.69V48v-8V24   c0-10.356,6.559-19.18,15.75-22.544c9.191,3.364,15.75,12.188,15.75,22.544C336.083,34.449,329.404,43.334,320.083,46.629z    M436.417,24c0-10.356-6.559-19.18-15.75-22.544c-9.191,3.364-15.75,12.188-15.75,22.544v16v8v16c0,5.814,3.112,10.888,7.75,13.69   c4.638-2.802,7.75-7.876,7.75-13.69V46.629C429.737,43.334,436.417,34.449,436.417,24z"/>
</g>















</svg>
