<?xml version="1.0" encoding="iso-8859-1"?>
<!-- Generator: Adobe Illustrator 19.0.0, SVG Export Plug-In . SVG Version: 6.00 Build 0)  -->
<svg xmlns="http://www.w3.org/2000/svg" xmlns:xlink="http://www.w3.org/1999/xlink" version="1.1" id="Capa_1" x="0px" y="0px" viewBox="0 0 501 501" style="enable-background:new 0 0 501 501;" xml:space="preserve" width="512" height="512">
<g>
	<path style="fill:#276372;" d="M489.529,310C464.937,419.329,367.256,501,250.5,501c-102.008,0-189.455-62.342-226.321-151.003   C20.147,340.298,6.862,287.202,5.893,270c-0.261-4.633-0.393-9.301-0.393-14c0-135.31,109.69-245,245-245   c66.239,0,126.338,26.286,170.434,68.997C444.235,102.564,493.438,292.626,489.529,310z"/>
	<path style="fill:#FC703B;" d="M263.19,411.701l-36.779,36.779c-5.161,5.16-12.037,7.93-19.091,7.93   c-2.702,0-5.429-0.406-8.096-1.239c-9.633-3.01-16.738-11.047-18.543-20.977l-4.909-26.998l-29.254,29.254   c-5.858,5.857-15.355,5.859-21.213,0c-5.858-5.857-5.858-15.355,0-21.213l33.244-33.243c7.135-7.137,17.553-9.7,27.186-6.691   c9.633,3.009,16.739,11.046,18.545,20.976l4.909,27l32.79-32.79c5.857-5.857,15.355-5.857,21.213,0   C269.048,396.346,269.048,405.844,263.19,411.701z"/>
	<path style="fill:#84B8C8;" d="M430.802,353.335l-51.462,51.462c-15.621,15.621-40.948,15.621-56.569,0l-9.526-9.526   l-35.692,35.692c-5.858,5.858-15.355,5.858-21.213,0l-32.802-32.802c-5.858-5.858-5.858-15.355,0-21.213l35.692-35.692   l-11.07-11.07c-15.621-15.621-15.621-40.948,0-56.569l51.462-51.462c15.621-15.621,40.948-15.621,56.569,0l74.611,74.611   C446.422,312.387,446.422,337.714,430.802,353.335z"/>
	<path style="fill:#9DC6D4;" d="M431.573,354.106l-51.462,51.462c-15.621,15.621-40.948,15.621-56.569,0l-10.298-10.298   l-35.692,35.692c-5.858,5.858-15.355,5.858-21.213,0l-10.424-10.424c-0.243-0.243-0.475-0.492-0.698-0.746   c-4.549-5.206,3.191-12.193,8.08-7.305l9.342,9.342c1.953,1.953,5.118,1.953,7.071,0l0.645-0.645c1.953-1.953,1.953-5.118,0-7.071   l-15.758-15.758c-2.13-2.13-2.13-5.582,0-7.712l0.005-0.005c2.13-2.129,5.582-2.129,7.712,0l15.758,15.758   c1.953,1.953,5.119,1.953,7.071,0l0.645-0.646c1.952-1.953,1.952-5.118,0-7.071l-15.758-15.758c-2.13-2.13-2.13-5.582,0-7.712   l0.005-0.005c2.13-2.13,5.582-2.13,7.712,0l15.758,15.758c1.952,1.952,5.118,1.953,7.071,0l0.646-0.646   c1.953-1.952,1.953-5.118,0-7.071l-22.196-22.196c-15.621-15.621-15.621-40.947,0-56.568l51.462-51.462   c15.621-15.621,40.948-15.621,56.568,0l44.517,44.517C447.194,313.159,447.194,338.485,431.573,354.106z"/>
	<path style="fill:#FFB23C;" d="M324.5,120L324.5,120c0,11.046-8.954,20-20,20h-100c-11.046,0-20-8.954-20-20V20   c0-11.046,8.954-20,20-20h0C270.774,0,324.5,53.726,324.5,120z"/>
	<path style="fill:#C28579;" d="M5.818,268.6l156.905-156.906l50.081,50.081L24.307,350.274   C13.729,324.924,7.279,297.422,5.818,268.6z"/>
	<path style="fill:#CD968D;" d="M144.693,201.615c7.807,7.807,7.807,20.466,0,28.273L24.307,350.274   c-5.749-13.777-10.27-28.19-13.44-43.106l105.553-105.553C124.228,193.808,136.886,193.808,144.693,201.615L144.693,201.615z"/>
	<path style="fill:#84B8C8;" d="M174.73,192.504l-42.735-42.735c-5.858-5.858-5.858-15.355,0-21.213l40.518-40.518   c5.858-5.858,15.355-5.858,21.213,0l42.735,42.735c5.858,5.858,5.858,15.355,0,21.213l-40.518,40.518   C190.086,198.362,180.588,198.362,174.73,192.504z"/>
	<path style="fill:#9DC6D4;" d="M236.462,151.986l-40.518,40.518c-5.858,5.858-15.355,5.858-21.213,0l-20.357-20.357   c-5.858-5.858-5.858-15.355,0-21.213l0.774-0.774c0.626-0.626,1.642-0.626,2.268,0l31.33,31.33c1.953,1.953,5.119,1.953,7.071,0   l0.645-0.645c1.953-1.953,1.953-5.119,0-7.071l-28.606-28.606c-2.131-2.131-2.131-5.586,0-7.716l0,0   c2.131-2.131,5.586-2.131,7.716,0l28.607,28.607c1.952,1.952,5.118,1.952,7.07-0.001l0.645-0.646   c1.952-1.953,1.952-5.119-0.001-7.072l-28.606-28.606c-2.131-2.131-2.131-5.586,0-7.716v0c2.131-2.131,5.586-2.131,7.716,0   l28.607,28.607c1.952,1.952,5.118,1.952,7.07-0.001l0.645-0.646c1.952-1.953,1.952-5.119-0.001-7.072l-31.268-31.268   c-0.676-0.676-0.613-1.79,0.135-2.385l0,0c5.888-4.667,14.469-4.279,19.91,1.162l20.357,20.357   C242.32,136.63,242.32,146.128,236.462,151.986z"/>
	<path style="fill:#FFC981;" d="M238.646,58.722l21.107-45.264c7.977,4.145,15.428,9.159,22.231,14.917l-35.697,35.697   C242.54,67.818,236.406,63.523,238.646,58.722z M296.129,42.513L237.842,100.8c-1.698,1.698-1.839,4.386-0.369,6.286   c0.016,0.021,0.033,0.043,0.05,0.064c1.349,1.74,3.741,2.285,5.734,1.348c14.654-6.892,72.374-33.847,72.374-33.847   C310.826,62.89,304.212,52.061,296.129,42.513z M219.751,0.96v29.594c0,5.068,6.886,6.594,9.028,2.001l12.503-26.813   C234.358,3.516,227.16,1.9,219.751,0.96z M321.649,93.912l-57.933,27.015c-3.502,1.633-3.687,6.558-0.31,8.436   C275.577,136.134,289.584,140,304.501,140l0,0c11.045,0,19.999-8.955,19.999-20C324.5,111.04,323.511,102.312,321.649,93.912z"/>
	<path style="fill:#FFD69E;" d="M329.214,204.571l120.748,120.748c5.491,5.491,5.145,14.495-0.751,19.549l-58.802,50.402   L259.23,264.091l50.371-58.766C314.671,199.409,323.705,199.062,329.214,204.571z"/>
	<path style="fill:#FFE2BD;" d="M449.35,324.707c5.821,5.821,5.455,15.366-0.796,20.724l-58.145,49.839L289.324,294.185   l59.771-69.733L449.35,324.707z"/>
	<path style="fill:#FC703B;" d="M495.5,256c0,18.696-2.104,36.899-6.07,54.396l-40.85,35.015L309.09,205.92L418.78,77.949   C466.019,122.611,495.5,185.86,495.5,256z"/>
	<path style="fill:#FF855B;" d="M495.5,256c0,18.696-2.104,36.899-6.07,54.396l-40.85,35.015L338.947,235.777l108.079-126.093   C477.473,150.515,495.5,201.151,495.5,256z"/>
	<path style="fill:#F05D22;" d="M392.086,262.414c-19.178-19.178-19.178-50.27,0-69.448c19.178-19.178,50.27-19.178,69.448,0   c19.178,19.178,19.178,50.27,0,69.448C442.356,281.592,411.263,281.592,392.086,262.414z"/>
</g>















</svg>
