<?xml version="1.0" encoding="iso-8859-1"?>
<!-- Generator: Adobe Illustrator 19.0.0, SVG Export Plug-In . SVG Version: 6.00 Build 0)  -->
<svg xmlns="http://www.w3.org/2000/svg" xmlns:xlink="http://www.w3.org/1999/xlink" version="1.1" id="Capa_1" x="0px" y="0px" viewBox="0 0 501 501" style="enable-background:new 0 0 501 501;" xml:space="preserve" width="512" height="512">
<g>
	<path style="fill:#D95785;" d="M77.551,420.919c-4.986,0.347-9.821-1.698-13.076-5.492C27.715,372.576,5.5,316.885,5.5,256   c0-135.182,109.484-244.794,244.618-245c134.384-0.205,244.462,108.916,245.376,243.297c0.419,61.66-21.948,118.083-59.17,161.364   c-3.166,3.681-7.908,5.603-12.752,5.266C367.877,417.049,309.959,415,250.5,415C191.084,415,133.208,417.046,77.551,420.919z"/>
	<path style="fill:#FCA20C;" d="M315.167,40H274.5V10c0-5.523,4.477-10,10-10h30.667V40z"/>
	<path style="fill:#B5F3FB;" d="M436.5,30v140v150v95.455C391.567,467.819,324.912,501,250.5,501s-141.067-33.181-186-85.545V320   V170V30c0-11.046,8.954-20,20-20h332C427.546,10,436.5,18.954,436.5,30z"/>
	<path style="fill:#DCFBFF;" d="M436.5,30v140v150v95.455C391.567,467.819,324.912,501,250.5,501   c-59.272,0-113.627-21.05-156-56.079V320V170V10h322C427.546,10,436.5,18.954,436.5,30z"/>
	<path style="fill:#8AE8F5;" d="M265.5,475c0,8.284-6.716,15-15,15s-15-6.716-15-15s6.716-15,15-15S265.5,466.716,265.5,475z    M276.5,25L276.5,25c0-2.761-2.239-5-5-5h-42c-2.761,0-5,2.239-5,5v0c0,2.761,2.239,5,5,5h42C274.261,30,276.5,27.761,276.5,25z"/>
	<path style="fill:#368A9C;" d="M396,440H105c-8.284,0-15-6.716-15-15V75c0-8.284,6.716-15,15-15h291c8.284,0,15,6.716,15,15v350   C411,433.284,404.284,440,396,440z"/>
	<path style="fill:#84B8C8;" d="M384.5,417.5c0,4.142-3.358,7.5-7.5,7.5s-7.5-3.358-7.5-7.5s3.358-7.5,7.5-7.5   S384.5,413.358,384.5,417.5z M109.5,275h240c2.761,0,5-2.239,5-5v-5c0-2.761-2.239-5-5-5h-240c-2.761,0-5,2.239-5,5v5   C104.5,272.761,106.739,275,109.5,275z M352,410c-4.142,0-7.5,3.358-7.5,7.5s3.358,7.5,7.5,7.5s7.5-3.358,7.5-7.5   S356.142,410,352,410z M327,410c-4.142,0-7.5,3.358-7.5,7.5s3.358,7.5,7.5,7.5s7.5-3.358,7.5-7.5S331.142,410,327,410z    M109.5,117.5h150c2.761,0,5-2.239,5-5v-5c0-2.761-2.239-5-5-5h-150c-2.761,0-5,2.239-5,5v5   C104.5,115.261,106.739,117.5,109.5,117.5z M109.5,145h60c2.761,0,5-2.239,5-5v-5c0-2.761-2.239-5-5-5h-60c-2.761,0-5,2.239-5,5v5   C104.5,142.761,106.739,145,109.5,145z M379.5,230h-270c-2.761,0-5,2.239-5,5v5c0,2.761,2.239,5,5,5h270c2.761,0,5-2.239,5-5v-5   C384.5,232.239,382.261,230,379.5,230z M379.5,290h-250c-2.761,0-5,2.239-5,5v5c0,2.761,2.239,5,5,5h250c2.761,0,5-2.239,5-5v-5   C384.5,292.239,382.261,290,379.5,290z M379.5,200h-270c-2.761,0-5,2.239-5,5v5c0,2.761,2.239,5,5,5h270c2.761,0,5-2.239,5-5v-5   C384.5,202.239,382.261,200,379.5,200z M379.5,380h-270c-2.761,0-5,2.239-5,5v5c0,2.761,2.239,5,5,5h270c2.761,0,5-2.239,5-5v-5   C384.5,382.239,382.261,380,379.5,380z M379.5,170h-250c-2.761,0-5,2.239-5,5v5c0,2.761,2.239,5,5,5h250c2.761,0,5-2.239,5-5v-5   C384.5,172.239,382.261,170,379.5,170z M379.5,320h-270c-2.761,0-5,2.239-5,5v5c0,2.761,2.239,5,5,5h270c2.761,0,5-2.239,5-5v-5   C384.5,322.239,382.261,320,379.5,320z M379.5,350h-270c-2.761,0-5,2.239-5,5v5c0,2.761,2.239,5,5,5h270c2.761,0,5-2.239,5-5v-5   C384.5,352.239,382.261,350,379.5,350z"/>
	<path style="fill:#FC703B;" d="M411,80H90V55c0-8.284,6.716-15,15-15h291c8.284,0,15,6.716,15,15V80z"/>
	<path style="fill:#FF855B;" d="M124.5,60c0,5.523-4.477,10-10,10s-10-4.477-10-10c0-5.523,4.477-10,10-10S124.5,54.477,124.5,60z    M174.5,50c-5.523,0-10,4.477-10,10c0,5.523,4.477,10,10,10s10-4.477,10-10C184.5,54.477,180.023,50,174.5,50z M144.5,50   c-5.523,0-10,4.477-10,10c0,5.523,4.477,10,10,10s10-4.477,10-10C154.5,54.477,150.023,50,144.5,50z"/>
	<path style="fill:#FFBD61;" d="M379.5,10v92.095c0,3.672-3.825,6.091-7.143,4.518l-26.453-12.547   c-5.424-2.573-11.717-2.573-17.142,0l-26.453,12.547c-3.317,1.573-7.143-0.846-7.143-4.518V40V10c0-5.523-4.477-10-10-10h10h10   H369.5C375.023,0,379.5,4.477,379.5,10z"/>
</g>















</svg>
