<?xml version="1.0" encoding="iso-8859-1"?>
<!-- Generator: Adobe Illustrator 19.0.0, SVG Export Plug-In . SVG Version: 6.00 Build 0)  -->
<svg xmlns="http://www.w3.org/2000/svg" xmlns:xlink="http://www.w3.org/1999/xlink" version="1.1" id="Capa_1" x="0px" y="0px" viewBox="0 0 501 501" style="enable-background:new 0 0 501 501;" xml:space="preserve" width="512" height="512">
<g>
	<path style="fill:#FC703B;" d="M490,256c0,135.31-109.69,245-245,245c-40.245,0-78.224-9.704-111.724-26.899   c-15.611-8.013-71.685-54.55-83.238-69.705C18.643,363.212,0,311.783,0,256C0,120.69,109.69,11,245,11S490,120.69,490,256z"/>
	<path style="fill:#FFD69E;" d="M141,446c0,10.269-2.822,19.875-7.721,28.1c-32.697-16.783-61.116-40.71-83.224-69.709   C59.697,396.054,72.254,391,86,391C116.376,391,141,415.624,141,446z M206,391c-30.376,0-55,24.624-55,55c0,30.376,24.624,55,55,55   s55-24.624,55-55C261,415.624,236.376,391,206,391z M326,391c-30.376,0-55,24.624-55,55c0,30.376,24.624,55,55,55   c30.376,0,55-24.624,55-55C381,415.624,356.376,391,326,391z M446,391c-30.376,0-55,24.624-55,55c0,30.376,24.624,55,55,55   c30.376,0,55-24.624,55-55C501,415.624,476.376,391,446,391z"/>
	<path style="fill:#FFE2BD;" d="M141,446c0,10.27-2.818,19.878-7.719,28.101c-25.327-12.999-48.083-30.29-67.334-50.897   c6.641-14.546,19.431-25.695,35.053-30.115C124.082,399.619,141,420.827,141,446z M221,393.088c-23.082,6.531-40,27.739-40,52.912   s16.918,46.381,40,52.912c23.082-6.531,40-27.739,40-52.912S244.082,399.619,221,393.088z M341,393.088   c-23.082,6.531-40,27.739-40,52.912s16.918,46.381,40,52.912c23.082-6.531,40-27.739,40-52.912S364.082,399.619,341,393.088z    M461,393.088c-23.082,6.531-40,27.739-40,52.912s16.918,46.381,40,52.912c23.082-6.531,40-27.739,40-52.912   S484.082,399.619,461,393.088z"/>
	<path style="fill:#CD968D;" d="M106,446c0,3.615-0.973,6.996-2.65,9.922c-10.726-7.614-20.804-16.078-30.156-25.279   C76.664,427.747,81.127,426,86,426C97.046,426,106,434.954,106,446z M206,426c-11.046,0-20,8.954-20,20c0,11.046,8.954,20,20,20   c11.046,0,20-8.954,20-20C226,434.954,217.046,426,206,426z M326,426c-11.046,0-20,8.954-20,20c0,11.046,8.954,20,20,20   c11.046,0,20-8.954,20-20C346,434.954,337.046,426,326,426z M446,426c-11.046,0-20,8.954-20,20c0,11.046,8.954,20,20,20   c11.046,0,20-8.954,20-20C466,434.954,457.046,426,446,426z"/>
	<path style="fill:#84B8C8;" d="M259,10v69.667c0,5.523-4.477,10-10,10H89c-5.523,0-10-4.477-10-10V10c0-5.523,4.477-10,10-10h160   C254.523,0,259,4.477,259,10z"/>
	<path style="fill:#9DC6D4;" d="M259,10v69.667c0,5.523-4.477,10-10,10H147c-5.523,0-10-4.477-10-10V10c0-5.523,4.477-10,10-10h102   C254.523,0,259,4.477,259,10z"/>
	<path style="fill:#2F7589;" d="M501,316.463v18.835c0,35.55-28.819,64.369-64.369,64.369H144.825   c-47.4,0-85.825-38.425-85.825-85.825v-64.175v-96.748V79.667c0-11.046,8.954-20,20-20h180c11.046,0,20,8.954,20,20v105.208   c0,9.401,6.547,17.533,15.732,19.539l140.821,30.762C473.762,243.522,501,277.353,501,316.463z"/>
	<path style="fill:#276372;" d="M459,319.667L459,319.667c0,5.523-4.477,10-10,10H131.306c-6.812,0-11.56,6.76-9.259,13.171   c11.889,33.129,43.557,56.829,80.778,56.829h-58c-47.4,0-85.825-38.425-85.825-85.825v-64.175v-96.748V79.667   c0-11.046,8.954-20,20-20h58c-11.046,0-20,8.955-20,20v73.252v96.748v10.5c0,5.431,4.402,9.833,9.833,9.833h111.824   c5.326,0,9.977,4.019,10.321,9.335C249.355,285.159,244.743,290,239,290H126.833c-5.431,0-9.833,4.402-9.833,9.833l0,0   c0,5.431,4.402,9.833,9.833,9.833H449C454.523,309.667,459,314.144,459,319.667z"/>
	<path style="fill:#B5F3FB;" d="M109,139.667v-30c0-5.523,4.477-10,10-10h170c5.523,0,10,4.477,10,10v30c0,5.523-4.477,10-10,10H119   C113.477,149.667,109,145.189,109,139.667z M491,349.667H345.333c-3.498,0-6.333,2.835-6.333,6.333l0,0c0,11.046-8.954,20-20,20   H219c-11.046,0-20-8.954-20-20l0,0c0-3.498-2.836-6.333-6.333-6.333H69c-5.523,0-10,4.477-10,10V400c0,5.523,4.477,10,10,10h422   c5.523,0,10-4.477,10-10v-40.333C501,354.144,496.523,349.667,491,349.667z"/>
	<path style="fill:#DCFBFF;" d="M139,139.667v-30c0-5.523,4.477-10,10-10h140c5.523,0,10,4.477,10,10v30c0,5.523-4.477,10-10,10H149   C143.477,149.667,139,145.189,139,139.667z M491,349.667H345.333c-3.498,0-6.333,2.835-6.333,6.333l0,0c0,11.046-8.954,20-20,20   H219c-11.046,0-20-8.954-20-20l0,0c0-3.498-2.836-6.333-6.333-6.333H99c-5.523,0-10,4.477-10,10v20c0,5.523,4.477,10,10,10h392   c5.523,0,10-4.477,10-10v-20C501,354.144,496.523,349.667,491,349.667z M359,259.667h10c5.523,0,10-4.477,10-10v-26.845l-30-6.553   v33.398C349,255.189,353.477,259.667,359,259.667z M289,202.178v47.489c0,5.523,4.477,10,10,10h10c5.523,0,10-4.477,10-10v-39.952   l-24.268-5.301C292.67,203.963,290.752,203.19,289,202.178z M419,259.667h10c5.523,0,10-4.477,10-10v-13.659   c-1.139-0.3-2.287-0.579-3.447-0.832l-26.553-5.8v20.291C409,255.189,413.477,259.667,419,259.667z"/>
	<path style="fill:#84B8C8;" d="M214,159.667h-40c-8.284,0-15-6.716-15-15v-40c0-8.284,6.716-15,15-15h40c8.284,0,15,6.716,15,15v40   C229,152.951,222.284,159.667,214,159.667z"/>
	<path style="fill:#9DC6D4;" d="M214,159.667h-15c-8.284,0-15-6.716-15-15v-40c0-8.284,6.716-15,15-15h15c8.284,0,15,6.716,15,15v40   C229,152.951,222.284,159.667,214,159.667z"/>
</g>















</svg>
