<?xml version="1.0" encoding="iso-8859-1"?>
<!-- Generator: Adobe Illustrator 19.0.0, SVG Export Plug-In . SVG Version: 6.00 Build 0)  -->
<svg xmlns="http://www.w3.org/2000/svg" xmlns:xlink="http://www.w3.org/1999/xlink" version="1.1" id="Capa_1" x="0px" y="0px" viewBox="0 0 512 512" style="enable-background:new 0 0 512 512;" xml:space="preserve" width="512" height="512">
<g>
	<path style="fill:#5CC899;" d="M11,261.5c0-135.31,109.69-245,244.999-245c135.612,0,245.879,111.02,244.996,246.629   c-0.672,103.213-65.167,191.275-155.997,226.704c-6.396,2.495-13.305,3.364-20.128,2.615c-22.362-2.456-45.375-3.739-68.869-3.739   c-23.494,0-46.506,1.282-68.868,3.738c-6.833,0.751-13.751-0.126-20.155-2.624C75.682,454.202,11,365.405,11,261.5z"/>
	<path style="fill:#A1273B;" d="M133,157.833c0,19.231-7.471,32.681-22.207,39.975c-11.779,5.831-26.417,6.832-40.572,7.799   c-3.644,0.249-11.048,0.512-14.221,0.818C30.573,208.873,20,214.03,20,236.278c0,13.605,3.921,29.222,34.5,29.222v20   C19.355,285.5,0,268.019,0,236.278c0-20.359,7.698-34.606,22.881-42.345c9.789-4.99,21.398-6.653,33.119-7.63   c2.955-0.246,9.916-0.448,12.858-0.65c32.036-2.189,44.142-5.155,44.142-27.82H133z"/>
	<path style="fill:#FFD69E;" d="M346,15.5v225.543v40.914v207.482c-27.862,11.01-58.224,17.061-90,17.061s-62.138-6.051-90-17.061   V281.957v-40.914V15.5c0-5.523,4.477-10,10-10h160C341.523,5.5,346,9.977,346,15.5z"/>
	<path style="fill:#FFE2BD;" d="M346,15.5v225.543v40.914v207.482c-27.862,11.01-58.224,17.061-90,17.061   c-19.268,0-38.014-2.231-56-6.437V281.957v-40.914V15.5c0-5.523,4.477-10,10-10h126C341.523,5.5,346,9.977,346,15.5z"/>
	<path style="fill:#D43147;" d="M370.5,437.5h-229c-16.569,0-30-13.431-30-30v-292c0-16.569,13.431-30,30-30h229   c16.569,0,30,13.431,30,30v292C400.5,424.069,387.069,437.5,370.5,437.5z"/>
	<path style="fill:#EF3C54;" d="M370.5,85.5H170c-16.569,0-30,13.431-30,30v40c0,5.523,4.477,10,10,10h219.658   c5.326,0,9.977,4.019,10.321,9.335c0.377,5.824-4.235,10.665-9.978,10.665H150c-5.523,0-10,4.477-10,10v89.75   c0,20.95,4.947,40.745,13.736,58.28c6.764,13.495,20.62,21.97,35.715,21.97h120.206c5.326,0,9.977,4.019,10.321,9.335   c0.377,5.824-4.235,10.665-9.978,10.665H202.343c-4.975,0-6.91,6.493-2.732,9.195c20.349,13.162,44.601,20.805,70.639,20.805h0   c54.123,0,100.531-33.014,120.198-80H190.342c-5.326,0-9.977-4.019-10.321-9.335c-0.377-5.824,4.235-10.665,9.978-10.665h206.961   c2.309-9.708,3.539-19.835,3.539-30.25V115.5C400.5,98.931,387.069,85.5,370.5,85.5z M400,235.5H170c-5.523,0-10-4.477-10-10   s4.477-10,10-10h230V235.5z M400,135.5H170c-5.523,0-10-4.477-10-10s4.477-10,10-10h230V135.5z"/>
	<path style="fill:#B5F3FB;" d="M336.335,283.535l-0.124-0.592c-2.582-12.358,0.795-25.211,9.118-34.703L507.478,63.306   c1.939-2.211,5.47,0.04,4.284,2.731l-99.337,225.478c-5.227,11.864-15.857,20.476-28.547,23.128l0,0   C362.159,319.181,340.873,305.254,336.335,283.535z"/>
	<path style="fill:#DCFBFF;" d="M412.425,291.514c-5.227,11.864-15.857,20.476-28.547,23.128l0,0   c-5.844,1.221-11.653,1.095-17.116-0.15c-4.793-5.17-8.29-11.666-9.837-19.07l-0.124-0.592   c-2.582-12.358,0.795-25.211,9.118-34.703L511.58,66.45L412.425,291.514z"/>
	<path style="fill:#FA7786;" d="M368.05,290.31l-0.996-0.575c-5.871-3.39-7.883-10.897-4.493-16.769l13.426-23.254   c3.39-5.871,10.897-7.883,16.769-4.493l0.996,0.575c5.871,3.39,7.883,10.897,4.493,16.769l-13.426,23.254   C381.428,291.688,373.921,293.7,368.05,290.31z"/>
	<path style="fill:#A1273B;" d="M385.001,285.5H54.313v-20h342.236L385.001,285.5z"/>
</g>















</svg>
