<?xml version="1.0" encoding="iso-8859-1"?>
<!-- Generator: Adobe Illustrator 19.0.0, SVG Export Plug-In . SVG Version: 6.00 Build 0)  -->
<svg xmlns="http://www.w3.org/2000/svg" xmlns:xlink="http://www.w3.org/1999/xlink" version="1.1" id="Capa_1" x="0px" y="0px" viewBox="0 0 501 501" style="enable-background:new 0 0 501 501;" xml:space="preserve" width="512" height="512">
<g>
	<path style="fill:#30DAEC;" d="M13.453,290.729c-1.682-11.814-2.521-23.898-2.449-36.194   c0.8-135.893,110.934-244.523,246.825-243.529C392.297,11.99,501,121.301,501,256c0,11.913-0.856,23.624-2.504,35.081   c-1.983,13.791-13.896,23.976-27.829,23.976H41.331C27.264,315.057,15.436,304.656,13.453,290.729z"/>
	<path style="fill:#368A9C;" d="M498.924,287.971c-6.369,48.864-27.134,93.205-57.901,128.624   c-3.471,3.996-19.719,20.339-24.426,24.428C373.594,478.384,317.439,501,256,501c-54.733,0-105.271-17.949-146.053-48.281   c-9.818-7.302-43.643-41.231-50.664-50.674c-24.082-32.39-40.355-70.931-46.034-112.838c25.94-3.115,49.104-15.256,66.259-33.193   c3.88-4.057,10.424-4.074,14.303-0.016C113.838,276.949,142.061,290,173.333,290c31.271,0,59.494-13.05,79.521-34.001   c3.874-4.052,10.417-4.052,14.291,0C287.173,276.95,315.395,290,346.667,290c31.28,0,59.51-13.058,79.538-34.018   c3.925-4.107,10.479-3.937,14.413,0.162C456.012,272.186,476.223,283.565,498.924,287.971z"/>
	<path style="fill:#276372;" d="M82.928,410.697c1.971-2.26,5.505-2.263,7.476-0.003c20.165,23.122,49.841,37.733,82.93,37.733   c31.272,0,59.494-13.05,79.521-34c3.874-4.052,10.417-4.052,14.291,0c20.027,20.95,48.25,34,79.521,34   c33.094,0,62.773-14.616,82.939-37.743c1.968-2.257,3.884-0.973,5.852,1.284c1.511,1.732,3.094,3.397,4.709,5.031   c-44.93,52.212-109.88,84-184.167,84c-54.732,0-105.267-17.951-146.05-48.283C96.869,442.988,80.102,413.937,82.928,410.697z"/>
	<path style="fill:#FC703B;" d="M198.793,198.793L198.793,198.793c-31.479,31.479-82.516,31.479-113.995,0L3.373,117.368   c-4.497-4.497-4.497-11.788,0-16.285l97.71-97.71c4.497-4.497,11.788-4.497,16.285,0l65.713,65.713l15.712,15.712   C230.271,116.277,230.271,167.314,198.793,198.793z"/>
	<path style="fill:#F05D22;" d="M212.704,180.134c-3.625,6.698-8.25,12.998-13.911,18.659l0,0   c-31.479,31.479-82.516,31.479-113.995,0L3.373,117.368c-4.497-4.497-4.497-11.788,0-16.285L27.8,76.655l89.567,89.567   C143.186,192.041,182.154,196.666,212.704,180.134z"/>
	<path style="fill:#FCA20C;" d="M416.596,441.023L115.761,140.188c-5.858-5.858-5.858-15.355,0-21.213l3.214-3.214   c5.858-5.858,15.355-5.858,21.213,0l300.836,300.835C433.463,425.299,425.299,433.463,416.596,441.023z"/>
	<path style="fill:#FFB23C;" d="M427.196,431.258L125.932,130.016c-4.637-4.637-5.588-11.55-2.883-17.138   c5.588-2.706,12.501-1.755,17.139,2.883l300.836,300.835c-2.207,2.54-4.48,5.02-6.788,7.466   C431.789,426.371,429.736,429.051,427.196,431.258z"/>
	<path style="fill:#FFC981;" d="M379.423,280c-10.475,12.103-21.641,24.125-33.47,35.953   c-81.729,81.729-172.642,132.206-236.003,136.766c-19.261-14.324-36.346-31.408-50.669-50.669   c4.56-63.361,55.037-154.274,136.766-236.003c11.829-11.829,23.851-22.995,35.953-33.47   c93.872-81.252,192.624-120.466,244.262-96.839C499.889,87.376,460.676,186.128,379.423,280z"/>
	<path style="fill:#FFE2BD;" d="M476.262,35.738c-3.246-1.485-6.688-2.708-10.292-3.702c-28.995,9.103-61.118,24.941-94.083,46.584   c-3.339,2.192-4.148,6.647-1.993,10.01c0.029,0.046,0.059,0.092,0.087,0.138c3.446,5.507,2.937,12.785-1.296,17.714   c-5.759,6.707-15.88,6.995-22.012,0.862c-0.466-0.466-0.895-0.955-1.286-1.464c-2.378-3.092-6.877-3.563-9.961-1.173   c-1.631,1.264-3.262,2.54-4.892,3.83c-3.768,2.981-3.528,8.644,0.329,11.508c0.729,0.542,1.421,1.159,2.064,1.851   c5.233,5.638,5.286,14.575,0.113,20.268c-5.803,6.387-15.691,6.565-21.722,0.534c-1.175-1.175-2.113-2.496-2.816-3.905   c-2.113-4.24-7.701-5.265-11.213-2.086c-8.287,7.502-16.52,15.327-24.661,23.467c-68.629,68.629-115.231,143.74-131.107,203.571   c-8.133,30.651,7.566,59.717,32.518,72.619c53.468-21.63,114.924-63.423,171.914-120.413   C449.531,212.375,502.935,94.034,476.262,35.738z M364.351,174.52c-5.858,5.857-15.355,5.857-21.213,0   c-5.858-5.858-5.858-15.355,0-21.213c5.858-5.858,15.355-5.858,21.213,0C370.209,159.164,370.209,168.662,364.351,174.52z    M396.171,206.339c-5.858,5.858-15.355,5.858-21.213,0c-5.858-5.857-5.858-15.355,0-21.213s15.355-5.858,21.213,0   C402.028,190.984,402.028,200.481,396.171,206.339z M399.706,139.164c-5.858,5.858-15.355,5.858-21.213,0   c-5.858-5.858-5.858-15.355,0-21.213c5.858-5.858,15.355-5.858,21.213,0C405.564,123.809,405.564,133.306,399.706,139.164z    M431.526,170.984c-5.858,5.858-15.355,5.858-21.213,0s-5.858-15.355,0-21.213s15.355-5.858,21.213,0   S437.384,165.126,431.526,170.984z"/>
	<path style="fill:#FFBD61;" d="M229.293,301.091L123.227,407.157c-0.253,0.253-0.511,0.497-0.773,0.734   c-11.918,10.727-29.072-6.427-18.345-18.345c0.236-0.263,0.481-0.52,0.734-0.773l106.066-106.066   c0.253-0.253,0.511-0.497,0.773-0.734c11.918-10.727,29.072,6.427,18.345,18.345C229.791,300.581,229.546,300.839,229.293,301.091z   "/>
</g>















</svg>
