<?xml version="1.0" encoding="iso-8859-1"?>
<!-- Generator: Adobe Illustrator 19.0.0, SVG Export Plug-In . SVG Version: 6.00 Build 0)  -->
<svg xmlns="http://www.w3.org/2000/svg" xmlns:xlink="http://www.w3.org/1999/xlink" version="1.1" id="Capa_1" x="0px" y="0px" viewBox="0 0 501 501" style="enable-background:new 0 0 501 501;" xml:space="preserve" width="512" height="512">
<g>
	<path style="fill:#24BD87;" d="M477.015,317H23.66c-6.232,0-11.655-4.343-12.935-10.442C7.302,290.243,5.5,273.332,5.5,256   c0-135.088,109.33-244.64,244.333-244.999C384.963,10.641,495.5,120.871,495.5,256c0,17.21-1.776,34.004-5.153,50.211   C489.035,312.509,483.448,317,477.015,317z"/>
	<path style="fill:#018655;" d="M34.374,263.114c-3.827-8.363-5.961-17.663-5.961-27.462c0-16.882,6.33-32.285,16.746-43.966   c6.413-7.192,8.887-17.121,6.078-26.338c-1.27-4.167-1.954-8.59-1.954-13.174c0-25.21,20.631-45.601,45.93-45.212   c23.996,0.369,43.725,19.766,44.482,43.753c0.161,5.121-0.531,10.056-1.945,14.677c-2.814,9.198-0.31,19.115,6.092,26.294   c10.416,11.681,16.746,27.084,16.746,43.966c0,9.8-2.134,19.1-5.962,27.464c-4.248,9.282-2.804,20.16,3.406,28.262   c4.337,5.657,7.923,11.917,10.638,18.622H20.326c2.703-6.675,6.273-12.907,10.584-18.544   C37.132,283.318,38.637,272.429,34.374,263.114z"/>
	<path style="fill:#018655;" d="M475.258,330H353.725c3.748-7.4,4.168-16.156,0.65-23.842c-3.827-8.363-5.961-17.663-5.961-27.462   c0-16.882,6.33-32.285,16.746-43.966c6.413-7.192,8.887-17.121,6.078-26.339c-1.27-4.167-1.954-8.59-1.954-13.174   c0-25.21,20.631-45.601,45.93-45.212c23.997,0.37,43.725,19.766,44.482,43.753c0.162,5.121-0.531,10.056-1.945,14.677   c-2.814,9.198-0.31,19.115,6.092,26.294c10.416,11.681,16.746,27.084,16.746,43.966c0,9.8-2.134,19.1-5.962,27.464   C471.109,313.841,471.502,322.611,475.258,330z"/>
	<path style="fill:#029A64;" d="M231.345,220H109.812c3.748-7.4,4.168-16.156,0.65-23.842c-3.827-8.363-5.961-17.663-5.961-27.462   c0-16.882,6.33-32.285,16.746-43.966c6.413-7.192,8.887-17.121,6.078-26.339c-1.27-4.167-1.954-8.59-1.954-13.174   c0-25.21,20.631-45.601,45.93-45.212c23.997,0.37,43.725,19.766,44.482,43.753c0.162,5.121-0.531,10.056-1.945,14.677   c-2.814,9.198-0.31,19.115,6.092,26.294c10.416,11.681,16.746,27.084,16.746,43.966c0,9.8-2.134,19.1-5.962,27.464   C227.196,203.841,227.589,212.611,231.345,220z"/>
	<path style="fill:#FC703B;" d="M419.988,76.513c1.448,2.489-0.347,5.61-3.227,5.61H250.5V0h166.261c2.879,0,4.674,3.122,3.227,5.61   L403.73,33.553c-2.701,4.642-2.701,10.376,0,15.018L419.988,76.513z"/>
	<path style="fill:#D14F1B;" d="M260.5,10v90c0,5.523-4.477,10-10,10h0c-5.523,0-10-4.477-10-10V10c0-5.523,4.477-10,10-10h0   C256.023,0,260.5,4.477,260.5,10z"/>
	<path style="fill:#FFB23C;" d="M403.737,447.173c-41.961,33.678-264.268,33.771-306.184,0.232   c-43.799-35.046-75.308-84.813-87.026-141.803c63.081-77.247,135.809-146.09,216.415-204.831l0,0   c14.039-10.231,33.077-10.231,47.116,0l0,0c80.606,58.741,153.333,127.583,216.415,204.831   C478.781,362.466,447.386,412.14,403.737,447.173z"/>
	<path style="fill:#FCA20C;" d="M97.559,447.396c-43.802-35.042-75.314-84.804-87.032-141.794   c63.081-77.247,135.809-146.09,216.415-204.831l0,0c12.957-12.957,34.159-12.957,47.116,0l0,0c4.208,3.067,8.39,6.168,12.555,9.289   c-8.955-0.467-18.034,2.066-25.645,7.612l0,0c-72.797,53.05-139.169,114.34-197.813,182.62   c-12.569,14.635-16.45,34.813-10.119,53.036c11.233,32.333,29.05,61.585,51.844,86.154   C109.434,444.39,102.785,451.577,97.559,447.396z"/>
	<path style="fill:#FC703B;" d="M97.273,447.161C108.603,340.159,172.89,230,250.5,230s141.897,110.159,153.227,217.161   C361.766,480.839,308.491,501,250.5,501S139.234,480.839,97.273,447.161z"/>
	<path style="fill:#7D4B41;" d="M316.868,491.887C295.76,497.817,273.504,501,250.5,501c-22.959,0-45.174-3.171-66.245-9.079   c15.603-6.086,29.919-15.377,42.109-27.567c10.109-10.109,18.236-21.676,24.188-34.228   C263.938,458.237,287.711,480.475,316.868,491.887z"/>
	<path style="fill:#D14F1B;" d="M349.023,480.359c-12.327,5.423-25.184,9.858-38.475,13.209   c-26.445-9.161-48.084-28.704-60.005-53.738c-5.042,10.633-11.926,20.431-20.489,28.994   c-11.317,11.317-24.793,19.696-39.501,24.769c-13.327-3.354-26.219-7.798-38.577-13.235c1.36-0.692,2.894-1.09,4.523-1.09   c22.458,0,43.558-8.731,59.413-24.586c15.855-15.855,24.587-36.955,24.587-59.413V230.624c3.307-0.404,6.64-0.624,10-0.624   s6.693,0.22,10,0.624V395.27c0,46.317,37.683,84,84,84C346.13,479.27,347.664,479.668,349.023,480.359z"/>
	<path style="fill:#FFC981;" d="M250.5,440L250.5,440c-7.18,0-13-5.82-13-13v-34c0-7.18,5.82-13,13-13h0c7.18,0,13,5.82,13,13v34   C263.5,434.18,257.68,440,250.5,440z"/>
	<path style="fill:#E48F00;" d="M258.375,394c0,4.349-3.526,7.875-7.875,7.875s-7.875-3.526-7.875-7.875s3.526-7.875,7.875-7.875   S258.375,389.651,258.375,394z"/>
</g>















</svg>
