<?xml version="1.0" encoding="iso-8859-1"?>
<!-- Generator: Adobe Illustrator 19.0.0, SVG Export Plug-In . SVG Version: 6.00 Build 0)  -->
<svg xmlns="http://www.w3.org/2000/svg" xmlns:xlink="http://www.w3.org/1999/xlink" version="1.1" id="Capa_1" x="0px" y="0px" viewBox="0 0 501 501" style="enable-background:new 0 0 501 501;" xml:space="preserve" width="512" height="512">
<g>
	<path style="fill:#8AE8F5;" d="M490,256c0,135.31-109.69,245-245,245c-19.318,0-38.114-2.236-56.143-6.463   C131.246,481.03,0.618,235.832,1.818,226C16.611,104.842,119.846,11,245,11C380.31,11,490,120.69,490,256z"/>
	<path style="fill:#276372;" d="M308.137,292.533c0,86.989-48.167,162.711-119.277,201.996C80.608,469.148,0,371.991,0,256   c0-11.229,0.772-22.278,2.235-33.106c59.49-139.503,299.873-118.851,305.777,61.976   C308.095,287.414,308.137,289.968,308.137,292.533z"/>
	<path style="fill:#2F7589;" d="M308.137,292.533c0,39.469-9.924,76.615-27.398,109.095c-0.267,0.294-0.535,0.588-0.804,0.881   c-53.038,57.784-144.455,57.946-197.571,0.233c-37.801-41.073-60.885-95.9-60.885-156.123c0-2.564,0.042-5.119,0.125-7.663   c0.795-24.349,5.85-45.787,14.134-64.328c87.366-82.591,267.178-45.847,272.274,110.242   C308.095,287.414,308.137,289.968,308.137,292.533z"/>
	<path style="fill:#1A4F5B;" d="M201.287,353.885L201.287,353.885c0-25.996-21.074-47.07-47.07-47.07H142.92   c-25.996,0-47.07,21.074-47.07,47.07l0,0c0,10.399,8.43,18.828,18.828,18.828h67.781   C192.857,372.713,201.287,364.284,201.287,353.885z M107.774,267.446l-37.513,3.282c-10.359,0.906-19.491-6.756-20.397-17.116l0,0   c-0.906-10.359,6.757-19.491,17.115-20.397l37.513-3.282c10.359-0.906,19.491,6.756,20.397,17.115l0,0   C125.796,257.408,118.133,266.54,107.774,267.446z M230.157,233.215l-37.513-3.282c-10.359-0.906-19.491,6.756-20.397,17.115l0,0   c-0.906,10.359,6.757,19.491,17.115,20.397l37.513,3.282c10.359,0.906,19.491-6.756,20.397-17.116l0,0   C248.179,243.253,240.516,234.121,230.157,233.215z"/>
	<path style="fill:#84B8C8;" d="M39.688,308.959L39.688,308.959c-5.26-5.26-5.604-13.676-0.791-19.348l7.845-9.245   c1.598-1.883,4.502-1.883,6.1,0l7.845,9.245c4.813,5.672,4.469,14.088-0.791,19.348h0   C54.315,314.539,45.268,314.539,39.688,308.959z"/>
	<path style="fill:#8AE8F5;" d="M247.273,253.612c-0.903,10.323-9.976,17.963-20.29,17.12l-21.467-1.878   c-10.359-0.906-18.022-10.038-17.116-20.397c0.903-10.323,9.976-17.963,20.291-17.119l21.466,1.878   C240.516,234.121,248.179,243.253,247.273,253.612z M156.688,306.88c-24.847,1.285-44.599,21.838-44.599,47.005   c0,10.398,8.43,18.828,18.828,18.828h51.542c10.398,0,18.828-8.43,18.828-18.828C201.287,328.718,181.535,308.165,156.688,306.88z    M124.89,247.048c-0.906-10.359-10.039-18.022-20.397-17.115l-21.461,1.878c-10.306,0.958-17.917,10.059-17.014,20.383   c0.906,10.359,10.038,18.022,20.397,17.116l21.462-1.878C118.183,266.473,125.793,257.373,124.89,247.048z"/>
	<path style="fill:#F05D22;" d="M501,160.778c0,102.578-66.971,189.499-159.568,219.467   c-92.598-29.968-159.568-116.889-159.568-219.467c0-2.564,0.042-5.119,0.125-7.663c6.665-204.153,312.221-204.153,318.887,0   C500.958,155.659,501,158.214,501,160.778z"/>
	<path style="fill:#FC703B;" d="M501,160.778c0,39.469-9.924,76.615-27.398,109.095c-0.267,0.294-0.535,0.588-0.804,0.881   c-53.038,57.784-144.455,57.946-197.571,0.233c-37.801-41.073-60.885-95.9-60.885-156.123c0-2.565,0.042-5.119,0.125-7.663   c0.795-24.349,5.85-45.787,14.134-64.328c87.366-82.591,267.178-45.847,272.274,110.242C500.958,155.659,501,158.214,501,160.778z"/>
	<path style="fill:#D14F1B;" d="M299.068,137.404h-37.656c-10.398,0-18.828-8.429-18.828-18.828s8.43-18.828,18.828-18.828h37.656   c10.398,0,18.828,8.429,18.828,18.828S309.467,137.404,299.068,137.404z M375.322,175.06h-67.781   c-10.398,0-18.828,8.429-18.828,18.828c0,25.996,21.074,47.07,47.07,47.07h11.297c25.996,0,47.07-21.074,47.07-47.07   C394.15,183.49,385.721,175.06,375.322,175.06z M421.451,99.748h-37.656c-10.398,0-18.828,8.429-18.828,18.828   s8.43,18.828,18.828,18.828h37.656c10.398,0,18.828-8.429,18.828-18.828S431.85,99.748,421.451,99.748z"/>
	<path style="fill:#8AE8F5;" d="M394.15,193.888c0,25.167-19.752,45.72-44.599,47.005c-24.847-1.285-44.599-21.838-44.599-47.005   c0-10.399,8.43-18.828,18.828-18.828h51.542C385.721,175.06,394.15,183.49,394.15,193.888z M421.451,99.748h-21.417   c-10.398,0-18.828,8.429-18.828,18.828s8.43,18.828,18.828,18.828h21.417c10.398,0,18.828-8.429,18.828-18.828   S431.85,99.748,421.451,99.748z M317.896,118.576c0-10.399-8.43-18.828-18.828-18.828h-21.417   c-10.398,0-18.828,8.429-18.828,18.828s8.43,18.828,18.828,18.828h21.417C309.467,137.404,317.896,128.974,317.896,118.576z"/>
</g>















</svg>
