<?xml version="1.0" encoding="iso-8859-1"?>
<!-- Generator: Adobe Illustrator 19.0.0, SVG Export Plug-In . SVG Version: 6.00 Build 0)  -->
<svg xmlns="http://www.w3.org/2000/svg" xmlns:xlink="http://www.w3.org/1999/xlink" version="1.1" id="Capa_1" x="0px" y="0px" viewBox="0 0 501 501" style="enable-background:new 0 0 501 501;" xml:space="preserve" width="512" height="512">
<g>
	<path style="fill:#FFBD61;" d="M0,256C0,120.827,109.469,11.222,244.59,11C379.637,10.779,490,120.953,490,256   c0,73.859-32.685,140.081-84.377,185c-43.008-37.373-99.172-60-160.623-60c-59.464,0-113.977,21.187-156.41,56.421   c-2.477,2.056-6.091,1.958-8.471-0.209C30.897,392.401,0,327.81,0,256z"/>
	<path style="fill:#2F7589;" d="M170,20h30v170h-30V20z M290,20v170h30V20H290z"/>
	<path style="fill:#276372;" d="M335,200H155c-13.807,0-25-11.193-25-25v0c0-13.807,11.193-25,25-25h180c13.807,0,25,11.193,25,25v0   C360,188.807,348.807,200,335,200z"/>
	<path style="fill:#1A4F5B;" d="M319,50H171c-8.284,0-15-6.716-15-15V15c0-8.284,6.716-15,15-15h148c8.284,0,15,6.716,15,15v20   C334,43.284,327.284,50,319,50z"/>
	<path style="fill:#276372;" d="M319,30H204c-8.284,0-15-6.716-15-15v0c0-8.284,6.716-15,15-15l115,0c8.284,0,15,6.716,15,15v0   C334,23.284,327.284,30,319,30z"/>
	<path style="fill:#C44775;" d="M411,436.174C367.348,476.412,309.049,501,245,501s-122.348-24.588-166-64.826V210   c0-22.091,17.909-40,40-40h252c22.091,0,40,17.909,40,40V436.174z"/>
	<path style="fill:#D95785;" d="M371,170H161c-22.091,0-40,17.909-40,40v251c0,2.271,0.199,4.494,0.563,6.661   C157.812,488.847,199.984,501,245,501c64.049,0,122.348-24.588,166-64.826V210C411,187.909,393.091,170,371,170z M199,450   c0,11.046-8.954,20-20,20h-10c-11.046,0-20-8.954-20-20V219c0-11.046,8.954-20,20-20h10c11.046,0,20,8.954,20,20V450z M289,450   c0,11.046-8.954,20-20,20h-10c-11.046,0-20-8.954-20-20V219c0-11.046,8.954-20,20-20h10c11.046,0,20,8.954,20,20V450z M379,450   c0,11.046-8.954,20-20,20h-10c-11.046,0-20-8.954-20-20V219c0-11.046,8.954-20,20-20h10c11.046,0,20,8.954,20,20V450z"/>
	<path style="fill:#FC703B;" d="M501,341v140c0,11.046-8.954,20-20,20h-62c-11.046,0-20-8.954-20-20V341c0-11.046,8.954-20,20-20h62   C492.046,321,501,329.954,501,341z"/>
	<path style="fill:#D14F1B;" d="M489,346v10c0,2.761-2.239,5-5,5h-50c-2.761,0-5-2.239-5-5v-10c0-2.761,2.239-5,5-5h50   C486.761,341,489,343.239,489,346z M484,371h-50c-2.761,0-5,2.239-5,5s2.239,5,5,5h50c2.761,0,5-2.239,5-5S486.761,371,484,371z    M484,391h-50c-2.761,0-5,2.239-5,5v10c0,2.761,2.239,5,5,5h50c2.761,0,5-2.239,5-5v-10C489,393.239,486.761,391,484,391z M484,461   h-50c-2.761,0-5,2.239-5,5v10c0,2.761,2.239,5,5,5h50c2.761,0,5-2.239,5-5v-10C489,463.239,486.761,461,484,461z M484,421h-50   c-2.761,0-5,2.239-5,5s2.239,5,5,5h50c2.761,0,5-2.239,5-5S486.761,421,484,421z M484,441h-50c-2.761,0-5,2.239-5,5s2.239,5,5,5h50   c2.761,0,5-2.239,5-5S486.761,441,484,441z"/>
	<path style="fill:#B5F3FB;" d="M419,501H211c-11.046,0-20-8.954-20-20V341c0-11.046,8.954-20,20-20h208V501z"/>
	<path style="fill:#DCFBFF;" d="M419,501H239c-11.046,0-20-8.954-20-20V341c0-11.046,8.954-20,20-20h180V501z"/>
	<path style="fill:#9DC6D4;" d="M209,366v-10c0-2.761,2.239-5,5-5h60c2.761,0,5,2.239,5,5v10c0,2.761-2.239,5-5,5h-60   C211.239,371,209,368.761,209,366z M394,351h-40c-2.761,0-5,2.239-5,5v10c0,2.761,2.239,5,5,5h40c2.761,0,5-2.239,5-5v-10   C399,353.239,396.761,351,394,351z M324,451H214c-2.761,0-5,2.239-5,5v10c0,2.761,2.239,5,5,5h110c2.761,0,5-2.239,5-5v-10   C329,453.239,326.761,451,324,451z M394,411H214c-2.761,0-5,2.239-5,5v10c0,2.761,2.239,5,5,5h180c2.761,0,5-2.239,5-5v-10   C399,413.239,396.761,411,394,411z"/>
</g>















</svg>
