<?xml version="1.0" encoding="iso-8859-1"?>
<!-- Generator: Adobe Illustrator 19.0.0, SVG Export Plug-In . SVG Version: 6.00 Build 0)  -->
<svg xmlns="http://www.w3.org/2000/svg" xmlns:xlink="http://www.w3.org/1999/xlink" version="1.1" id="Capa_1" x="0px" y="0px" viewBox="0 0 512 512" style="enable-background:new 0 0 512 512;" xml:space="preserve" width="512" height="512">
<g>
	<path style="fill:#276372;" d="M11,256C11,120.691,120.69,11,255.999,11c135.221,0,245.34,110.408,245,245.629   c-0.273,108.617-71.233,200.608-169.305,232.438c-2.829,0.918-5.866,1.025-8.727,0.214C301.681,483.243,279.221,480,256,480   c-23.22,0-45.679,3.243-66.965,9.28c-2.851,0.809-5.879,0.711-8.698-0.203C82.06,457.196,11,364.903,11,256z"/>
	<path style="fill:#6AA8BB;" d="M497,395H15c-8.284,0-15-6.716-15-15V78c0-8.284,6.716-15,15-15h482c8.284,0,15,6.716,15,15v302   C512,388.284,505.284,395,497,395z"/>
	<path style="fill:#9DC6D4;" d="M497,395H45c-8.284,0-15-6.716-15-15V78c0-8.284,6.716-15,15-15h452c8.284,0,15,6.716,15,15v302   C512,388.284,505.284,395,497,395z"/>
	<path style="fill:#8AE8F5;" d="M332,405v83.964C308.072,496.766,282.532,501,256,501s-52.072-4.234-76-12.036V405   c0-8.284,6.716-15,15-15h122C325.284,390,332,396.716,332,405z"/>
	<path style="fill:#D95785;" d="M477,368H35c-2.761,0-5-2.239-5-5V95c0-2.761,2.239-5,5-5h442c2.761,0,5,2.239,5,5v268   C482,365.761,479.761,368,477,368z"/>
	<path style="fill:#C44775;" d="M341,195c0,46.944-38.056,85-85,85s-85-38.056-85-85s38.056-85,85-85S341,148.056,341,195z M461,320   L461,320c0-5.523-4.477-10-10-10H61c-5.523,0-10,4.477-10,10l0,0c0,5.523,4.477,10,10,10h390C456.523,330,461,325.523,461,320z    M71,120L71,120c0-5.523-4.477-10-10-10h0c-5.523,0-10,4.477-10,10v0c0,5.523,4.477,10,10,10h0C66.523,130,71,125.523,71,120z    M100,120L100,120c0-5.523-4.477-10-10-10h0c-5.523,0-10,4.477-10,10v0c0,5.523,4.477,10,10,10h0C95.523,130,100,125.523,100,120z    M460,120L460,120c0-5.523-4.477-10-10-10l0,0c-5.523,0-10,4.477-10,10v0c0,5.523,4.477,10,10,10l0,0   C455.523,130,460,125.523,460,120z"/>
	<path style="fill:#FFE2BD;" d="M220.589,231.641v-73.282c0-3.775,4.016-6.195,7.354-4.431l69.318,36.641   c3.56,1.882,3.56,6.98,0,8.862l-69.318,36.641C224.605,237.836,220.589,235.417,220.589,231.641z M130,320L130,320   c0-5.523-4.477-10-10-10H61c-5.523,0-10,4.477-10,10l0,0c0,5.523,4.477,10,10,10h59C125.523,330,130,325.523,130,320z"/>
	<path style="fill:#B5F3FB;" d="M497,430H15c-8.284,0-15-6.716-15-15v-60h512v60C512,423.284,505.284,430,497,430z"/>
	<path style="fill:#DCFBFF;" d="M497,430H45c-8.284,0-15-6.716-15-15v-60h482v60C512,423.284,505.284,430,497,430z"/>
	<path style="fill:#B5F3FB;" d="M332,488.946C308.072,496.754,282.535,501,256,501c-16.429,0-32.477-1.63-48-4.714V465   c0-8.284,6.716-15,15-15h109V488.946z"/>
	<path style="fill:#8AE8F5;" d="M210,390c0,5.523-4.477,10-10,10s-10-4.477-10-10c0-5.523,4.477-10,10-10S210,384.477,210,390z    M310,380c-5.523,0-10,4.477-10,10c0,5.523,4.477,10,10,10s10-4.477,10-10C320,384.477,315.523,380,310,380z M256,370   c-11.046,0-20,8.954-20,20c0,11.046,8.954,20,20,20s20-8.954,20-20C276,378.954,267.046,370,256,370z"/>
	<path style="fill:#6AA8BB;" d="M266,390c0,5.523-4.477,10-10,10c-5.523,0-10-4.477-10-10s4.477-10,10-10   C261.523,380,266,384.477,266,390z"/>
</g>















</svg>
